<?xml version="1.0" encoding="utf-8"?>
<!-- Generator: Adobe Illustrator 24.3.0, SVG Export Plug-In . SVG Version: 6.00 Build 0)  -->
<svg version="1.1" id="Layer_1" xmlns="http://www.w3.org/2000/svg" xmlns:xlink="http://www.w3.org/1999/xlink" x="0px" y="0px"
	 viewBox="0 0 500 500" style="enable-background:new 0 0 500 500;" xml:space="preserve">
<path style="opacity:0.75;fill:#E9D758;enable-background:new    ;" d="M250,484.1l-235-135.7l234.9-135.7L485,348.4L250,484.1z"/>
<path style="fill:none;stroke:#F58555;stroke-width:10;stroke-miterlimit:10;" d="M243.5,439.9L43.3,327.2
	c-10.8-6.1-14.7-19.8-8.6-30.6c2-3.5,4.8-6.4,8.3-8.4l200.4-115.9c7.2-4,15.8-4,22.9,0.2l190.7,114.2c10.6,6.4,14.1,20.2,7.7,31
	c-1.8,3.1-4.6,5.9-7.7,7.7L266.1,439.6C259.1,443.8,250.5,443.8,243.5,439.9z"/>

<g id="pylon">
	<path style="fill:#EF8A5D;" d="M278.7,460.6L253,475.3c-0.9,0.5-2,0.5-2.9,0l-25.6-14.7c-1.3-0.8-1.9-2.6-1-3.9
		c0.2-0.4,0.6-0.8,1-1l25.7-14.8c0.9-0.5,2-0.5,2.9,0l25.7,14.8c1.3,0.8,1.9,2.6,1,3.9C279.5,460,279.2,460.4,278.7,460.6z"/>
	<path style="fill:#EF8A5D;" d="M230.4,454.6H223v3.4h7.4V454.6z"/>
	<path style="fill:#EF8A5D;" d="M280.1,454.6h-7.4v3.4h7.4V454.6z"/>
	<path style="fill:#E9D758;" d="M278.7,457.6L253,472.3c-0.9,0.5-2,0.5-2.9,0l-25.7-14.7c-1.3-0.8-1.9-2.6-1-3.9
		c0.2-0.4,0.6-0.8,1-1l25.7-14.8c0.9-0.5,2-0.5,2.9,0l25.7,14.8c1.3,0.8,1.9,2.6,1,3.9C279.5,457,279.2,457.3,278.7,457.6z"/>
	<path style="fill:#EF8A5D;" d="M271.2,452.8c-3.9,7-11.3,11.5-19.4,11.6c-12.3,0.1-18.9-10.3-19.2-10.8c0,0,3.1-8,5.4-14.3
		c4.4-12.1,7.3-23.7,7.3-23.7s1.1-1.7,2.2-2.5c1.9-1.6,4.2-1.6,4.6-1.6c0.5,0,2.6,0,4.2,1.3c1,0.8,2.2,2.5,2.2,2.5
		s2.6,11.7,7.3,23.9C267.9,445.2,271.2,452.8,271.2,452.8z"/>
	<path style="fill:#E9D758;" d="M268.7,446.8c-0.5,0.7-6.5,8.6-17,8.4c-10.1-0.2-15.6-7.9-16.3-8.7l2.6-7.1
		c0.6,0.7,5.5,6.7,13.9,6.6c8.3,0,13.2-5.9,13.8-6.6C266.7,441.8,267.7,444.3,268.7,446.8z"/>
	<path style="fill:#E9D758;" d="M263.5,433.4c-7,5.1-16.5,5-23.4-0.2c0.8-2.8,1.7-5.5,2.6-8.3c5.4,4.1,13,4,18.1-0.2
		C261.8,427.6,262.7,430.5,263.5,433.4z"/>
	<path style="fill:#E9D758;" d="M251.8,419.5c3.7,0,6.6-1.8,6.6-3.9s-3-3.9-6.6-3.9c-3.7,0-6.6,1.8-6.6,3.9S248.2,419.5,251.8,419.5
		z"/>
</g>

<g>
	<g id="ELEMENTS">
		<path style="fill:#FFFFFF;" d="M249.7,283.6l-38.4,22.2l38.4,22.2l38.4-22.2L249.7,283.6z"/>
		<path style="fill:#173431;" d="M249.7,328l-40.2-21.8c0-31.1,0-62.2,0-93.1l39.6-23.5L249.7,328z"/>
		<path style="fill:#3E7172;" d="M289.7,306l-40,22l-0.5-138.5l40.7-23.5L289.7,306z"/>
		<path style="fill:#EF8A5D;" d="M195.6,266.7L330.5,188V95.8l-134.5,77.1L195.6,266.7z"/>
		<path style="fill:#EF8A5D;" d="M33.9,266.4L115,220l80.5,46.7L115,313.3c-37.5,13.5-71.1,3.8-80.9-16.2
			C32.5,293.8,28.1,283.5,33.9,266.4z"/>
		<path style="fill:#D77B56;" d="M40.8,265.6l74-42.4l73.6,42.7l-73.8,42.5c-34.2,12.4-65.1,3.5-74-14.7
			C39.4,290.7,35.4,281.3,40.8,265.6z"/>
		<path style="fill:#EF8A5D;" d="M195.6,266.7L115,220c0-31.1,0-62.4,0-93.5c4.4-7.3,14.5-21.8,28.7-23.1
			c20.7-1.8,47.1,24.9,52.4,69.5L195.6,266.7z"/>
		<path style="fill:#D77B56;" d="M189.7,259.6l-72.2-41.8c0-27.8,0-55.8,0-83.6c3.8-6.5,12.9-19.6,25.6-20.7
			c18.5-1.6,42.2,22.2,46.7,62.2L189.7,259.6z"/>
		<path style="fill:#E6D56D;" d="M137.6,104.7C154.7,94.2,174.5,82,197,68.9c26.5-15.5,44.7-25.5,70-34c3.8-1.3,7.1-2.4,9.3-2.9
			c8.4,0.5,16.4,2.9,23.6,7.1c28.4,16.2,30.4,52.7,30.5,56.4l-134.5,77.1c-0.7-6.9-2.2-13.8-4.2-20.5c-2.4-7.5-5.3-17.1-12.7-27.1
			c-3.5-4.5-17.5-23.1-35.3-21.6C141.6,103.6,139.6,104,137.6,104.7z"/>
		<path style="fill:#E2DFDB;" d="M163,225.5c-32.2,18.7-64.4,37.3-96.5,56l0.4-82.5l96.2-57.1C163,169.8,163,197.6,163,225.5z"/>
		<path style="fill:#B3B4B4;" d="M163,225.5c-32.2,18.7-64.4,37.3-96.5,56l47.5-84.4L163,225.5z"/>
		<path style="fill:#F2F2F3;" d="M115.7,225.1L115.7,225.1l-49.1-26.2l96.2-57.1L115.7,225.1z"/>
	</g>
</g>
</svg>
