<?xml version="1.0" encoding="utf-8"?>
<!-- Generator: Adobe Illustrator 25.0.0, SVG Export Plug-In . SVG Version: 6.00 Build 0)  -->
<svg version="1.1" id="Layer_1" xmlns="http://www.w3.org/2000/svg" xmlns:xlink="http://www.w3.org/1999/xlink" x="0px" y="0px"
	 viewBox="0 0 500 500" style="enable-background:new 0 0 500 500;" xml:space="preserve">
<path style="opacity:0.75;fill:#E9D758;enable-background:new    ;" d="M250,484.1L15,348.4l234.9-135.7L485,348.4L250,484.1z"/>
<path style="fill:none;stroke:#F58555;stroke-width:10;stroke-miterlimit:10;" d="M243.5,439.9L43.3,327.2
	c-10.8-6.1-14.7-19.8-8.6-30.6c2-3.5,4.8-6.4,8.3-8.4l200.4-115.9c7.2-4,15.8-4,22.9,0.2L457,286.7c10.6,6.4,14.1,20.2,7.7,31
	c-1.8,3.1-4.6,5.9-7.7,7.7L266.1,439.6C259.1,443.8,250.5,443.8,243.5,439.9z"/>
<g>
	<g id="ELEMENTS">
		
			<image style="overflow:visible;opacity:0.15;enable-background:new    ;" width="586" height="349" xlink:href="D3A9B21C.png"  transform="matrix(0.2586 0 0 0.2586 209.1473 266.49)">
		</image>
		<path style="fill:#FFFFFF;" d="M308,331.9l48.3-27.8l-96.5-55.7l-48.2,27.8L308,331.9z"/>
		<path style="fill:#393939;" d="M211.5,276.2l63.2,36.5l33.3,19.2l14.3-8.3l33.9-19.6v6.1l-21,12.1L308,338
			c-21.2-12.3-42.5-24.5-63.8-36.8l-32.7-18.9L211.5,276.2z"/>
		<path style="fill:#E2DFDB;" d="M259.7,248.3l68.2,39.4l28.3,16.3l-25,14.4L308,331.9l-48.4-27.9l-48.1-27.8l25.1-14.5L259.7,248.3
			z"/>
		<path style="fill:#173431;" d="M308,316.7l17-10.6l12-7.5V134.1l-14.6-6l-14.4-5.9V316.7z"/>
		<path style="fill:#3E7172;" d="M308,316.7l-38-21.7l-29.6-16.9v-196l41.5,24.6l26.2,15.5L308,316.7L308,316.7z"/>
		<path style="fill:#3E7172;" d="M371.9,309.1l29.9-17.2c0-31,0-62-0.1-92.9v-71.4l-29.8,17.1L371.9,309.1L371.9,309.1z"/>
		<path style="fill:#3E7172;" d="M371.9,144.8l18-10.4l11.8-6.8L259.2,46.3L211.3,19l-13.7,8l-15,8.7l161.1,92.9L371.9,144.8z"/>
		<path style="fill:#EF8A5D;" d="M182.6,199.6l71,41.1l118.4,68.4V144.7l-97.6-56.2l-91.8-52.8V199.6z"/>
		<path style="fill:#393939;" d="M189.5,198.1l76.5,44.2l95.5,55.2c0-27.4,0-54.7,0.1-82.1c0-22.8,0-45.7,0.1-68.5l-81.4-46.1
			l-91-51.5l0.2,83.5L189.5,198.1z"/>
		<path style="fill:#3E7172;" d="M376.3,300.3l21-12.1v-48.8l-21,12.3V300.3z"/>
		<path style="fill:#173431;" d="M378.1,258.6l17.4-10.1v-2.7L378.1,256V258.6z"/>
		<path style="fill:#173431;" d="M378.1,266l17.4-10.1v-2.7l-17.4,10.2V266z"/>
		<path style="fill:#173431;" d="M378.1,273.2l17.4-10.1v-2.7l-17.4,10.2V273.2z"/>
		<path style="fill:#173431;" d="M378.1,280.6l17.4-10.1v-2.7l-17.4,10.2V280.6z"/>
		<path style="fill:#E6D56D;" d="M378.2,296.2l17.4-10.1v-2.7l-17.4,10.1V296.2z"/>
		<path style="opacity:0.5;fill:#E2DFDB;enable-background:new    ;" d="M200.1,194.1l146.2,84.3l0.2-126.8l-146.6-84
			C199.9,109.7,200,151.9,200.1,194.1z"/>
		<path style="fill:#E6D56D;" d="M219.6,205.2L198.1,193V66.4l21.4,12.1v52.2L219.6,205.2z"/>
		<path style="fill:#EF8A5D;" d="M241,217.6l-21.5-12.4V78.5L241,90.7c0,13.8,0,27.5,0,41.3C241,160.5,241,189,241,217.6z"/>
		<path style="fill:#E2DFDB;" d="M262.5,230L241,217.6V90.9l21.4,12.2c0,13.4,0,26.9,0,40.3L262.5,230z"/>
		<path style="fill:#297373;" d="M283.9,242.4L262.4,230V103.4l21.4,12.1c0,14.1,0,28.2,0,42.3C283.8,186,283.9,214.2,283.9,242.4z"
			/>
		<path style="fill:#E6D56D;" d="M305.3,254.6l-21.4-12.1V115.8l21.4,12.1c0,28.3,0,56.6,0,85L305.3,254.6z"/>
		<path style="fill:#EF8A5D;" d="M326.8,267l-21.5-12.4V128l21.4,12.1v61.4L326.8,267z"/>
		<path style="fill:#E2DFDB;" d="M348.2,279.6l-21.5-12.4V140.6l21.4,12.1c0,9.6,0,19.2,0,28.9C348.2,214.2,348.2,246.9,348.2,279.6
			z"/>
		
			<image style="overflow:visible;opacity:0.15;enable-background:new    ;" width="844" height="498" xlink:href="D3A9B21D.png"  transform="matrix(0.2586 0 0 0.2586 100.865 301.6071)">
		</image>
		<path style="fill:#FFFFFF;" d="M244.1,405.5l70.5-40.7l-141.1-81.4l-70.5,40.7L244.1,405.5z"/>
		<path style="fill:#3E7172;" d="M103.1,324.1l92.3,53.3l48.7,28.1l20.9-12.1l49.6-28.6v8.9l-30.6,17.7l-39.9,22.9l-93.2-53.8
			L103.1,333C103.1,330,103.1,327,103.1,324.1z"/>
		<path style="fill:#EF8A5D;" d="M173.5,283.4l99.7,57.5l41.4,23.9l-36.6,21.1l-33.9,19.6l-70.7-40.8l-70.3-40.6l36.6-21.2
			L173.5,283.4z"/>
		<path style="fill:#E6D56D;" d="M176,303.7l-12.6-7.3l10.6-6.2l12.6,7.3L176,303.7z"/>
		<path style="fill:#E6D56D;" d="M190.4,311.8l-12.6-7.3l10.7-6.2l12.6,7.3L190.4,311.8z"/>
		<path style="fill:#E6D56D;" d="M163.7,310.8l-12.6-7.3l10.6-6.2l12.6,7.3L163.7,310.8z"/>
		<path style="fill:#E6D56D;" d="M178,318.8l-12.6-7.3l10.7-6.2l12.6,7.3L178,318.8z"/>
		<path style="fill:#E6D56D;" d="M151.2,317.4l-12.6-7.3l10.7-6.2l12.6,7.3L151.2,317.4z"/>
		<path style="fill:#E6D56D;" d="M165.6,325.5l-12.6-7.2l10.6-6.2l12.6,7.2L165.6,325.5z"/>
		<path style="fill:#E6D56D;" d="M139.3,324.4l-12.6-7.3l10.7-6.2l12.6,7.3L139.3,324.4z"/>
		<path style="fill:#E6D56D;" d="M153.6,332.5l-12.6-7.3l10.6-6.2l12.6,7.3L153.6,332.5z"/>
		<path style="fill:#E6D56D;" d="M126.8,331.1l-12.6-7.3l10.6-6.2l12.6,7.3L126.8,331.1z"/>
		<path style="fill:#E6D56D;" d="M141.2,339.2l-12.6-7.3l10.7-6.2l12.6,7.3L141.2,339.2z"/>
		<path style="fill:#E6D56D;" d="M204.2,320.2l-12.6-7.2l10.7-6.2l12.6,7.2C211.4,316,207.8,318.1,204.2,320.2z"/>
		<path style="fill:#E6D56D;" d="M218.6,328.3L206,321l10.7-6.2l12.6,7.3L218.6,328.3z"/>
		<path style="fill:#E6D56D;" d="M191.9,327.2l-12.6-7.3l10.6-6.2l12.6,7.3L191.9,327.2z"/>
		<path style="fill:#E6D56D;" d="M206.2,335.3l-12.6-7.3l10.7-6.2l12.6,7.3L206.2,335.3z"/>
		<path style="fill:#E6D56D;" d="M179.4,333.9l-12.6-7.3l10.7-6.2l12.6,7.3L179.4,333.9z"/>
		<path style="fill:#E6D56D;" d="M193.8,342l-12.6-7.3l10.7-6.2l12.6,7.3L193.8,342z"/>
		<path style="fill:#E6D56D;" d="M167.5,340.8l-12.6-7.3l10.7-6.2l12.6,7.3L167.5,340.8z"/>
		<path style="fill:#E6D56D;" d="M181.8,349l-12.6-7.3l10.6-6.2l12.6,7.3L181.8,349z"/>
		<path style="fill:#E6D56D;" d="M155,347.6l-12.6-7.3l10.6-6.2l12.6,7.3L155,347.6z"/>
		<path style="fill:#E6D56D;" d="M169.4,355.7l-12.6-7.2l10.7-6.2l12.6,7.2L169.4,355.7z"/>
		<path style="fill:#E6D56D;" d="M232.8,336.6l-12.6-7.3l10.7-6.2l12.6,7.3L232.8,336.6z"/>
		<path style="fill:#E6D56D;" d="M247.2,344.7l-12.6-7.3l10.6-6.2l12.6,7.3L247.2,344.7z"/>
		<path style="fill:#E6D56D;" d="M220.5,343.6l-12.6-7.3l10.7-6.2l12.6,7.3C227.6,339.5,224,341.5,220.5,343.6z"/>
		<path style="fill:#E6D56D;" d="M234.9,351.7l-12.6-7.3l10.7-6.2l12.6,7.3L234.9,351.7z"/>
		<path style="fill:#E6D56D;" d="M208,350.3l-12.6-7.2l10.7-6.2l12.6,7.2C215.2,346.2,211.6,348.3,208,350.3z"/>
		<path style="fill:#E6D56D;" d="M222.4,358.4l-12.6-7.3l10.7-6.2l12.6,7.3L222.4,358.4z"/>
		<path style="fill:#E6D56D;" d="M196.1,357.3l-12.6-7.3l10.7-6.2l12.6,7.3L196.1,357.3z"/>
		<path style="fill:#E6D56D;" d="M210.5,365.4l-12.6-7.2l10.6-6.2l12.6,7.2L210.5,365.4z"/>
		<path style="fill:#E6D56D;" d="M183.7,364l-12.6-7.3l10.6-6.2l12.6,7.3C190.8,359.9,187.2,361.9,183.7,364z"/>
		<path style="fill:#E6D56D;" d="M198,372.1l-12.6-7.3l10.7-6.2l12.6,7.3L198,372.1z"/>
		<path style="fill:#E6D56D;" d="M261,353l-12.6-7.3l10.7-6.2l12.6,7.3L261,353z"/>
		<path style="fill:#E6D56D;" d="M275.4,361.2l-12.6-7.3l10.6-6.2l12.6,7.3L275.4,361.2z"/>
		<path style="fill:#E6D56D;" d="M248.7,360.1l-12.6-7.3l10.7-6.2l12.6,7.2L248.7,360.1z"/>
		<path style="fill:#E6D56D;" d="M263.1,368.2l-12.5-7.3l10.6-6.2l12.6,7.3L263.1,368.2z"/>
		<path style="fill:#E6D56D;" d="M236.2,366.8l-12.6-7.3l10.6-6.2l12.6,7.3L236.2,366.8z"/>
		<path style="fill:#E6D56D;" d="M250.6,374.9l-12.6-7.3l10.7-6.2l12.6,7.3L250.6,374.9z"/>
		<path style="fill:#E6D56D;" d="M224.3,373.7l-12.5-7.3l10.7-6.2l12.6,7.3L224.3,373.7z"/>
		<path style="fill:#E6D56D;" d="M238.7,381.9l-12.6-7.3l10.7-6.2l12.6,7.3L238.7,381.9z"/>
		<path style="fill:#E6D56D;" d="M211.9,380.4l-12.6-7.3l10.7-6.2l12.6,7.3C218.9,376.3,215.4,378.4,211.9,380.4z"/>
		<path style="fill:#E6D56D;" d="M226.2,388.6l-12.6-7.3l10.6-6.2l12.6,7.3L226.2,388.6z"/>
		<path style="fill:#E6D56D;" d="M289.7,369.4l-12.6-7.3l10.7-6.2l12.6,7.3C296.8,365.3,293.2,367.3,289.7,369.4z"/>
		<path style="fill:#E6D56D;" d="M277.3,376.4l-12.6-7.3l10.7-6.2l12.6,7.3L277.3,376.4z"/>
		<path style="fill:#E6D56D;" d="M264.9,383.1l-12.6-7.3l10.7-6.2l12.6,7.3L264.9,383.1z"/>
		<path style="fill:#E6D56D;" d="M252.9,390.1l-12.6-7.3l10.6-6.2l12.6,7.3L252.9,390.1z"/>
		<path style="fill:#E6D56D;" d="M240.5,396.8l-12.6-7.3l10.7-6.2l12.6,7.3L240.5,396.8z"/>
	</g>
</g>
<g id="pylon">
	<path style="fill:#EF8A5D;" d="M278.7,460.6L253,475.3c-0.9,0.5-2,0.5-2.9,0l-25.6-14.7c-1.3-0.8-1.9-2.6-1-3.9
		c0.2-0.4,0.6-0.8,1-1l25.7-14.8c0.9-0.5,2-0.5,2.9,0l25.7,14.8c1.3,0.8,1.9,2.6,1,3.9C279.5,460,279.2,460.4,278.7,460.6z"/>
	<path style="fill:#EF8A5D;" d="M230.4,454.6H223v3.4h7.4V454.6z"/>
	<path style="fill:#EF8A5D;" d="M280.1,454.6h-7.4v3.4h7.4V454.6z"/>
	<path style="fill:#E9D758;" d="M278.7,457.6L253,472.3c-0.9,0.5-2,0.5-2.9,0l-25.7-14.7c-1.3-0.8-1.9-2.6-1-3.9
		c0.2-0.4,0.6-0.8,1-1l25.7-14.8c0.9-0.5,2-0.5,2.9,0l25.7,14.8c1.3,0.8,1.9,2.6,1,3.9C279.5,457,279.2,457.3,278.7,457.6z"/>
	<path style="fill:#EF8A5D;" d="M271.2,452.8c-3.9,7-11.3,11.5-19.4,11.6c-12.3,0.1-18.9-10.3-19.2-10.8c0,0,3.1-8,5.4-14.3
		c4.4-12.1,7.3-23.7,7.3-23.7s1.1-1.7,2.2-2.5c1.9-1.6,4.2-1.6,4.6-1.6c0.5,0,2.6,0,4.2,1.3c1,0.8,2.2,2.5,2.2,2.5
		s2.6,11.7,7.3,23.9C267.9,445.2,271.2,452.8,271.2,452.8z"/>
	<path style="fill:#E9D758;" d="M268.7,446.8c-0.5,0.7-6.5,8.6-17,8.4c-10.1-0.2-15.6-7.9-16.3-8.7l2.6-7.1
		c0.6,0.7,5.5,6.7,13.9,6.6c8.3,0,13.2-5.9,13.8-6.6C266.7,441.8,267.7,444.3,268.7,446.8z"/>
	<path style="fill:#E9D758;" d="M263.5,433.4c-7,5.1-16.5,5-23.4-0.2c0.8-2.8,1.7-5.5,2.6-8.3c5.4,4.1,13,4,18.1-0.2
		C261.8,427.6,262.7,430.5,263.5,433.4z"/>
	<path style="fill:#E9D758;" d="M251.8,419.5c3.7,0,6.6-1.8,6.6-3.9s-3-3.9-6.6-3.9c-3.7,0-6.6,1.8-6.6,3.9S248.2,419.5,251.8,419.5
		z"/>
</g>
</svg>
