<?xml version="1.0" encoding="utf-8"?>
<!-- Generator: Adobe Illustrator 25.0.0, SVG Export Plug-In . SVG Version: 6.00 Build 0)  -->
<svg version="1.1" id="Layer_1" xmlns="http://www.w3.org/2000/svg" xmlns:xlink="http://www.w3.org/1999/xlink" x="0px" y="0px"
	 viewBox="0 0 500 500" style="enable-background:new 0 0 500 500;" xml:space="preserve">
<path style="opacity:0.75;fill:#E9D758;enable-background:new    ;" d="M250,484.1L15,348.4l234.9-135.7L485,348.4L250,484.1z"/>
<path style="fill:none;stroke:#F58555;stroke-width:10;stroke-miterlimit:10;" d="M243.5,439.9L43.3,327.2
	c-10.8-6.1-14.7-19.8-8.6-30.6c2-3.5,4.8-6.4,8.3-8.4l200.4-115.9c7.2-4,15.8-4,22.9,0.2L457,286.7c10.6,6.4,14.1,20.2,7.7,31
	c-1.8,3.1-4.6,5.9-7.7,7.7L266.1,439.6C259.1,443.8,250.5,443.8,243.5,439.9z"/>
<g>
	<g id="ELEMENTS_1_">
		<path style="fill:#FFFFFF;" d="M249.5,245.3l165.2,85.5l-165.2,85.5L91,330.9L249.5,245.3z"/>
		<path style="fill:#E2DFDB;" d="M84.1,322.6l167.8,90.6l168-90.6l-168-90.6L84.1,322.6z"/>
		<path style="fill:#393939;" d="M84.1,334.4l168,90l0,0l168-89.8v-12l-168,90.6l0,0L84.3,322.6L84.1,334.4z"/>
		<path style="fill:#3E7172;" d="M174.1,315.7l73.7,39.7c3.2,1.6,6.7,1.6,9.9,0l73.7-39.7c4.6-2.6,6.3-8.3,3.6-12.6
			c-0.8-1.4-2.1-2.6-3.6-3.3l-73.7-39.7c-3.2-1.6-6.7-1.6-9.9,0l-73.7,39.7c-4.8,2.6-6.3,8.3-3.6,12.6
			C171.4,313.8,172.7,314.9,174.1,315.7z"/>
		<path style="fill:#173431;" d="M169.1,324.2l83.6,45.6l83.6-45.6c0-5.7,0-11.4,0-17.1l-83.8,44.2l-83.4-44.2
			C169.1,312.8,169.1,318.5,169.1,324.2z"/>
		<path style="fill:#E6D56D;" d="M227.2,301.8c0.4,0.6,9.3,13.8,25.5,13.4c15.2-0.4,23.4-12.4,24-13.4v-48.4h-49.5L227.2,301.8
			L227.2,301.8z"/>
		<ellipse style="fill:#E6D56D;" cx="252.7" cy="219.8" rx="34.9" ry="22"/>
		<path style="fill:#EF8A5D;" d="M217.7,248.1c19.4,18.1,50.7,18.1,70.1,0V222c-20,16.7-50.1,16.7-70.1,0L217.7,248.1L217.7,248.1z"
			/>
		
			<ellipse transform="matrix(0.5076 -0.8616 0.8616 0.5076 25.8877 307.515)" style="fill:#173431;" cx="282" cy="131.1" rx="92.8" ry="120.1"/>
		
			<ellipse transform="matrix(0.5076 -0.8616 0.8616 0.5076 31.6741 308.5576)" style="fill:#E2DFDB;" cx="285.8" cy="126.6" rx="92.8" ry="120.1"/>
		<path style="fill:#EF8A5D;" d="M221.3,194l54.1-55.4c82.1,15.7,123.3,22.8,123.8,21.2c0.4-1.6-39.8-12-120.8-31.1
			c-16.6-33-33.3-66.1-49.9-99.1l38.7,100.9C252,151.6,236.7,172.8,221.3,194z"/>
		<path style="fill:#E6D56D;" d="M228.4,29.5l87.1,68l0,0L221.3,194l103.1-88l0,0l74.9,53.9l-68.2-71.4L228.4,29.5z"/>
		
			<ellipse transform="matrix(0.57 -0.8217 0.8217 0.57 74.6396 315.4094)" style="fill:#E6D56D;" cx="338.7" cy="86.4" rx="9.3" ry="14.2"/>
		<path style="fill:#EF8A5D;" d="M319.2,87.1c1.1,10.4,11.2,18.1,22.3,17.1l7.4-8.3c-10.9,0.4-20.6-6.9-22.3-17.1L319.2,87.1z"/>
	</g>
</g>
</svg>
