<?xml version="1.0" encoding="utf-8"?>
<!-- Generator: Adobe Illustrator 24.3.0, SVG Export Plug-In . SVG Version: 6.00 Build 0)  -->
<svg version="1.1" id="Layer_1" xmlns="http://www.w3.org/2000/svg" xmlns:xlink="http://www.w3.org/1999/xlink" x="0px" y="0px"
	 viewBox="0 0 500 500" style="enable-background:new 0 0 500 500;" xml:space="preserve">
<path style="opacity:0.75;fill:#E9D758;enable-background:new    ;" d="M250,484.1l-235-135.7l234.9-135.7L485,348.4L250,484.1z"/>
<path style="fill:none;stroke:#F58555;stroke-width:10;stroke-miterlimit:10;" d="M243.5,439.9L43.3,327.2
	c-10.8-6.1-14.7-19.8-8.6-30.6c2-3.5,4.8-6.4,8.3-8.4l200.4-115.9c7.2-4,15.8-4,22.9,0.2l190.7,114.2c10.6,6.4,14.1,20.2,7.7,31
	c-1.8,3.1-4.6,5.9-7.7,7.7L266.1,439.6C259.1,443.8,250.5,443.8,243.5,439.9z"/>
<g>
	<g id="ELEMENTS_6_">
		<path style="fill:#FFFFFF;" d="M252.7,285l-107.6,59.7l107.6,59.5l103.4-59.7L252.7,285z"/>
		<path style="fill:#EF8A5D;" d="M361,345L251.9,408L142.6,345c0-5.3,0-10.5,0-15.8H361C361,329.2,361,335.3,361,345z"/>
		<path style="fill:#E6D56D;" d="M360.8,329.4l-109.1,62.9l-109.3-62.9l109.3-63.1L360.8,329.4z"/>
		<path style="fill:#3E7172;" d="M304,327.5l-52.1,28.4V136H304V327.5z"/>
		<path style="fill:#173431;" d="M199.7,327.5l52.3,28.4V136h-52.3V327.5z"/>
		<path style="fill:#EF8A5D;" d="M318.9,284L138.1,181.2v-103l180.8,103V284z"/>
		<path style="fill:#E6D56D;" d="M407,234.2L318.9,284V181.2c29.6-17.4,58.9-34.7,88.5-52.1L407,234.2z"/>
		<path style="fill:#3E7172;" d="M318.9,181.4l-180.8-103l91-51.1l178.1,102C377.8,146.7,348.4,164,318.9,181.4z"/>
		<path style="fill:#173431;" d="M168.6,173.6l-13.9-8.8l-1.1-43.9l13.9,8.4L168.6,173.6z"/>
		<path style="fill:#173431;" d="M187.5,184.3l-13.9-8.8l-1.1-43.9l13.9,8.4L187.5,184.3z"/>
		<path style="fill:#173431;" d="M206.3,194.6l-13.9-8.8l-1.1-43.9l13.9,8.4L206.3,194.6z"/>
		<path style="fill:#173431;" d="M226.2,205.4l-13.9-8.8l-1.1-43.9l13.9,8.4L226.2,205.4z"/>
		<path style="fill:#173431;" d="M377.8,170.3L377.8,170.3c5.3,1.3,20,5.1,33.6,15.8c5.3,4.2,8,6.3,9.9,9.3
			c10.1,16.4-3.4,39.9-5.3,42.9s-16.2,27.3-35.7,25.9c-3.1-0.2-5.9-1.5-11.6-4c-16.4-7.1-27.1-18.3-30.9-22.3l0,0l0,0
			c-1-5.5-5-27.7,7.2-46C355.5,176.1,372.7,171.5,377.8,170.3z"/>
		
			<ellipse transform="matrix(0.5 -0.866 0.866 0.5 1.7541 454.6345)" style="fill:#3E7172;" cx="394.6" cy="225.8" rx="42" ry="25"/>
		
			<ellipse transform="matrix(0.4983 -0.867 0.867 0.4983 4.5442 457.5904)" style="fill:#E2DFDB;" cx="397.7" cy="224.9" rx="32" ry="19.1"/>
		
			<ellipse transform="matrix(0.5 -0.866 0.866 0.5 2.4394 456.9414)" style="fill:#E6D56D;" cx="396.9" cy="226.4" rx="22.7" ry="13.5"/>
	</g>
</g>
<g id="pylon">
	<path style="fill:#EF8A5D;" d="M278.7,460.6L253,475.3c-0.9,0.5-2,0.5-2.9,0l-25.6-14.7c-1.3-0.8-1.9-2.6-1-3.9
		c0.2-0.4,0.6-0.8,1-1l25.7-14.8c0.9-0.5,2-0.5,2.9,0l25.7,14.8c1.3,0.8,1.9,2.6,1,3.9C279.5,460,279.2,460.4,278.7,460.6z"/>
	<path style="fill:#EF8A5D;" d="M230.4,454.6H223v3.4h7.4V454.6z"/>
	<path style="fill:#EF8A5D;" d="M280.1,454.6h-7.4v3.4h7.4V454.6z"/>
	<path style="fill:#E9D758;" d="M278.7,457.6L253,472.3c-0.9,0.5-2,0.5-2.9,0l-25.7-14.7c-1.3-0.8-1.9-2.6-1-3.9
		c0.2-0.4,0.6-0.8,1-1l25.7-14.8c0.9-0.5,2-0.5,2.9,0l25.7,14.8c1.3,0.8,1.9,2.6,1,3.9C279.5,457,279.2,457.3,278.7,457.6z"/>
	<path style="fill:#EF8A5D;" d="M271.2,452.8c-3.9,7-11.3,11.5-19.4,11.6c-12.3,0.1-18.9-10.3-19.2-10.8c0,0,3.1-8,5.4-14.3
		c4.4-12.1,7.3-23.7,7.3-23.7s1.1-1.7,2.2-2.5c1.9-1.6,4.2-1.6,4.6-1.6c0.5,0,2.6,0,4.2,1.3c1,0.8,2.2,2.5,2.2,2.5
		s2.6,11.7,7.3,23.9C267.9,445.2,271.2,452.8,271.2,452.8z"/>
	<path style="fill:#E9D758;" d="M268.7,446.8c-0.5,0.7-6.5,8.6-17,8.4c-10.1-0.2-15.6-7.9-16.3-8.7l2.6-7.1
		c0.6,0.7,5.5,6.7,13.9,6.6c8.3,0,13.2-5.9,13.8-6.6C266.7,441.8,267.7,444.3,268.7,446.8z"/>
	<path style="fill:#E9D758;" d="M263.5,433.4c-7,5.1-16.5,5-23.4-0.2c0.8-2.8,1.7-5.5,2.6-8.3c5.4,4.1,13,4,18.1-0.2
		C261.8,427.6,262.7,430.5,263.5,433.4z"/>
	<path style="fill:#E9D758;" d="M251.8,419.5c3.7,0,6.6-1.8,6.6-3.9s-3-3.9-6.6-3.9c-3.7,0-6.6,1.8-6.6,3.9S248.2,419.5,251.8,419.5
		z"/>
</g>
</svg>
