<?xml version="1.0" encoding="utf-8"?>
<!-- Generator: Adobe Illustrator 25.0.0, SVG Export Plug-In . SVG Version: 6.00 Build 0)  -->
<svg version="1.1" id="Layer_1" xmlns="http://www.w3.org/2000/svg" xmlns:xlink="http://www.w3.org/1999/xlink" x="0px" y="0px"
	 viewBox="0 0 500 500" style="enable-background:new 0 0 500 500;" xml:space="preserve">
<path style="opacity:0.75;fill:#E9D758;enable-background:new    ;" d="M250,484.1L15,348.4l234.9-135.7L485,348.4L250,484.1z"/>
<path style="fill:none;stroke:#F58555;stroke-width:10;stroke-miterlimit:10;" d="M243.5,439.9L43.3,327.2
	c-10.8-6.1-14.7-19.8-8.6-30.6c2-3.5,4.8-6.4,8.3-8.4l200.4-115.9c7.2-4,15.8-4,22.9,0.2L457,286.7c10.6,6.4,14.1,20.2,7.7,31
	c-1.8,3.1-4.6,5.9-7.7,7.7L266.1,439.6C259.1,443.8,250.5,443.8,243.5,439.9z"/>
<g>
	<g id="ELEMENTS">
		
			<image style="overflow:visible;opacity:0.15;enable-background:new    ;" width="1289" height="754" xlink:href="65A8088E.png"  transform="matrix(0.24 0 0 0.24 90.24 208.765)">
		</image>
		<path style="fill:#173431;" d="M213.9,193c59.8,34.5,119.7,69.1,179.5,103.6l-119.7,68.9L94.4,262.1L213.9,193z"/>
		<path style="fill:none;stroke:#173431;stroke-width:2;stroke-miterlimit:10;" d="M213.9,193c59.8,34.5,119.7,69.1,179.5,103.6
			l-119.7,68.9L94.4,262.1L213.9,193z"/>
		
			<image style="overflow:visible;opacity:0.15;enable-background:new    ;" width="784" height="656" xlink:href="65A80892.png"  transform="matrix(0.24 0 0 0.24 90.72 278.605)">
		</image>
		<path style="fill:#E6D56D;" d="M273.8,411.3L94.4,307.9c4.1-5.6,6.6-12.1,7.5-19c0.9-8.5-0.8-17-5-24.4l176.8,101.1L273.8,411.3z"
			/>
		<path style="fill:none;stroke:#173431;stroke-width:2;stroke-miterlimit:10;" d="M273.8,411.3L94.4,307.9c4.1-5.6,6.6-12.1,7.5-19
			c0.9-8.5-0.8-17-5-24.4l176.8,101.1L273.8,411.3z"/>
		
			<image style="overflow:visible;opacity:0.15;enable-background:new    ;" width="572" height="516" xlink:href="65A80895.png"  transform="matrix(0.24 0 0 0.24 270.48 312.205)">
		</image>
		<path style="fill:#E6D56D;" d="M393.5,342.4l-119.7,68.9v-45.8l119.7-68.9c5.1,5.5,8.3,12.5,9,20
			C403.7,330.9,395,340.7,393.5,342.4z"/>
		<path style="fill:none;stroke:#173431;stroke-width:2;stroke-miterlimit:10;" d="M393.5,342.4l-119.7,68.9v-45.8l119.7-68.9
			c5.1,5.5,8.3,12.5,9,20C403.7,330.9,395,340.7,393.5,342.4z"/>
		
			<image style="overflow:visible;opacity:0.15;enable-background:new    ;" width="76" height="237" xlink:href="65A80896.png"  transform="matrix(0.24 0 0 0.24 373.68 335.245)">
		</image>
		<path style="fill:#EF8A5D;" d="M387.8,367l-2.8-3.2l0,0l-3.9,5.3c-0.6-29.7-0.9-43.7-0.9-44c0-0.1,0-0.2,0-0.4
			c0-0.1,0-0.2-0.1-0.4c-1.3-1.2-2.8-2.2-4.4-3l5.3-3c4.5,2.7,6,3.8,6,4c0,0,0,0.2,0.1,0.5s0,0.3,0.1,0.4c0,0.3,0,0.5,0,0.8
			C387.1,324.4,387.4,341.2,387.8,367z"/>
		<path style="fill:#EF8A5D;" d="M210.7,118.6l179.5,103.7l-119.7,68.9L91.1,187.8L210.7,118.6z"/>
		<path style="fill:#297373;stroke:#EF8A5D;stroke-width:2;stroke-miterlimit:10;" d="M270.5,337L91.2,233.5
			c4.1-5.6,6.7-12.1,7.5-18.9c0.9-8.5-0.8-17-5-24.4l176.8,101.1L270.5,337z"/>
		<path style="fill:#297373;stroke:#EF8A5D;stroke-width:2;stroke-miterlimit:10;" d="M390.3,268L270.5,337v-45.7l119.7-68.9
			c5.1,5.5,8.3,12.5,9,20C400.4,256.6,391.8,266.4,390.3,268z"/>
		<path style="fill:#E9D758;" d="M307,343.3l-2.8-3.2l0,0l-3.9,5.3c-0.6-29.7-0.9-43.7-0.9-44c0-0.1,0-0.2,0-0.4
			c0-0.1,0-0.2-0.1-0.4c-1.3-1.2-2.8-2.2-4.4-3l5.3-3c4.5,2.7,5.9,3.8,6,4c0,0,0,0.2,0,0.5s0,0.3,0.1,0.4c0,0.3,0,0.5,0,0.8
			C306.4,300.8,306.6,317.6,307,343.3z"/>
		<polygon style="fill:#E9D758;" points="313.8,194.1 317.4,217.6 299.7,200.5 		"/>
		<polygon style="fill:#E9D758;" points="311.3,194.8 317.4,217.6 324.3,193.9 		"/>
		<polygon style="fill:#173431;" points="290.5,97.4 312,197.2 299.7,200.5 274.6,106.9 		"/>
		<polygon style="fill:#E9D758;" points="276.7,85.3 286.5,82.6 280.7,61 270.9,63.6 		"/>
		<polygon style="fill:#173431;" points="280.3,79 290.5,97.4 272.6,99.6 268,82.3 		"/>
		<polygon style="fill:#297373;" points="299.2,100.3 324.3,193.9 312,197.2 285.6,98.7 		"/>
		<polygon style="fill:#297373;" points="292.6,75.7 297.2,93 286.2,101.2 280.3,79 		"/>
		<polygon style="fill:#E9D758;" points="272.6,99.6 284.9,96.3 288.4,99.3 286.9,103.6 274.6,106.9 		"/>
		<polygon style="fill:#E9D758;" points="286.9,103.6 299.2,100.3 311.6,146.5 318.9,144.5 304.6,91 284.9,96.3 		"/>
	</g>
</g>
<g id="pylon">
	<path style="fill:#EF8A5D;" d="M278.7,460.6L253,475.3c-0.9,0.5-2,0.5-2.9,0l-25.6-14.7c-1.3-0.8-1.9-2.6-1-3.9
		c0.2-0.4,0.6-0.8,1-1l25.7-14.8c0.9-0.5,2-0.5,2.9,0l25.7,14.8c1.3,0.8,1.9,2.6,1,3.9C279.5,460,279.2,460.4,278.7,460.6z"/>
	<path style="fill:#EF8A5D;" d="M230.4,454.6H223v3.4h7.4V454.6z"/>
	<path style="fill:#EF8A5D;" d="M280.1,454.6h-7.4v3.4h7.4V454.6z"/>
	<path style="fill:#E9D758;" d="M278.7,457.6L253,472.3c-0.9,0.5-2,0.5-2.9,0l-25.7-14.7c-1.3-0.8-1.9-2.6-1-3.9
		c0.2-0.4,0.6-0.8,1-1l25.7-14.8c0.9-0.5,2-0.5,2.9,0l25.7,14.8c1.3,0.8,1.9,2.6,1,3.9C279.5,457,279.2,457.3,278.7,457.6z"/>
	<path style="fill:#EF8A5D;" d="M271.2,452.8c-3.9,7-11.3,11.5-19.4,11.6c-12.3,0.1-18.9-10.3-19.2-10.8c0,0,3.1-8,5.4-14.3
		c4.4-12.1,7.3-23.7,7.3-23.7s1.1-1.7,2.2-2.5c1.9-1.6,4.2-1.6,4.6-1.6c0.5,0,2.6,0,4.2,1.3c1,0.8,2.2,2.5,2.2,2.5
		s2.6,11.7,7.3,23.9C267.9,445.2,271.2,452.8,271.2,452.8z"/>
	<path style="fill:#E9D758;" d="M268.7,446.8c-0.5,0.7-6.5,8.6-17,8.4c-10.1-0.2-15.6-7.9-16.3-8.7l2.6-7.1
		c0.6,0.7,5.5,6.7,13.9,6.6c8.3,0,13.2-5.9,13.8-6.6C266.7,441.8,267.7,444.3,268.7,446.8z"/>
	<path style="fill:#E9D758;" d="M263.5,433.4c-7,5.1-16.5,5-23.4-0.2c0.8-2.8,1.7-5.5,2.6-8.3c5.4,4.1,13,4,18.1-0.2
		C261.8,427.6,262.7,430.5,263.5,433.4z"/>
	<path style="fill:#E9D758;" d="M251.8,419.5c3.7,0,6.6-1.8,6.6-3.9s-3-3.9-6.6-3.9c-3.7,0-6.6,1.8-6.6,3.9S248.2,419.5,251.8,419.5
		z"/>
</g>
</svg>
