<?xml version="1.0" encoding="utf-8"?>
<!-- Generator: Adobe Illustrator 24.3.0, SVG Export Plug-In . SVG Version: 6.00 Build 0)  -->
<svg version="1.1" id="Layer_1" xmlns="http://www.w3.org/2000/svg" xmlns:xlink="http://www.w3.org/1999/xlink" x="0px" y="0px"
	 viewBox="0 0 500 500" style="enable-background:new 0 0 500 500;" xml:space="preserve">
<path style="opacity:0.75;fill:#E9D758;enable-background:new    ;" d="M250,484.1l-235-135.7l234.9-135.7L485,348.4L250,484.1z"/>
<path style="fill:none;stroke:#F58555;stroke-width:10;stroke-miterlimit:10;" d="M243.5,439.9L43.3,327.2
	c-10.8-6.1-14.7-19.8-8.6-30.6c2-3.5,4.8-6.4,8.3-8.4l200.4-115.9c7.2-4,15.8-4,22.9,0.2l190.7,114.2c10.6,6.4,14.1,20.2,7.7,31
	c-1.8,3.1-4.6,5.9-7.7,7.7L266.1,439.6C259.1,443.8,250.5,443.8,243.5,439.9z"/>
<g id="Helen">
	<g>
		<g id="ELEMENTS_13_">
			<path style="fill:#FFFFFF;" d="M254.6,228.7l-147.9,82l148.1,81.8l142-82L254.6,228.7z"/>
			<path style="fill:#EF8A5D;" d="M253.8,398.4l-147.1-84.8l0,0V143.8l147.1,84.8l0,0C253.8,285.2,253.8,341.9,253.8,398.4z"/>
			<path style="fill:#E9D758;" d="M253.8,398.6l55.5-32l91.6-52.8V144l-18.1,10.5l-129,74.2V398.6z"/>
			<path style="fill:#3E7172;" d="M106.7,144l147.1,84.8L400.9,144L253.8,59L106.7,144z"/>
			<path style="fill:#E6D56D;stroke:#173431;stroke-width:1.4236;stroke-miterlimit:10;" d="M138.1,323.6l-14.4-8.4l-9.9-5.7v-27.9
				l11.5,6.6l12.7,7.2v28.1L138.1,323.6L138.1,323.6z"/>
			<path style="fill:#3E7172;stroke:#173431;stroke-width:1.4236;stroke-miterlimit:10;" d="M138.1,290.1l-14.2-8.2l-9.9-5.8v-27.9
				l11.9,6.8l12.3,7V290.1L138.1,290.1z"/>
			<path style="fill:#FFFFFF;" d="M266.5,312.3l33.3-19.1c0-25.7,0-51.6,0.2-77.4l-33.5,19.3V312.3z"/>
			<path style="fill:#EF8A5D;stroke:#173431;stroke-width:1.4236;stroke-miterlimit:10;" d="M273.3,268.3l13.8-8l7.4-4.3v-24.4
				l-10.1,5.8l-10.9,6.2L273.3,268.3L273.3,268.3z"/>
			<path style="fill:#E2DFDB;" d="M193.2,363.5l-22.6-13.1V180.6l0,0l22.6,13.1V363.5z"/>
			<path style="fill:#393939;" d="M180.7,186.6l-1-0.6v169.9l1,0.6V186.6z"/>
			<path style="fill:#E2DFDB;" d="M316,362.6l22.6-13.1V179.6L316,192.7l0,0V362.6z"/>
			<path style="fill:#393939;" d="M328.4,185.6l1-0.6V355l-1,0.6V185.6z"/>
			<path style="fill:#E2DFDB;" d="M169.1,107.9l22.6-13.1l147.1,84.8l-22.4,13.2L169.1,107.9z"/>
			<path style="fill:#393939;" d="M182.3,100.3l-1,0.6l147.1,85l1-0.6L182.3,100.3z"/>
			<path style="fill:#E2DFDB;" d="M340.1,108.9l-22.6-13.1l-147.1,84.8l22.4,13.2L340.1,108.9z"/>
			<path style="fill:#393939;" d="M326.9,101.1l1,0.6l-147.1,85l-1-0.6L326.9,101.1z"/>
		</g>
	</g>
	<g id="pylon" style="opacity: 1;">
		<path style="fill:#EF8A5D; opacity: 1;" d="M278.7,460.6L253,475.3c-0.9,0.5-2,0.5-2.9,0l-25.6-14.7c-1.3-0.8-1.9-2.6-1-3.9
			c0.2-0.4,0.6-0.8,1-1l25.7-14.8c0.9-0.5,2-0.5,2.9,0l25.7,14.8c1.3,0.8,1.9,2.6,1,3.9C279.5,460,279.2,460.4,278.7,460.6z"/>
		<path style="fill:#EF8A5D; opacity: 1;" d="M230.4,454.6H223v3.4h7.4V454.6z"/>
		<path style="fill:#EF8A5D; opacity: 1;" d="M280.1,454.6h-7.4v3.4h7.4V454.6z"/>
		<path style="fill:#E9D758; opacity: 1;" d="M278.7,457.6L253,472.3c-0.9,0.5-2,0.5-2.9,0l-25.7-14.7c-1.3-0.8-1.9-2.6-1-3.9
			c0.2-0.4,0.6-0.8,1-1l25.7-14.8c0.9-0.5,2-0.5,2.9,0l25.7,14.8c1.3,0.8,1.9,2.6,1,3.9C279.5,457,279.2,457.3,278.7,457.6z"/>
		<path style="fill:#EF8A5D; opacity: 1;" d="M271.2,452.8c-3.9,7-11.3,11.5-19.4,11.6c-12.3,0.1-18.9-10.3-19.2-10.8c0,0,3.1-8,5.4-14.3
			c4.4-12.1,7.3-23.7,7.3-23.7s1.1-1.7,2.2-2.5c1.9-1.6,4.2-1.6,4.6-1.6c0.5,0,2.6,0,4.2,1.3c1,0.8,2.2,2.5,2.2,2.5
			s2.6,11.7,7.3,23.9C267.9,445.2,271.2,452.8,271.2,452.8z"/>
		<path style="fill:#E9D758; opacity: 1;" d="M268.7,446.8c-0.5,0.7-6.5,8.6-17,8.4c-10.1-0.2-15.6-7.9-16.3-8.7l2.6-7.1
			c0.6,0.7,5.5,6.7,13.9,6.6c8.3,0,13.2-5.9,13.8-6.6C266.7,441.8,267.7,444.3,268.7,446.8z"/>
		<path style="fill:#E9D758; opacity: 1;" d="M263.5,433.4c-7,5.1-16.5,5-23.4-0.2c0.8-2.8,1.7-5.5,2.6-8.3c5.4,4.1,13,4,18.1-0.2
			C261.8,427.6,262.7,430.5,263.5,433.4z"/>
		<path style="fill:#E9D758; opacity: 1;" d="M251.8,419.5c3.7,0,6.6-1.8,6.6-3.9s-3-3.9-6.6-3.9c-3.7,0-6.6,1.8-6.6,3.9
			S248.2,419.5,251.8,419.5z"/>
	</g>
</g>
</svg>
