<?xml version="1.0" encoding="utf-8"?>
<!-- Generator: Adobe Illustrator 24.3.0, SVG Export Plug-In . SVG Version: 6.00 Build 0)  -->
<svg version="1.1" id="Layer_1" xmlns="http://www.w3.org/2000/svg" xmlns:xlink="http://www.w3.org/1999/xlink" x="0px" y="0px"
	 viewBox="0 0 500 500" style="enable-background:new 0 0 500 500;" xml:space="preserve">
<path style="opacity:0.75;fill:#E9D758;enable-background:new    ;" d="M250,484.1l-235-135.7l234.9-135.7L485,348.4L250,484.1z"/>
<path style="fill:none;stroke:#F58555;stroke-width:10;stroke-miterlimit:10;" d="M243.5,439.9L43.3,327.2
	c-10.8-6.1-14.7-19.8-8.6-30.6c2-3.5,4.8-6.4,8.3-8.4l200.4-115.9c7.2-4,15.8-4,22.9,0.2l190.7,114.2c10.6,6.4,14.1,20.2,7.7,31
	c-1.8,3.1-4.6,5.9-7.7,7.7L266.1,439.6C259.1,443.8,250.5,443.8,243.5,439.9z"/>
<g>
	<g id="ELEMENTS_8_">
		<path style="fill:#297373;" d="M251.3,386.6c-42.9-0.9-71.4-24.9-80.6-33.8c-53.8-50.8-36.8-129.7-35.9-134.2
			c0.9,9.4,4,18.7,9.1,26.6c3.2,4.9,11.7,16.6,39.5,27.4c12.1,4.7,35.7,12.5,68.9,12.5c12.5,0,51-1.1,86.3-20.6
			c11.7-6.4,19.8-13,24.9-23c5.7-10.8,5.9-21.5,5.3-27.4c15.1,52.3,2.6,106.9-33.4,140.1C300.4,387,255.9,386.8,251.3,386.6z"/>
		
			<ellipse transform="matrix(1.396293e-03 -1 1 1.396293e-03 30.8558 473.4642)" style="fill:#E5D56D;stroke:#163431;stroke-width:2.0012;stroke-miterlimit:10;" cx="252.5" cy="221.3" rx="64.2" ry="117.2"/>
		<path style="fill:#E6D56D;" d="M374,245.2c10.8,4.9,5.1,56.6-20.6,93.1c-11.3,16-39.6,47.8-58.5,39.8c-17-7.2-23-44.4-8.7-64.4
			c5.7-7.9,15.9-14.9,20-12.3c6.8,4.3-8.1,31.7-2.5,35.3c5.7,3.6,34.4-16.2,47.2-47.2c8.1-19.6,9.6-43.2,20.2-44.6
			C372.2,244.7,373.1,244.9,374,245.2z"/>
		<path style="fill:#EF8A5D;" d="M368.4,216.9c-0.2,7.7-8.5,13.4-10.4,14.7c-14.5,10-26.2,0.2-46.4,8.7c-9.3,4-6.4,5.5-17,10.6
			c-21.7,10.4-43,7.7-51.2,6.6c-7.2-0.9-17-2.3-27.9-7.7c-7.2-3.6-9.8-6.4-16.8-7.9c-9.8-2.3-13.6,0.9-22.3,0.8
			c-20.4-0.4-40.6-18.7-39.1-30.2c0.4-3.2,2.8-7.7,3.6-9.3c1.9-3.6,4.3-6.8,7-9.8c1.9-2.3,2.8-3.2,3.8-3.8c3.4-2.3,6.4-1.9,15.9-4.5
			l0,0c39.8-10.8,59.8-16.2,84.2-15.9c10.4,0.2,11.1,0.9,28.5,2.3c35.7,2.8,47,0,59.3,7.4c9.1,5.5,16.6,13.8,16.6,13.8
			c2.1,2.5,4.2,4.9,5.9,7.7c2.1,2.8,3.6,5.9,4.7,9.1C367.2,210.9,368.4,214.1,368.4,216.9z"/>
		<path style="fill:#173431;" d="M348.2,190.1c-2.3,1.9-4.3,4-6.2,6.2c-4.2,4.3-8.7,4.5-14.5,7.4c-9.4,4.5-8.7,9.6-17,15.5
			c-4.2,3-6.8,3.2-24.5,6.8c-30.6,6-31,6.6-37.6,7c-14,0.6-20.8,0.9-28.7-2.6c-5.3-2.5-7.6-4.9-14.5-6.8c-3.6-0.9-4.7-0.8-15.9-2.8
			c-7-1.3-8.3-1.7-9.6-2.3c-3-1.3-4.2-2.3-11-7.9c-9.4-7.7-11.1-8.9-13.4-12.3c-3.6-5.9-3.4-8.1-3.2-8.7c0.8-3,4.5-6.2,4.5-6.2
			c9.3-5.5,18.9-10,28.9-14c85-32.3,156.5,10.4,159,12.1l3,2.3c1.5,1.3,2.6,2.6,4.9,3.6l0,0C352.1,187.1,349.1,189.3,348.2,190.1z"
			/>
		<path style="fill:#297373;" d="M279.5,194.3c-18.1,2.5-20.4,0.4-34.6,3.6c-10.8,2.5-10.4,3.8-19.6,5.5c-7.9,1.5-19.3,3.4-32.1-0.2
			c-10.8-3-26.6-11.3-27-21.7c0-0.9,0.6-3,1.7-7c3-10.2,4.5-15.3,8.7-18.7c3.6-3,5.1-1.3,10.8-4.3c7.6-4,11.5-10.6,14.5-15.7
			c7.2-11.9,5.3-18.5,11.3-21c3.6-1.5,8.5-0.8,11.7,0.4c4.2,1.7,4,3.6,7.2,4.3c6.8,1.5,14.3-6.4,15.3-7.4c4.5-4.7,3-6.8,6.6-9.1
			c5.1-3.2,12.1-2.3,16.8,0c1.5,0.8,3,1.7,4.3,2.8c4.5,3.8,5.9,7.7,8.1,11.9c2.5,4.5,6.2,8.7,13.6,17.2c1.9,2.1,1.7,1.7,9.1,9.4
			c11.9,12.5,14.3,15.3,17,19.4c4.2,6.4,6.8,10.6,5.5,14.5c-1.5,4.2-6.6,5.5-16.6,8.1C294,191.2,285.1,193.5,279.5,194.3z"/>
		<path style="fill:#5C9B9B;" d="M257.7,169l-19.1-15.9c-1.1-3.8-2.3-7.4-3.4-11.1l0,0l-11.1-10.6l0,0c0,0,0.6-2.3,1.9-6.2l24,21.5
			c-0.2,4.3-0.4,7.2-0.4,7.2L257.7,169z"/>
		<path style="fill:#5C9B9B;" d="M272.1,123.1l7,0.8l-10.2-13v-5.5c-15.1-1.7-15.1-2.3-15.1-2.3c0-0.9,9.1-3.8,16.8,0
			c1.5,0.8,3,1.7,4.3,2.8c4.5,3.8,6,7.7,8.1,11.9c2.5,4.5,6.2,8.7,13.8,17.2c1.9,2.1,1.7,1.7,9.1,9.4c9.6,10.2,13,14,15.5,17.2
			c0.6,0.8,0.9,1.3,1.5,2.1c6,9.3,6,11.9,5.9,12.8c-0.2,1.3-0.6,2.6-1.5,3.8c-0.9,1.1-2.3,1.9-3.6,2.5c-0.2,0-0.9,0.4-1.1,0.6h-0.2
			l0,0c0,0-4.3-4.7-9.1-10l-2.6-3l0,0l-2.6,3l-0.9,2.6l-12.5-6.8l7.7-7.4l-12.1-12.5l7-1.9L272.1,123.1z"/>
		<path style="fill:#5C9B9B;" d="M304.4,188.2L277,162.9c1.7,0.2,3.2,0.8,4.7,1.5c1.1,0.4,2.1,0.9,3,1.7l24,21.7L304.4,188.2z"/>
		<path style="fill:#5C9B9B;" d="M289.8,161.6L274,148.8l-5.3-15.7l8.1,12.5l0,0l13,9.8V161.6z"/>
		<path style="fill:#5C9B9B;" d="M224.9,123.8l-2.8-2.3l0,0l-1.3-4.2l0,0l-5.5-3.2c2.6-0.4,5.3-0.2,7.7,0.6c1.9,0.6,3.2,0.9,4.3,2.1
			c0.9,0.9,1.9,1.7,3,2.5c0.6,0.2,0.9,0.4,1.5,0.6L224.9,123.8z"/>
		<path style="fill:#5C9B9B;" d="M231.9,201.8l-11.5,2.5l0,0l-3.6-8.7l0,0l-2.8-9.3l0,0l2.6-16.6l-6.6-13.8l11.3,14L231.9,201.8z"/>
		<path style="fill:#5C9B9B;" d="M208.1,170.7l-1.9,0.4l0,0l-7.7-10.6c0.4-2.1,0.8-3.2,0.8-3.2l0,0l-1.9-4l3.6,2.8
			c0,2.8,0.2,4.3,0.2,4.3l0,0L208.1,170.7z"/>
		<path style="fill:#173431;" d="M264.9,111.6l4-0.8l-4.3-6L254,119.3L264.9,111.6z"/>
		<path style="fill:#173431;" d="M268.9,140.5c-1.3-4.9-2.3-8.1-2.3-8.1l0,0l-9.3,2.6l0,0l14.7-12.1l-4.3-0.9l-22.7,16.8l9.6,2.1
			l0,0l-4.7,5.7l0,0l-0.4,7.2l0,0l7.9,4l0,0l2.3-13.8l0,0L268.9,140.5z"/>
		<path style="fill:#173431;" d="M266.4,161l11.1-9.4l-3.6-2.8l-3.2,0.8l0,0c0,0-4.2,4.3-12.1,12.3L266.4,161z"/>
		<path style="fill:#173431;" d="M289.8,160.1l10.8,0.8l-12.3-12.5l-1.3,4.7l3,2.3l0,0L289.8,160.1z"/>
		<path style="fill:#173431;" d="M308.7,187.8l10.2-7.9l-8.3-9.1l-2.6,3l0,0l-0.9,2.6l-3.4,0.8l0,0l-0.2,5.7l0,0L308.7,187.8z"/>
		<path style="fill:#173431;" d="M293.8,174.2c0.4-2.8,0.6-4.5,0.6-4.5l0,0l7.7-7.4l-7.6,1.9l-2.8,3.4l0,0l-4.9,0.2L293.8,174.2z"/>
		<path style="fill:#173431;" d="M281.3,169.1c0.2-0.6,0.6-1.1,0.8-1.5l-5.1-4.7l-2.1,2.6l-15.1,8.3l-1.3,4.5l-7.4,0.2
			c-0.8,2.3-2.3,4.3-4.3,5.9c-1.3,0.9-2.8,1.7-4.3,2.5l0,0l-5.1,10.2l0,0l-2.8-7.2l0,0l6.4-14.9l0,0l-2.5-1.5l0,0l-13.4,8.1l0,0
			c0,0,2.6,8.1,6.8,20.6c3.8-1.5,7.7-2.6,11.9-3.6c1.7-0.4,4.2-0.9,7.6-1.5c3.4-0.6,6-0.8,9.6-0.9c4.7-0.4,4.2,0,7.9-0.4
			c5.3-0.4,10.8-1.1,10.8-1.1s1.7-7.2,0-7.9c-0.6-0.2-1.3-0.2-1.9,0l-5.5,3l7.6-11.9l-1.9-1.1c-4.2,3.6-5.5,4.2-5.5,4.2
			c-1.9,0.6-4,0.6-5.9,0.2l-12.3,4.9l23.2-17.6L281.3,169.1z"/>
		<path style="fill:#173431;" d="M233.2,154.8l7-0.2l-1.7-1.5L236,145c-1.7,4.5-2.6,6.8-2.6,6.8l0,0l-4.7,1.9l0,0l-4.7,4.9
			c-0.4,2.8-0.6,4.7-0.6,4.7l0,0l7.2-7.4l0,0L233.2,154.8z"/>
		<path style="fill:#173431;" d="M222.1,172.7l2.8-4.7l8.9-7.4l0,0L233,159l-8.5,5.7l0,0l-5.7,2.5l2.1,2.6l0,0L222.1,172.7z"/>
		<path style="fill:#173431;" d="M218.3,138.9l5.9-7.6l1.9-6.2l-4.7,4.7l-5.9,6.8l0,0l-5.3,6.2l0,0c0,0,0,0.9,0,3L218.3,138.9z"/>
		<path style="fill:#173431;" d="M198.6,204.5l-0.6-16.8l0,0l6.6-14.7l-3.6,0.4l-11.9,10.2c-5.3,5.5-10.6,8.1-13.4,6.4
			c-2.1-1.3-2.3-4.9-2.3-8.1c-0.2-7.7,3.2-15.1,3.2-15.1l0,0l-1.7-2.5l0,0l5.3-6l0,0L180,154l0,0c0,0-0.8,0.2-1.3,0.4
			c-0.4,0.2-0.8,0.4-1.1,0.6c-1.1,0.9-2.3,1.9-3.2,3c-0.6,0.9-1.1,1.7-1.7,2.8c-0.4,0.9-0.9,1.7-1.3,2.6c-1.1,2.6-1.9,5.3-2.3,6.4
			c-1.1,4-2.3,7.7-2.3,7.7l0,0c-0.4,1.1-0.8,2.5-0.9,3.8c0,0.8,0,1.5,0.2,2.3c0.4,1.3,0.8,2.6,1.5,3.8c0.9,1.7,2.3,3.2,3.8,4.5
			c3.4,2.8,7,5.3,11,7.4C187.7,201.4,193,203.3,198.6,204.5z"/>
		<path style="fill:#173431;" d="M180.1,178.8c0.9-1.5,5.3-8.7,13-9.8c1.3-0.2,2.8-0.2,4.2,0.2l-0.6-2.6l0,0l-8.7,0.9l0,0l0.8-2.3
			l0,0l9.4-9.3c-0.4-0.8-0.8-1.7-1.1-2.5l-11.9,11.9l0,0l0.2,4.9l0,0l-5.3,4.7C180.1,176.1,180.1,177.5,180.1,178.8z"/>
		<path style="fill:#173431;" d="M208.1,170.7l2.1-4.2c-0.2-3.6-0.2-7.2-0.4-10.8l-6.2,4.3l-0.9,2.8L208.1,170.7z"/>
	</g>
</g>
<g id="pylon">
	<path style="fill:#EF8A5D;" d="M278.7,460.6L253,475.3c-0.9,0.5-2,0.5-2.9,0l-25.6-14.7c-1.3-0.8-1.9-2.6-1-3.9
		c0.2-0.4,0.6-0.8,1-1l25.7-14.8c0.9-0.5,2-0.5,2.9,0l25.7,14.8c1.3,0.8,1.9,2.6,1,3.9C279.5,460,279.2,460.4,278.7,460.6z"/>
	<path style="fill:#EF8A5D;" d="M230.4,454.6H223v3.4h7.4V454.6z"/>
	<path style="fill:#EF8A5D;" d="M280.1,454.6h-7.4v3.4h7.4V454.6z"/>
	<path style="fill:#E9D758;" d="M278.7,457.6L253,472.3c-0.9,0.5-2,0.5-2.9,0l-25.7-14.7c-1.3-0.8-1.9-2.6-1-3.9
		c0.2-0.4,0.6-0.8,1-1l25.7-14.8c0.9-0.5,2-0.5,2.9,0l25.7,14.8c1.3,0.8,1.9,2.6,1,3.9C279.5,457,279.2,457.3,278.7,457.6z"/>
	<path style="fill:#EF8A5D;" d="M271.2,452.8c-3.9,7-11.3,11.5-19.4,11.6c-12.3,0.1-18.9-10.3-19.2-10.8c0,0,3.1-8,5.4-14.3
		c4.4-12.1,7.3-23.7,7.3-23.7s1.1-1.7,2.2-2.5c1.9-1.6,4.2-1.6,4.6-1.6c0.5,0,2.6,0,4.2,1.3c1,0.8,2.2,2.5,2.2,2.5
		s2.6,11.7,7.3,23.9C267.9,445.2,271.2,452.8,271.2,452.8z"/>
	<path style="fill:#E9D758;" d="M268.7,446.8c-0.5,0.7-6.5,8.6-17,8.4c-10.1-0.2-15.6-7.9-16.3-8.7l2.6-7.1
		c0.6,0.7,5.5,6.7,13.9,6.6c8.3,0,13.2-5.9,13.8-6.6C266.7,441.8,267.7,444.3,268.7,446.8z"/>
	<path style="fill:#E9D758;" d="M263.5,433.4c-7,5.1-16.5,5-23.4-0.2c0.8-2.8,1.7-5.5,2.6-8.3c5.4,4.1,13,4,18.1-0.2
		C261.8,427.6,262.7,430.5,263.5,433.4z"/>
	<path style="fill:#E9D758;" d="M251.8,419.5c3.7,0,6.6-1.8,6.6-3.9s-3-3.9-6.6-3.9c-3.7,0-6.6,1.8-6.6,3.9S248.2,419.5,251.8,419.5
		z"/>
</g>
</svg>
