<?xml version="1.0" encoding="utf-8"?>
<!-- Generator: Adobe Illustrator 24.3.0, SVG Export Plug-In . SVG Version: 6.00 Build 0)  -->
<svg version="1.1" id="Layer_1" xmlns="http://www.w3.org/2000/svg" xmlns:xlink="http://www.w3.org/1999/xlink" x="0px" y="0px"
	 viewBox="0 0 500 500" style="enable-background:new 0 0 500 500;" xml:space="preserve">
<path style="opacity:0.75;fill:#E9D758;enable-background:new    ;" d="M250,484.1l-235-135.7l234.9-135.7L485,348.4L250,484.1z"/>
<path style="fill:none;stroke:#F58555;stroke-width:10;stroke-miterlimit:10;" d="M243.5,439.9L43.3,327.2
	c-10.8-6.1-14.7-19.8-8.6-30.6c2-3.5,4.8-6.4,8.3-8.4l200.4-115.9c7.2-4,15.8-4,22.9,0.2l190.7,114.2c10.6,6.4,14.1,20.2,7.7,31
	c-1.8,3.1-4.6,5.9-7.7,7.7L266.1,439.6C259.1,443.8,250.5,443.8,243.5,439.9z"/>
<g id="pylon">
	<path style="fill:#EF8A5D;" d="M278.7,460.6L253,475.3c-0.9,0.5-2,0.5-2.9,0l-25.6-14.7c-1.3-0.8-1.9-2.6-1-3.9
		c0.2-0.4,0.6-0.8,1-1l25.7-14.8c0.9-0.5,2-0.5,2.9,0l25.7,14.8c1.3,0.8,1.9,2.6,1,3.9C279.5,460,279.2,460.4,278.7,460.6z"/>
	<path style="fill:#EF8A5D;" d="M230.4,454.6H223v3.4h7.4V454.6z"/>
	<path style="fill:#EF8A5D;" d="M280.1,454.6h-7.4v3.4h7.4V454.6z"/>
	<path style="fill:#E9D758;" d="M278.7,457.6L253,472.3c-0.9,0.5-2,0.5-2.9,0l-25.7-14.7c-1.3-0.8-1.9-2.6-1-3.9
		c0.2-0.4,0.6-0.8,1-1l25.7-14.8c0.9-0.5,2-0.5,2.9,0l25.7,14.8c1.3,0.8,1.9,2.6,1,3.9C279.5,457,279.2,457.3,278.7,457.6z"/>
	<path style="fill:#EF8A5D;" d="M271.2,452.8c-3.9,7-11.3,11.5-19.4,11.6c-12.3,0.1-18.9-10.3-19.2-10.8c0,0,3.1-8,5.4-14.3
		c4.4-12.1,7.3-23.7,7.3-23.7s1.1-1.7,2.2-2.5c1.9-1.6,4.2-1.6,4.6-1.6c0.5,0,2.6,0,4.2,1.3c1,0.8,2.2,2.5,2.2,2.5
		s2.6,11.7,7.3,23.9C267.9,445.2,271.2,452.8,271.2,452.8z"/>
	<path style="fill:#E9D758;" d="M268.7,446.8c-0.5,0.7-6.5,8.6-17,8.4c-10.1-0.2-15.6-7.9-16.3-8.7l2.6-7.1
		c0.6,0.7,5.5,6.7,13.9,6.6c8.3,0,13.2-5.9,13.8-6.6C266.7,441.8,267.7,444.3,268.7,446.8z"/>
	<path style="fill:#E9D758;" d="M263.5,433.4c-7,5.1-16.5,5-23.4-0.2c0.8-2.8,1.7-5.5,2.6-8.3c5.4,4.1,13,4,18.1-0.2
		C261.8,427.6,262.7,430.5,263.5,433.4z"/>
	<path style="fill:#E9D758;" d="M251.8,419.5c3.7,0,6.6-1.8,6.6-3.9s-3-3.9-6.6-3.9c-3.7,0-6.6,1.8-6.6,3.9S248.2,419.5,251.8,419.5
		z"/>
</g>
<g>
	<g id="ELEMENTS_9_">
		<path style="fill:#FFFFFF;" d="M229.9,389.6l46.2-26.9l-73.4-42.2l-46.3,27.2L229.9,389.6z"/>
		<path style="fill:#393939;" d="M149.1,337.6l134.2,25.8l0,0c0,0,0,2.1,0,5.7l-44.8,25.8l-89.6-51.7L149.1,337.6z"/>
		<path style="fill:#E2DFDB;" d="M193.9,311.7l89.6,51.7l-44.8,25.8l-89.6-51.7L193.9,311.7z"/>
		<path style="fill:#EF8A5D;" d="M238.7,375.3l26.9-16.9V205.9l-26.9-11V375.3z"/>
		<path style="fill:#E6D56D;" d="M238.7,375.3L176,339.6c0-60.6,0-121.3,0-181.8l62.7,37.2V375.3z"/>
		<path style="fill:#EF8A5D;" d="M269.4,337.2l77.4-44.6c0.9-0.7,1.6-1.7,1.7-2.9c0-0.7,0-1.4,0-2.1c0-1.4,0-2.1,0-2.4
			c-0.2-3.6,0-125.3,0-125.3c0-1,0-2.2-0.2-3.3c-0.2-0.7-0.5-1.4-0.9-2.1l0,0c-33.8,3.6-77.9,43.6-77.9,43.8
			C269.4,244.5,269.4,290.9,269.4,337.2z"/>
		<path style="fill:#EF8A5D;" d="M269.4,199.6l79.1-45.5L189.8,62.6l-79.4,45.8L269.4,199.6z"/>
		<path style="fill:#3E7172;" d="M363.3,276.9c1.2-0.7,2.2-1.6,3.1-2.8c0.7-1.2,1-2.8,0.9-4.1c0-40.7,0-81.3,0-122
			c0-2.9-1.6-5.5-4.1-7.1L212.2,56c-2.4-1.4-5.5-1.4-7.9,0c0,0-0.2,0.2-0.5,0.3c-0.7,0.3-1.2,0.7-1.2,0.9c-0.5,0.3-3.3,2.1-10.5,6.5
			c4.3,2.4,60.8,35,121.6,70.1l30.8,17.7c0,0,4,6.9,4,7.1c0,42.2,0,84.3,0,126.5C348.5,348.4,356.7,280.5,363.3,276.9z"/>
		<path style="fill:#D6785B;" d="M110.9,245.6l158.5,91.7V199.6l-158.5-91.3V245.6z"/>
		<path style="fill:#3E7172;" d="M116.7,244.2l144,83.2c0-42,0-84.1,0.2-126.1l-144.4-81.7C116.6,161.1,116.6,202.7,116.7,244.2z"/>
		<path style="fill:#3E7172;" d="M293.2,294.1l39.3-22.7v-91.3l-39.3,23.1V294.1z"/>
		<path style="fill:#173431;" d="M296.6,216.1l32.6-19V192l-32.6,19.1V216.1z"/>
		<path style="fill:#173431;" d="M296.4,222.8l32.6-19v-5.2l-32.6,19.1V222.8z"/>
		<path style="fill:#173431;" d="M296.6,229.9l32.6-19v-5.2l-32.6,19.1V229.9z"/>
		<path style="fill:#173431;" d="M296.6,236.6l32.6-19v-5.2l-32.6,19.1V236.6z"/>
		<path style="fill:#173431;" d="M296.6,236.6l32.6-19v-5.2l-32.6,19.1V236.6z"/>
		<path style="fill:#173431;" d="M296.6,243.3l32.6-19v-5.2l-32.6,19.1V243.3z"/>
		<path style="fill:#173431;" d="M296.6,250.4l32.6-19v-5.2l-32.6,19.1V250.4z"/>
		<path style="fill:#173431;" d="M296.4,257.1l32.6-19V233l-32.6,19.1V257.1z"/>
		<path style="fill:#173431;" d="M296.4,257.3l32.6-19v-5.2l-32.6,19.1V257.3z"/>
		<path style="fill:#173431;" d="M296.4,264l32.6-19v-5.2L296.4,259V264z"/>
		<path style="fill:#173431;" d="M296.6,270.9c10.9-6.4,21.7-12.6,32.6-19v-5.2l-32.6,19.1V270.9z"/>
		<path style="fill:#E2DFDB;" d="M125.5,240.2L248,311c0-35.7,0-71.5,0.2-107.2l-122.8-69.4L125.5,240.2z"/>
		<path style="fill:#393939;" d="M125.9,225.6c7.1,7.1,15,13.4,23.4,18.8c25.8,16.4,42.6,14.6,62.9,26.7
			c10.5,6.4,24.1,17.7,35.7,39.8v-23.6c-9.8-19.5-21.5-29.3-30-34.6c-21-13.4-37.9-9.1-63.4-23.3c-10.9-6.2-20.8-14.1-29.1-23.4
			L125.9,225.6z"/>
		<path style="fill:#E6D56D;" d="M125.9,177.2c7.1,7.1,15,13.4,23.4,19c25.8,16.4,42.6,14.6,62.9,26.7c10.5,6.4,24.1,17.7,35.7,39.8
			V239c-9.8-19.5-21.5-29.3-30-34.6c-21-13.4-37.9-9.1-63.4-23.3c-10.9-6.2-20.8-14.1-29.1-23.4L125.9,177.2z"/>
	</g>
</g>
</svg>
