<?xml version="1.0" encoding="utf-8"?>
<!-- Generator: Adobe Illustrator 25.0.0, SVG Export Plug-In . SVG Version: 6.00 Build 0)  -->
<svg version="1.1" id="Layer_1" xmlns="http://www.w3.org/2000/svg" xmlns:xlink="http://www.w3.org/1999/xlink" x="0px" y="0px"
	 viewBox="0 0 500 500" style="enable-background:new 0 0 500 500;" xml:space="preserve">
<path style="opacity:0.75;fill:#E9D758;enable-background:new    ;" d="M250,484.1L15,348.4l234.9-135.7L485,348.4L250,484.1z"/>
<path style="fill:none;stroke:#F58555;stroke-width:10;stroke-miterlimit:10;" d="M243.5,439.9L43.3,327.2
	c-10.8-6.1-14.7-19.8-8.6-30.6c2-3.5,4.8-6.4,8.3-8.4l200.4-115.9c7.2-4,15.8-4,22.9,0.2L457,286.7c10.6,6.4,14.1,20.2,7.7,31
	c-1.8,3.1-4.6,5.9-7.7,7.7L266.1,439.6C259.1,443.8,250.5,443.8,243.5,439.9z"/>
<g>
	<g id="Layer_7">
		<path style="fill:#FFFFFF;" d="M246.9,268.9l124.4,68.9l-124.4,68.9l-119.4-69L246.9,268.9z"/>
		<path style="fill:#39393A;" d="M372.2,340v-12.1l0,0l-246.3-0.4v12.1l123.1,71.1L372.2,340z"/>
		<path style="fill:#E4DFDA;" d="M372.2,327.9l-123.2-71.5c-41,23.7-82,47.4-123.1,71.1l123.1,71.1L372.2,327.9z"/>
		<path style="fill:#297373;" d="M249.4,376.6l44.5-25.7l27.7-16V85.8l-30.3,17.5l-42,24.2c0,37.1,0,74.1,0,111.2c0,21,0,42,0,63
			L249.4,376.6z"/>
		<path style="fill:#173431;" d="M249.3,376.4l-40.6-23.4l-31.7-18.3V85.6l38.8,22.4l33.4,19.3V376.4z"/>
		<path style="fill:#F58555;" d="M331.1,99.1v-8l0,0l-163-0.3v8l81.5,47L331.1,99.1z"/>
		<path style="fill:#173431;" d="M305.6,93.8v-5.5l0,0l-111.9-0.2v5.5l55.9,32.3L305.6,93.8z"/>
		<ellipse style="fill:#F58555;" cx="156.3" cy="329.7" rx="11.8" ry="5.3"/>
		<path style="fill:#173431;" d="M159.6,329.1c-0.6,1.8-2.5,2.8-4.3,2.3c-1.1-0.3-1.9-1.2-2.3-2.3v-25.2h6.6V329.1z"/>
		<path style="fill:#E9D758;" d="M168.2,293.7c-0.7,6.5-6.5,11.3-13.1,10.6c-5.7-0.6-10.2-5.2-10.6-11c0-4.3,0.1-35.2,10.3-37.4
			c0.7-0.2,1.5-0.2,2.2,0C167.4,258.1,168.2,289.3,168.2,293.7z"/>
		<path style="fill:#297373;" d="M168.2,293.7c-0.3,2.2-1.1,4.2-2.4,5.9c-1,1.3-2.2,2.4-3.6,3.2c-1.7,1-3.7,1.5-5.7,1.5
			c-2.6,0-5.2-0.8-7.3-2.4c-0.3-0.2-3.8-2.9-4.3-6.1c-0.1-0.4-0.4-2.6-0.4-2.6l0,0c7.5-3.9,9.3-5.5,9.3-5.5c5.3-4.8,5.5-12.6,5.5-15
			c0,0,0.2-5.3-3.7-17l0,0c0.6,0,1.3,0.1,1.9,0.3c0.5,0.1,0.9,0.3,1.3,0.6c2.5,1.5,4.1,5.2,4.1,5.2c1.2,2.8,2.2,5.8,2.9,8.8
			c0.8,3.7,1.3,7.5,1.7,11.3C167.9,285,168.2,289,168.2,293.7z"/>
		<ellipse style="fill:#F58555;" cx="342.3" cy="328" rx="11.8" ry="5.3"/>
		<path style="fill:#173431;" d="M345.6,327.4c-0.6,1.8-2.5,2.8-4.3,2.3c-1.1-0.3-1.9-1.2-2.3-2.3v-25.2h6.6V327.4z"/>
		<path style="fill:#E9D758;" d="M354.3,292c-0.7,6.5-6.5,11.3-13.1,10.6c-5.7-0.6-10.2-5.2-10.6-11c0-4.3,0.1-35.2,10.3-37.4
			c0.7-0.2,1.5-0.2,2.2,0C353.5,256.4,354.2,287.6,354.3,292z"/>
		<path style="fill:#297373;" d="M354.3,292c-0.3,2.1-1.1,4.2-2.4,5.9c-1,1.3-2.2,2.4-3.6,3.2c-1.7,1-3.7,1.5-5.7,1.5
			c-2.6,0-5.2-0.9-7.3-2.4c-0.3-0.2-3.8-2.9-4.3-6.1c-0.1-0.4-0.4-2.6-0.4-2.6l0,0c7.5-3.9,9.3-5.5,9.3-5.5c5.3-4.8,5.5-12.6,5.6-15
			c0,0,0.1-5.3-3.7-17l0,0c0.6,0,1.3,0.1,1.9,0.3c0.4,0.1,0.9,0.3,1.3,0.6c2.5,1.5,4.2,5.2,4.2,5.2c1.2,2.8,2.2,5.8,2.8,8.8
			c0.8,3.7,1.3,7.5,1.7,11.3C353.9,283.2,354.2,287.2,354.3,292z"/>
		<path style="fill:#E9D758;" d="M331.1,91.1l-81.6-47.3l-81.4,47l81.5,47L331.1,91.1z"/>
		<path style="fill:#F58555;" d="M330.8,72.7v-8l0,0l-163-0.3v8l81.5,47L330.8,72.7z"/>
		<path style="fill:#E9D758;" d="M330.8,64.7l-81.5-47.3l-81.5,47l81.5,47L330.8,64.7z"/>
		<path style="fill:#173431;" d="M249.4,127.6l-58.3-33.8v-7.8l58.2,33.6L249.4,127.6z"/>
		<path style="fill:#297373;" d="M249.4,127.8L307.6,94v-7.9l-58.1,33.6C249.5,122.4,249.4,125.1,249.4,127.8z"/>
		<path style="fill:#E9D758;" d="M201,144.5l-12.8-7.3v-14.9l12.8,7.4C201,134.7,201,139.6,201,144.5z"/>
		<path style="fill:#F58555;" d="M201,144.5l-12.8-7.3v-14.9l1,0.6c0,4.5,0,9.1,0,13.6l11.8,6.7V144.5z"/>
		<path style="fill:#E9D758;" d="M219.5,155.7l-12.8-7.4v-14.9l12.8,7.4C219.4,145.8,219.4,150.7,219.5,155.7z"/>
		<path style="fill:#F58555;" d="M219.5,155.7l-12.8-7.4v-14.9l1,0.6c0,4.5,0,9.1,0,13.6c3.9,2.3,7.9,4.5,11.8,6.7L219.5,155.7z"/>
		<path style="fill:#E9D758;" d="M238.6,166.4l-12.8-7.4v-14.8l12.8,7.4C238.5,156.5,238.6,161.5,238.6,166.4z"/>
		<path style="fill:#F58555;" d="M238.6,166.4l-12.8-7.4v-14.8l1,0.6c0,4.5,0,9.1,0,13.6l11.8,6.7V166.4z"/>
		<path style="fill:#E9D758;" d="M200.8,164l-12.8-7.4v-14.9l12.8,7.4C200.8,154.1,200.8,159.1,200.8,164z"/>
		<path style="fill:#F58555;" d="M200.8,164l-12.8-7.4v-14.9l1,0.6c0,4.5,0,9.1,0,13.6l11.8,6.8V164z"/>
		<path style="fill:#E9D758;" d="M219.3,175.1l-12.8-7.4v-14.9l12.8,7.4C219.3,165.2,219.3,170.2,219.3,175.1z"/>
		<path style="fill:#F58555;" d="M219.3,175.1l-12.8-7.4v-14.9l1,0.6c0,4.5,0,9.1,0,13.6l11.8,6.7V175.1z"/>
		<path style="fill:#E9D758;" d="M237.6,185.9l-12.8-7.4v-14.9l12.8,7.4C237.6,176,237.6,180.9,237.6,185.9z"/>
		<path style="fill:#F58555;" d="M237.6,185.9l-12.8-7.4v-14.9l1,0.6c0,4.5,0,9.1,0,13.6l11.8,6.7V185.9z"/>
		<path style="fill:#E9D758;" d="M200.6,193.4l-12.8-7.4v-14.9l12.8,7.4C200.6,183.5,200.6,188.4,200.6,193.4z"/>
		<path style="fill:#F58555;" d="M200.6,193.4l-12.8-7.4v-14.9l1,0.6c0,4.5,0,9.1,0,13.6l11.8,6.8V193.4z"/>
		<path style="fill:#E9D758;" d="M219.1,204.5l-12.8-7.3v-14.8l12.8,7.4C219.1,194.6,219.1,199.5,219.1,204.5z"/>
		<path style="fill:#F58555;" d="M219.1,204.5l-12.8-7.3v-14.8l1,0.6c0,4.5,0,9.1,0,13.6c3.9,2.3,7.9,4.5,11.8,6.7L219.1,204.5z"/>
		<path style="fill:#E9D758;" d="M238.2,215.2l-12.8-7.3V193l12.8,7.4C238.2,205.4,238.2,210.3,238.2,215.2z"/>
		<path style="fill:#F58555;" d="M238.2,215.2l-12.8-7.3V193l1,0.6c0,4.5,0,9.1,0,13.6l11.8,6.7V215.2z"/>
		<path style="fill:#E9D758;" d="M200.4,212.8l-12.8-7.4v-14.9l12.8,7.4C200.4,203,200.4,207.9,200.4,212.8z"/>
		<path style="fill:#F58555;" d="M200.4,212.8l-12.8-7.4v-14.9l1,0.6c0,4.5,0,9.1,0,13.6l11.8,6.8V212.8z"/>
		<path style="fill:#E9D758;" d="M218.9,223.9l-12.8-7.3v-14.9l12.8,7.4C218.9,214.1,218.9,219,218.9,223.9z"/>
		<path style="fill:#F58555;" d="M218.9,223.9l-12.8-7.3v-14.9l1,0.6c0,4.5,0,9.1,0,13.6l11.8,6.7V223.9z"/>
		<path style="fill:#E9D758;" d="M238,234.7l-12.8-7.4v-14.9l12.8,7.4C238,224.8,238,229.7,238,234.7z"/>
		<path style="fill:#F58555;" d="M238,234.7l-12.8-7.4v-14.9l1,0.6c0,4.5,0,9.1,0,13.6c3.9,2.3,7.9,4.5,11.8,6.7L238,234.7z"/>
		<path style="fill:#E9D758;" d="M200.4,241.3l-12.8-7.4v-14.9l12.8,7.4C200.4,231.4,200.4,236.4,200.4,241.3z"/>
		<path style="fill:#F58555;" d="M200.4,241.3l-12.8-7.4v-14.9l1,0.6c0,4.5,0,9.1,0,13.6l11.8,6.8V241.3z"/>
		<path style="fill:#E9D758;" d="M218.9,252.4l-12.8-7.3v-14.9l12.8,7.4C218.9,242.5,218.9,247.5,218.9,252.4z"/>
		<path style="fill:#F58555;" d="M218.9,252.4l-12.8-7.3v-14.9l1,0.6c0,4.5,0,9.1,0,13.6l11.8,6.7L218.9,252.4z"/>
		<path style="fill:#E9D758;" d="M238,263.2l-12.8-7.3V241l12.8,7.4C238,253.3,238,258.2,238,263.2z"/>
		<path style="fill:#F58555;" d="M238,263.2l-12.8-7.3V241l1,0.6c0,4.5,0,9.1,0,13.6l11.8,6.7V263.2z"/>
		<path style="fill:#E9D758;" d="M200.2,260.8l-12.8-7.4v-14.8l12.8,7.4C200.2,250.9,200.2,255.8,200.2,260.8z"/>
		<path style="fill:#F58555;" d="M200.2,260.8l-12.8-7.4v-14.8l1,0.6c0,4.5,0,9.1,0,13.6l11.8,6.8V260.8z"/>
		<path style="fill:#E9D758;" d="M218.7,271.9l-12.8-7.3v-14.9l12.8,7.4C218.7,262,218.7,266.9,218.7,271.9z"/>
		<path style="fill:#F58555;" d="M218.7,271.9l-12.8-7.3v-14.9l1,0.6c0,4.5,0,9.1,0,13.6l11.8,6.8V271.9z"/>
		<path style="fill:#E9D758;" d="M237,282.6l-12.8-7.4v-14.9l12.8,7.4C237,272.7,237,277.7,237,282.6z"/>
		<path style="fill:#F58555;" d="M237,282.6l-12.8-7.3v-14.9l1,0.6c0,4.5,0,9.1,0,13.6l11.8,6.8L237,282.6z"/>
		<path style="fill:#E9D758;" d="M200,290.2l-12.8-7.4v-14.9l12.8,7.4C200,280.3,200,285.2,200,290.2z"/>
		<path style="fill:#F58555;" d="M200,290.2l-12.8-7.4v-14.9l1,0.6c0,4.5,0,9.1,0,13.6l11.8,6.8V290.2z"/>
		<path style="fill:#E9D758;" d="M218.5,301.3l-12.8-7.4v-14.9l12.8,7.4C218.5,291.4,218.5,296.3,218.5,301.3z"/>
		<path style="fill:#F58555;" d="M218.5,301.3l-12.8-7.4v-14.9l1,0.6c0,4.5,0,9.1,0,13.6l11.8,6.8L218.5,301.3z"/>
		<path style="fill:#E9D758;" d="M237.6,312l-12.8-7.4v-14.9l12.8,7.4C237.6,302.1,237.6,307.1,237.6,312z"/>
		<path style="fill:#F58555;" d="M237.6,312l-12.8-7.4v-14.9l1,0.6c0,4.5,0,9.1,0,13.6l11.8,6.8V312z"/>
		<path style="fill:#E9D758;" d="M199.8,309.6l-12.8-7.4v-14.8l12.8,7.4C199.8,299.7,199.8,304.7,199.8,309.6z"/>
		<path style="fill:#F58555;" d="M199.8,309.6l-12.8-7.4v-14.8l1,0.6c0,4.5,0,9.1,0,13.6l11.8,6.8V309.6z"/>
		<path style="fill:#E9D758;" d="M218.3,320.7l-12.8-7.4v-14.9l12.8,7.4C218.3,310.8,218.3,315.8,218.3,320.7z"/>
		<path style="fill:#F58555;" d="M218.3,320.7l-12.8-7.4v-14.9l1,0.6c0,4.5,0,9.1,0,13.6l11.8,6.8V320.7z"/>
		<path style="fill:#E9D758;" d="M237.4,331.5l-12.8-7.4v-14.9l12.8,7.4C237.4,321.6,237.4,326.5,237.4,331.5z"/>
		<path style="fill:#F58555;" d="M237.4,331.5l-12.8-7.4v-14.9l1,0.6c0,4.5,0,9.1,0,13.6l11.8,6.8V331.5z"/>
		<path style="fill:#E9D758;" d="M273.4,144l-12.8,7.4v14.9l12.8-7.4C273.4,153.9,273.4,149,273.4,144z"/>
		<path style="fill:#F58555;" d="M260.6,151.4l12.8-7.4v14.9l-1,0.6c0-4.5,0-9.1,0-13.6l-11.8,6.9L260.6,151.4z"/>
		<path style="fill:#E9D758;" d="M291.9,132.9l-12.8,7.4v14.9l12.8-7.4C291.9,142.8,291.9,137.8,291.9,132.9z"/>
		<path style="fill:#F58555;" d="M279.1,140.2l12.8-7.4v14.8l-1,0.6c0-4.5,0-9.1,0-13.6l-11.8,6.9L279.1,140.2z"/>
		<path style="fill:#E9D758;" d="M310.7,121.8l-12.8,7.4V144l12.8-7.4C310.7,131.7,310.7,126.7,310.7,121.8z"/>
		<path style="fill:#F58555;" d="M297.9,129.1l12.8-7.4v14.9l-1,0.6v-13.6l-11.8,6.9V129.1z"/>
		<path style="fill:#E9D758;" d="M273.5,163.7l-12.8,7.4v14.9l12.8-7.4C273.5,173.5,273.5,168.6,273.5,163.7z"/>
		<path style="fill:#F58555;" d="M260.7,171.1l12.8-7.4v14.9l-1,0.6c0-4.5,0-9.1,0-13.6l-11.8,6.9L260.7,171.1z"/>
		<path style="fill:#E9D758;" d="M292.1,152.5l-12.8,7.4v14.9l12.8-7.4C292.1,162.4,292.1,157.5,292.1,152.5z"/>
		<path style="fill:#F58555;" d="M279.3,159.9l12.8-7.4v14.9l-1,0.6v-13.6l-11.8,6.9V159.9z"/>
		<path style="fill:#E9D758;" d="M310.8,141.4l-12.8,7.4v14.9l12.8-7.4C310.8,151.3,310.8,146.4,310.8,141.4z"/>
		<path style="fill:#F58555;" d="M298,148.8l12.8-7.4v14.9l-1,0.6c0-4.5,0-9.1,0-13.6l-11.8,6.9L298,148.8z"/>
		<path style="fill:#E9D758;" d="M273.4,191.9l-12.8,7.4v14.9l12.8-7.4C273.3,201.8,273.4,196.9,273.4,191.9z"/>
		<path style="fill:#F58555;" d="M260.5,199.3l12.8-7.4v14.9l-1,0.6c0-4.5,0-9.1,0-13.6l-11.8,6.9L260.5,199.3z"/>
		<path style="fill:#E9D758;" d="M291.9,180.8l-12.8,7.3V203l12.8-7.4C291.9,190.7,291.9,185.7,291.9,180.8z"/>
		<path style="fill:#F58555;" d="M279.1,188.1l12.8-7.4v14.9l-1,0.5v-13.6l-11.8,6.9L279.1,188.1z"/>
		<path style="fill:#E9D758;" d="M310.6,169.7l-12.8,7.4v14.9l12.8-7.4C310.6,179.6,310.6,174.7,310.6,169.7z"/>
		<path style="fill:#F58555;" d="M297.8,177.1l12.8-7.4v14.9l-1,0.6v-13.6l-11.8,6.9V177.1z"/>
		<path style="fill:#E9D758;" d="M273.5,211.6l-12.8,7.3v14.9l12.8-7.4C273.5,221.5,273.5,216.5,273.5,211.6z"/>
		<path style="fill:#F58555;" d="M260.7,218.9l12.8-7.4v14.9l-1,0.6c0-4.6,0-9.1,0-13.6l-11.8,6.9L260.7,218.9z"/>
		<path style="fill:#E9D758;" d="M292,200.5l-12.8,7.4v14.9l12.8-7.4C292,210.4,292,205.4,292,200.5z"/>
		<path style="fill:#F58555;" d="M279.2,207.8l12.8-7.4v14.9l-1,0.6c0-4.5,0-9.1,0-13.6l-11.8,6.9L279.2,207.8z"/>
		<path style="fill:#E9D758;" d="M310.8,189.4l-12.8,7.4v14.9l12.8-7.4C310.8,199.3,310.8,194.3,310.8,189.4z"/>
		<path style="fill:#F58555;" d="M298,196.7l12.8-7.4v14.9l-1,0.6c0-4.5,0-9.1,0-13.6L298,198L298,196.7z"/>
		<path style="fill:#E9D758;" d="M273.2,241.6l-12.8,7.4v14.9l12.8-7.4C273.2,251.4,273.2,246.5,273.2,241.6z"/>
		<path style="fill:#F58555;" d="M260.4,248.9l12.8-7.4v14.9l-1,0.6v-13.6l-11.8,6.9V248.9z"/>
		<path style="fill:#E9D758;" d="M291.7,230.4l-12.8,7.4v14.9l12.8-7.4C291.7,240.3,291.7,235.4,291.7,230.4z"/>
		<path style="fill:#F58555;" d="M278.9,237.8l12.8-7.4v14.9l-1,0.6c0-4.5,0-9.1,0-13.6l-11.8,6.9L278.9,237.8z"/>
		<path style="fill:#E9D758;" d="M310.5,219.3l-12.8,7.4v14.9l12.8-7.4C310.5,229.2,310.5,224.3,310.5,219.3z"/>
		<path style="fill:#F58555;" d="M297.7,226.7l12.8-7.4v14.9l-1,0.6c0-4.5,0-9.1,0-13.6l-11.8,6.9L297.7,226.7z"/>
		<path style="fill:#E9D758;" d="M273.4,261.2l-12.8,7.4v14.9l12.8-7.4C273.4,271.1,273.4,266.2,273.4,261.2z"/>
		<path style="fill:#F58555;" d="M260.5,268.6l12.8-7.4V276l-1,0.6c0-4.5,0-9.1,0-13.6l-11.8,6.9L260.5,268.6z"/>
		<path style="fill:#E9D758;" d="M291.9,250.1l-12.8,7.4v14.9l12.8-7.4C291.9,260,291.9,255,291.9,250.1z"/>
		<path style="fill:#F58555;" d="M279.1,257.4l12.8-7.4v14.9l-1,0.6c0-4.5,0-9.1,0-13.6l-11.8,6.9L279.1,257.4z"/>
		<path style="fill:#E9D758;" d="M310.7,239l-12.8,7.4v14.9l12.8-7.4C310.7,248.9,310.7,243.9,310.7,239z"/>
		<path style="fill:#F58555;" d="M297.9,246.4l12.8-7.4v14.9l-1,0.6v-13.7l-11.8,6.9V246.4z"/>
		<path style="fill:#E9D758;" d="M273.2,289.5l-12.8,7.4v14.9l12.8-7.4C273.2,299.4,273.2,294.4,273.2,289.5z"/>
		<path style="fill:#F58555;" d="M260.4,296.8l12.8-7.4v14.9l-1,0.6c0-4.5,0-9.1,0-13.6l-11.8,6.9L260.4,296.8z"/>
		<path style="fill:#E9D758;" d="M291.7,278.3l-12.8,7.4v14.9l12.8-7.4C291.7,288.2,291.7,283.3,291.7,278.3z"/>
		<path style="fill:#F58555;" d="M278.9,285.7l12.8-7.4v14.8l-1,0.6c0-4.5,0-9.1,0-13.6l-11.8,6.9L278.9,285.7z"/>
		<path style="fill:#E9D758;" d="M310.5,267.3l-12.8,7.4v14.9l12.8-7.4C310.5,277.1,310.5,272.2,310.5,267.3z"/>
		<path style="fill:#F58555;" d="M297.7,274.6l12.8-7.4v14.9l-1,0.6V269l-11.8,6.9V274.6z"/>
		<path style="fill:#E9D758;" d="M273.3,309.1l-12.8,7.4v14.9l12.8-7.4C273.3,319,273.3,314.1,273.3,309.1z"/>
		<path style="fill:#F58555;" d="M260.5,316.5l12.8-7.4V324l-1,0.6c0-4.5,0-9.1,0-13.6l-11.8,6.9L260.5,316.5z"/>
		<path style="fill:#E9D758;" d="M291.8,298l-12.8,7.3v14.9l12.8-7.4C291.8,307.9,291.8,302.9,291.8,298z"/>
		<path style="fill:#F58555;" d="M279,305.3l12.8-7.4v14.9l-1,0.6v-13.6l-11.8,6.9V305.3z"/>
		<path style="fill:#E9D758;" d="M310.6,286.9l-12.8,7.4v14.9l12.8-7.4C310.6,296.8,310.6,291.9,310.6,286.9z"/>
		<path style="fill:#F58555;" d="M297.8,294.3l12.8-7.4v14.9l-1,0.6c0-4.5,0-9.1,0-13.6l-11.8,6.9L297.8,294.3z"/>
		<path style="fill:#E9D758;" d="M199.3,332.4l-12.8-7.4v-14.9l12.8,7.4C199.3,322.5,199.3,327.5,199.3,332.4z"/>
		<path style="fill:#F58555;" d="M199.3,332.4l-12.8-7.4v-14.9l1,0.6c0,4.5,0,9.1,0,13.6l11.8,6.7L199.3,332.4z"/>
		<path style="fill:#E9D758;" d="M217.8,343.5l-12.8-7.4v-14.9l12.8,7.4C217.8,333.6,217.8,338.6,217.8,343.5z"/>
		<path style="fill:#F58555;" d="M217.8,343.5l-12.8-7.4v-14.9l1,0.6c0,4.5,0,9.1,0,13.6l11.8,6.7V343.5z"/>
		<path style="fill:#E9D758;" d="M236.9,354.3l-12.8-7.4v-14.8l12.8,7.4C236.9,344.4,236.9,349.3,236.9,354.3z"/>
		<path style="fill:#F58555;" d="M236.9,354.3l-12.8-7.4v-14.8l1,0.6c0,4.5,0,9.1,0,13.6l11.8,6.7V354.3z"/>
		<path style="fill:#E9D758;" d="M271.8,331.9l-12.8,7.4v14.9l12.8-7.4C271.8,341.8,271.8,336.8,271.8,331.9z"/>
		<path style="fill:#F58555;" d="M259,339.2l12.8-7.4v14.9l-1,0.6c0-4.5,0-9.1,0-13.6l-11.8,6.9L259,339.2z"/>
		<path style="fill:#E9D758;" d="M290.3,320.7l-12.8,7.4V343l12.8-7.4C290.3,330.6,290.3,325.7,290.3,320.7z"/>
		<path style="fill:#F58555;" d="M277.5,328.1l12.8-7.4v14.9l-1,0.6v-13.6l-11.8,6.9V328.1z"/>
		<path style="fill:#E9D758;" d="M309,309.7l-12.8,7.3v14.9l12.8-7.4C309,319.5,309,314.6,309,309.7z"/>
		<path style="fill:#F58555;" d="M296.3,317l12.8-7.4v14.9l-1,0.6c0-4.6,0-9.1,0-13.6l-11.8,6.9L296.3,317z"/>
	</g>
</g>
<g id="pylon">
	<path style="fill:#EF8A5D;" d="M278.1,456.8l-25.7,14.7c-0.9,0.5-2,0.5-2.9,0l-25.6-14.7c-1.3-0.8-1.9-2.6-1-3.9
		c0.2-0.4,0.6-0.8,1-1l25.7-14.8c0.9-0.5,2-0.5,2.9,0l25.7,14.8c1.3,0.8,1.9,2.6,1,3.9C278.9,456.2,278.6,456.6,278.1,456.8z"/>
	<path style="fill:#EF8A5D;" d="M229.8,450.8h-7.4v3.4h7.4V450.8z"/>
	<path style="fill:#EF8A5D;" d="M279.5,450.8h-7.4v3.4h7.4V450.8z"/>
	<path style="fill:#E9D758;" d="M278.1,453.8l-25.7,14.7c-0.9,0.5-2,0.5-2.9,0l-25.7-14.7c-1.3-0.8-1.9-2.6-1-3.9
		c0.2-0.4,0.6-0.8,1-1l25.7-14.8c0.9-0.5,2-0.5,2.9,0l25.7,14.8c1.3,0.8,1.9,2.6,1,3.9C278.9,453.2,278.6,453.5,278.1,453.8z"/>
	<path style="fill:#EF8A5D;" d="M270.6,449c-3.9,7-11.3,11.5-19.4,11.6c-12.3,0.1-18.9-10.3-19.2-10.8c0,0,3.1-8,5.4-14.3
		c4.4-12.1,7.3-23.7,7.3-23.7s1.1-1.7,2.2-2.5c1.9-1.6,4.2-1.6,4.6-1.6c0.5,0,2.6,0,4.2,1.3c1,0.8,2.2,2.5,2.2,2.5
		s2.6,11.7,7.3,23.9C267.3,441.4,270.6,449,270.6,449z"/>
	<path style="fill:#E9D758;" d="M268.1,443c-0.5,0.7-6.5,8.6-17,8.4c-10.1-0.2-15.6-7.9-16.3-8.7l2.6-7.1c0.6,0.7,5.5,6.7,13.9,6.6
		c8.3,0,13.2-5.9,13.8-6.6C266.1,438,267.1,440.5,268.1,443z"/>
	<path style="fill:#E9D758;" d="M262.9,429.6c-7,5.1-16.5,5-23.4-0.2c0.8-2.8,1.7-5.5,2.6-8.3c5.4,4.1,13,4,18.1-0.2
		C261.2,423.8,262.1,426.7,262.9,429.6z"/>
	<path style="fill:#E9D758;" d="M251.2,415.7c3.7,0,6.6-1.8,6.6-3.9s-3-3.9-6.6-3.9c-3.7,0-6.6,1.8-6.6,3.9S247.6,415.7,251.2,415.7
		z"/>
</g>
</svg>
