<?xml version="1.0" encoding="utf-8"?>
<!-- Generator: Adobe Illustrator 24.3.0, SVG Export Plug-In . SVG Version: 6.00 Build 0)  -->
<svg version="1.1" id="Layer_1" xmlns="http://www.w3.org/2000/svg" xmlns:xlink="http://www.w3.org/1999/xlink" x="0px" y="0px"
	 viewBox="0 0 500 500" style="enable-background:new 0 0 500 500;" xml:space="preserve">
<path style="opacity:0.75;fill:#E9D758;enable-background:new    ;" d="M250,484.1l-235-135.7l234.9-135.7L485,348.4L250,484.1z"/>
<path style="fill:none;stroke:#F58555;stroke-width:10;stroke-miterlimit:10;" d="M243.5,439.9L43.3,327.2
	c-10.8-6.1-14.7-19.8-8.6-30.6c2-3.5,4.8-6.4,8.3-8.4l200.4-115.9c7.2-4,15.8-4,22.9,0.2l190.7,114.2c10.6,6.4,14.1,20.2,7.7,31
	c-1.8,3.1-4.6,5.9-7.7,7.7L266.1,439.6C259.1,443.8,250.5,443.8,243.5,439.9z"/>
<g>
	<g id="ELEMENTS_3_">
		<path style="fill:#173431;" d="M210.9,206.7L379.4,304L267,368.7L98.7,271.5L210.9,206.7z"/>
		<path style="fill:none;stroke:#173431;stroke-width:0.9469;stroke-miterlimit:10;" d="M210.9,206.7L379.4,304L267,368.7
			L98.7,271.5L210.9,206.7z"/>
		<path style="fill:#E6D56D;" d="M267,411.7L98.7,314.5c3.8-5.2,6.1-11.3,6.9-17.8c0.8-7.9-0.8-16.1-4.8-23l165.9,94.9L267,411.7z"
			/>
		<path style="fill:none;stroke:#173431;stroke-width:0.9469;stroke-miterlimit:10;" d="M267,411.7L98.7,314.5
			c3.8-5.2,6.1-11.3,6.9-17.8c0.8-7.9-0.8-16.1-4.8-23l165.9,94.9L267,411.7z"/>
		<path style="fill:#E6D56D;" d="M379.4,346.9L267,411.5v-43l112.4-64.6c4.8,5.2,7.7,11.7,8.5,18.8
			C388.9,336.2,380.8,345.5,379.4,346.9z"/>
		<path style="fill:none;stroke:#173431;stroke-width:0.9469;stroke-miterlimit:10;" d="M379.4,346.9L267,411.5v-43l112.4-64.6
			c4.8,5.2,7.7,11.7,8.5,18.8C388.9,336.2,380.8,345.5,379.4,346.9z"/>
		<path style="fill:#EF8A5D;" d="M374,370l-2.6-3l0,0l-3.8,5c-0.6-27.9-0.8-41-0.8-41.2c0-0.2,0-0.2,0-0.4s0-0.2,0-0.4
			c-1.2-1.2-2.6-2-4.2-2.8l5-2.8c4.2,2.6,5.6,3.6,5.6,3.8c0,0,0,0.2,0,0.4c0,0.2,0,0.2,0,0.4s0,0.4,0,0.8
			C373.4,330,373.6,345.9,374,370z"/>
		<path style="fill:#EF8A5D;" d="M207.3,145.9l171.1,93c0,0,0,2,0,5.7l-114.2,65.8L94.1,212.3c-0.2-0.4-0.2-0.6,0-1
			c0.4-1.2,2.6-1.2,2.8-1.2C99.3,209.9,131.6,191.2,207.3,145.9z"/>
		<path style="fill:#EF8A5D;" d="M207.7,103.2l168.5,97.3l-112.4,64.6L95.5,168.1L207.7,103.2z"/>
		<path style="fill:#297373;stroke:#EF8A5D;stroke-width:0.9469;stroke-miterlimit:10;" d="M264,308L95.7,210.9
			c3.8-5.2,6.3-11.3,6.9-17.8c0.8-7.9-0.8-16.1-4.8-23L263.8,265L264,308z"/>
		<path style="fill:#297373;stroke:#EF8A5D;stroke-width:0.9469;stroke-miterlimit:10;" d="M376.4,243.4L264,308v-43l112.4-64.6
			c4.8,5.2,7.7,11.7,8.5,18.8C385.9,232.7,377.8,241.8,376.4,243.4z"/>
		<path style="fill:#E9D758;" d="M298.1,313.9l-2.6-3l0,0l-3.8,5c-0.6-27.9-0.8-41-0.8-41.2c0-0.2,0-0.2,0-0.4s0-0.2,0-0.4
			c-1.2-1.2-2.6-2-4.2-2.8l5-2.8c4.2,2.6,5.6,3.6,5.6,3.8c0,0,0,0.2,0,0.4c0,0.2,0,0.2,0,0.4s0,0.4,0,0.8
			C297.5,274.1,297.9,290,298.1,313.9z"/>
	</g>
</g>
</svg>
