<?xml version="1.0" encoding="utf-8"?>
<!-- Generator: Adobe Illustrator 24.3.0, SVG Export Plug-In . SVG Version: 6.00 Build 0)  -->
<svg version="1.1" id="Layer_1" xmlns="http://www.w3.org/2000/svg" xmlns:xlink="http://www.w3.org/1999/xlink" x="0px" y="0px"
	 viewBox="0 0 500 500" style="enable-background:new 0 0 500 500;" xml:space="preserve">
<path style="opacity:0.75;fill:#E9D758;enable-background:new    ;" d="M250,484.1l-235-135.7l234.9-135.7L485,348.4L250,484.1z"/>
<path style="fill:none;stroke:#F58555;stroke-width:10;stroke-miterlimit:10;" d="M243.5,439.9L43.3,327.2
	c-10.8-6.1-14.7-19.8-8.6-30.6c2-3.5,4.8-6.4,8.3-8.4l200.4-115.9c7.2-4,15.8-4,22.9,0.2l190.7,114.2c10.6,6.4,14.1,20.2,7.7,31
	c-1.8,3.1-4.6,5.9-7.7,7.7L266.1,439.6C259.1,443.8,250.5,443.8,243.5,439.9z"/>
<g>
	<g id="ELEMENTS_12_">
		<path style="fill:#FFFFFF;" d="M245,272.1l-103.6,62.4L245,397.1l103.6-62.6L245,272.1z"/>
		<path style="fill:#D37A57;" d="M374,262.9c-0.2-14.1-0.3-28.1-0.5-42.2c-17.8,10.5-35.9,20.9-54,31.4
			c-18.3,10.5-36.4,20.8-54.5,31.1c0,7.6,0,40.8,0,41.2v1.7l-19.9-12.6c0,28.1,0,56,0,84L353.8,335c0.2-20.3,0.2-40.3,0.3-60.6
			L374,262.9z"/>
		<path style="fill:#393939;" d="M317.2,104.7l-108.8,62.8L245,272.2l108.8-62.8C341.6,174.4,329.5,139.6,317.2,104.7z"/>
		<path style="fill:#E2DFDB;" d="M245,272.1l-12.1-34.7c16.3-37.4,32.5-74.9,48.8-112.2l35.5-20.6L245,272.1z"/>
		<path style="fill:#E2DFDB;" d="M303.4,238.2L282,250.5l47.8-110.1c2.2,6.5,4.5,13,6.6,19.4C325.5,186,314.4,212.1,303.4,238.2z"/>
		<path style="fill:#E9D758;" d="M373.5,220.9c-21.9,12.6-43.7,25.2-65.6,37.9l-43.2,24.9c0,0.3,0.2,11.6,0.2,12
			c0,1.8,0.3,28.4,0.3,30.1l94.1-54.3l14.6-8.5l-0.2-20.6C373.7,235.2,373.5,228.1,373.5,220.9z"/>
		<path style="fill:#393939;" d="M288.5,317.9l-30.2,17.4l0.3,34.9l29.9-17.4V317.9z"/>
		<path style="fill:#EF8A5D;" d="M284.8,326.9l-5.3,2.8v5.8l5.1-2.8L284.8,326.9z"/>
		<path style="fill:#EF8A5D;" d="M284.8,336l-5.3,3.2v6.1l5.1-3L284.8,336z"/>
		<path style="fill:#EF8A5D;" d="M245,397.6c-36.2-20.9-72.4-41.8-108.6-62.8V125.1l72.4-41.2l35.9,20.8l0.5,42l-36.5,21.1
			l36.5,104.4l19.8,11.5c0,14.1,0,28.4,0.2,42.5l-19.9-12.3v83.7H245z"/>
		<path style="fill:#3E7172;" d="M353.6,209.3l-22.1,12.6l-86.7,50l10.6,6.1l9.5,5.5l73.7-42.5l35-20.3l-11-6.3L353.6,209.3z"/>
		<path style="fill:#E9D758;" d="M316.7,241.5c-0.7,1-1.8,1.5-3.2,1.5c-1-0.2-2-0.7-2.5-1.5v-17.9h5.6V241.5z"/>
		<ellipse style="fill:#EF8A5D;" cx="313.9" cy="218.9" rx="10.1" ry="9.6"/>
		<path style="fill:#E2DFDB;" d="M321.7,216.6c0.8,2.8-2.3,7-2.3,7l0,0c1.2-4.6,0.8-6,0.8-6s-0.5-1.8-4.6-5.5l0,0
			C315.6,212.1,320.7,213.6,321.7,216.6z"/>
		<path style="fill:#E59F83;" d="M317.4,21l-49.8,28.7l-58.9,34l21.1,12.1l14.8,8.5L300.6,72l52.6-30.4l-17.3-10L317.4,21z"/>
		<path style="fill:#E9D758;" d="M353.3,41.8L297.5,74c-17.6,10.1-35.2,20.4-52.8,30.6c0,0.3,0.2,16.9,0.2,17.3
			c0,0.8,0.3,23.9,0.3,24.7l59.9-34.5l48.8-28.2l-0.3-24.6L353.3,41.8z"/>
	</g>
</g>
<g id="pylon">
	<path style="fill:#EF8A5D;" d="M278.7,460.6L253,475.3c-0.9,0.5-2,0.5-2.9,0l-25.6-14.7c-1.3-0.8-1.9-2.6-1-3.9
		c0.2-0.4,0.6-0.8,1-1l25.7-14.8c0.9-0.5,2-0.5,2.9,0l25.7,14.8c1.3,0.8,1.9,2.6,1,3.9C279.5,460,279.2,460.4,278.7,460.6z"/>
	<path style="fill:#EF8A5D;" d="M230.4,454.6H223v3.4h7.4V454.6z"/>
	<path style="fill:#EF8A5D;" d="M280.1,454.6h-7.4v3.4h7.4V454.6z"/>
	<path style="fill:#E9D758;" d="M278.7,457.6L253,472.3c-0.9,0.5-2,0.5-2.9,0l-25.7-14.7c-1.3-0.8-1.9-2.6-1-3.9
		c0.2-0.4,0.6-0.8,1-1l25.7-14.8c0.9-0.5,2-0.5,2.9,0l25.7,14.8c1.3,0.8,1.9,2.6,1,3.9C279.5,457,279.2,457.3,278.7,457.6z"/>
	<path style="fill:#EF8A5D;" d="M271.2,452.8c-3.9,7-11.3,11.5-19.4,11.6c-12.3,0.1-18.9-10.3-19.2-10.8c0,0,3.1-8,5.4-14.3
		c4.4-12.1,7.3-23.7,7.3-23.7s1.1-1.7,2.2-2.5c1.9-1.6,4.2-1.6,4.6-1.6c0.5,0,2.6,0,4.2,1.3c1,0.8,2.2,2.5,2.2,2.5
		s2.6,11.7,7.3,23.9C267.9,445.2,271.2,452.8,271.2,452.8z"/>
	<path style="fill:#E9D758;" d="M268.7,446.8c-0.5,0.7-6.5,8.6-17,8.4c-10.1-0.2-15.6-7.9-16.3-8.7l2.6-7.1
		c0.6,0.7,5.5,6.7,13.9,6.6c8.3,0,13.2-5.9,13.8-6.6C266.7,441.8,267.7,444.3,268.7,446.8z"/>
	<path style="fill:#E9D758;" d="M263.5,433.4c-7,5.1-16.5,5-23.4-0.2c0.8-2.8,1.7-5.5,2.6-8.3c5.4,4.1,13,4,18.1-0.2
		C261.8,427.6,262.7,430.5,263.5,433.4z"/>
	<path style="fill:#E9D758;" d="M251.8,419.5c3.7,0,6.6-1.8,6.6-3.9s-3-3.9-6.6-3.9c-3.7,0-6.6,1.8-6.6,3.9S248.2,419.5,251.8,419.5
		z"/>
</g>
</svg>
