<?xml version="1.0" encoding="utf-8"?>
<!-- Generator: Adobe Illustrator 24.3.0, SVG Export Plug-In . SVG Version: 6.00 Build 0)  -->
<svg version="1.1" id="Layer_1" xmlns="http://www.w3.org/2000/svg" xmlns:xlink="http://www.w3.org/1999/xlink" x="0px" y="0px"
	 viewBox="0 0 500 500" style="enable-background:new 0 0 500 500;" xml:space="preserve">
<path style="opacity:0.75;fill:#E9D758;enable-background:new    ;" d="M250,484.1l-235-135.7l234.9-135.7L485,348.4L250,484.1z"/>
<path style="fill:none;stroke:#F58555;stroke-width:10;stroke-miterlimit:10;" d="M243.5,439.9L43.3,327.2
	c-10.8-6.1-14.7-19.8-8.6-30.6c2-3.5,4.8-6.4,8.3-8.4l200.4-115.9c7.2-4,15.8-4,22.9,0.2l190.7,114.2c10.6,6.4,14.1,20.2,7.7,31
	c-1.8,3.1-4.6,5.9-7.7,7.7L266.1,439.6C259.1,443.8,250.5,443.8,243.5,439.9z"/>
<g>
	<g id="ELEMENTS_4_">
		<ellipse style="fill:#FFFFFF;" cx="252.3" cy="340.4" rx="42" ry="23"/>
		<path style="fill:#E2DFDB;" d="M367.1,185.7c0-63.8-50.3-115.5-112.6-115.5c-62.1,0-112.6,51.7-112.6,115.5l0,0
			c0,63.8,50.3,115.5,112.6,115.5C316.6,301.2,367.1,249.5,367.1,185.7z"/>
		<path style="fill:#E2DFDB;" d="M249.7,70.8c0,0-32,13.3-32.7,115.7c-0.7,102.4,36,114.6,36,114.6"/>
		<path style="fill:#E2DFDB;" d="M249.7,70.8c0,0,98.4,13.1,97.7,115.5s-94.4,114.8-94.4,114.8"/>
		<path style="fill:#E2DFDB;" d="M249.7,70.8c0,0,35.3,13.8,34.6,116.2s-31.3,114.1-31.3,114.1"/>
		<path style="fill:#E2DFDB;" d="M249.7,70.8c0,0-89.4,11.8-90.1,114.1s93.4,116.2,93.4,116.2"/>
		<path style="fill:#E2DFDB;" d="M249.7,70.8c0,0,65.5,11.8,65,114.1c-0.7,102.4-61.6,116.2-61.6,116.2"/>
		<path style="fill:#E2DFDB;" d="M249.7,70.8c0,0-66.2,12.3-66.7,114.6c-0.7,102.4,70,115.7,70,115.7"/>
		<path style="fill:#E2DFDB;" d="M249.7,70.8c0,0,1.9,9.9,1.4,112.2c-0.7,102.4,1.9,118.1,1.9,118.1"/>
		<path style="fill:#E2DFDB;" d="M209.5,80c0,0,2.6,15,40.6,15s49.3-13.8,49.3-13.8"/>
		<path style="fill:#E2DFDB;" d="M172.5,107c0,0,1.9,23,76.9,23c75.2,0,89.4-21.6,88-20.9"/>
		<path style="fill:#E2DFDB;" d="M153.7,133.8c0,0,8.6,29.6,96.5,29.6s105.6-27,105.6-27"/>
		<path style="fill:#E2DFDB;" d="M143.3,169.9c0,0,14.4,24.2,108.6,24.2s113.9-23,113.9-23"/>
		<path style="fill:#E2DFDB;" d="M143.3,196.9c0,0,13.7,27.5,107.5,27.5S365,198.1,365,198.1"/>
		<path style="fill:#E2DFDB;" d="M149.9,225.8c0,0,13.3,25.6,101.3,25.6s106.7-24.2,106.7-24.2"/>
		<path style="fill:#E2DFDB;" d="M164.1,254c0,0,11.2,22.3,87.3,22.3s92.7-20.9,92.7-20.9"/>
		<path style="fill:#E2DFDB;" d="M185,274.9c0,0,9.3,20.9,68,20.9s70.5-19.7,70.5-19.7"/>
		<path style="fill:#297373;" d="M258.6,319.1V311c10-1.4,19.2-6.6,25.4-14.5l6.2-1.9C284.1,307.2,272.5,316.2,258.6,319.1
			L258.6,319.1z"/>
		<path style="fill:#173431;" d="M258.6,315.2V307c8.6-1.9,16.9-5.5,24-10.9l6.1-1.4C281.6,305.1,270.9,312.2,258.6,315.2z"/>
		<path style="fill:#EF8A5D;" d="M293.7,349.1c-0.9,10.5-21.4,23-42,23s-41.2-12.6-42-23c-0.2-2.4,0-11.8,0-11.8l0,0
			c0,0,21.1-11.4,42-11.4c21.1,0,42,11.4,42,11.4l0,0C293.7,337.3,293.9,346.6,293.7,349.1z"/>
		<ellipse style="fill:#E6D56D;" cx="251.7" cy="337.3" rx="42" ry="23"/>
		<path style="fill:#173431;" d="M336.8,107.3l-10.2-10.2c-2.8-23.5-19.7-40.3-37.7-40.8C273.3,55.8,262.1,67.7,260,70h-10.4
			c12.3-16.3,31-24.9,47.7-21.1c18,4.1,27.3,21.1,31.1,28C333.5,86.2,336.5,96.6,336.8,107.3z"/>
		<path style="fill:#297373;" d="M343.5,115.6l-6.7-8.5c-2.4-28-21.1-47.7-40.3-48.4c-13.7-0.5-24.2,8.6-27.7,12.1L260,70
			c11.8-14.5,29.2-22.1,45.1-18.7c18.3,4,27.3,20.9,31.1,28C342,90.4,344.6,103.2,343.5,115.6z"/>
		<path style="fill:#393939;" d="M260.9,336.4c-2.1,2.9-5.4,4.8-9,5c-5.9,0-9.2-4.7-9.3-5v-42.4h18.3V336.4z"/>
		<path style="fill:none;stroke:#EF8A5D;stroke-width:2.6603;stroke-miterlimit:10;" d="M366.4,185.3c0-63.8-50.3-115.5-112.6-115.5
			c-62.1,0-112.6,51.7-112.6,115.5l0,0c0,63.8,50.3,115.5,112.6,115.5C315.9,300.8,366.4,249.1,366.4,185.3z"/>
		<path style="fill:none;stroke:#EF8A5D;stroke-width:2.6603;stroke-miterlimit:10;" d="M249,70.5c0,0-32,13.3-32.7,115.7
			c-0.7,102.4,36,114.6,36,114.6"/>
		<path style="fill:none;stroke:#EF8A5D;stroke-width:2.6603;stroke-miterlimit:10;" d="M249,70.5c0,0,98.4,13.1,97.7,115.5
			s-94.4,114.8-94.4,114.8"/>
		<path style="fill:none;stroke:#EF8A5D;stroke-width:2.6603;stroke-miterlimit:10;" d="M249,70.5c0,0,35.3,13.8,34.6,116.2
			s-31.3,114.1-31.3,114.1"/>
		<path style="fill:none;stroke:#EF8A5D;stroke-width:2.6603;stroke-miterlimit:10;" d="M249,70.5c0,0-89.4,11.8-90.1,114.1
			s93.4,116.2,93.4,116.2"/>
		<path style="fill:none;stroke:#EF8A5D;stroke-width:2.6603;stroke-miterlimit:10;" d="M249,70.5c0,0,65.7,11.8,65,114.1
			s-61.6,116.2-61.6,116.2"/>
		<path style="fill:none;stroke:#EF8A5D;stroke-width:2.6603;stroke-miterlimit:10;" d="M249,70.5c0,0-66.2,12.3-66.7,114.6
			c-0.7,102.4,70,115.7,70,115.7"/>
		<path style="fill:none;stroke:#EF8A5D;stroke-width:2.6603;stroke-miterlimit:10;" d="M249,70.5c0,0,1.9,9.9,1.4,112.2
			s1.9,118.1,1.9,118.1"/>
		<path style="fill:none;stroke:#EF8A5D;stroke-width:2.6603;stroke-miterlimit:10;" d="M208.9,79.7c0,0,2.6,15,40.6,15
			s49.3-13.8,49.3-13.8"/>
		<path style="fill:none;stroke:#EF8A5D;stroke-width:2.6603;stroke-miterlimit:10;" d="M171.8,106.6c0,0,1.9,23,76.9,23
			s89.4-21.6,88-20.9"/>
		<path style="fill:none;stroke:#EF8A5D;stroke-width:2.6603;stroke-miterlimit:10;" d="M153,133.6c0,0,8.6,29.6,96.5,29.6
			s105.6-27,105.6-27"/>
		<path style="fill:none;stroke:#EF8A5D;stroke-width:2.6603;stroke-miterlimit:10;" d="M142.6,169.6c0,0,14.4,24.2,108.6,24.2
			s113.9-23,113.9-23"/>
		<path style="fill:none;stroke:#EF8A5D;stroke-width:2.6603;stroke-miterlimit:10;" d="M142.6,196.6c0,0,13.7,27.7,107.5,27.7
			c93.9,0,114.1-26.3,114.1-26.3"/>
		<path style="fill:none;stroke:#EF8A5D;stroke-width:2.6603;stroke-miterlimit:10;" d="M149,225.4c0,0,13.3,25.6,101.3,25.6
			c88.2,0,106.7-24.2,106.7-24.2"/>
		<path style="fill:none;stroke:#EF8A5D;stroke-width:2.6603;stroke-miterlimit:10;" d="M163.4,253.6c0,0,11.2,22.3,87.3,22.3
			s92.7-20.9,92.7-20.9"/>
		<path style="fill:none;stroke:#EF8A5D;stroke-width:2.6603;stroke-miterlimit:10;" d="M184.1,274.5c0,0,9.3,20.9,68,20.9
			s70.5-19.7,70.5-19.7"/>
	</g>
</g>
</svg>
