<?xml version="1.0" encoding="utf-8"?>
<!-- Generator: Adobe Illustrator 25.0.0, SVG Export Plug-In . SVG Version: 6.00 Build 0)  -->
<svg version="1.1" id="Layer_1" xmlns="http://www.w3.org/2000/svg" xmlns:xlink="http://www.w3.org/1999/xlink" x="0px" y="0px"
	 viewBox="0 0 500 500" style="enable-background:new 0 0 500 500;" xml:space="preserve">
<path style="opacity:0.75;fill:#E9D758;enable-background:new    ;" d="M250,484.1L15,348.4l234.9-135.7L485,348.4L250,484.1z"/>
<path style="fill:none;stroke:#F58555;stroke-width:10;stroke-miterlimit:10;" d="M243.5,439.9L43.3,327.2
	c-10.8-6.1-14.7-19.8-8.6-30.6c2-3.5,4.8-6.4,8.3-8.4l200.4-115.9c7.2-4,15.8-4,22.9,0.2L457,286.7c10.6,6.4,14.1,20.2,7.7,31
	c-1.8,3.1-4.6,5.9-7.7,7.7L266.1,439.6C259.1,443.8,250.5,443.8,243.5,439.9z"/>
<g>
	<g id="ELEMENTS">
		<path style="fill:#FFFFFF;" d="M300.2,259.3l-166.2,96l83.1,47.9l166.1-95.9L300.2,259.3z"/>
		<path style="fill:#173431;" d="M383.1,299.5l-249.3,48l0,0c0,0,0,3.7-0.1,10.5l83.1,47.9L382.9,310L383.1,299.5z"/>
		<path style="fill:#3E7172;" d="M300,251.5l-166.2,96l83.1,47.9L383,299.5L300,251.5z"/>
		<path style="fill:#393939;" d="M333.4,302.4l-149.7,28.9l0,0c0,0,0,2.2,0,6.3l49.9,28.8l99.8-57.6V302.4z"/>
		<path style="fill:#E2DFDB;" d="M283.5,273.6l-99.9,57.6l49.9,28.8l99.8-57.6L283.5,273.6z"/>
		<path style="fill:#EF8A5D;" d="M233.6,344.3l-30-18.8V155.4l30-12.3V344.3z"/>
		<path style="fill:#E6D56D;" d="M233.6,344.3l70.1-39.9c0-67.6,0-135.2,0-202.9l-70.1,41.5V344.3z"/>
		<path style="opacity:0.5;fill:#EF8A5D;enable-background:new    ;" d="M235,343.3l6.1-3.5V138.5l-6.1,3.6V343.3z"/>
		<path style="opacity:0.5;fill:#EF8A5D;enable-background:new    ;" d="M247.4,336l6.1-3.5V131.2l-6.1,3.6V336z"/>
		<path style="opacity:0.5;fill:#EF8A5D;enable-background:new    ;" d="M259.5,329.6l6.1-3.5c0-67.3,0-134.6,0-202l-6.1,3.6V329.6z
			"/>
		<path style="opacity:0.5;fill:#EF8A5D;enable-background:new    ;" d="M271.9,322.5l6.1-3.5c0-67.4,0-134.9,0-202.3l-6.1,3.6
			L271.9,322.5z"/>
		<path style="opacity:0.5;fill:#EF8A5D;enable-background:new    ;" d="M283.5,315.9l6.1-3.5V109.9l-6.1,3.6V315.9z"/>
		<path style="opacity:0.5;fill:#EF8A5D;enable-background:new    ;" d="M295.9,308.8c2.1-1.2,4.1-2.3,6.1-3.5V102.6l-6.1,3.6
			C295.9,173.7,295.9,241.3,295.9,308.8z"/>
		<path style="fill:#173431;" d="M215.2,186.4l-69.6-40.9v-9l69.6,5V186.4z"/>
		<path style="fill:#3E7172;" d="M215.2,186.4l115.2-66.5V76.8l-115.2,64.5L215.2,186.4z"/>
		<path style="fill:#E2DFDB;" d="M258.5,72.5l-112.7,63.9l69.6,5l115.2-64.5L258.5,72.5z"/>
	</g>
</g>
</svg>
