<?xml version="1.0" encoding="utf-8"?>
<!-- Generator: Adobe Illustrator 24.3.0, SVG Export Plug-In . SVG Version: 6.00 Build 0)  -->
<svg version="1.1" id="Layer_1" xmlns="http://www.w3.org/2000/svg" xmlns:xlink="http://www.w3.org/1999/xlink" x="0px" y="0px"
	 viewBox="0 0 500 500" style="enable-background:new 0 0 500 500;" xml:space="preserve">
<path style="opacity:0.75;fill:#E9D758;enable-background:new    ;" d="M250,484.1l-235-135.7l234.9-135.7L485,348.4L250,484.1z"/>
<path style="fill:none;stroke:#F58555;stroke-width:10;stroke-miterlimit:10;" d="M243.5,439.9L43.3,327.2
	c-10.8-6.1-14.7-19.8-8.6-30.6c2-3.5,4.8-6.4,8.3-8.4l200.4-115.9c7.2-4,15.8-4,22.9,0.2l190.7,114.2c10.6,6.4,14.1,20.2,7.7,31
	c-1.8,3.1-4.6,5.9-7.7,7.7L266.1,439.6C259.1,443.8,250.5,443.8,243.5,439.9z"/>
<g id="pylon">
	<path style="fill:#EF8A5D;" d="M278.7,460.6L253,475.3c-0.9,0.5-2,0.5-2.9,0l-25.6-14.7c-1.3-0.8-1.9-2.6-1-3.9
		c0.2-0.4,0.6-0.8,1-1l25.7-14.8c0.9-0.5,2-0.5,2.9,0l25.7,14.8c1.3,0.8,1.9,2.6,1,3.9C279.5,460,279.2,460.4,278.7,460.6z"/>
	<path style="fill:#EF8A5D;" d="M230.4,454.6H223v3.4h7.4V454.6z"/>
	<path style="fill:#EF8A5D;" d="M280.1,454.6h-7.4v3.4h7.4V454.6z"/>
	<path style="fill:#E9D758;" d="M278.7,457.6L253,472.3c-0.9,0.5-2,0.5-2.9,0l-25.7-14.7c-1.3-0.8-1.9-2.6-1-3.9
		c0.2-0.4,0.6-0.8,1-1l25.7-14.8c0.9-0.5,2-0.5,2.9,0l25.7,14.8c1.3,0.8,1.9,2.6,1,3.9C279.5,457,279.2,457.3,278.7,457.6z"/>
	<path style="fill:#EF8A5D;" d="M271.2,452.8c-3.9,7-11.3,11.5-19.4,11.6c-12.3,0.1-18.9-10.3-19.2-10.8c0,0,3.1-8,5.4-14.3
		c4.4-12.1,7.3-23.7,7.3-23.7s1.1-1.7,2.2-2.5c1.9-1.6,4.2-1.6,4.6-1.6c0.5,0,2.6,0,4.2,1.3c1,0.8,2.2,2.5,2.2,2.5
		s2.6,11.7,7.3,23.9C267.9,445.2,271.2,452.8,271.2,452.8z"/>
	<path style="fill:#E9D758;" d="M268.7,446.8c-0.5,0.7-6.5,8.6-17,8.4c-10.1-0.2-15.6-7.9-16.3-8.7l2.6-7.1
		c0.6,0.7,5.5,6.7,13.9,6.6c8.3,0,13.2-5.9,13.8-6.6C266.7,441.8,267.7,444.3,268.7,446.8z"/>
	<path style="fill:#E9D758;" d="M263.5,433.4c-7,5.1-16.5,5-23.4-0.2c0.8-2.8,1.7-5.5,2.6-8.3c5.4,4.1,13,4,18.1-0.2
		C261.8,427.6,262.7,430.5,263.5,433.4z"/>
	<path style="fill:#E9D758;" d="M251.8,419.5c3.7,0,6.6-1.8,6.6-3.9s-3-3.9-6.6-3.9c-3.7,0-6.6,1.8-6.6,3.9S248.2,419.5,251.8,419.5
		z"/>
</g>
<g>
	<g id="ELEMENTS_5_">
		<path style="fill:#FFFFFF;" d="M296.2,261.2l-156.3,90.2l78.2,45.1l156.3-90.2L296.2,261.2z"/>
		<path style="fill:#173431;" d="M374.3,298.7l-234.5,45.1l0,0c0,0,0,3.4,0,10L218,399l156.3-90.2V298.7z"/>
		<path style="fill:#3E7172;" d="M296.2,253.6l-156.3,90.2L218,389l156.3-90.2L296.2,253.6z"/>
		<path style="fill:#393939;" d="M327.5,301.6l-140.8,27.2l0,0c0,0,0,2.1,0,6l47,27l94-54.2v-6L327.5,301.6L327.5,301.6z"/>
		<path style="fill:#E2DFDB;" d="M280.5,274.6l-94,54.2l47,27l94-54.2L280.5,274.6z"/>
		<path style="fill:#EF8A5D;" d="M233.5,341l-28.3-17.7V163.4l28.3-11.5V341z"/>
		<path style="fill:#E6D56D;" d="M233.5,341l65.9-37.6c0-63.6,0-127.3,0-190.9l-65.9,39.1V341z"/>
		<path style="fill:#173431;" d="M233.3,182.2l-65.5-38.5v-8.5l65.5,4.7V182.2z"/>
		<path style="fill:#3E7172;" d="M233.3,182.2l108.4-62.5V79.2l-108.4,60.8V182.2z"/>
		<path style="fill:#E2DFDB;" d="M273.9,75l-106.1,60.2l65.5,4.7l108.4-60.8L273.9,75z"/>
	</g>
</g>
</svg>
