<?xml version="1.0" encoding="utf-8"?>
<!-- Generator: Adobe Illustrator 24.3.0, SVG Export Plug-In . SVG Version: 6.00 Build 0)  -->
<svg version="1.1" id="Layer_1" xmlns="http://www.w3.org/2000/svg" xmlns:xlink="http://www.w3.org/1999/xlink" x="0px" y="0px"
	 viewBox="0 0 500 500" style="enable-background:new 0 0 500 500;" xml:space="preserve">
<path style="opacity:0.75;fill:#E9D758;enable-background:new    ;" d="M250,484.1l-235-135.7l234.9-135.7L485,348.4L250,484.1z"/>
<path style="fill:none;stroke:#F58555;stroke-width:10;stroke-miterlimit:10;" d="M243.5,439.9L43.3,327.2
	c-10.8-6.1-14.7-19.8-8.6-30.6c2-3.5,4.8-6.4,8.3-8.4l200.4-115.9c7.2-4,15.8-4,22.9,0.2l190.7,114.2c10.6,6.4,14.1,20.2,7.7,31
	c-1.8,3.1-4.6,5.9-7.7,7.7L266.1,439.6C259.1,443.8,250.5,443.8,243.5,439.9z"/>
<g>
	<g id="ELEMENTS_7_">
		<path style="fill:#FFFFFF;" d="M253.3,244.7L96,331.8l157.3,87.1l151-87.1L253.3,244.7z"/>
		<path style="fill:#173431;" d="M253.1,423L95.2,332l0.2-182.1l157.7,91V423z"/>
		<path style="fill:#FFFFFF;stroke:#173431;stroke-width:1.8797;stroke-miterlimit:10;" d="M407,329.6l-151,87.3V242.7l150.8-87.1
			v174L407,329.6L407,329.6z"/>
		<path style="fill:#FFFFFF;stroke:#173431;stroke-width:1.8797;stroke-miterlimit:10;" d="M253.3,63l-150.6,86.9l150.4,86.9
			L404,149.9L253.3,63z"/>
		<line style="fill:none;stroke:#173431;stroke-width:1.8797;stroke-miterlimit:10;" x1="253.3" y1="63" x2="253.1" y2="236.8"/>
		<line style="fill:none;stroke:#173431;stroke-width:1.8797;stroke-miterlimit:10;" x1="256" y1="242.7" x2="406.6" y2="329.8"/>
		
			<ellipse transform="matrix(0.5292 -0.8485 0.8485 0.5292 -166.8773 275.4202)" style="fill:#FFFFFF;" cx="164.7" cy="288.1" rx="31.1" ry="37.5"/>
		<circle style="fill:#FFFFFF;" cx="235" cy="251.4" r="6.1"/>
		<circle style="fill:#FFFFFF;" cx="235" cy="273.3" r="6.1"/>
		
			<ellipse transform="matrix(0.5292 -0.8485 0.8485 0.5292 -166.8773 275.4202)" style="fill:none;stroke:#E6D56D;stroke-width:0.9398;stroke-miterlimit:10;" cx="164.7" cy="288.1" rx="34.7" ry="41.9"/>
		
			<ellipse transform="matrix(0.5292 -0.8485 0.8485 0.5292 -166.5644 275.522)" style="fill:#E6D56D;stroke:#000000;stroke-width:2.3496;stroke-miterlimit:10;" cx="165" cy="287.9" rx="23" ry="27.8"/>
	</g>
</g>
<g id="pylon">
	<path style="fill:#EF8A5D;" d="M278.7,460.6L253,475.3c-0.9,0.5-2,0.5-2.9,0l-25.6-14.7c-1.3-0.8-1.9-2.6-1-3.9
		c0.2-0.4,0.6-0.8,1-1l25.7-14.8c0.9-0.5,2-0.5,2.9,0l25.7,14.8c1.3,0.8,1.9,2.6,1,3.9C279.5,460,279.2,460.4,278.7,460.6z"/>
	<path style="fill:#EF8A5D;" d="M230.4,454.6H223v3.4h7.4V454.6z"/>
	<path style="fill:#EF8A5D;" d="M280.1,454.6h-7.4v3.4h7.4V454.6z"/>
	<path style="fill:#E9D758;" d="M278.7,457.6L253,472.3c-0.9,0.5-2,0.5-2.9,0l-25.7-14.7c-1.3-0.8-1.9-2.6-1-3.9
		c0.2-0.4,0.6-0.8,1-1l25.7-14.8c0.9-0.5,2-0.5,2.9,0l25.7,14.8c1.3,0.8,1.9,2.6,1,3.9C279.5,457,279.2,457.3,278.7,457.6z"/>
	<path style="fill:#EF8A5D;" d="M271.2,452.8c-3.9,7-11.3,11.5-19.4,11.6c-12.3,0.1-18.9-10.3-19.2-10.8c0,0,3.1-8,5.4-14.3
		c4.4-12.1,7.3-23.7,7.3-23.7s1.1-1.7,2.2-2.5c1.9-1.6,4.2-1.6,4.6-1.6c0.5,0,2.6,0,4.2,1.3c1,0.8,2.2,2.5,2.2,2.5
		s2.6,11.7,7.3,23.9C267.9,445.2,271.2,452.8,271.2,452.8z"/>
	<path style="fill:#E9D758;" d="M268.7,446.8c-0.5,0.7-6.5,8.6-17,8.4c-10.1-0.2-15.6-7.9-16.3-8.7l2.6-7.1
		c0.6,0.7,5.5,6.7,13.9,6.6c8.3,0,13.2-5.9,13.8-6.6C266.7,441.8,267.7,444.3,268.7,446.8z"/>
	<path style="fill:#E9D758;" d="M263.5,433.4c-7,5.1-16.5,5-23.4-0.2c0.8-2.8,1.7-5.5,2.6-8.3c5.4,4.1,13,4,18.1-0.2
		C261.8,427.6,262.7,430.5,263.5,433.4z"/>
	<path style="fill:#E9D758;" d="M251.8,419.5c3.7,0,6.6-1.8,6.6-3.9s-3-3.9-6.6-3.9c-3.7,0-6.6,1.8-6.6,3.9S248.2,419.5,251.8,419.5
		z"/>
</g>
</svg>
