<?xml version="1.0" encoding="utf-8"?>
<!-- Generator: Adobe Illustrator 25.0.0, SVG Export Plug-In . SVG Version: 6.00 Build 0)  -->
<svg version="1.1" id="Layer_1" xmlns="http://www.w3.org/2000/svg" xmlns:xlink="http://www.w3.org/1999/xlink" x="0px" y="0px"
	 viewBox="0 0 500 500" style="enable-background:new 0 0 500 500;" xml:space="preserve">
<path style="opacity:0.75;fill:#E9D758;enable-background:new    ;" d="M250,484.1L15,348.4l234.9-135.7L485,348.4L250,484.1z"/>
<path style="fill:none;stroke:#F58555;stroke-width:10;stroke-miterlimit:10;" d="M243.5,439.9L43.3,327.2
	c-10.8-6.1-14.7-19.8-8.6-30.6c2-3.5,4.8-6.4,8.3-8.4l200.4-115.9c7.2-4,15.8-4,22.9,0.2L457,286.7c10.6,6.4,14.1,20.2,7.7,31
	c-1.8,3.1-4.6,5.9-7.7,7.7L266.1,439.6C259.1,443.8,250.5,443.8,243.5,439.9z"/>
<g>
	<g id="ELEMENTS">
		
			<image style="overflow:visible;opacity:0.15;enable-background:new    ;" width="1013" height="595" xlink:href="FBD0ABEC.png"  transform="matrix(0.2139 0 0 0.2139 143.885 287.4175)">
		</image>
		<path style="fill:#FFFFFF;" d="M251.4,394.1l105.5-60.9l-105.5-60.9l-105.6,60.9L251.4,394.1z"/>
		<path style="fill:#EF8A5D;" d="M251.5,394.1L357,333.2l-105.5-60.9l-105.6,60.9L251.5,394.1z"/>
		<path style="fill:#AE5B45;" d="M254.1,294.5l-21.3,3.2c-20.2,3-29.9,27.1-17.5,43.3l13.1,17.1c5.7,7.5,15.1,11.3,24.4,9.9
			l21.3-3.2c20.2-3,29.9-27.1,17.5-43.3l-13.1-17.1C272.8,296.9,263.5,293.1,254.1,294.5z"/>
		<path style="fill:#CC7350;" d="M254.1,298.2l-19.2,2.9c-18.2,2.7-27,24.4-15.8,39l11.8,15.4c5.2,6.8,13.6,10.2,22.1,8.9l19.2-2.9
			c18.2-2.7,27-24.4,15.8-39l-11.8-15.4C271,300.3,262.5,296.9,254.1,298.2z"/>
		<path style="fill:#3E7172;" d="M224.1,230.7c-2.1,8.9-3.7,17.8-4.7,26.9c-1.5,13.5-2.7,23.2-0.6,35.9c1.6,9.6,4.6,19,8.9,27.8
			c5.3,11.2,8,16.9,14.6,20.6c12.2,7,26.4,0.9,27.2,0.5c14.9-6.6,19.8-23.2,23.1-34.4c2.5-8.5,3.7-17.3,3.4-26.2
			c-2.2-1.8-5.2-4.2-8.8-7c-7.6-6.1-8.8-7.1-10.4-8.8c-4.9-5-7.7-7.8-8.5-12.2c-0.1-0.5,0.4-4.5,1.5-12.4c0.5-3.6,1.3-9.4,1.3-9.4
			l0,0L255,219.2l0,0c0,0-1,6.2-1.8,11.3c-1.7,10.8-1.8,11.4-2.5,11.8c-1.4,0.9-5.6,1.4-20.2-13.2L224.1,230.7z"/>
		<circle style="fill:#E6D56D;" cx="189.7" cy="14.2" r="1.6"/>
		<path style="fill:#173431;" d="M233.1,332.2c2.1,3.6,4.5,7.3,9.1,9.8c9.3,5,22,1.4,29.9-4.8c8.3-6.6,10.7-15.7,14.5-29.8
			c1.9-7.2,3.1-14.7,3.6-22.1c-18.5-13.7-24.3-20.2-25.5-23.6l-2.3-6.5l-0.1-0.1c-6.4-4.7-12.5-9.2-12.5-9.2c-1.8,0.1-3.6,0-5.4-0.3
			c-6.2-1.2-10.5-5-15-9.2c-1.9-1.7-3.7-3.6-5.3-5.5c-4.5,18.9-6.5,38.3-6.1,57.7C220.3,303.8,225.4,318.6,233.1,332.2z"/>
		<path style="fill:#3E7172;" d="M247.4,306.5c2.2,0.4,7.3-16.8,15.1-51.4l-12.6-9.3C245.9,285.8,245,306.1,247.4,306.5z"/>
		<path style="fill:#E6D56D;" d="M254.7,220.6l11.3,8l19.2-122.7l-11.5-8.2C267.3,138.6,261,179.6,254.7,220.6z"/>
		<path style="fill:#EF8A5D;" d="M266,228.5l5.1,3.6c6.5-41.8,13.1-83.5,19.6-125.3l-5.5-1L266,228.5z"/>
		<path style="fill:#173431;" d="M285.2,105.9l5.5,1c1.3-8.5,2-13,2-13c1.3-0.3,2.5-0.7,3.8-1.2c2.4-0.9,4.6-2.2,6.6-3.8
			c2.1-1.9,3-4.2,4.1-9.2c1.3-5.6,2.1-11.3,2.4-17.1l-4.2-3.4c-0.4,3.2-0.8,5.8-1.1,7.8c0,0-0.6,4.1-1.9,10.8
			c-0.6,2.9-1,4.8-2.5,6.6c-0.9,1-1.9,1.8-3,2.5c-2.8,1.8-5.9,3.2-9.2,4.1C287.7,91.1,286.7,96.9,285.2,105.9z"/>
		<path style="fill:#3E7172;" d="M273.8,97.6l11.4,8.3c1.6-9.6,2.5-14.8,2.5-14.8c2.3-0.7,3.5-1.2,3.5-1.2c1.1-0.4,2.1-0.9,3.1-1.4
			c1.2-0.6,2.3-1.3,3.4-2c0.6-0.4,1.2-0.9,1.8-1.5c0.8-0.8,1.4-1.8,1.8-2.8c1-2.5,1.6-5.1,2-7.8c0.8-4.7,0.7-3.4,1.4-7.6
			c0.5-3,0.9-5.5,1.1-7.2l-1.1-0.9c0,0-0.7,4.2-1.1,6.2c-1.6,9.3-1.7,11.7-3.6,14.9c-1.3,2.1-2.1,2.7-2.8,3c-2,0.9-4.3,0.2-7.8-1.7
			c-4-2.3-10.6-6.1-14.7-14.7c-1.9-4.2-3-8.7-3.2-13.4l0,0c0,0-0.6-4.8,2-19.6l-0.3-0.3c-1.5,3.7-2.6,7.5-3.3,11.4
			c-1.2,7.1-1,14.4,0.7,21.4c1.5,5.5,3.5,10.8,5.9,16l0,0C276.5,81.9,276.3,82.7,273.8,97.6z"/>
		<path style="fill:#173431;" d="M271.6,44.4c-0.4,7.1-0.8,13.5,2.3,20.7c1.5,3.5,3.6,6.6,6.2,9.4c1.8,1.8,3.8,3.4,6,4.8
			C275.5,69.7,274.2,61,274,58.4c-0.6-6.6,1.5-17.4,1.8-19.1c0.3-1.4,0.5-2.5,0.7-3.3l-3.4-2.8C272.3,36.9,271.8,40.6,271.6,44.4z"
			/>
		<path style="fill:#E6D56D;" d="M269.9,43.3l30.1,24c-3-4.3-1.9-10.2,2.4-13.2c1.9-1.3,4.3-1.9,6.6-1.6l-29-22.3
			c-2.6,0.2-5,1.2-6.9,3C268.9,37.2,269.8,42.8,269.9,43.3z"/>
		
			<ellipse transform="matrix(0.5468 -0.8372 0.8372 0.5468 87.8507 282.3522)" style="fill:#EF8A5D;" cx="304.8" cy="60" rx="8.7" ry="5.9"/>
	</g>
</g>
<g id="pylon">
	<path style="fill:#EF8A5D;" d="M278.7,460.6L253,475.3c-0.9,0.5-2,0.5-2.9,0l-25.6-14.7c-1.3-0.8-1.9-2.6-1-3.9
		c0.2-0.4,0.6-0.8,1-1l25.7-14.8c0.9-0.5,2-0.5,2.9,0l25.7,14.8c1.3,0.8,1.9,2.6,1,3.9C279.5,460,279.2,460.4,278.7,460.6z"/>
	<path style="fill:#EF8A5D;" d="M230.4,454.6H223v3.4h7.4V454.6z"/>
	<path style="fill:#EF8A5D;" d="M280.1,454.6h-7.4v3.4h7.4V454.6z"/>
	<path style="fill:#E9D758;" d="M278.7,457.6L253,472.3c-0.9,0.5-2,0.5-2.9,0l-25.7-14.7c-1.3-0.8-1.9-2.6-1-3.9
		c0.2-0.4,0.6-0.8,1-1l25.7-14.8c0.9-0.5,2-0.5,2.9,0l25.7,14.8c1.3,0.8,1.9,2.6,1,3.9C279.5,457,279.2,457.3,278.7,457.6z"/>
	<path style="fill:#EF8A5D;" d="M271.2,452.8c-3.9,7-11.3,11.5-19.4,11.6c-12.3,0.1-18.9-10.3-19.2-10.8c0,0,3.1-8,5.4-14.3
		c4.4-12.1,7.3-23.7,7.3-23.7s1.1-1.7,2.2-2.5c1.9-1.6,4.2-1.6,4.6-1.6c0.5,0,2.6,0,4.2,1.3c1,0.8,2.2,2.5,2.2,2.5
		s2.6,11.7,7.3,23.9C267.9,445.2,271.2,452.8,271.2,452.8z"/>
	<path style="fill:#E9D758;" d="M268.7,446.8c-0.5,0.7-6.5,8.6-17,8.4c-10.1-0.2-15.6-7.9-16.3-8.7l2.6-7.1
		c0.6,0.7,5.5,6.7,13.9,6.6c8.3,0,13.2-5.9,13.8-6.6C266.7,441.8,267.7,444.3,268.7,446.8z"/>
	<path style="fill:#E9D758;" d="M263.5,433.4c-7,5.1-16.5,5-23.4-0.2c0.8-2.8,1.7-5.5,2.6-8.3c5.4,4.1,13,4,18.1-0.2
		C261.8,427.6,262.7,430.5,263.5,433.4z"/>
	<path style="fill:#E9D758;" d="M251.8,419.5c3.7,0,6.6-1.8,6.6-3.9s-3-3.9-6.6-3.9c-3.7,0-6.6,1.8-6.6,3.9S248.2,419.5,251.8,419.5
		z"/>
</g>
</svg>
