<?xml version="1.0" encoding="utf-8"?>
<!-- Generator: Adobe Illustrator 24.3.0, SVG Export Plug-In . SVG Version: 6.00 Build 0)  -->
<svg version="1.1" id="Layer_1" xmlns="http://www.w3.org/2000/svg" xmlns:xlink="http://www.w3.org/1999/xlink" x="0px" y="0px"
	 viewBox="0 0 500 500" style="enable-background:new 0 0 500 500;" xml:space="preserve">
<path style="opacity:0.75;fill:#E9D758;enable-background:new    ;" d="M250,484.1l-235-135.7l234.9-135.7L485,348.4L250,484.1z"/>
<path style="fill:none;stroke:#F58555;stroke-width:10;stroke-miterlimit:10;" d="M243.5,439.9L43.3,327.2
	c-10.8-6.1-14.7-19.8-8.6-30.6c2-3.5,4.8-6.4,8.3-8.4l200.4-115.9c7.2-4,15.8-4,22.9,0.2l190.7,114.2c10.6,6.4,14.1,20.2,7.7,31
	c-1.8,3.1-4.6,5.9-7.7,7.7L266.1,439.6C259.1,443.8,250.5,443.8,243.5,439.9z"/>
<g id="pylon">
	<path style="fill:#EF8A5D;" d="M278.7,460.6L253,475.3c-0.9,0.5-2,0.5-2.9,0l-25.6-14.7c-1.3-0.8-1.9-2.6-1-3.9
		c0.2-0.4,0.6-0.8,1-1l25.7-14.8c0.9-0.5,2-0.5,2.9,0l25.7,14.8c1.3,0.8,1.9,2.6,1,3.9C279.5,460,279.2,460.4,278.7,460.6z"/>
	<path style="fill:#EF8A5D;" d="M230.4,454.6H223v3.4h7.4V454.6z"/>
	<path style="fill:#EF8A5D;" d="M280.1,454.6h-7.4v3.4h7.4V454.6z"/>
	<path style="fill:#E9D758;" d="M278.7,457.6L253,472.3c-0.9,0.5-2,0.5-2.9,0l-25.7-14.7c-1.3-0.8-1.9-2.6-1-3.9
		c0.2-0.4,0.6-0.8,1-1l25.7-14.8c0.9-0.5,2-0.5,2.9,0l25.7,14.8c1.3,0.8,1.9,2.6,1,3.9C279.5,457,279.2,457.3,278.7,457.6z"/>
	<path style="fill:#EF8A5D;" d="M271.2,452.8c-3.9,7-11.3,11.5-19.4,11.6c-12.3,0.1-18.9-10.3-19.2-10.8c0,0,3.1-8,5.4-14.3
		c4.4-12.1,7.3-23.7,7.3-23.7s1.1-1.7,2.2-2.5c1.9-1.6,4.2-1.6,4.6-1.6c0.5,0,2.6,0,4.2,1.3c1,0.8,2.2,2.5,2.2,2.5
		s2.6,11.7,7.3,23.9C267.9,445.2,271.2,452.8,271.2,452.8z"/>
	<path style="fill:#E9D758;" d="M268.7,446.8c-0.5,0.7-6.5,8.6-17,8.4c-10.1-0.2-15.6-7.9-16.3-8.7l2.6-7.1
		c0.6,0.7,5.5,6.7,13.9,6.6c8.3,0,13.2-5.9,13.8-6.6C266.7,441.8,267.7,444.3,268.7,446.8z"/>
	<path style="fill:#E9D758;" d="M263.5,433.4c-7,5.1-16.5,5-23.4-0.2c0.8-2.8,1.7-5.5,2.6-8.3c5.4,4.1,13,4,18.1-0.2
		C261.8,427.6,262.7,430.5,263.5,433.4z"/>
	<path style="fill:#E9D758;" d="M251.8,419.5c3.7,0,6.6-1.8,6.6-3.9s-3-3.9-6.6-3.9c-3.7,0-6.6,1.8-6.6,3.9S248.2,419.5,251.8,419.5
		z"/>
</g>
<g>
	<g id="ELEMENTS_10_">
		<path style="fill:#FFFFFF;" d="M251.7,398.9l105-60.5l-105-60.7l-105.1,60.7L251.7,398.9z"/>
		<path style="fill:#EF8A5D;" d="M251.7,398.9l105.1-60.5l-105-60.7l-105.1,60.7L251.7,398.9z"/>
		<path style="fill:#3E7172;" d="M224.5,236.3c-2.1,8.8-3.6,17.7-4.7,26.7c-1.5,13.3-2.6,23.1-0.7,35.8c1.6,9.6,4.6,18.9,8.8,27.7
			c5.4,11.1,8,16.8,14.6,20.5c12.2,7,26.2,0.8,27,0.5c14.8-6.5,19.7-23.1,22.9-34.2c2.4-8.5,3.6-17.3,3.4-26c-2.3-1.8-5.2-4.2-8.8-7
			c-7.5-6-8.8-7.2-10.4-8.8c-4.9-5-7.6-7.8-8.5-12.2c-0.2-0.5,0.5-4.4,1.5-12.4c0.5-3.6,1.3-9.4,1.3-9.4l0,0L255,224.6l0,0
			c0,0-1,6.2-1.8,11.2c-1.8,10.7-1.8,11.4-2.4,11.7c-1.5,0.8-5.5,1.5-20.2-13.2L224.5,236.3z"/>
		<circle style="fill:#E6D56D;" cx="190.4" cy="20.6" r="1.6"/>
		<path style="fill:#173431;" d="M233.5,337.2c2.1,3.6,4.6,7.3,9.1,9.8c9.3,4.9,22,1.5,29.8-4.9c8.3-6.5,10.6-15.6,14.3-29.6
			c2-7.2,3.1-14.6,3.6-22c-18.4-13.7-24.3-20.2-25.4-23.4l-2.3-6.5l-0.2-0.2c-6.3-4.7-12.5-9.1-12.5-9.1c-1.8,0.2-3.6,0-5.4-0.3
			c-6.2-1.1-10.4-5-15-9.1c-2-1.8-3.7-3.6-5.4-5.5c-4.4,18.9-6.5,38.1-6,57.5C220.8,308.9,225.9,323.7,233.5,337.2z"/>
		<path style="fill:#3E7172;" d="M247.7,311.6c2.3,0.3,7.2-16.8,15-51.3l-12.5-9.3C246.2,291.1,245.4,311.3,247.7,311.6z"/>
		<path style="fill:#E6D56D;" d="M255,226l11.2,8l19-122.1l-11.4-8.1C267.5,144.5,261.3,185.3,255,226z"/>
		<path style="fill:#EF8A5D;" d="M266.2,234l5,3.6c6.5-41.5,13-83.2,19.5-124.7l-5.5-1L266.2,234z"/>
		<path style="fill:#173431;" d="M285.4,111.9l5.5,1c1.3-8.5,2-13,2-13c1.3-0.3,2.4-0.7,3.7-1.1c2.4-0.8,4.6-2.1,6.5-3.7
			c2.1-1.8,2.9-4.2,4.1-9.1c1.3-5.5,2.1-11.2,2.4-16.9l-4.2-3.4c-0.3,3.1-0.8,5.9-1,7.8c0,0-0.5,4.1-2,10.7c-0.7,2.9-1,4.7-2.4,6.5
			c-0.8,1-1.8,1.8-2.9,2.4c-2.8,1.8-5.9,3.3-9.1,4.1C287.9,97.1,286.9,103,285.4,111.9z"/>
		<path style="fill:#3E7172;" d="M274,103.8l11.4,8.1c1.6-9.6,2.4-14.8,2.4-14.8c2.3-0.8,3.4-1.1,3.4-1.1c1.1-0.5,2.1-1,3.1-1.5
			c1.1-0.7,2.3-1.3,3.4-2c0.7-0.5,1.3-1,1.8-1.5c0.8-0.8,1.3-1.8,1.8-2.8c1-2.4,1.6-5,2-7.8c0.8-4.7,0.7-3.4,1.5-7.6
			c0.5-2.9,0.8-5.4,1.1-7.2l-1.1-0.8c0,0-0.7,4.1-1.1,6.2c-1.6,9.3-1.6,11.6-3.6,14.8c-1.3,2.1-2.1,2.6-2.8,2.9
			c-2,0.8-4.2,0.2-7.8-1.8c-3.9-2.3-10.6-6-14.6-14.6c-2-4.2-2.9-8.6-3.3-13.3l0,0c0,0-0.7-4.7,2-19.5l-0.3-0.3
			c-1.5,3.6-2.6,7.5-3.3,11.4c-1.3,7-1,14.3,0.7,21.3c1.5,5.5,3.4,10.7,5.9,16l0,0C276.6,88.2,276.5,88.8,274,103.8z"/>
		<path style="fill:#173431;" d="M271.7,50.7c-0.3,7.2-0.8,13.5,2.3,20.7c1.5,3.4,3.6,6.7,6.2,9.3c1.8,1.8,3.7,3.4,6,4.7
			c-10.6-9.4-11.9-18.2-12-20.7c-0.5-6.5,1.5-17.4,1.8-19c0.3-1.3,0.5-2.4,0.7-3.3l-3.4-2.8C272.6,43.3,272.1,47,271.7,50.7z"/>
		<path style="fill:#E6D56D;" d="M270.1,49.8l29.9,23.9c-2.9-4.2-2-10.3,2.4-13.2c2-1.3,4.2-2,6.5-1.6l-29-22.1
			c-2.6,0.2-5,1.3-6.8,2.9C269.1,43.6,270,49.1,270.1,49.8z"/>
		
			<ellipse transform="matrix(0.5468 -0.8372 0.8372 0.5468 82.3889 285.1179)" style="fill:#EF8A5D;" cx="304.6" cy="66.5" rx="8.6" ry="5.9"/>
	</g>
</g>
</svg>
