<?xml version="1.0" encoding="utf-8"?>
<!-- Generator: Adobe Illustrator 24.3.0, SVG Export Plug-In . SVG Version: 6.00 Build 0)  -->
<svg version="1.1" id="Layer_1" xmlns="http://www.w3.org/2000/svg" xmlns:xlink="http://www.w3.org/1999/xlink" x="0px" y="0px"
	 viewBox="0 0 500 500" style="enable-background:new 0 0 500 500;" xml:space="preserve">
<path style="opacity:0.75;fill:#E9D758;enable-background:new    ;" d="M250,484.1l-235-135.7l234.9-135.7L485,348.4L250,484.1z"/>
<path style="fill:none;stroke:#F58555;stroke-width:10;stroke-miterlimit:10;" d="M243.5,439.9L43.3,327.2
	c-10.8-6.1-14.7-19.8-8.6-30.6c2-3.5,4.8-6.4,8.3-8.4l200.4-115.9c7.2-4,15.8-4,22.9,0.2l190.7,114.2c10.6,6.4,14.1,20.2,7.7,31
	c-1.8,3.1-4.6,5.9-7.7,7.7L266.1,439.6C259.1,443.8,250.5,443.8,243.5,439.9z"/>
<g>
	<g id="ELEMENTS_11_">
		<path style="fill:#FFFFFF;" d="M252,261.2l-133.7,77L252,415.5l133.7-77.2L252,261.2z"/>
		<path style="fill:#FFFFFF;stroke:#297373;stroke-width:2.5138;stroke-miterlimit:10;" d="M377.7,183.8L252,258.4l-125.9-74.6
			L252,109.2L377.7,183.8z"/>
		<path style="fill:#E9D758;" d="M294,135.3c-6.5,6.5-9.7,15.5-10.3,25.9c-10.3,0.2-18.7,3.9-24.8,9.9v-52.6
			c0-17,8.4-30.8,25.4-30.8c15.9,2.1,29.5-0.9,38.4-9.7c9-8.8,11.9-22.6,9.7-38.4c-15.9-2.1-29.5,0.7-38.2,9.7
			c-6.5,6.5-9.7,15.5-10.3,25.9c-23.5,0.4-37.1,19.6-37.1,43.3v18.8c-8.2-8.4-19.2-13.2-31-13.4c-0.6-10.6-3.7-19.6-10.3-26.1
			c-9-9-22.6-11.9-38.4-9.7c-2.1,15.9,0.7,29.5,9.7,38.2c9,9,22.4,11.8,38.4,9.7c17,0,31.5,13.8,31.5,30.8v50.4
			c-8.2-8.4-19.2-13.2-31-13.4c-0.6-10.6-3.7-19.6-10.3-26.1c-9-9-22.6-11.9-38.4-9.7c-2.1,15.9,0.7,29.5,9.7,38.2
			c9,9,22.4,11.8,38.4,9.7c17,0,31.5,13.8,31.5,30.8v32.1h12.3v-75.4c0-17,8.4-30.8,25.4-30.8l0,0c15.9,2.1,29.5-0.9,38.4-9.7
			c9-9,11.9-22.4,9.7-38.4C316.3,123.6,302.9,126.6,294,135.3z"/>
		<path style="fill:#F58555;" d="M258.9,118.7c0-17,8.4-30.8,25.4-30.8l0,0c15.9,2.1,29.5-0.9,38.4-9.7c9-9,11.9-22.4,9.7-38.2
			l-39,39c-2.2,2.2-5.4,3.5-8.8,3.5h-1.1c-20.1,0-30.8,16.2-30.8,36.4v60.8c1.7-3,3.7-5.8,6.2-8.2L258.9,118.7z"/>
		<path style="fill:#F58555;" d="M332.2,125.6l-39,39c-2.2,2.2-5.4,3.5-8.8,3.5h-1.1c-20.1,0-30.8,16.2-30.8,36.4v75.4h6.2v-75.4
			c0-17,8.4-30.8,25.4-30.8l0,0c15.9,2.1,29.5-0.9,38.4-9.7C331.5,155.1,334.4,141.5,332.2,125.6z"/>
		<path style="fill:#F58555;" d="M215.6,131.2L215.6,131.2h-1.1c-3.4,0-6.3-1.3-8.8-3.5l-38.8-39c-2.2,15.9,0.7,29.5,9.7,38.2
			c9,9,22.4,11.9,38.2,9.7l0,0c17,0,31.5,13.8,31.5,30.8v-20C239.5,137.4,228.1,131.2,215.6,131.2z"/>
		<path style="fill:#F58555;" d="M215.6,211.4L215.6,211.4h-1.1c-3.4,0-6.3-1.3-8.8-3.5l-38.8-39c-2.2,15.9,0.7,29.5,9.7,38.4
			c9,9,22.4,11.8,38.2,9.7l0,0c17,0,31.5,13.8,31.5,30.8v-20C239.5,217.6,228.1,211.4,215.6,211.4z"/>
		<path style="fill:#297373;" d="M252,261v154.4l-133.7-77.2c0-51.5,0-103,0-154.4L252,261z"/>
		<path style="fill:#297373;" d="M385.7,183.8v154.4L252,415.5c0-51.5,0-103,0-154.4L385.7,183.8z"/>
		<path style="fill:#297373;" d="M280,237c-5,12.1-15.3,21.1-28,24.6c-5.4,0.6-10.8-0.6-15.7-3.2c-11.4-6.3-13.2-19-13.6-20.7
			l30,15.5L280,237z"/>
		<path style="fill:none;stroke:#FFFFFF;stroke-width:2.011;stroke-miterlimit:10;" d="M242.3,266.6v131.9
			c-38.1-22-76.1-44-114.3-65.8V200.6L242.3,266.6z"/>
		<path style="fill:none;stroke:#FFFFFF;stroke-width:2.011;stroke-miterlimit:10;" d="M374.5,203v128.7L263,396.3
			c0-42.9,0-86,0-128.9L374.5,203z"/>
	</g>
</g>
<g id="pylon">
	<path style="fill:#EF8A5D;" d="M278.7,460.6L253,475.3c-0.9,0.5-2,0.5-2.9,0l-25.6-14.7c-1.3-0.8-1.9-2.6-1-3.9
		c0.2-0.4,0.6-0.8,1-1l25.7-14.8c0.9-0.5,2-0.5,2.9,0l25.7,14.8c1.3,0.8,1.9,2.6,1,3.9C279.5,460,279.2,460.4,278.7,460.6z"/>
	<path style="fill:#EF8A5D;" d="M230.4,454.6H223v3.4h7.4V454.6z"/>
	<path style="fill:#EF8A5D;" d="M280.1,454.6h-7.4v3.4h7.4V454.6z"/>
	<path style="fill:#E9D758;" d="M278.7,457.6L253,472.3c-0.9,0.5-2,0.5-2.9,0l-25.7-14.7c-1.3-0.8-1.9-2.6-1-3.9
		c0.2-0.4,0.6-0.8,1-1l25.7-14.8c0.9-0.5,2-0.5,2.9,0l25.7,14.8c1.3,0.8,1.9,2.6,1,3.9C279.5,457,279.2,457.3,278.7,457.6z"/>
	<path style="fill:#EF8A5D;" d="M271.2,452.8c-3.9,7-11.3,11.5-19.4,11.6c-12.3,0.1-18.9-10.3-19.2-10.8c0,0,3.1-8,5.4-14.3
		c4.4-12.1,7.3-23.7,7.3-23.7s1.1-1.7,2.2-2.5c1.9-1.6,4.2-1.6,4.6-1.6c0.5,0,2.6,0,4.2,1.3c1,0.8,2.2,2.5,2.2,2.5
		s2.6,11.7,7.3,23.9C267.9,445.2,271.2,452.8,271.2,452.8z"/>
	<path style="fill:#E9D758;" d="M268.7,446.8c-0.5,0.7-6.5,8.6-17,8.4c-10.1-0.2-15.6-7.9-16.3-8.7l2.6-7.1
		c0.6,0.7,5.5,6.7,13.9,6.6c8.3,0,13.2-5.9,13.8-6.6C266.7,441.8,267.7,444.3,268.7,446.8z"/>
	<path style="fill:#E9D758;" d="M263.5,433.4c-7,5.1-16.5,5-23.4-0.2c0.8-2.8,1.7-5.5,2.6-8.3c5.4,4.1,13,4,18.1-0.2
		C261.8,427.6,262.7,430.5,263.5,433.4z"/>
	<path style="fill:#E9D758;" d="M251.8,419.5c3.7,0,6.6-1.8,6.6-3.9s-3-3.9-6.6-3.9c-3.7,0-6.6,1.8-6.6,3.9S248.2,419.5,251.8,419.5
		z"/>
</g>
</svg>
