<?xml version="1.0" encoding="utf-8"?>
<!-- Generator: Adobe Illustrator 24.3.0, SVG Export Plug-In . SVG Version: 6.00 Build 0)  -->
<svg version="1.1" id="Layer_1" xmlns="http://www.w3.org/2000/svg" xmlns:xlink="http://www.w3.org/1999/xlink" x="0px" y="0px"
	 viewBox="0 0 1920 1920" style="enable-background:new 0 0 1920 1920;" xml:space="preserve">
<g id="BACKGROUND">
	<rect x="-61.3" y="-56" style="fill:#39393A;" width="2066.2" height="2066.2"/>
</g>
<g id="_2ND_BACK">
	<path style="fill:#494949;" d="M285.1,1785.3h184.4c52.5,0,95.1-52,95.1-116.2S522,1553,469.5,1553h-63.4
		c-52.5,0-95.1-52-95.1-116.2s42.6-116.2,95.1-116.2h380.4c52.5,0,95.1-52,95.1-116.2s-42.6-116.2-95.1-116.2H146.7
		c-52.5,0-95.1-52-95.1-116.2S94.2,856,146.7,856h455.4c52.5,0,95.1-52,95.1-116.2s-42.6-116.2-95.1-116.2H429.2
		c-52.5,0-95.1-52-95.1-116.2s42.6-116.1,95.1-116.1h380.4c52.5,0,95.1-52,95.1-116.2s-42.6-116.1-95.1-116.1h-57.6
		c-52.5,0-95.1-52-95.1-116.2s42.6-116.1,95.1-116.1h576.4c52.5,0,95.1,52,95.1,116.2s-42.6,116.2-95.1,116.2h-34.6
		c-52.5,0-95.1,52-95.1,116.1s42.6,116.2,95.1,116.2h63.4c52.5,0,95.1,52,95.1,116.1s-42.6,116.2-95.1,116.2h11.5
		c-52.5,0-95.1,52-95.1,116.2s42.6,116.1,95.1,116.1H1997c52.5,0,95.1,52,95.1,116.2s-42.6,116.2-95.1,116.2h-161.4
		c-52.5,0-95.1,52-95.1,116.2s42.6,116.2,95.1,116.2h23c52.5,0,95.1,52,95.1,116.2s-42.5,116.2-95.1,116.2h-432.3
		c-52.5,0-95.1,52-95.1,116.2s42.6,116.2,95.1,116.2h219c52.5,0,95.1,52,95.1,116.2s-42.6,116.2-95.1,116.2H285.2
		c-52.5,0-95.1-52-95.1-116.2S232.6,1785.3,285.1,1785.3L285.1,1785.3z"/>
</g>
<g id="ELEMENTS">
	<ellipse style="fill:#615F5E;" cx="646.1" cy="1123.5" rx="178.7" ry="156.8"/>
	<ellipse style="fill:none;stroke:#615F5E;stroke-width:10;stroke-miterlimit:10;" cx="930.5" cy="1046.6" rx="247.2" ry="258.1"/>
	<ellipse style="fill:none;stroke:#615F5E;stroke-width:10;stroke-miterlimit:10;" cx="794.5" cy="984.9" rx="357.4" ry="313.5"/>
	<ellipse style="fill:none;stroke:#615F5E;stroke-width:10;stroke-miterlimit:10;" cx="945.6" cy="798.4" rx="357.4" ry="313.5"/>
	<ellipse style="fill:#615F5E;" cx="930.5" cy="782.7" rx="357.4" ry="313.6"/>
	<ellipse style="fill:#615F5E;" cx="824.8" cy="997.1" rx="357.4" ry="313.5"/>
	<ellipse style="fill:#615F5E;" cx="824.8" cy="793.9" rx="357.4" ry="313.5"/>
	<path style="fill:#9CB0BC;" d="M550.9,2138.8l819.4,2.6c45.7-116,65.9-240.4,59.3-364.9c-11-202.8-90.8-349-132.9-415.6
		c-286.1-46.6-577.8-46.6-863.9,0C379.7,1626.1,421.5,1901.5,550.9,2138.8L550.9,2138.8z"/>
	<path style="fill:#FFFFFF;" d="M400.2,1617.6h1005.8c-1.8-7.3-3.8-14.8-5.9-22.3c-1.6-5.9-3.3-11.8-5.1-17.5H400.2V1617.6z"/>
	<path style="fill:#FFFFFF;" d="M398.5,1719.9l1026.2,0.1c-0.8-6.6-1.7-13.3-2.8-20.2c-1-6.8-2.1-13.4-3.3-19.8H398.5V1719.9z"/>
	<path style="fill:#FFFFFF;" d="M390,1816.2h1040.8c0-7.2-0.2-14.5-0.5-22c-0.2-6-0.5-11.9-0.8-17.7L390,1776.3V1816.2z"/>
	<path style="fill:#FFFFFF;" d="M387.2,1909.5h1039.2c0.7-6.5,1.3-13.1,1.9-19.9c0.6-6.8,1-13.4,1.4-19.9H387.2V1909.5z"/>
	<path style="fill:#FFFFFF;" d="M411.5,1515.3l953.6-0.1v-39.9H415.6C414.3,1488.7,412.9,1502,411.5,1515.3z"/>
	<path style="fill:#FCE7E3;" d="M966.3,1409.3c-33.9,56.9-98.9,86.1-162.7,73.3c-64.2-12.9-114.5-65.9-125.7-132.4
		c11.3-119.2,22.5-238.4,33.8-357.6l290.2,40.2C990,1158.3,978.1,1283.8,966.3,1409.3z"/>
	<path style="fill:#39393A;" d="M990.7,1150.6c-63.4,16.1-128.6,31.6-195.6,46.3c-35.3,7.7-70.3,15.1-104.9,22l12.4-132.1
		c31.8,22.7,96.2,63.9,158.2,68.1c22.8,1.5,49,0.7,49,0.7c17.9-1.6,36.4-3,55.4-3.9C973.8,1151.2,982.3,1150.9,990.7,1150.6z"/>
	<path style="fill:#9CB0BC;" d="M1033.8,2248.5L1033.8,2248.5c78.9,28.4,163.3-17.6,188.6-102.7l171.8-578.6
		c25.3-85.2-18.1-177.2-97-205.6l0,0c-78.9-28.4-163.3,17.6-188.6,102.7l-171.8,578.6C911.5,2128,954.9,2220.1,1033.8,2248.5z"/>
	<path style="fill:#9CB0BC;" d="M185.7,2227.2L185.7,2227.2c75.8,36,164.2-1.5,197.4-83.7c35.5-87.8,84-208.2,84-208.2
		c-19.4-56.1-33.8-113.8-43.3-172.4c-24-150-9.4-272.5-1.4-335.6c3.5-27.4,7.2-50,9.9-65.1c-12.8,2.2-25.1,6.6-36.5,12.9
		c-41.4,23-57.2,65.1-61.8,78.9L108.5,2013C75.3,2095.2,109.9,2191.1,185.7,2227.2z"/>
	<path style="fill:#FFFFFF;" d="M1072.3,1578.7h316.1c4.3-11.6,7.8-23.5,10.3-35.6c1.9-8.8,3.3-17.8,4.2-26.8h-312.1L1072.3,1578.7z
		"/>
	<path style="fill:#FFFFFF;" d="M1039.8,1681h316.1c4-12.4,7.9-25.2,11.7-38.3c2.4-8.2,4.6-16.2,6.8-24.2h-316.1L1039.8,1681z"/>
	<path style="fill:#FFFFFF;" d="M1015.7,1774.7h316.2c3.2-9.6,6.3-19.5,9.3-29.8c2.7-9.1,5.1-18,7.3-26.7l-315.2-0.1L1015.7,1774.7z
		"/>
	<path style="fill:#FFFFFF;" d="M982.9,1870.6h316.3c3.2-9.1,6.3-18.5,9.3-28.3c2.7-8.6,5.1-17,7.3-25.3l-315.2-0.1
		C994.6,1834.9,988.8,1852.8,982.9,1870.6z"/>
	<path style="fill:#FFFFFF;" d="M956.1,1962.9h316.2c3.1-8.9,6.1-18.3,8.9-28.1c2.4-8.3,4.6-16.4,6.5-24.2l-316.1-0.1L956.1,1962.9z
		"/>
	<path style="fill:#FFFFFF;" d="M1100.8,1491.4h298.7c-1.8-15.4-6-30.4-12.4-44.5c-2.9-6.2-6.1-12.2-9.8-17.9h-253.6
		c-4.6,7.8-8.7,16-12.1,24.4C1106.6,1465.7,1103,1478.4,1100.8,1491.4z"/>
	<path style="fill:#FFFFFF;" d="M325.4,1475.5l91.4-0.1l4.5-39.7l-80.3,0.1L325.4,1475.5z"/>
	<path style="fill:#FFFFFF;" d="M284.1,1577.8l127.2-0.1c0.6-20.7,1.1-41.5,1.7-62.2H309.5L284.1,1577.8z"/>
	<path style="fill:#FFFFFF;" d="M242.9,1680H414l-4-62.2H267.9C259.5,1638.5,251.2,1659.3,242.9,1680z"/>
	<path style="fill:#FFFFFF;" d="M203.5,1777.7l222.6-1.3c-1.5-9.6-2.9-19.3-4.3-28.9c-1.3-9.2-2.7-18.3-4-27.5l-190.9-0.1
		L203.5,1777.7z"/>
	<path style="fill:#FFFFFF;" d="M166.9,1868.3l280,1.4c-2.3-8.9-4.6-17.8-6.9-26.9c-2.2-8.7-4.3-17.3-6.4-25.8l-245.9-0.1
		L166.9,1868.3z"/>
	<path style="fill:#FFFFFF;" d="M130.6,1958.4l328-0.2l0,0c-2.6,6.2,6.7-12.3,6.9-19.1c0.2-5.2-1.6-5.6-4.9-19.7
		c-1-4.2-1.6-7.7-2.1-9.9H150.2C143.7,1925.8,137.1,1942.1,130.6,1958.4z"/>
	<path style="fill:none;stroke:#FFFFFF;stroke-width:10;stroke-miterlimit:10;" d="M1011.8,1455.9c-123.4,49.1-261.4,45.7-382.2-9.4
		c9.6-81.5,19.2-162.9,28.7-244.4c113.5,60.6,249.8,60.6,363.3,0C1018.3,1286.7,1015,1371.3,1011.8,1455.9z"/>
	<path style="fill:none;stroke:#FFFFFF;stroke-width:10;stroke-miterlimit:10;" d="M690.2,1219c-8.9,80.5-17.8,161-26.7,241.5"/>
	<line style="fill:none;stroke:#FFFFFF;stroke-width:10;stroke-miterlimit:10;" x1="731" y1="1231.8" x2="706.3" y2="1477.8"/>
	<line style="fill:none;stroke:#FFFFFF;stroke-width:10;stroke-miterlimit:10;" x1="765.5" y1="1239.1" x2="749.5" y2="1485.6"/>
	<line style="fill:none;stroke:#FFFFFF;stroke-width:10;stroke-miterlimit:10;" x1="799.9" y1="1245.4" x2="789.1" y2="1490.4"/>
	<line style="fill:none;stroke:#FFFFFF;stroke-width:10;stroke-miterlimit:10;" x1="838.6" y1="1247.5" x2="828" y2="1490.4"/>
	<line style="fill:none;stroke:#FFFFFF;stroke-width:10;stroke-miterlimit:10;" x1="874.3" y1="1246" x2="865.5" y2="1490.4"/>
	<line style="fill:none;stroke:#FFFFFF;stroke-width:10;stroke-miterlimit:10;" x1="911.6" y1="1240.8" x2="901.5" y2="1485.6"/>
	<line style="fill:none;stroke:#FFFFFF;stroke-width:10;stroke-miterlimit:10;" x1="944.9" y1="1232.9" x2="938.1" y2="1477.4"/>
	<line style="fill:none;stroke:#FFFFFF;stroke-width:10;stroke-miterlimit:10;" x1="982" y1="1220.4" x2="970.1" y2="1469.2"/>
	<path style="fill:none;stroke:#39393A;stroke-width:20;stroke-miterlimit:10;" d="M497.4,1351.3c30.3,306.9,178.3,590.1,413,790.2"
		/>
	
		<ellipse transform="matrix(0.7071 -0.7071 0.7071 0.7071 -231.5446 598.8117)" style="fill:none;stroke:#615F5E;stroke-width:10;stroke-miterlimit:10;" cx="607.1" cy="578.9" rx="158.5" ry="96.9"/>
	
		<ellipse transform="matrix(0.9911 -0.1335 0.1335 0.9911 -51.1533 113.999)" style="fill:none;stroke:#615F5E;stroke-width:10;stroke-miterlimit:10;" cx="824.7" cy="438.5" rx="188.8" ry="139.3"/>
	
		<ellipse transform="matrix(0.5787 -0.8155 0.8155 0.5787 66.3487 1171.3785)" style="fill:none;stroke:#615F5E;stroke-width:10;stroke-miterlimit:10;" cx="1167" cy="521.5" rx="82.8" ry="108"/>
	
		<ellipse transform="matrix(0.5787 -0.8155 0.8155 0.5787 47.5744 1236.8201)" style="fill:none;stroke:#615F5E;stroke-width:10;stroke-miterlimit:10;" cx="1220.9" cy="572.4" rx="69" ry="71.2"/>
	<circle style="fill:#615F5E;" cx="543.9" cy="717.4" r="76.5"/>
	
		<rect x="115.8" y="117.3" style="fill:none;stroke:#E9D758;stroke-width:15;stroke-miterlimit:10;" width="1692.8" height="1692.8"/>
	<rect x="116.2" y="116.2" style="fill:#E9D758;" width="1692.8" height="76.2"/>
	<circle style="fill:#297373;" cx="1664.8" cy="151.3" r="23.7"/>
	<circle style="fill:#9CB0BC;" cx="1738.3" cy="151.3" r="23.7"/>
	<circle style="fill:#FF8552;" cx="1590.7" cy="151.3" r="23.7"/>
	<rect x="112.1" y="1732.9" style="fill:#E9D758;" width="1692.8" height="76.2"/>
	<path style="fill:#39393A;" d="M735.6,1182.6c-1,2.3-163.1-3.5-202.9-96.2c-24.5-57.2,7.4-124.3,12.8-124.2s-19.3,68.2,13.8,127.2
		C606,1172.9,736.5,1180.5,735.6,1182.6z"/>
	<path style="fill:#39393A;" d="M1117.1,901.6c2.6-0.2,71.7,146.6,7.6,224.4c-39.5,48-113.8,50.5-116.2,45.6s69.5-14.2,106.7-70.6
		C1168,1021.2,1114.8,901.8,1117.1,901.6z"/>
	
		<ellipse transform="matrix(0.9911 -0.1335 0.1335 0.9911 -103.7518 77.7231)" style="fill:#FCE7E3;" cx="527.9" cy="812.7" rx="86.5" ry="94.7"/>
	
		<ellipse transform="matrix(0.9911 -0.1335 0.1335 0.9911 -95.0021 127.2262)" style="fill:#FCE7E3;" cx="901.5" cy="772.2" rx="353.6" ry="387.3"/>
	<path style="fill:#39393A;" d="M954.4,735.7c1.2,21.1,1.8,42.2,1.8,63.3c0,21.1-0.6,42.2-1.8,63.2c-0.7,11.9-1.5,23.7-2.6,35.5
		c0,1.7,1.3,3,3,3c1.6,0,3-1.4,3-3c1.9-21,3.1-42,3.8-63c0.7-21,0.8-42.1,0.3-63.3c-0.3-11.9-0.8-23.8-1.4-35.7c0-1.6-1.4-3-3-3
		C955.8,732.7,954.4,734,954.4,735.7L954.4,735.7z"/>
	<path style="fill:#39393A;" d="M955.3,900.7l43.8-0.9c3.8-0.1,3.9-6.1,0-6l-43.8,0.9C951.4,894.8,951.4,900.8,955.3,900.7z"/>
	<path style="fill:#39393A;" d="M996.8,895.5c-12.1,14-24,28.2-35.7,42.6c-3.3,4.1-6.7,8.2-10,12.4c-1.1,1.2-1.1,3.1,0,4.3
		c1.2,1.2,3.1,1.2,4.2,0c11.6-14.5,23.4-28.7,35.3-42.9c3.4-4,6.9-8.1,10.3-12.1c1.1-1.2,1.1-3.1,0-4.2
		C999.8,894.4,997.9,894.4,996.8,895.5L996.8,895.5z"/>
	<path style="fill:#FF8552;" d="M982.2,1059.4c0.3,10.8-34.3,22-65.5,21c-31.7-1.1-65.9-15-65-25.8c0.9-10.2,33.9-20,51.7-16.8
		c4.8,1,9.6,1.6,14.4,1.9c6.6,0.4,13.2,0.2,19.7-0.5C955.2,1037.8,981.9,1050,982.2,1059.4z"/>
	<path style="fill:none;stroke:#39393A;stroke-width:5;stroke-miterlimit:10;" d="M838.6,1046.6c25.6,7.8,52.1,12.4,78.8,13.6
		c26.9,1.2,53.8-1.1,80.2-6.9"/>
	
		<ellipse transform="matrix(0.9915 -0.1302 0.1302 0.9915 -115.8126 101.195)" style="opacity:0.25;fill:#FF8552;enable-background:new    ;" cx="716" cy="936.3" rx="48.4" ry="53.1"/>
	
		<ellipse transform="matrix(0.9911 -0.1335 0.1335 0.9911 -113.9906 159.2095)" style="opacity:0.25;fill:#FF8552;enable-background:new    ;" cx="1130.5" cy="929.9" rx="52.3" ry="57.3"/>
	
		<ellipse transform="matrix(0.9911 -0.1335 0.1335 0.9911 -83.4965 151.8061)" style="fill:#39393A;" cx="1090.6" cy="698.7" rx="71.9" ry="12.1"/>
	
		<ellipse transform="matrix(0.1473 -0.9891 0.9891 0.1473 12.2358 1411.5884)" style="fill:#39393A;" cx="824.8" cy="698.7" rx="12" ry="72.3"/>
	<path style="fill:none;stroke:#39393A;stroke-width:7;stroke-miterlimit:10;" d="M479.2,770.3c7.7,0.3,34.8,2.6,58.8,26.7
		c22.4,22.6,28.3,50.3,29.8,59.3"/>
	<line style="fill:none;stroke:#39393A;stroke-width:7;stroke-miterlimit:10;" x1="489.5" y1="830.8" x2="540.1" y2="800.5"/>
	
		<ellipse transform="matrix(0.9911 -0.1335 0.1335 0.9911 -52.447 116.112)" style="fill:#615F5E;" cx="839.9" cy="449.3" rx="188.8" ry="139.3"/>
	
		<ellipse transform="matrix(0.1473 -0.9891 0.9891 0.1473 432.3151 1421.4514)" style="fill:#615F5E;" cx="1040.6" cy="460" rx="125.2" ry="153.4"/>
	
		<ellipse transform="matrix(0.7071 -0.7071 0.7071 0.7071 -225.8753 612.3926)" style="fill:#615F5E;" cx="626.3" cy="578.9" rx="172.2" ry="96.9"/>
	
		<ellipse transform="matrix(0.5787 -0.8155 0.8155 0.5787 50.7447 1188.8802)" style="fill:#615F5E;" cx="1176.1" cy="545.3" rx="82.8" ry="108"/>
	<path style="fill:#39393A;" d="M721,383.8c-4.2-7.5,72.2-74.1,148.9-39.1s76,136.4,68.2,138.1c-6.8,1.4-21.4-70.3-82.7-99.2
		C792.4,353.8,724.7,390.5,721,383.8z"/>
	<path style="fill:#39393A;" d="M693,527.5c6.2-1.8,16.8,60.5-34.2,108.2S546.4,668,548.4,662.4c1.8-4.9,51-4.5,92.4-42.4
		C683.4,581,687.5,529.1,693,527.5z"/>
	<path style="fill:#39393A;" d="M999.8,385.5c-1.2-7.3,79.2-37.8,130.9,12.9s22.1,131.6,15.3,130.6c-5.8-0.9,2.9-62.6-38.1-103.9
		C1065.7,382.7,1000.8,391.9,999.8,385.5z"/>
	<path style="fill:none;stroke:#E8D0CD;stroke-width:4;stroke-miterlimit:10;" d="M712.5,762.3c45.4-38.3,104.2-47.3,147.3-23.5
		c29.2,16.2,43,42.9,48.6,56"/>
	<path style="fill:none;stroke:#E8D0CD;stroke-width:4;stroke-miterlimit:10;" d="M1004.8,785.5c24.4-40,67.9-63,111.8-58.8
		c49.4,4.7,77.5,41.7,82.1,47.9"/>
	<line style="fill:none;stroke:#39393A;stroke-width:7;stroke-miterlimit:10;" x1="737.8" y1="765.8" x2="725.2" y2="753.7"/>
	<line style="fill:none;stroke:#39393A;stroke-width:7;stroke-miterlimit:10;" x1="727.6" y1="773.3" x2="715.4" y2="763.3"/>
	<line style="fill:none;stroke:#39393A;stroke-width:7;stroke-miterlimit:10;" x1="718" y1="783" x2="705.8" y2="774.4"/>
	<path style="fill:#FFFFFF;" d="M898.2,798c0,0-44.9,52.1-91.7,49.7c-45-2.3-87.4-54.7-89.9-58.1l0,0c12.1-13.3,26.3-24.5,42-33.2
		c9.1-5,28.8-15.7,49.7-16.6C856.8,738,893.2,790.6,898.2,798z"/>
	
		<ellipse transform="matrix(0.9963 -8.541693e-02 8.541693e-02 0.9963 -64.8322 72.202)" style="fill:#895540;" cx="811.3" cy="793.7" rx="47.4" ry="53.9"/>
	<path style="fill:none;stroke:#39393A;stroke-width:10;stroke-miterlimit:10;" d="M716.5,789.7c36-43.4,88-59.6,130.2-41.2
		c28.6,12.5,44.7,37.3,51.5,49.5"/>
	<line style="fill:none;stroke:#39393A;stroke-width:7;stroke-miterlimit:10;" x1="1171" y1="763.5" x2="1183.4" y2="751.2"/>
	<line style="fill:none;stroke:#39393A;stroke-width:7;stroke-miterlimit:10;" x1="1182.6" y1="772.2" x2="1193.9" y2="760.9"/>
	<line style="fill:none;stroke:#39393A;stroke-width:7;stroke-miterlimit:10;" x1="1192.2" y1="781.7" x2="1203.3" y2="771.7"/>
	<path style="fill:#FFFFFF;" d="M1015.5,798.4c0,0,47.5,51.3,93.6,48c44.4-3.1,83.4-56.3,85.7-59.7l0,0c-12.7-13-27.4-24-43.5-32.4
		c-9.3-4.8-29.5-15.2-50.1-15.7C1053,737.7,1020,790.9,1015.5,798.4z"/>
	
		<ellipse transform="matrix(0.9951 -9.897240e-02 9.897240e-02 0.9951 -73.0421 112.8826)" style="fill:#895540;" cx="1101.2" cy="792.6" rx="46.9" ry="53.9"/>
	<path style="fill:none;stroke:#39393A;stroke-width:10;stroke-miterlimit:10;" d="M1194.8,786.8c-38.1-42.8-90.5-57.9-131.2-38.8
		c-27.6,13-42.1,38.1-48.1,50.4"/>
</g>
<g id="INSTA">
	<path style="fill:#E36450;" d="M1408.2,999.9h317.6c55.4,0,100.3,44.9,100.3,100.3v0c0,55.4-44.9,100.3-100.3,100.3h-317.6
		c-55.4,0-100.3-44.9-100.3-100.3v0C1307.9,1044.8,1352.8,999.9,1408.2,999.9z"/>
	<path style="fill:#E36450;" d="M1562.1,1270.9L1562.1,1270.9l-44.6-91.4h91.4L1562.1,1270.9z"/>
	<path style="fill:#FFFFFF;" d="M1704.5,1037.5c-12.9,0-25.1,6.3-32.4,17l-1.5,1.9l-1-1.3c-7.1-11-19.3-17.6-32.4-17.6
		c-22.4,0-38.7,16.3-38.7,38.7c0,33.1,60,81.9,64.3,85.4c4.3,4.1,11,4.1,15.3,0c4.4-3.5,65.2-53.1,65.2-85.4
		C1743.2,1053.8,1726.9,1037.5,1704.5,1037.5z"/>
	<path style="fill:none;stroke:#FFFFFF;stroke-width:10;stroke-miterlimit:10;" d="M1473.4,1037.5c-36.4,0-66,26.6-66,59.4
		c0,11.5,3.7,22.8,10.5,32.1c-1.3,14.4-4.8,25-9.8,30.1c-0.9,0.9-0.9,2.2,0,3.1c0.4,0.4,1,0.6,1.6,0.6c0.1,0,0.2,0,0.3,0
		c0.9-0.1,21.6-3.1,36.6-11.7c8.6,3.4,17.7,5.2,26.9,5.2c36.4,0,66-26.7,66-59.4S1509.8,1037.5,1473.4,1037.5z"/>
</g>
</svg>
