<?xml version="1.0" encoding="utf-8"?>
<!-- Generator: Adobe Illustrator 24.3.0, SVG Export Plug-In . SVG Version: 6.00 Build 0)  -->
<svg version="1.1" id="Layer_1" xmlns="http://www.w3.org/2000/svg" xmlns:xlink="http://www.w3.org/1999/xlink" x="0px" y="0px"
	 viewBox="0 0 1920 1920" style="enable-background:new 0 0 1920 1920;" xml:space="preserve">
<g id="BACKGROUND">
	<rect x="-68.7" y="-45.7" style="fill:#297373;" width="2031.6" height="2031.6"/>
</g>
<g id="_2ND_BACK">
	<path style="fill:#327F7B;" d="M229.4,1744h225.4c64.1,0,116-52,116-116c0-64.1-52-116-116-116l0,0h-77.5c-64.1,0-116-52-116-116
		c0-64.1,52-116,116-116h464.9c64.1,0,116.1-51.9,116.1-116c0-64.1-51.9-116.1-116-116.1c0,0-0.1,0-0.1,0H60.3
		c-64.1,0-116-52-116-116s52-116,116-116h556.5c64.1,0,116.1-51.9,116.1-116c0-64.1-51.9-116.1-116-116.1c0,0-0.1,0-0.1,0H405.5
		c-64.1,0-116-52-116-116s52-116,116-116h464.9c64.1,0,116.1-51.9,116.1-116c0-64.1-51.9-116.1-116-116.1c0,0,0,0,0,0h-70.4
		c-64.1,0.1-116.2-51.9-116.2-116c0,0,0,0,0,0c0.1-64.1,52.1-116.1,116.2-116h704.4c64.1-0.1,116.1,51.8,116.2,115.9
		c-0.1,64.1-52.1,116.1-116.2,116c0,0,0,0,0,0H1462c-64.1,0-116.1,52-116.1,116.1s52,116.1,116.1,116.1h77.5c64.1,0,116,52,116,116
		s-52,116-116,116h14.1c-64.1,0-116.1,52-116.1,116s52,116.1,116.1,116.1h767.8c64.1,0,116,52,116,116s-52,116-116,116h-197.2
		c-64.1,0-116.1,51.9-116.1,116c0,64.1,51.9,116.1,116,116.1c0,0,0.1,0,0.1,0h28.2c64.1,0,116,52,116,116c0,64.1-52,116-116,116
		h-528.3c-64.1,0-116,52-116,116c0,64.1,52,116,116,116l0,0h267.7c64.1,0,116.1,51.9,116.1,116c0,64.1-51.9,116.1-116,116.1
		c0,0-0.1,0-0.1,0H229.5c-64.1,0-116.1-51.9-116.1-116S165.2,1744,229.4,1744c0-0.1,0.1-0.1,0.1-0.1L229.4,1744z"/>
</g>
<g id="ELEMENTS">
	<path style="fill:#552F41;stroke:#3B2531;stroke-width:25;stroke-miterlimit:10;" d="M1338.5,1534.2l-733,1.9
		c-56.5-198.4-61.1-365-55.3-476.3c10.1-196.4,20.5-399.4,169-509.2c97.8-72.3,214.8-74.2,248.9-74.8c35-0.6,166.7-2.7,271.9,80.6
		c110.5,87.5,130.3,221.2,150.1,369.3C1407.1,1053.5,1417.2,1268.2,1338.5,1534.2z"/>
	<path style="fill:none;stroke:#3B2531;stroke-width:25;stroke-miterlimit:10;" d="M910.3,514.9c-42.9,12.4-105,37.7-151.1,93.9
		c-66.4,81-60.6,178.6-49.9,391.6c3.6,71.8,10.5,211.9,20,420.2"/>
	<path style="fill:none;stroke:#3B2531;stroke-width:25;stroke-miterlimit:10;" d="M961.5,507.2c-42.9,12.4-105,37.7-151.1,93.9
		c-66.4,81-60.6,178.6-49.9,391.6c3.6,71.8,10.5,211.9,20,420.2"/>
	<path style="fill:none;stroke:#3B2531;stroke-width:25;stroke-miterlimit:10;" d="M1030.2,521.8c42.9,12.4,105,37.7,151.1,93.9
		c66.4,81,60.6,178.6,49.9,391.6c-3.6,71.8-10.5,211.9-20,420.2"/>
	<path style="fill:none;stroke:#3B2531;stroke-width:25;stroke-miterlimit:10;" d="M979,514.1c42.9,12.4,105,37.7,151.1,93.9
		c66.4,81,60.6,178.6,49.9,391.6c-3.6,71.7-10.5,211.9-20,420.2"/>
	<path style="fill:#C48E76;" d="M1446.8,1467.7L1446.8,1467.7c94.6-10.5,179.8,57.7,190.3,152.3l35.3,318
		c10.5,94.6-57.7,179.8-152.3,190.3l0,0c-94.6,10.5-179.8-57.7-190.3-152.3l-35.3-318C1284,1563.4,1352.2,1478.2,1446.8,1467.7z"/>
	<path style="fill:#C48E76;" d="M523.5,1470.6L523.5,1470.6c93,20.2,152.1,112,131.9,205l-67.9,312.7c-20.2,93-112,152.1-205,131.9
		l0,0c-93-20.2-152.1-112-131.9-205l67.9-312.7C338.6,1509.4,430.4,1450.4,523.5,1470.6z"/>
	<circle style="fill:#C48E76;" cx="966.6" cy="845.7" r="343.7"/>
	<circle style="fill:#C48E76;" cx="601.2" cy="829.3" r="96.9"/>
	<circle style="fill:#C48E76;" cx="1350.6" cy="837.2" r="96.9"/>
	
		<ellipse transform="matrix(0.1602 -0.9871 0.9871 0.1602 -25.6788 1448.2451)" style="fill:#39393A;" cx="838.3" cy="739.2" rx="14.4" ry="83.2"/>
	<path style="opacity:0.5;fill:#FF8552;enable-background:new    ;" d="M1059,1067.7c-0.1,1.2-4,1.6-16.9,3
		c-45.2,4.9-41.4,7.6-60,7.8c-9.6,0.1-23-1.6-49.8-5c-17.3-2.2-26-3.5-26-5.2c-0.2-4.3,37.5-12.2,76-12.3
		C1021.5,1056,1059.3,1064.1,1059,1067.7z"/>
	<path style="fill:#39393A;" d="M976.3,803.9c1.2,18.3,1.8,36.6,1.9,55c0.1,18.4-0.4,36.6-1.5,54.7c-0.6,10.3-1.4,20.6-2.3,30.9
		c0,1.7,1.3,3,3,3c1.6,0,3-1.4,3-3c1.7-18.3,2.8-36.6,3.4-54.9c0.6-18.3,0.6-36.6,0-54.8c-0.3-10.3-0.8-20.6-1.5-30.9
		c0-1.6-1.4-3-3-3C977.6,801,976.3,802.3,976.3,803.9L976.3,803.9z"/>
	<path style="fill:#39393A;" d="M977.9,947.5l41.5-2c1.6,0,3-1.4,3-3c0-1.7-1.3-3-3-3l-41.5,2c-1.6,0-3,1.4-3,3
		C974.9,946.1,976.3,947.5,977.9,947.5L977.9,947.5z"/>
	<path style="fill:#39393A;" d="M1017,941.1c-11.3,12.5-22.5,25.1-33.6,37.9c-3.2,3.6-6.3,7.3-9.4,11c-1.1,1.2-1.1,3,0,4.2
		c1.2,1.2,3.1,1.2,4.2,0c0,0,0,0,0,0c10.9-12.9,22-25.6,33.3-38.2c3.2-3.6,6.5-7.2,9.7-10.7c1.2-1.2,1.2-3.1,0-4.3
		S1018.2,940,1017,941.1L1017,941.1z"/>
	<circle style="opacity:0.5;fill:#FF8552;enable-background:new    ;" cx="758.4" cy="974.9" r="60.2"/>
	<circle style="opacity:0.5;fill:#FF8552;enable-background:new    ;" cx="1185.6" cy="982.9" r="60.2"/>
	<path style="fill:none;stroke:#A5796B;stroke-width:5;stroke-miterlimit:10;" d="M721.3,813.3c47.7-40.2,109.5-49.7,154.8-24.6
		c30.7,17,45.2,45.1,51.1,58.8"/>
	<path style="fill:none;stroke:#A5796B;stroke-width:5;stroke-miterlimit:10;" d="M1019.4,844.4c32.9-53,88.7-81.1,139.6-71.3
		c34.5,6.7,57,28.9,66.8,40.1"/>
	<path style="fill:#FFFFFF;" d="M924.3,865.8c0,0-59.2,48-112.2,38.9c-50.9-8.7-91.2-69.2-93.6-73.1l0,0c16-12.3,33.9-22,53-28.6
		c11.2-3.9,35.3-12.3,59.2-10.3C886.4,797.5,919.8,857.4,924.3,865.8z"/>
	
		<ellipse transform="matrix(0.1602 -0.9871 0.9871 0.1602 -144.7503 1528.3715)" style="fill:#604740;" cx="825.9" cy="849.3" rx="56.7" ry="54.5"/>
	<path style="fill:none;stroke:#39393A;stroke-width:10;stroke-miterlimit:10;" d="M718.4,831.7c47.7-40.2,109.5-49.7,154.8-24.7
		c30.7,17,45.2,45.1,51.1,58.8"/>
	<line style="fill:none;stroke:#39393A;stroke-width:7;stroke-miterlimit:10;" x1="754.4" y1="808.5" x2="746.7" y2="790.8"/>
	<line style="fill:none;stroke:#39393A;stroke-width:7;stroke-miterlimit:10;" x1="742.7" y1="814.3" x2="733.7" y2="797.2"/>
	<line style="fill:none;stroke:#39393A;stroke-width:7;stroke-miterlimit:10;" x1="731" y1="821" x2="721.3" y2="804.2"/>
	<path style="fill:#FFFFFF;" d="M1026,861c0,0,59.8,48,113.3,38.9c51.4-8.7,92.1-69.2,94.5-73.1l0,0c-16.2-12.3-34.3-22-53.5-28.6
		c-11.3-3.9-35.7-12.3-59.8-10.3C1064.3,792.7,1030.6,852.6,1026,861z"/>
	
		<ellipse transform="matrix(0.9782 -0.2076 0.2076 0.9782 -150.7658 251.9966)" style="fill:#604740;" cx="1125.4" cy="844.4" rx="55" ry="56.7"/>
	<path style="fill:none;stroke:#39393A;stroke-width:10;stroke-miterlimit:10;" d="M1233.8,826.9c-48.2-40.2-110.5-49.7-156.2-24.6
		c-31,17-45.7,45.1-51.6,58.8"/>
	<line style="fill:none;stroke:#39393A;stroke-width:7;stroke-miterlimit:10;" x1="1197.6" y1="803.8" x2="1205.3" y2="786"/>
	<line style="fill:none;stroke:#39393A;stroke-width:7;stroke-miterlimit:10;" x1="1209.3" y1="809.5" x2="1218.5" y2="792.4"/>
	<line style="fill:none;stroke:#39393A;stroke-width:7;stroke-miterlimit:10;" x1="1221.2" y1="816.2" x2="1230.9" y2="799.4"/>
	<path style="fill:none;stroke:#39393A;stroke-width:7;stroke-miterlimit:10;" d="M1406.8,801c-8.9,0.3-40.1,2.6-67.7,26.8
		c-17.6,15.5-29.7,36.3-34.4,59.3"/>
	<line style="fill:none;stroke:#39393A;stroke-width:7;stroke-miterlimit:10;" x1="1394.9" y1="861.5" x2="1336.6" y2="831.2"/>
	<path style="fill:none;stroke:#39393A;stroke-width:7;stroke-miterlimit:10;" d="M544.1,798.6c8.9,0.3,40.3,2.6,68,26.8
		c17.7,15.5,29.8,36.3,34.5,59.3"/>
	<line style="fill:none;stroke:#39393A;stroke-width:7;stroke-miterlimit:10;" x1="556.1" y1="859.2" x2="614.6" y2="828.8"/>
	
		<ellipse transform="matrix(0.9871 -0.1602 0.1602 0.9871 -104.1655 186.4038)" style="fill:#39393A;" cx="1103.8" cy="739.1" rx="83.2" ry="14.4"/>
	<path style="fill:none;stroke:#3B2531;stroke-width:25;stroke-miterlimit:10;" d="M854.3,522.9c-42.9,12.4-105,37.7-151.1,93.9
		c-66.4,81-60.6,178.6-49.9,391.6c3.6,71.8,10.5,211.9,20,420.2"/>
	<path style="fill:none;stroke:#3B2531;stroke-width:25;stroke-miterlimit:10;" d="M874.7,518.3c-80.9,30.8-129.3,73.5-156.7,103.4
		C596.1,754.4,598.1,948.2,599.4,1071c0,2.9,2.6,49.8,7.6,143.6c5.8,107.8,10.7,196,14,255.1"/>
	<path style="fill:none;stroke:#3B2531;stroke-width:25;stroke-miterlimit:10;" d="M1086.3,529.9c42.9,12.4,105,37.7,151.1,93.9
		c66.4,81,60.6,178.6,49.9,391.6c-3.6,71.8-10.5,211.9-20,420.2"/>
	<path style="fill:none;stroke:#3B2531;stroke-width:25;stroke-miterlimit:10;" d="M1065.9,525.3c80.9,30.8,129.3,73.5,156.7,103.4
		c121.9,132.7,119.9,326.5,118.6,449.3c0,2.9-2.6,49.8-7.6,143.6c-5.8,107.8-10.7,196-14,255.1"/>
	<path style="fill:#3B2531;" d="M1061.8,453.3c-2.5,4.4-39-29-95.2-28.8s-92.3,33.7-94.8,29.3c-2.8-4.9,39.1-55.2,94.8-55.4
		S1064.6,448.3,1061.8,453.3z"/>
	<path style="fill:#552F41;" d="M1099.3,526.8c0.4,27.8-12.6,65.3-36.3,72.1c-6,1.7-10.7,0.9-18.8,5c-13.8,6.9-13.8,16.1-26,20.2
		c-7.7,2.6-8.1-0.9-21.7,1c-16.7,2.3-18.5,7.9-29.9,7.3c-9.5-0.5-9.1-4.3-22.1-6.8c-15.8-3-18.5,2.3-28.8-1.2
		c-11.6-3.9-10.8-11.6-25.4-18.9c-8.6-4.3-14-4.3-19.5-5.9c-24-7.3-37.5-44.6-37-72.7c0.4-27,12.8-60.9,35.9-71.9
		c5.1-2.4,12-4.4,22.4-10.9c12.7-7.9,14.7-12.7,24.6-15.5c8.1-2.2,8.6,0.4,21.9-1.2c15.7-1.9,16.5-5.8,28-6.1
		c9-0.2,8.6,2.2,25.6,4.7c17.3,2.5,18.3,0.2,26.8,3.1c8.7,3,9.6,6.1,23,14.2c10.6,6.4,17.7,9.1,21.7,11.1
		C1084.9,465,1098.9,497.8,1099.3,526.8z"/>
	<ellipse style="fill:#3B2531;" cx="966.6" cy="526.8" rx="19.8" ry="104.3"/>
	<ellipse style="fill:#3B2531;" cx="917.1" cy="526.4" rx="19.8" ry="97.6"/>
	<ellipse style="fill:#3B2531;" cx="1016.8" cy="526.8" rx="19.8" ry="97.6"/>
	<ellipse style="fill:#3B2531;" cx="871.6" cy="526.9" rx="13.9" ry="72.7"/>
	<ellipse style="fill:#3B2531;" cx="1061.9" cy="526.4" rx="13.9" ry="72.7"/>
	<path style="fill:#1A59B5;" d="M1501,2300.5l-1048-4c64.7-287.6,129.3-575.1,194-862.7c225.3-62.1,463.6-58.6,686.9,10.1
		C1389.6,1729.4,1445.3,2014.9,1501,2300.5z"/>
	<path style="fill:#1A59B5;" d="M453,2120.7h287.8v-709.5l-279.4,57.3c24.5,49.2,31.7,90.5,33.7,119.4
		c6.8,99.6-37.9,206.4-37.9,206.4l0,0C457.2,1794.3,454.9,1976.3,453,2120.7z"/>
	<path style="fill:#1A59B5;" d="M1483.3,2119.4h-287.9v-709.5l279.4,57.3c-24.5,49.2-31.7,90.5-33.7,119.4
		c-6.8,99.6,37.9,206.4,37.9,206.4l0,0C1479.1,1793,1481.5,1975.1,1483.3,2119.4z"/>
	<path style="fill:#224E7A;" d="M982.3,1718.3c-74.6,3.5-130.6-107-138.7-123.1c0,0-17.1-33.8-46.3-192.9l0,0
		c119.4-14.8,240.2-14.5,359.5,1.2l0,0c-33.1,158.7-53,196.9-53,196.9C1084.8,1636.6,1043.7,1715.4,982.3,1718.3z"/>
	<path style="fill:none;stroke:#224E7A;stroke-width:10;stroke-miterlimit:10;" d="M828.5,1516c-13.1,87.8-38.8,173.2-76.3,253.6
		c-41.8,89.4-97.7,171.6-165.6,243.3"/>
	<path style="fill:none;stroke:#224E7A;stroke-width:10;stroke-miterlimit:10;" d="M1122.8,1516c27.8,186.5,112.3,360,242,496.9"/>
	<line style="fill:none;stroke:#224E7A;stroke-width:10;stroke-miterlimit:10;" x1="981.7" y1="1696.4" x2="981.8" y2="1986"/>
	<path style="fill:none;stroke:#224E7A;stroke-width:10;stroke-miterlimit:10;" d="M1475.4,1468c-80-17.3-163.1-33.1-249.3-47.4
		c-35.2-5.8-69.9-11.2-104.3-16.1"/>
	<circle style="fill:#224E7A;" cx="1474.1" cy="1469" r="7.5"/>
	<path style="fill:none;stroke:#224E7A;stroke-width:10;stroke-miterlimit:10;" d="M1475.4,1468c-29.2,52.8-35.1,95.9-35.4,124.3
		c-0.7,54.8,18.4,126.4,37.4,197.9c0.1,0.5,0.4,1.7,0.8,3.4c2.1,10.4,1.8,21.1-0.8,31.4c-7.7,33.3,0.3,101.8,2.8,122.8l0,0"/>
	<path style="fill:none;stroke:#224E7A;stroke-width:10;stroke-miterlimit:10;" d="M460,1468.7c29.2,52.8,35.1,95.9,35.4,124.3
		c0.7,54.8-18.4,126.4-37.4,197.9c-0.1,0.4-0.5,1.7-0.8,3.4c-2.1,10.4-1.8,21.1,0.8,31.4c7.7,33.3-0.3,101.8-2.8,122.8l0,0"/>
	<path style="fill:none;stroke:#224E7A;stroke-width:10;stroke-miterlimit:10;" d="M460,1468.7c80-17.3,163.1-33.1,249.3-47.4
		c35.2-5.8,69.9-11.1,104.3-16.1"/>
	<circle style="fill:#224E7A;" cx="461.3" cy="1469.8" r="7.5"/>
	<path style="fill:#C48E76;" d="M1131.7,1400.4c1.6,174.2-84.3,294.2-150.2,296c-66.8,1.9-162.1-116.2-165.8-296.7
		c-1-82.2-2-164.3-3-246.5c100.9,50.3,219.9,48.1,318.9-5.9C1131.6,1231.7,1131.6,1316.1,1131.7,1400.4z"/>
	<path style="fill:#39393A;" d="M1131.5,1147.4c0,0-107,65.5-194.9,137.5c-43,35.3-83.5,73.7-120.9,114.9
		c-1-82.1-1.9-164.2-2.9-246.2C913.7,1203.6,1032.6,1201.3,1131.5,1147.4z"/>
	<path style="opacity:0.5;fill:#FF8552;enable-background:new    ;" d="M904.7,1083.1c2.5-4,31.5,23.3,76.6,23.1
		c48.7-0.2,79.7-32.3,82.4-28.3c3.2,4.5-32.6,53.9-81.5,53.8C936.2,1131.5,901.8,1087.7,904.7,1083.1z"/>
	<path style="fill:#FFFFFF;" d="M907.9,1084.5c-17-13.5-24.1-15.9-23.6-17.7c1.2-4.5,46.8,8.1,96.9,9c26.2,0.4,52.3-2.3,77.8-8.1
		c12.6-3.7,15.6-3.3,16.1-2.3c0.9,2-6.8,7.7-17.6,15.8c-1,0.8-8.4,7.6-12.7,9c-31.5,10.5-47.3,15.7-63.5,16c0,0-30.1,0.5-66.8-16.3
		C913.6,1089.5,911.5,1087.3,907.9,1084.5z"/>
	<path style="fill:none;stroke:#39393A;stroke-width:5;stroke-miterlimit:10;" d="M883.3,1065.3c64.9,14.7,132.4,13.9,197-2.4"/>
	<path style="fill:none;stroke:#39393A;stroke-width:5;stroke-miterlimit:10;" d="M887.7,1044.3c2.2,14.4-4,28.9-15.9,37.3"/>
	<path style="fill:none;stroke:#39393A;stroke-width:5;stroke-miterlimit:10;" d="M1075.9,1043.2c-2.2,14.4,4,28.9,15.9,37.3"/>
	<path style="fill:none;stroke:#39393A;stroke-width:5;stroke-miterlimit:10;" d="M883.3,1065.8c6.4,6.4,41.9,40.7,98,40.4
		c57.4-0.3,92.9-36.5,99-42.9"/>
	
		<rect x="113.6" y="117.6" style="fill:none;stroke:#E4DFDA;stroke-width:15;stroke-miterlimit:10;" width="1692.8" height="1692.8"/>
	<rect x="113.6" y="109.6" style="fill:#E4DFDA;" width="1692.8" height="76.2"/>
	<rect x="113.6" y="1733" style="fill:#E4DFDA;" width="1692.8" height="76.2"/>
	<circle style="fill:#FF8552;" cx="1652.8" cy="147.8" r="23.7"/>
	<circle style="fill:#E9D758;" cx="1726.3" cy="147.8" r="23.7"/>
	<circle style="fill:#39393A;" cx="1578.7" cy="147.8" r="23.7"/>
</g>
<g id="INSTA">
	<path style="fill:#E36450;" d="M133.1,515h317.6c55.4,0,100.3,44.9,100.3,100.3v0c0,55.4-44.9,100.3-100.3,100.3H133.1
		c-55.4,0-100.3-44.9-100.3-100.3v0C32.8,559.9,77.7,515,133.1,515z"/>
	<path style="fill:#E36450;" d="M287,786L287,786l-44.6-91.4h91.4L287,786z"/>
	<path style="fill:#FFFFFF;" d="M429.4,552.6c-12.9,0-25.1,6.3-32.4,17l-1.5,1.9l-1-1.3c-7.1-11-19.4-17.7-32.5-17.6
		c-22.4,0-38.7,16.3-38.7,38.7c0,33.1,60,81.9,64.3,85.4c4.3,4.1,11,4.1,15.3,0c4.4-3.5,65.1-53.1,65.1-85.4
		C468.1,568.9,451.8,552.6,429.4,552.6z"/>
	<path style="fill:none;stroke:#FFFFFF;stroke-width:10;stroke-miterlimit:10;" d="M198.3,552.6c-36.4,0-66,26.6-66,59.4
		c0,11.5,3.7,22.8,10.5,32.1c-1.3,14.4-4.8,25.1-9.9,30.1c-0.9,0.9-0.9,2.3,0,3.1c0.4,0.4,1,0.6,1.5,0.6h0.3
		c0.9-0.1,21.6-3.1,36.6-11.7c8.6,3.4,17.7,5.2,26.9,5.2c36.4,0,66-26.6,66-59.4S234.6,552.6,198.3,552.6z"/>
</g>
</svg>
