<?xml version="1.0" encoding="utf-8"?>
<!-- Generator: Adobe Illustrator 24.3.0, SVG Export Plug-In . SVG Version: 6.00 Build 0)  -->
<svg version="1.1" id="Layer_1" xmlns="http://www.w3.org/2000/svg" xmlns:xlink="http://www.w3.org/1999/xlink" x="0px" y="0px"
	 viewBox="0 0 1920 1920" style="enable-background:new 0 0 1920 1920;" xml:space="preserve">
<g id="BACKGROUND">
	<rect x="-86" y="-90.2" style="fill:#39393A;" width="2066.2" height="2066.2"/>
</g>
<g id="_2ND_BACK">
	<path style="fill:#494949;" d="M23.1,1789.3h184.4c52.5,0,95.1-52,95.1-116.2S260.1,1557,207.6,1557h-63.4
		c-52.5,0-95.1-52-95.1-116.2s42.6-116.2,95.1-116.2h380.4c52.5,0,95.1-52,95.1-116.2s-42.6-116.2-95.1-116.2h-639.8
		c-52.5,0-95.1-52-95.1-116.2s42.6-116.2,95.1-116.2h455.4c52.5,0,95.1-52,95.1-116.2s-42.6-116.2-95.1-116.2H167.2
		c-52.5,0-95.1-52-95.1-116.1s42.6-116.2,95.1-116.2h380.4c52.5,0,95.1-52,95.1-116.1s-42.6-116.2-95.1-116.2H490
		c-52.5,0-95.1-52-95.1-116.2S437.5-69.2,490-69.2h576.4c52.5,0,95.1,52,95.1,116.2s-42.6,116.1-95.1,116.1h-34.6
		c-52.5,0-95.1,52-95.1,116.2s42.6,116.1,95.1,116.1h63.4c52.5,0,95.1,52,95.1,116.2s-42.6,116.2-95.1,116.2h11.5
		c-52.5,0-95.1,52-95.1,116.2s42.6,116.2,95.1,116.2H1735c52.5,0,95.1,52,95.1,116.2s-42.6,116.2-95.1,116.2h-161.4
		c-52.5,0-95.1,52-95.1,116.2s42.6,116.2,95.1,116.2h23.1c52.5,0,95.1,52,95.1,116.2s-42.6,116.2-95.1,116.2h-432.3
		c-52.5,0-95.1,52-95.1,116.2s42.6,116.2,95.1,116.2h219c52.5,0,95.1,52,95.1,116.2s-42.6,116.2-95.1,116.2H23.2
		c-52.5,0-95.1-52-95.1-116.2S-29.3,1789.3,23.1,1789.3L23.1,1789.3z"/>
</g>
<g id="ELEMENTS">
	<path style="fill:#C2CADE;" d="M1605.5,2227.9l-1309.2,1.5c38.8-255.5,77.5-511,116.3-766.5c161.5-71.9,335.7-111.2,512.4-115.7
		c266.3-6.6,472.1,68,581.7,117L1605.5,2227.9z"/>
	<ellipse style="fill:#EDB9A0;" cx="973.5" cy="824.1" rx="343.7" ry="362.7"/>
	<circle style="fill:#EDB9A0;" cx="602" cy="868.8" r="96.9"/>
	<circle style="fill:#EDB9A0;" cx="1351.3" cy="885" r="96.9"/>
	<path style="fill:#EDB9A0;" d="M1133.7,1418.9c-72.6,84.8-126.4,98.7-162.7,95c-72.9-7.6-155.7-95-155.7-95l0,0v-318.3h318.3
		V1418.9z"/>
	<path style="fill:#39393A;" d="M1133.7,1148.1c0,0,0.4-0.2,0.4-0.2s-7.6,4-20.7,11.1c-127.8,69-193.5,126.1-193.5,126.1
		c-29.2,26.1-68.1,66.7-104.5,127v-264C915.1,1200.1,1033.9,1200.1,1133.7,1148.1L1133.7,1148.1z"/>
	<path style="fill:none;stroke:#39393A;stroke-width:7;stroke-miterlimit:10;" d="M560.9,836.3c8.4,0.3,38,2.3,64.3,23.6
		c16.5,13.3,28,31.7,32.6,52.4"/>
	<path style="fill:none;stroke:#39393A;stroke-width:7;stroke-miterlimit:10;" d="M1402.4,844.3c-8.5,0.3-38.6,2.5-65.2,25.8
		c-17,14.9-28.6,35-33.1,57.1"/>
	<line style="fill:none;stroke:#39393A;stroke-width:7;stroke-miterlimit:10;" x1="1390.9" y1="902.6" x2="1334.8" y2="873.4"/>
	<line style="fill:none;stroke:#39393A;stroke-width:7;stroke-miterlimit:10;" x1="568.1" y1="886.4" x2="623.5" y2="859.6"/>
	<path style="fill:none;stroke:#2376C9;stroke-width:10;stroke-miterlimit:10;" d="M959.4,1574.1c-7.6,1.3-84.2,13.5-142.5-43.5
		c-53.2-52-48.9-120.2-48.2-129.7c1.9-48.3,17.3-95.1,44.5-135.1c7.3,25.1,26.7,78.1,76.8,123.7c25.6,23.2,55.6,41.3,88.1,53.1
		c-11.4,26.7-18.2,55.2-20.1,84.2C957,1542.5,957.5,1558.4,959.4,1574.1z"/>
	<path style="fill:none;stroke:#2376C9;stroke-width:10;stroke-miterlimit:10;" d="M989.7,1574.7c9.3,1.3,85.5,11,142-44.1
		c0,0,52.5-50.6,49.3-129.6c-0.9-22.7-4.9-45.2-11.8-66.8c-7.8-24.3-19.2-47.3-33.8-68.3c-5.7,18.8-13.3,37-22.9,54.2
		c-3.7,6.7-21.5,37.7-55.8,69.5c-23.3,21.6-49.8,39.5-78.6,53C990.7,1485.4,994.6,1530.4,989.7,1574.7L989.7,1574.7z"/>
	<path style="fill:#495DAB;" d="M1478.6,1430.3L1478.6,1430.3c94.6-10.5,179.8,57.7,190.3,152.3l35.3,318
		c10.5,94.6-57.7,179.8-152.3,190.3l0,0c-94.6,10.5-179.8-57.7-190.3-152.3l-35.3-318C1315.8,1526,1384,1440.8,1478.6,1430.3z"/>
	<path style="fill:#495DAB;" d="M464.6,1436.2L464.6,1436.2c93,20.2,152.1,112,131.9,205l-67.9,312.7c-20.2,93-112,152.1-205,131.9
		l0,0c-93-20.2-152.1-112-131.9-205l67.9-312.7C279.8,1475,371.6,1416,464.6,1436.2z"/>
	<path style="fill:#495DAB;" d="M390.1,2086.1h287.9v-709.5l-279.4,57.3C395.7,1651.3,392.9,1868.7,390.1,2086.1z"/>
	<path style="fill:#495DAB;" d="M1515.2,2086.1h-278.1v-709.5l278.1,53.7L1515.2,2086.1z"/>
	
		<ellipse transform="matrix(0.1602 -0.9871 0.9871 0.1602 -26.1583 1429.9618)" style="fill:#39393A;" cx="827.3" cy="730.4" rx="14.4" ry="83.2"/>
	
		<ellipse transform="matrix(0.9939 -0.1103 0.1103 0.9939 -73.8914 126.4591)" style="fill:#39393A;" cx="1106.5" cy="731.4" rx="83.2" ry="14.4"/>
	<path style="fill:none;stroke:#39393A;stroke-width:5;stroke-miterlimit:10;" d="M888.4,1053c64.9,14.7,132.4,13.9,197-2.4"/>
	<path style="fill:#39393A;" d="M975.5,788.5c-1.2,18.3-1.8,36.6-1.9,55c-0.1,18.4,0.4,36.6,1.4,54.7c0.6,10.3,1.4,20.6,2.3,30.9
		c0,1.6,1.4,3,3,3c1.7,0,3-1.3,3-3c-1.7-18.2-2.8-36.5-3.4-54.9c-0.6-18.2-0.6-36.5,0-54.7c0.3-10.3,0.8-20.6,1.5-30.9
		c0-1.7-1.3-3-3-3C976.8,785.6,975.5,786.9,975.5,788.5L975.5,788.5z"/>
	<path style="fill:#39393A;" d="M979.9,926.1l-41.5-2c-1.7,0-3,1.3-3,3c0,1.6,1.4,3,3,3l41.5,2c1.7,0,3-1.3,3-3
		S981.5,926.1,979.9,926.1z"/>
	<path style="fill:#39393A;" d="M936.5,930c11.4,12.5,22.6,25.1,33.6,37.9c3.1,3.7,6.3,7.3,9.4,11c1.2,1.2,3.1,1.2,4.2,0
		c1.1-1.2,1.1-3.1,0-4.2c-10.9-12.9-22-25.6-33.3-38.2c-3.2-3.6-6.4-7.2-9.7-10.7c-1.3-1.1-3.2-0.9-4.2,0.3
		C935.5,927.2,935.5,928.9,936.5,930z"/>
	<path style="fill:#FFFFFF;" d="M916.4,848c0,0-51.3,41.5-97.1,33.7c-44.1-7.5-79-59.9-81-63.2l0,0c13.9-10.6,29.4-19,45.9-24.8
		c9.7-3.4,30.6-10.7,51.2-8.9C883.5,788.8,912.4,840.7,916.4,848z"/>
	
		<ellipse transform="matrix(0.1602 -0.9871 0.9871 0.1602 -129.0487 1515.5436)" style="fill:#CE9761;" cx="826.2" cy="833.6" rx="49.1" ry="47.2"/>
	<path style="fill:none;stroke:#39393A;stroke-width:10;stroke-miterlimit:10;" d="M738.2,818.4c41.3-34.8,94.7-43,134-21.3
		c26.6,14.7,39.2,39,44.2,50.9"/>
	<path style="fill:#FFFFFF;" d="M1032.2,848c0,0,51.8,41.5,98,33.7c44.5-7.5,79.7-59.9,81.8-63.2l0,0c-14-10.6-29.7-19-46.3-24.8
		c-9.8-3.4-30.9-10.7-51.7-8.9C1065.4,788.8,1036.2,840.7,1032.2,848z"/>
	
		<ellipse transform="matrix(0.9782 -0.2076 0.2076 0.9782 -148.6694 250.2687)" style="fill:#CE9761;" cx="1118.2" cy="833.6" rx="47.6" ry="49.1"/>
	<path style="fill:none;stroke:#39393A;stroke-width:10;stroke-miterlimit:10;" d="M1212.1,818.4c-41.7-34.8-95.6-43-135.2-21.3
		c-26.8,14.7-39.5,39-44.7,50.9"/>
	<path style="opacity:0.25;fill:#494949;enable-background:new    ;" d="M1264.9,1010.3c-1.6,3-3.8,6.8-6.5,11.2
		c-2.7,4.4-8.3,13.5-16.2,24.3c-8.6,11.6-17.8,22.8-27.7,33.3c-42.7,45.4-92.2,70.4-96.7,72.6c-13.9,6.8-28.2,12.6-42.9,17.5
		c-33.3,11.1-68,17.1-103,17.9c-9.7,0.2-114.2,1-205-62.8c-14.5-10.3-28.2-21.6-41-33.9c-23-22.2-42.7-47.4-58.8-75
		c-5-8.6-8.8-16-11.4-21.3c32.3,26.2,148,113.3,318.3,112.2C1124.2,1105.4,1229,1036.4,1264.9,1010.3z"/>
	<path style="fill:none;stroke:#C99783;stroke-width:5;stroke-miterlimit:10;" d="M731.8,806.5c46.3-40.4,105.9-50.3,149.5-25.5
		c29.5,16.8,43.4,44.8,49,58.5"/>
	<path style="fill:none;stroke:#C99783;stroke-width:5;stroke-miterlimit:10;" d="M1221.4,806.5c-46.3-40.4-105.9-50.3-149.5-25.5
		c-29.5,16.8-43.4,44.8-49,58.5"/>
	
		<rect x="113.6" y="117.6" style="fill:none;stroke:#E4DFDA;stroke-width:15;stroke-miterlimit:10;" width="1692.8" height="1692.8"/>
	<rect x="113.6" y="109.6" style="fill:#E4DFDA;" width="1692.8" height="76.2"/>
	<rect x="113.6" y="1733" style="fill:#E4DFDA;" width="1692.8" height="76.2"/>
	<circle style="fill:#FF8552;" cx="1652.8" cy="147.8" r="23.7"/>
	<circle style="fill:#E9D758;" cx="1726.3" cy="147.8" r="23.7"/>
	<circle style="fill:#39393A;" cx="1578.7" cy="147.8" r="23.7"/>
</g>
<g id="INSTA">
	<path style="fill:#E36450;" d="M1419.9,364.1h317.6c55.4,0,100.3,44.9,100.3,100.3v0c0,55.4-44.9,100.3-100.3,100.3h-317.6
		c-55.4,0-100.3-44.9-100.3-100.3v0C1319.7,409,1364.5,364.1,1419.9,364.1z"/>
	<path style="fill:#E36450;" d="M1573.8,635.1L1573.8,635.1l-44.6-91.4h91.4L1573.8,635.1z"/>
	<path style="fill:#FFFFFF;" d="M1716.2,401.7c-12.9,0-25.1,6.3-32.4,17l-1.5,1.9l-1-1.3c-7.1-11-19.3-17.6-32.4-17.6
		c-22.4,0-38.7,16.3-38.7,38.7c0,33.1,60,81.9,64.3,85.4c4.3,4.1,11,4.1,15.3,0c4.4-3.5,65.2-53.1,65.2-85.4
		C1754.9,418,1738.6,401.7,1716.2,401.7z"/>
	<path style="fill:none;stroke:#FFFFFF;stroke-width:10;stroke-miterlimit:10;" d="M1485.1,401.7c-36.4,0-66,26.6-66,59.4
		c0,11.5,3.7,22.8,10.5,32.1c-1.3,14.4-4.8,25.1-9.8,30.1c-0.9,0.8-0.9,2.2,0,3.1c0.4,0.4,1,0.7,1.6,0.7c0.1,0,0.2,0,0.3,0
		c0.9-0.1,21.6-3.1,36.6-11.7c8.6,3.4,17.7,5.2,26.9,5.2c36.4,0,66-26.6,66-59.4S1521.5,401.7,1485.1,401.7z"/>
</g>
</svg>
