<?xml version="1.0" encoding="utf-8"?>
<!-- Generator: Adobe Illustrator 24.3.0, SVG Export Plug-In . SVG Version: 6.00 Build 0)  -->
<svg version="1.1" id="Layer_1" xmlns="http://www.w3.org/2000/svg" xmlns:xlink="http://www.w3.org/1999/xlink" x="0px" y="0px"
	 viewBox="0 0 1920 1920" style="enable-background:new 0 0 1920 1920;" xml:space="preserve">
<g id="BACKGROUND">
	<rect x="-144.6" y="-35.2" style="fill:#FF8552;" width="2183.3" height="2031.9"/>
</g>
<g id="_2ND_BACK">
	<path style="fill:#FF9D7B;" d="M1908.6,208h-225.4c-64.2,0-116.2,51.1-116.2,114.4s52,114.4,116.2,114.4h77.5
		c64.2,0,116.2,51.2,116.2,114.4s-52,114.4-116.2,114.4h-464.9c-64.2,0-116.2,51.2-116.2,114.4s52,114.4,116.2,114.4h781.9
		c64.2,0,116.2,51.2,116.2,114.4s-52,114.4-116.2,114.4h-556.5c-64.2,0-116.2,51.2-116.2,114.4s52,114.4,116.2,114.4h211.3
		c64.2,0,116.2,51.2,116.2,114.4s-52,114.4-116.2,114.4h-464.9c-64.2,0-116.2,51.2-116.2,114.4s52,114.4,116.2,114.4h70.4
		c64.2,0,116.2,51.2,116.2,114.4s-52,114.4-116.2,114.4H633.6c-64.2,0-116.2-51.2-116.2-114.4s52-114.4,116.2-114.4h42.3
		c64.2,0,116.2-51.2,116.2-114.4s-52-114.4-116.2-114.4h-77.5c-64.2,0-116.2-51.2-116.2-114.4s52-114.4,116.2-114.4h-14.1
		c64.2,0,116.2-51.2,116.2-114.4s-52-114.4-116.2-114.4h-767.8c-64.2,0-116.2-51.2-116.2-114.4s52-114.4,116.2-114.4H13.8
		c64.2,0,116.2-51.2,116.2-114.4S78,665.7,13.8,665.7h-28.2c-64.2,0-116.2-51.2-116.2-114.4s52-114.4,116.2-114.4h528.3
		c64.2,0,116.2-51.2,116.2-114.4S578.1,208,513.9,208H246.2C182,208,130,156.8,130,93.5S182-20.9,246.2-20.9h1662.3
		c64.2,0,116.2,51.2,116.2,114.4S1972.7,208,1908.6,208L1908.6,208z"/>
</g>
<g id="ELEMENTS">
	<path style="fill:#1E131A;stroke:#CCCCCC;stroke-width:20;stroke-miterlimit:10;" d="M1357,1547.5l-751.6-4.8
		c-56.5-198.4-61.1-365-55.3-476.3c10.2-196.3,20.6-399.3,169-509.2c97.8-72.4,214.8-74.2,248.8-74.8c35-0.6,166.7-2.7,271.9,80.6
		c125.6,99.3,140,262.3,150.2,369.3c4.6,47.7,3.2,80.5-1.8,167.6C1381.7,1211.1,1371.9,1363.1,1357,1547.5z"/>
	<path style="fill:none;stroke:#CCCCCC;stroke-width:25;stroke-miterlimit:10;" d="M937.3,521.4c-42.9,12.4-105,37.7-151.1,93.9
		c-66.4,81-60.6,178.6-49.9,391.6c3.6,71.8,10.5,211.9,20,420.2"/>
	<path style="fill:none;stroke:#1E131A;stroke-width:25;stroke-miterlimit:10;" d="M961.5,513.7c-42.9,12.4-105,37.7-151.1,93.9
		c-66.4,81-60.6,178.6-49.9,391.6c3.6,71.8,10.5,211.9,20,420.2"/>
	<path style="fill:none;stroke:#CCCCCC;stroke-width:25;stroke-miterlimit:10;" d="M1003.2,528.4c42.9,12.4,105,37.7,151.1,93.9
		c66.4,81,60.6,178.6,49.9,391.6c-3.6,71.8-10.5,211.9-20,420.2"/>
	<path style="fill:none;stroke:#1E131A;stroke-width:25;stroke-miterlimit:10;" d="M979,520.7c42.9,12.4,105,37.7,151.1,93.9
		c66.4,81,60.6,178.6,49.9,391.6c-3.6,71.7-10.5,211.9-20,420.2"/>
	<path style="fill:#282828;" d="M523.4,1477.1L523.4,1477.1c93,20.2,152.1,112,131.9,205l-67.9,312.7c-20.2,93-112,152.1-205,131.9
		l0,0c-93-20.2-152.1-112-131.9-205l67.9-312.7C338.6,1516,430.4,1456.9,523.4,1477.1z"/>
	<circle style="fill:#AD8679;" cx="966.6" cy="852.3" r="343.7"/>
	<circle style="fill:#AD8679;" cx="1350.6" cy="843.8" r="96.9"/>
	
		<ellipse transform="matrix(0.9948 -0.1019 0.1019 0.9948 -71.638 89.3257)" style="fill:#39393A;" cx="838.3" cy="745.7" rx="83.2" ry="14.4"/>
	<path style="opacity:0.5;fill:#552F41;enable-background:new    ;" d="M1059,1074.2c-0.1,1.2-4,1.6-16.9,3
		c-45.2,4.9-41.4,7.6-60,7.8c-9.6,0.1-23-1.6-49.8-5c-17.3-2.2-26-3.5-26-5.2c-0.2-4.3,37.5-12.2,76-12.3
		C1021.5,1062.5,1059.3,1070.7,1059,1074.2z"/>
	<path style="fill:#39393A;" d="M976.3,810.5c1.2,18.3,1.8,36.6,1.9,55c0.1,18.4-0.4,36.6-1.5,54.7c-0.6,10.3-1.4,20.6-2.3,30.9
		c0,1.7,1.3,3,3,3l0,0c1.6,0,3-1.4,3-3c1.7-18.2,2.8-36.5,3.4-54.9c0.6-18.2,0.6-36.5,0-54.7c-0.3-10.3-0.8-20.6-1.5-30.9
		c0-1.6-1.4-3-3-3C977.6,807.5,976.3,808.8,976.3,810.5L976.3,810.5z"/>
	<path style="fill:#39393A;" d="M977.9,954l41.5-2c1.6,0,3-1.4,3-3c0-1.7-1.3-3-3-3l0,0l-41.5,2c-1.6,0-3,1.4-3,3
		C974.9,952.7,976.3,954,977.9,954L977.9,954z"/>
	<path style="fill:#39393A;" d="M1017,947.7c-11.3,12.5-22.5,25.1-33.6,37.9c-3.2,3.6-6.3,7.3-9.4,11c-1.1,1.2-1.1,3,0,4.2
		c1.2,1.2,3.1,1.2,4.2,0c0,0,0,0,0,0c10.9-12.9,22-25.6,33.3-38.2c3.2-3.6,6.5-7.1,9.7-10.7c1.2-1.2,1.2-3.1,0-4.3
		S1018.2,946.5,1017,947.7L1017,947.7z"/>
	<circle style="opacity:0.25;fill:#552F41;enable-background:new    ;" cx="758.4" cy="981.5" r="60.2"/>
	<circle style="opacity:0.25;fill:#552F41;enable-background:new    ;" cx="1185.6" cy="989.5" r="60.2"/>
	<path style="fill:none;stroke:#A5796B;stroke-width:5;stroke-miterlimit:10;" d="M721.3,819.8c47.7-40.2,109.5-49.7,154.8-24.6
		c30.7,17,45.2,45.1,51.1,58.8"/>
	<path style="fill:none;stroke:#A5796B;stroke-width:5;stroke-miterlimit:10;" d="M1019.4,850.9c32.9-53,88.7-81.1,139.6-71.3
		c34.5,6.7,57,28.9,66.8,40.1"/>
	<line style="fill:none;stroke:#39393A;stroke-width:7;stroke-miterlimit:10;" x1="731.9" y1="850.7" x2="715.5" y2="860.9"/>
	<line style="fill:none;stroke:#39393A;stroke-width:7;stroke-miterlimit:10;" x1="738.6" y1="861.1" x2="725.2" y2="872.4"/>
	<line style="fill:none;stroke:#39393A;stroke-width:7;stroke-miterlimit:10;" x1="746.5" y1="872.4" x2="735.4" y2="884.4"/>
	<path style="fill:#FFFFFF;" d="M924.3,872.4c0,0-59.2,48-112.2,38.9c-50.9-8.7-91.2-69.2-93.6-73.1l0,0c16-12.3,33.9-22,53-28.6
		c11.2-3.9,35.3-12.3,59.2-10.3C886.4,804.1,919.8,864,924.3,872.4z"/>
	
		<ellipse transform="matrix(0.1602 -0.9871 0.9871 0.1602 -151.2089 1533.8756)" style="fill:#604740;" cx="825.9" cy="855.8" rx="56.7" ry="54.5"/>
	<path style="fill:none;stroke:#39393A;stroke-width:10;stroke-miterlimit:10;" d="M718.4,838.2c47.7-40.2,109.5-49.7,154.8-24.6
		c30.7,17,45.2,45.1,51.1,58.8"/>
	<line style="fill:none;stroke:#39393A;stroke-width:7;stroke-miterlimit:10;" x1="754.4" y1="815.1" x2="746.7" y2="797.3"/>
	<line style="fill:none;stroke:#39393A;stroke-width:7;stroke-miterlimit:10;" x1="742.7" y1="820.8" x2="733.7" y2="803.7"/>
	<line style="fill:none;stroke:#39393A;stroke-width:7;stroke-miterlimit:10;" x1="731" y1="827.5" x2="721.3" y2="810.7"/>
	<line style="fill:none;stroke:#39393A;stroke-width:7;stroke-miterlimit:10;" x1="1220.2" y1="845.9" x2="1236.8" y2="856.1"/>
	<line style="fill:none;stroke:#39393A;stroke-width:7;stroke-miterlimit:10;" x1="1213.5" y1="856.3" x2="1227" y2="867.6"/>
	<line style="fill:none;stroke:#39393A;stroke-width:7;stroke-miterlimit:10;" x1="1205.5" y1="867.6" x2="1216.7" y2="879.6"/>
	<path style="fill:#FFFFFF;" d="M1026,867.6c0,0,59.8,48,113.3,38.9c51.4-8.7,92.1-69.2,94.5-73.1l0,0c-16.2-12.3-34.3-22-53.5-28.6
		c-11.3-3.9-35.7-12.3-59.8-10.3C1064.3,799.3,1030.6,859.2,1026,867.6z"/>
	
		<ellipse transform="matrix(0.9782 -0.2076 0.2076 0.9782 -152.1228 252.1385)" style="fill:#604740;" cx="1125.4" cy="851" rx="55" ry="56.7"/>
	<path style="fill:none;stroke:#39393A;stroke-width:10;stroke-miterlimit:10;" d="M1233.8,833.4c-48.2-40.2-110.5-49.7-156.2-24.6
		c-31,17-45.7,45.1-51.6,58.8"/>
	<line style="fill:none;stroke:#39393A;stroke-width:7;stroke-miterlimit:10;" x1="1197.6" y1="810.3" x2="1205.3" y2="792.5"/>
	<line style="fill:none;stroke:#39393A;stroke-width:7;stroke-miterlimit:10;" x1="1209.3" y1="816" x2="1218.5" y2="798.9"/>
	<line style="fill:none;stroke:#39393A;stroke-width:7;stroke-miterlimit:10;" x1="1221.2" y1="822.7" x2="1230.9" y2="805.9"/>
	<path style="fill:none;stroke:#39393A;stroke-width:7;stroke-miterlimit:10;" d="M1406.8,807.5c-8.9,0.3-40.1,2.6-67.7,26.8
		c-17.6,15.5-29.7,36.3-34.4,59.3"/>
	<line style="fill:none;stroke:#39393A;stroke-width:7;stroke-miterlimit:10;" x1="1394.9" y1="868.1" x2="1336.6" y2="837.7"/>
	<path style="fill:#1E131A;stroke:#CCCCCC;stroke-width:20;stroke-miterlimit:10;" d="M1120.6,548.3c-7,14.7-76.1-29-185.7-19.9
		c-116.7,9.7-180.8,71.1-188.6,59.8c-10.3-14.7,82-144.1,204.5-142.6C1048.8,446.9,1128.8,531.3,1120.6,548.3z"/>
	<path style="opacity:0.5;fill:#552F41;enable-background:new    ;" d="M904.7,1089.6c2.5-4,31.5,23.3,76.6,23.1
		c48.7-0.2,79.7-32.2,82.4-28.3c3.2,4.5-32.6,53.9-81.5,53.8C936.2,1138.1,901.8,1094.3,904.7,1089.6z"/>
	<path style="fill:#FFFFFF;" d="M907.9,1091c-17-13.5-24.1-15.9-23.6-17.7c1.2-4.5,46.8,8.1,96.9,9c26.2,0.4,52.3-2.3,77.8-8.1
		c12.6-3.7,15.6-3.3,16.1-2.3c0.9,2-6.8,7.7-17.6,15.8c-1,0.8-8.4,7.6-12.7,9c-31.5,10.5-47.3,15.7-63.5,16c0,0-30.1,0.5-66.8-16.3
		C913.6,1096,911.5,1093.9,907.9,1091z"/>
	<path style="fill:none;stroke:#39393A;stroke-width:5;stroke-miterlimit:10;" d="M883.3,1071.9c64.9,14.7,132.4,13.9,197-2.4"/>
	<path style="fill:none;stroke:#39393A;stroke-width:5;stroke-miterlimit:10;" d="M887.7,1050.8c2.2,14.4-4,28.9-15.9,37.3"/>
	<path style="fill:none;stroke:#39393A;stroke-width:5;stroke-miterlimit:10;" d="M1075.9,1049.7c-2.2,14.4,4,28.9,15.9,37.3"/>
	<path style="fill:none;stroke:#39393A;stroke-width:5;stroke-miterlimit:10;" d="M883.3,1072.3c6.4,6.4,41.9,40.7,98,40.4
		c57.4-0.3,92.9-36.5,99-42.8"/>
	<circle style="fill:#F2F2F2;" cx="1326.7" cy="942" r="11.6"/>
	<circle style="fill:#F2F2F2;" cx="1333.8" cy="901.5" r="11.6"/>
	<circle style="fill:#F2F2F2;" cx="1367.8" cy="979.8" r="11.6"/>
	<circle style="fill:#F2F2F2;" cx="1404.8" cy="942" r="11.6"/>
	<circle style="fill:#F2F2F2;" cx="1340.9" cy="968.2" r="11.6"/>
	<circle style="fill:#F2F2F2;" cx="1393.2" cy="968.2" r="11.6"/>
	<path style="fill:none;stroke:#F2F2F2;stroke-width:5;stroke-miterlimit:10;" d="M1333.9,901.5c-2.7,4.5-11.7,20.8-7.1,40.5
		c4.2,18.2,20.3,41.2,42.9,39.7c20.8-1.3,35-22.7,37.1-40.5c0.7-6.1,0-12.3-1.9-18.2"/>
	
		<ellipse transform="matrix(0.1019 -0.9948 0.9948 0.1019 234.689 1751.421)" style="fill:#39393A;" cx="1087.4" cy="745.7" rx="14.4" ry="83.2"/>
	<path style="fill:#1E131A;stroke:#CCCCCC;stroke-width:20;stroke-miterlimit:10;" d="M1033.2,527.2c-6.3,10-30.8-5.5-82.9-6.1
		c-71.1-0.9-106.7,26.9-113.3,16.5c-9.6-14.9,47.3-99.4,113.9-92C1003.3,451.5,1042.7,512.2,1033.2,527.2z"/>
	<circle style="fill:#F2F2F2;" cx="611.3" cy="920.7" r="11.6"/>
	<circle style="fill:#F2F2F2;" cx="604.2" cy="880.2" r="11.6"/>
	<circle style="fill:#F2F2F2;" cx="570.2" cy="958.4" r="11.6"/>
	<circle style="fill:#F2F2F2;" cx="533.1" cy="920.7" r="11.6"/>
	<circle style="fill:#F2F2F2;" cx="597.1" cy="946.8" r="11.6"/>
	<circle style="fill:#F2F2F2;" cx="544.8" cy="946.8" r="11.6"/>
	<path style="fill:none;stroke:#F2F2F2;stroke-width:5;stroke-miterlimit:10;" d="M604.1,880.2c2.7,4.5,11.7,20.8,7.2,40.5
		c-4.2,18.2-20.3,41.2-42.9,39.7c-20.8-1.4-35-22.7-37.1-40.5c-0.7-6.1,0-12.3,1.8-18.2"/>
	<circle style="fill:#AD8679;" cx="601.2" cy="835.8" r="96.9"/>
	<path style="fill:none;stroke:#39393A;stroke-width:7;stroke-miterlimit:10;" d="M544.1,805.2c8.9,0.3,40.3,2.6,68,26.8
		c17.7,15.5,29.8,36.3,34.5,59.3"/>
	<line style="fill:none;stroke:#39393A;stroke-width:7;stroke-miterlimit:10;" x1="556.1" y1="865.7" x2="614.6" y2="835.4"/>
	<path style="fill:none;stroke:#CCCCCC;stroke-width:25;stroke-miterlimit:10;" d="M866.8,535.3c-31,14.1-76.2,39.7-114.6,85.5
		c-66.1,78.8-75.4,173.8-71.9,394.2c1.9,114.6,7.1,256.7,20,420.2"/>
	<path style="fill:none;stroke:#CCCCCC;stroke-width:25;stroke-miterlimit:10;" d="M1107.9,542c-51.8-11.8-255.4-52.3-378.8,61.8
		S613,939.2,617.4,1077.6c0.2,5,2.6,51.2,7.6,143.6c5.8,107.8,10.7,196,14,255.1"/>
	<path style="fill:#282828;" d="M1446.8,1474.2L1446.8,1474.2c94.6-10.5,179.8,57.7,190.3,152.3l35.3,318
		c10.5,94.6-57.7,179.8-152.3,190.3l0,0c-94.6,10.5-179.8-57.7-190.3-152.3l-35.3-318C1284,1569.9,1352.2,1484.7,1446.8,1474.2z"/>
	<path style="fill:#282828;" d="M1501,2307l-1048-4c64.7-287.6,129.3-575.1,194-862.7c225.3-62.1,463.6-58.6,686.9,10.1
		C1389.6,1735.9,1445.3,2021.5,1501,2307z"/>
	<path style="fill:#282828;" d="M453,2127.2h287.8v-709.5l-279.4,57.3c24.5,49.2,31.7,90.5,33.7,119.4
		c6.8,99.6-37.9,206.4-37.9,206.4l0,0C457.2,1800.9,454.9,1982.9,453,2127.2z"/>
	<path style="fill:#AD8679;" d="M1131.7,1406.9c0,0-72.7,411.8-151.4,412.9c-79.3,1.2-164.5-413.5-164.6-413.5l0,0c0,0-1-86-3-246.5
		c100.9,50.3,219.9,48.1,318.9-5.9C1131.6,1320.1,1131.7,1406.9,1131.7,1406.9L1131.7,1406.9z"/>
	<path style="fill:#39393A;" d="M1131.5,1153.9c0,0-107,65.5-194.9,137.4c-43,35.3-83.5,73.7-120.9,114.9
		c-1-82.1-1.9-164.2-2.9-246.2C913.7,1210.1,1032.6,1207.8,1131.5,1153.9z"/>
	<path style="fill:#282828;" d="M1483.3,2126h-287.9v-709.5l279.4,57.3c-24.5,49.2-31.7,90.5-33.7,119.4
		c-6.8,99.6,37.9,206.4,37.9,206.4l0,0C1479.1,1799.6,1481.5,1981.6,1483.3,2126z"/>
	<path style="fill:#1E131A;" d="M1334.2,1816.7l-130.8-0.8c12.2-20.2,22-41.8,29.1-64.3c18.9-60,13.6-110.7,12.1-127.4
		c-5.4-60.8,4.6-184.3,24.7-431.5c14-172.7,29.3-229.7,15.1-353.8c-4.6-40.4-11.5-80.5-20.6-120.2l30.1,1.7
		c12.1,28.7,22.1,58.2,30,88.3c27.7,106,20.3,188.2,14.8,266.9c-24,341.3-0.1,429.8-20.1,509.5c0,0-5.6,71.1-5.6,132.5
		L1334.2,1816.7z"/>
	<path style="fill:none;stroke:#CCCCCC;stroke-width:25;stroke-miterlimit:10;" d="M1059.3,536.4c42.4,13.4,102.6,39.5,151.1,93.9
		c99.6,111.8,82.7,266.9,67,459.3c-12.3,151.4-27.4,369.9-37,646.7"/>
	<path style="fill:none;stroke:#CCCCCC;stroke-width:25;stroke-miterlimit:10;" d="M1098.4,523c45.3,25,112.2,69.7,164.9,145.6
		c83.3,119.8,82,246.4,70.6,555.8c-8.2,222.7-16.4,400.1-21.7,508.4"/>
	<path style="fill:none;stroke:#CCCCCC;stroke-width:25;stroke-miterlimit:10;" d="M1241.6,1731.5l-38.2,84.3l144,0.9
		c-12.1-29.8-24.1-59.6-36.1-89.3"/>
	
		<rect x="115.2" y="114.1" style="fill:none;stroke:#E9D758;stroke-width:15;stroke-miterlimit:10;" width="1692.8" height="1692.8"/>
	<rect x="115.7" y="113.1" style="fill:#E9D758;" width="1692.8" height="76.2"/>
	<circle style="fill:#297373;" cx="1664.2" cy="148.2" r="23.7"/>
	<circle style="fill:#9CB0BC;" cx="1737.7" cy="148.2" r="23.7"/>
	<circle style="fill:#FF8552;" cx="1590.2" cy="148.2" r="23.7"/>
	<rect x="111.5" y="1729.8" style="fill:#E9D758;" width="1692.8" height="76.2"/>
</g>
<g id="INSTA">
	<path style="fill:#E36450;" d="M132.7,382.1h317.6c55.4,0,100.3,44.9,100.3,100.3v0c0,55.4-44.9,100.3-100.3,100.3H132.7
		c-55.4,0-100.3-44.9-100.3-100.3v0C32.5,427,77.4,382.1,132.7,382.1z"/>
	<path style="fill:#E36450;" d="M286.6,653.1L286.6,653.1L242,561.7h91.4L286.6,653.1z"/>
	<path style="fill:#FFFFFF;" d="M429,419.7c-12.9,0-25.1,6.3-32.4,17l-1.5,1.9l-1-1.3c-7.1-11-19.3-17.6-32.4-17.6
		c-22.4,0-38.7,16.3-38.7,38.7c0,33.1,60,81.9,64.3,85.4c4.3,4.1,11,4.1,15.3,0c4.4-3.5,65.2-53.1,65.2-85.4
		C467.7,436,451.5,419.7,429,419.7z"/>
	<path style="fill:none;stroke:#FFFFFF;stroke-width:10;stroke-miterlimit:10;" d="M197.9,419.7c-36.4,0-66,26.6-66,59.4
		c0,11.5,3.7,22.8,10.5,32.1c-1.3,14.4-4.8,25.1-9.8,30.1c-0.9,0.9-0.9,2.2,0,3.1c0.4,0.4,1,0.6,1.6,0.6h0.3
		c0.9-0.1,21.6-3.1,36.6-11.8c8.6,3.4,17.7,5.2,26.9,5.2c36.4,0,66-26.6,66-59.4S234.3,419.7,197.9,419.7z"/>
</g>
</svg>
