<?xml version="1.0" encoding="utf-8"?>
<!-- Generator: Adobe Illustrator 24.3.0, SVG Export Plug-In . SVG Version: 6.00 Build 0)  -->
<svg version="1.1" id="Layer_1" xmlns="http://www.w3.org/2000/svg" xmlns:xlink="http://www.w3.org/1999/xlink" x="0px" y="0px"
	 viewBox="0 0 1920 1920" style="enable-background:new 0 0 1920 1920;" xml:space="preserve">
<g id="BACKGROUND">
	<rect x="-119.9" y="-56" style="fill:#FF8552;" width="2183.3" height="2031.9"/>
</g>
<g id="_2ND_BACK">
	<path style="fill:#AA4457;" d="M725.5,2151.9H781c15.8,0,28.6-15.6,28.6-35s-12.8-35-28.6-35h-19.1c-15.8,0-28.6-15.6-28.6-35
		s12.8-35,28.6-35h114.5c15.8,0,28.6-15.6,28.6-35s-12.8-34.9-28.6-34.9H683.8c-15.8,0-28.6-15.6-28.6-35s12.8-35,28.6-35h137
		c15.8,0,28.6-15.6,28.6-35s-12.8-35-28.6-35h-52c-15.8,0-28.6-15.6-28.6-35s12.8-34.9,28.6-34.9h114.5c15.8,0,28.6-15.6,28.6-35
		s-12.8-35-28.6-35H866c-15.8,0-28.6-15.6-28.6-35s12.8-35,28.6-35h173.5c15.8,0,28.6,15.6,28.6,35s-12.8,35-28.6,35H1029
		c-15.8,0-28.6,15.6-28.6,35s12.8,35,28.6,35h19.1c15.8,0,28.6,15.6,28.6,34.9s-12.8,35-28.6,35h3.5c-15.8,0-28.6,15.6-28.6,35
		s12.8,35,28.6,35h189.1c15.8,0,28.6,15.6,28.6,35s-12.8,35-28.6,35H1192c-15.8,0-28.6,15.6-28.6,34.9s12.8,35,28.6,35h7
		c15.8,0,28.6,15.6,28.6,35c0,19.4-12.8,35-28.6,35h-130.1c-15.8,0-28.6,15.6-28.6,35s12.8,35,28.6,35h65.9
		c15.8,0,28.6,15.6,28.6,35s-12.8,34.9-28.6,34.9H725.5c-15.8,0-28.6-15.6-28.6-34.9S709.7,2151.9,725.5,2151.9L725.5,2151.9z"/>
	<path style="fill:#FF9D7B;" d="M2331.6,1710.2h-225.4c-64.2,0.6-116.6-50.9-117.2-115.1c-0.6-64.2,50.9-116.6,115.1-117.2
		c0.7,0,1.4,0,2.2,0h77.5c64.1,0,116.1-52,116.1-116.2s-52-116.2-116.1-116.2h-464.9c-64.2,0.6-116.6-50.9-117.2-115.1
		c-0.6-64.2,50.9-116.6,115.1-117.2c0.7,0,1.4,0,2.2,0h781.9c64.2,0.6,116.6-50.9,117.2-115.1c0.6-64.2-50.9-116.6-115.1-117.2
		c-0.7,0-1.4,0-2.2,0h-556.5c-64.1,0-116.2-52-116.2-116.1c0-64.1,52-116.2,116.1-116.2c0,0,0.1,0,0.1,0h211.3
		c64.2,0.6,116.6-50.9,117.2-115.1c0.6-64.2-50.9-116.6-115.1-117.2c-0.7,0-1.4,0-2.2,0h-464.9c-64.2,0.6-116.6-50.9-117.2-115.1
		c-0.6-64.2,50.9-116.6,115.1-117.2c0.7,0,1.4,0,2.2,0h70.4c64.2,0,116.2-51.9,116.2-116.1c0,0,0,0,0-0.1
		c0-64.2-52-116.2-116.2-116.2c0,0,0,0-0.1,0h-704.4c-64.2,0-116.2,52-116.2,116.1c0,0,0,0,0,0.1c0,64.2,52,116.2,116.2,116.2
		c0,0,0,0,0.1,0h42.3c64.2-0.6,116.6,50.9,117.2,115.1c0.6,64.2-50.9,116.6-115.1,117.2c-0.7,0-1.4,0-2.2,0h-77.5
		c-64.2-0.6-116.6,50.9-117.2,115.1c-0.6,64.2,50.9,116.6,115.1,117.2c0.7,0,1.4,0,2.2,0h-14.1c64.1,0,116.2,52,116.2,116.1
		s-52,116.2-116.1,116.2c0,0-0.1,0-0.1,0H239.6c-64.2-0.6-116.6,50.9-117.2,115.1c-0.6,64.2,50.9,116.6,115.1,117.2
		c0.7,0,1.4,0,2.2,0h197.2c64.2-0.6,116.6,50.9,117.2,115.1c0.6,64.2-50.9,116.6-115.1,117.2c-0.7,0-1.4,0-2.2,0h-28.2
		c-64.1,0-116.2,52-116.2,116.2s52,116.2,116.2,116.2h528.3c64.2-0.6,116.6,50.9,117.2,115.1c0.6,64.2-50.9,116.6-115.1,117.2
		c-0.7,0-1.4,0-2.2,0H669.2c-64.2-0.6-116.6,50.9-117.2,115.1c-0.6,64.2,50.9,116.6,115.1,117.2c0.7,0,1.4,0,2.2,0h1662.3
		c64.2,0.6,116.6-50.9,117.2-115.1c0.6-64.2-50.9-116.6-115.1-117.2c-0.7,0-1.4,0-2.2,0L2331.6,1710.2z"/>
</g>
<g id="ELEMENTS">
	<path style="fill:none;stroke:#26262B;stroke-width:10;stroke-miterlimit:10;" d="M1053,1544.1l-457.6-10.6
		c-66-108.6-85.4-204.5-73.3-289.2c14.7-102.5,65.4-117.8,76.9-225.5c14.5-135.9-59.1-179.1-41.4-296.8
		c7.5-49.9,32.9-123.6,123.2-205.9h563.4c45.8,32.4,99,82.4,118.9,154.7c33.7,122.4-62.3,184.6-63.5,365
		c-0.9,137.1,54.1,160.5,35.1,250.2C1319.4,1358,1260.5,1454.5,1053,1544.1z"/>
	<path style="fill:#26262B;" d="M1079.4,1554.5l-457.5-10.6c-66.1-108.6-85.5-204.4-73.4-289.2c14.7-102.6,65.4-117.8,76.9-225.5
		c14.5-136-59.1-179.1-41.4-296.8c7.5-49.9,33-123.6,123.2-205.9h563.4c45.8,32.4,99,82.4,118.9,154.7
		c33.9,123.2-54.4,183.1-63.5,365c-8.5,169.6,65.3,213,28.7,312.8C1330.8,1423.9,1264.9,1500.9,1079.4,1554.5z"/>
	<path style="fill:#C14A5D;" d="M706,2231.2l889.2,4.5c42.1-266.2,2.8-538.9-112.7-782.3c-298-46.6-601.4-46.6-899.4,0
		C579.2,1717.8,620.8,1980.9,706,2231.2z"/>
	<ellipse style="fill:none;stroke:#26262B;stroke-width:10;stroke-miterlimit:10;" cx="974.2" cy="661.5" rx="371.6" ry="301.2"/>
	<ellipse style="fill:none;stroke:#26262B;stroke-width:10;stroke-miterlimit:10;" cx="1046.3" cy="656.1" rx="338.8" ry="301.2"/>
	<ellipse style="fill:#26262B;" cx="995.2" cy="644.5" rx="371.6" ry="301.2"/>
	<circle style="fill:#FFECD7;" cx="989.2" cy="852.8" r="343.7"/>
	<circle style="fill:#FFECD7;" cx="617.7" cy="838" r="96.9"/>
	<circle style="fill:#FFECD7;" cx="1385" cy="843.4" r="96.9"/>
	
		<ellipse transform="matrix(0.1917 -0.9815 0.9815 0.1917 -1.2549 1419.6625)" style="fill:#26262B;" cx="861.2" cy="710.6" rx="14.4" ry="83.2"/>
	
		<ellipse transform="matrix(0.9935 -0.1137 0.1137 0.9935 -73.71 133.415)" style="fill:#26262B;" cx="1132.5" cy="712.8" rx="83.2" ry="14.4"/>
	<path style="fill:#39393A;" d="M996,765c1.4,21.6,2.1,43.2,2.2,64.8c0.1,21.6-0.5,43.2-1.7,64.6c-0.7,12.1-1.6,24.2-2.7,36.3
		c0,1.7,1.3,3,3,3s3-1.3,3-3c2-21.5,3.3-43.1,4-64.7c0.7-21.6,0.7-43.2,0-64.6c-0.4-12.1-1-24.2-1.7-36.3c0-1.6-1.4-3-3-3
		C997.4,762,996.1,763.3,996,765L996,765z"/>
	<path style="fill:#39393A;" d="M997.4,933.6l48.9-2.3c1.6,0,3-1.4,3-3c0-1.7-1.3-3-3-3l-48.9,2.3c-1.6,0-3,1.4-3,3
		C994.4,932.3,995.7,933.6,997.4,933.6z"/>
	<path style="fill:#39393A;" d="M1043.9,927.1c-13.4,14.7-26.6,29.5-39.5,44.6c-3.7,4.3-7.4,8.7-11.1,13c-1.1,1.2-1.1,3.1,0,4.3
		c1.2,1.2,3.1,1.2,4.2,0c12.9-15.2,25.9-30.1,39.2-44.9c3.8-4.2,7.6-8.5,11.5-12.7c1.1-1.2,1.1-3.1,0-4.2
		C1046.9,925.9,1045.1,925.9,1043.9,927.1L1043.9,927.1z"/>
	<circle style="opacity:0.25;fill:#FF8552;enable-background:new    ;" cx="774.9" cy="957.3" r="60.2"/>
	<circle style="opacity:0.25;fill:#FF8552;enable-background:new    ;" cx="1185.8" cy="969.9" r="60.2"/>
	<path style="fill:#26262B;" d="M1037.7,641.2H686.8c5.8-57.9,11.6-115.8,17.5-173.7l366.3-3c5.7,39.4,2.9,79.6-8.1,117.9
		C1056.5,602.9,1048.2,622.6,1037.7,641.2z"/>
	<path style="fill:#26262B;" d="M1269.5,645.2l-207.5-4c9.6-16.8,19.2-40.6,18.5-68.9c-1.5-60-48.6-116.5-118.9-144.1l285.7,11.3
		C1254.8,508.1,1262.2,576.6,1269.5,645.2z"/>
	<path style="fill:#FFFFFF;" d="M940.9,827.7c0,0-59.2,41.8-112.2,33.9c-50.9-7.6-91.2-60.3-93.7-63.7l0,0
		c16.3-10.9,34.2-19.3,53-25c11.2-3.4,35.3-10.7,59.2-9C903,768.1,936.3,820.3,940.9,827.7z"/>
	
		<ellipse transform="matrix(0.9981 -6.226794e-02 6.226794e-02 0.9981 -49.0007 54.0331)" style="fill:#2B1811;" cx="842.4" cy="813.2" rx="54.6" ry="49.3"/>
	<path style="fill:none;stroke:#39393A;stroke-width:10;stroke-miterlimit:10;" d="M735,797.9c47.7-35,109.5-43.3,154.8-21.5
		c30.7,14.8,45.2,39.3,51.1,51.3"/>
	<line style="fill:none;stroke:#39393A;stroke-width:7;stroke-miterlimit:10;" x1="771.4" y1="775.3" x2="763.7" y2="759.8"/>
	<line style="fill:none;stroke:#39393A;stroke-width:7;stroke-miterlimit:10;" x1="759" y1="780.6" x2="750" y2="765.7"/>
	<line style="fill:none;stroke:#39393A;stroke-width:7;stroke-miterlimit:10;" x1="745.6" y1="786.8" x2="735.9" y2="772.2"/>
	<line style="fill:none;stroke:#39393A;stroke-width:7;stroke-miterlimit:10;" x1="784.4" y1="770.5" x2="778.5" y2="754.4"/>
	<path style="fill:#FFFFFF;" d="M1043.6,825.2c0,0,59.8,41.8,113.3,33.9c51.4-7.6,92.1-60.3,94.5-63.7l0,0
		c-16.5-10.9-34.6-19.3-53.5-25c-11.3-3.4-35.7-10.7-59.8-9C1081.9,765.7,1048.2,817.9,1043.6,825.2z"/>
	
		<ellipse transform="matrix(5.704123e-02 -0.9984 0.9984 5.704123e-02 268.4296 1905.7759)" style="fill:#2B1811;" cx="1143.1" cy="810.8" rx="49.4" ry="55.1"/>
	<path style="fill:none;stroke:#39393A;stroke-width:10;stroke-miterlimit:10;" d="M1251.4,795.4c-48.2-35-110.5-43.3-156.2-21.5
		c-22.5,10.8-40.6,28.9-51.6,51.3"/>
	<line style="fill:none;stroke:#39393A;stroke-width:7;stroke-miterlimit:10;" x1="1217.2" y1="776.2" x2="1224.9" y2="760.7"/>
	<line style="fill:none;stroke:#39393A;stroke-width:7;stroke-miterlimit:10;" x1="1228.9" y1="782" x2="1238.1" y2="767.1"/>
	<line style="fill:none;stroke:#39393A;stroke-width:7;stroke-miterlimit:10;" x1="1240.8" y1="787.8" x2="1250.5" y2="773.2"/>
	<line style="fill:none;stroke:#39393A;stroke-width:7;stroke-miterlimit:10;" x1="1203.4" y1="770.8" x2="1211.2" y2="755.3"/>
	<path style="fill:#FFECD7;" d="M1149.4,1421.3c-54.2,75.8-126.4,128-181.3,113.9c-46.3-11.8-110.1-78.5-136.9-106.4l-0.1-0.2
		v-318.3h318.3V1421.3z"/>
	<path style="fill:#39393A;" d="M1149.4,1157.8c0,0,0.4-0.2,0.4-0.2s-7.6,4-20.7,11.1c-127.8,69-193.5,126.1-193.5,126.1
		c-29.2,26.1-68.1,66.7-104.5,127v-264C930.8,1209.8,1049.7,1209.8,1149.4,1157.8L1149.4,1157.8z"/>
	
		<ellipse transform="matrix(0.9999 -1.221700e-02 1.221700e-02 0.9999 -13.0195 12.1667)" style="opacity:0.5;fill:#FF8552;enable-background:new    ;" cx="989.3" cy="1071.7" rx="56.6" ry="31.4"/>
	<path style="fill:none;stroke:#39393A;stroke-width:5;stroke-miterlimit:10;" d="M890.9,1058.7c64.9,14.7,132.4,13.9,197-2.4"/>
	<path style="fill:none;stroke:#39393A;stroke-width:7;stroke-miterlimit:10;" d="M576.6,805.4c8.4,0.3,38.1,2.3,64.3,23.6
		c16.5,13.3,28,31.7,32.6,52.4"/>
	<line style="fill:none;stroke:#39393A;stroke-width:7;stroke-miterlimit:10;" x1="587.8" y1="858.9" x2="643.2" y2="832.1"/>
	<path style="fill:none;stroke:#39393A;stroke-width:7;stroke-miterlimit:10;" d="M1436.1,802.8c-8.5,0.3-38.6,2.5-65.2,25.8
		c-17,14.9-28.6,35-33.1,57.1"/>
	<line style="fill:none;stroke:#39393A;stroke-width:7;stroke-miterlimit:10;" x1="1424.7" y1="861" x2="1368.5" y2="831.8"/>
	<ellipse style="fill:none;stroke:#FFFFFF;stroke-width:8;stroke-miterlimit:10;" cx="1385" cy="976.2" rx="28.6" ry="66.6"/>
	<ellipse style="fill:none;stroke:#FFFFFF;stroke-width:8;stroke-miterlimit:10;" cx="608.1" cy="976.2" rx="28.6" ry="66.6"/>
	<circle style="fill:#FFECD7;" cx="628.1" cy="917.5" r="17.4"/>
	<circle style="fill:#FFECD7;" cx="1366.8" cy="920.9" r="17.4"/>
	<path style="fill:#AA4457;" d="M1523.5,1594.2h-53.9c-15.3,0-27.8,16-27.8,35.8s12.4,35.8,27.8,35.8h18.5c15.3,0,27.8,16,27.8,35.8
		s-12.4,35.8-27.8,35.8h-111.2c-15.3,0-27.8,16-27.8,35.8s12.4,35.8,27.8,35.8h187c15.3,0,27.8,16,27.8,35.8s-12.4,35.8-27.8,35.8
		h-133.1c-15.3,0-27.8,16-27.8,35.8s12.4,35.8,27.8,35.8h50.5c15.4,0,27.8,16,27.8,35.8s-12.4,35.8-27.8,35.8h-111.2
		c-15.3,0-27.8,16-27.8,35.8c0,19.8,12.4,35.8,27.8,35.8h16.8c15.3,0,27.8,16,27.8,35.8s-12.4,35.8-27.8,35.8h-168.4
		c-15.3,0-27.8-16-27.8-35.8s12.4-35.8,27.8-35.8h10.1c15.3,0,27.8-16,27.8-35.8s-12.4-35.8-27.8-35.8h-18.5
		c-15.4,0-27.8-16-27.8-35.8s12.4-35.8,27.8-35.8h-3.4c15.3,0,27.8-16,27.8-35.8s-12.4-35.8-27.8-35.8h-183.6
		c-15.4,0-27.8-16-27.8-35.8s12.4-35.8,27.8-35.8h47.2c15.3,0,27.8-16,27.8-35.8s-12.4-35.8-27.8-35.8h-6.7
		c-15.3,0-27.8-16-27.8-35.8s12.4-35.8,27.8-35.8h126.3c15.4,0,27.8-16,27.8-35.8s-12.4-35.8-27.8-35.8h-64
		c-15.3,0-27.8-16-27.8-35.8s12.4-35.8,27.8-35.8h397.6c15.3,0,27.8,16,27.8,35.8S1538.9,1594.2,1523.5,1594.2L1523.5,1594.2z"/>
	<path style="fill:#FFECD7;" d="M1151.7,2319.6L1151.7,2319.6c77.4,36,167.6-1.5,201.5-83.7l230.3-559.1
		c33.9-82.3-1.4-178.2-78.8-214.2l0,0c-77.4-36-167.6,1.5-201.5,83.7l-230.3,559.1C1039.1,2187.6,1074.3,2283.5,1151.7,2319.6z"/>
	<path style="fill:#AA4457;" d="M884.6,1618.3h-47.5c-13.5,0-24.5,16-24.5,35.8s11,35.8,24.5,35.8h16.3c13.5,0,24.5,16,24.5,35.8
		s-11,35.8-24.5,35.8h-97.9c-13.5,0-24.5,16-24.5,35.8s11,35.8,24.5,35.8h164.6c13.5,0,24.5,16,24.5,35.8s-11,35.8-24.5,35.8H803.1
		c-13.5,0-24.5,16-24.5,35.8s11,35.8,24.5,35.8h44.5c13.5,0,24.5,16,24.5,35.8s-11,35.8-24.5,35.8h-97.9c-13.5,0-24.5,16-24.5,35.8
		s11,35.8,24.5,35.8h14.8c13.5,0,24.5,16,24.5,35.8s-11,35.8-24.5,35.8H616.2c-13.5,0-24.5-16-24.5-35.8s11-35.8,24.5-35.8h8.9
		c13.5,0,24.5-16,24.5-35.8s-11-35.8-24.5-35.8h-16.3c-13.5,0-24.5-16-24.5-35.8s11-35.8,24.5-35.8h-3c13.5,0,24.5-16,24.5-35.8
		s-11-35.8-24.5-35.8H444.2c-13.5,0-24.5-16-24.5-35.8s11-35.8,24.5-35.8h41.5c13.5,0,24.5-16,24.5-35.8s-11-35.8-24.5-35.8h-5.9
		c-13.5,0-24.5-16-24.5-35.8s11-35.8,24.5-35.8H591c13.5,0,24.5-16,24.5-35.8s-11-35.8-24.5-35.8h-56.3c-13.5,0-24.5-16-24.5-35.8
		s10.9-35.8,24.5-35.8h350c13.5,0,24.5,16,24.5,35.8S898.1,1618.3,884.6,1618.3L884.6,1618.3z"/>
	<path style="fill:#FFECD7;" d="M330.7,2319.6L330.7,2319.6c77.4,36,167.6-1.5,201.5-83.7c34.8-84.5,69.6-169,104.5-253.5
		c-31.7-160.5-45-284.5-49-345.6c-1.8-27.7-5-93.3-4.8-136.3c0-3.8,0.2-47.1,0.2-47.1l0,0c-25.1,14.6-26.8,15.6-29.2,17.2
		c-11.9,8.1-23.1,17.3-33.3,27.4c-104.8,102.1-214.2,436.8-214.2,436.8c-15.1,46.2-33.7,103.8-54.4,170.5
		C247.3,2116.3,226.4,2168.9,330.7,2319.6z"/>
	<path style="fill:#434349;" d="M659.5,1418.5l38.4-1.1c-19.7-45.6-31-94.3-33.7-143.8c-3.2-59.2,6-118.4,27.1-173.8
		c-13.7,17.2-63.5,83.6-63.9,182.9C627.3,1329.8,638.3,1376.3,659.5,1418.5z"/>
	<path style="fill:#434349;" d="M1249.8,1406.7l-36.8-0.9c37.5-77.4,43.3-166.5,16.1-248.1c14.7,16.9,26.4,36.2,34.8,56.9
		C1299.1,1302,1259.8,1386.5,1249.8,1406.7z"/>
	<path style="fill:#434349;" d="M805.9,611.4c1.5,2.2,187,15.2,221.7-61.6c21.4-47.4-23.1-109.9-29.3-110.4s30.2,62-0.8,110
		C953.6,617.5,804.6,609.5,805.9,611.4z"/>
	
		<rect x="123.2" y="111.4" style="fill:none;stroke:#297373;stroke-width:15;stroke-miterlimit:10;" width="1692.8" height="1692.8"/>
	<rect x="123.7" y="110.4" style="fill:#297373;" width="1692.8" height="76.2"/>
	<circle style="fill:#C14A5D;" cx="1672.2" cy="145.5" r="23.7"/>
	<circle style="fill:#E4DFDA;" cx="1745.7" cy="145.5" r="23.7"/>
	<circle style="fill:#FF8552;" cx="1598.2" cy="145.5" r="23.7"/>
	<rect x="119.5" y="1727.1" style="fill:#297373;" width="1692.8" height="76.2"/>
</g>
<g id="INSTA">
	<path style="fill:#E36450;" d="M163.3,384.4h317.6c55.4,0,100.3,44.9,100.3,100.3v0c0,55.4-44.9,100.3-100.3,100.3H163.3
		C107.9,585,63,540.1,63,484.7v0C63,429.3,107.9,384.4,163.3,384.4z"/>
	<path style="fill:#E36450;" d="M317.2,655.4L317.2,655.4L272.5,564h91.4L317.2,655.4z"/>
	<path style="fill:#FFFFFF;" d="M459.5,422c-12.9,0-25.1,6.3-32.4,17l-1.5,1.9l-1-1.3c-7.1-11-19.3-17.7-32.4-17.6
		c-22.4,0-38.7,16.3-38.7,38.7c0,33.1,60,81.9,64.3,85.4c4.3,4.1,11,4.1,15.3,0c4.4-3.5,65.1-53.1,65.1-85.4
		C498.3,438.3,482,422,459.5,422z"/>
	<path style="fill:none;stroke:#FFFFFF;stroke-width:10;stroke-miterlimit:10;" d="M228.4,422c-36.4,0-66,26.6-66,59.4
		c0,11.5,3.7,22.8,10.5,32.1c-1.3,14.4-4.8,25.1-9.9,30.1c-0.9,0.9-0.9,2.3,0,3.1c0.4,0.4,1,0.6,1.5,0.6h0.3
		c0.9-0.1,21.6-3.1,36.6-11.7c8.6,3.4,17.7,5.2,26.9,5.2c36.4,0,66-26.6,66-59.4S264.8,422,228.4,422z"/>
</g>
</svg>
