<?xml version="1.0" encoding="utf-8"?>
<!-- Generator: Adobe Illustrator 24.3.0, SVG Export Plug-In . SVG Version: 6.00 Build 0)  -->
<svg version="1.1" id="Layer_1" xmlns="http://www.w3.org/2000/svg" xmlns:xlink="http://www.w3.org/1999/xlink" x="0px" y="0px"
	 viewBox="0 0 1920 1920" style="enable-background:new 0 0 1920 1920;" xml:space="preserve">
<g id="BACKGROUND">
	<rect x="-39.3" y="-31.9" style="fill:#39393A;" width="1983.7" height="1983.7"/>
</g>
<g id="_2ND_BACK">
	<path style="fill:#494949;" d="M1867.3,1747.3h-225.4c-64.2,0.6-116.6-50.9-117.2-115.1c-0.6-64.2,50.9-116.6,115.1-117.2
		c0.7,0,1.4,0,2.2,0h77.5c64.2,0.6,116.6-50.9,117.2-115.1c0.6-64.2-50.9-116.6-115.1-117.2c-0.7,0-1.4,0-2.2,0h-464.9
		c-64.1,0-116.2-52-116.2-116.2c0-64.1,52-116.2,116.2-116.2h781.9c64.2,0.6,116.6-50.9,117.2-115.1s-50.9-116.6-115.1-117.2
		c-0.7,0-1.4,0-2.2,0h-556.5c-64.2,0.6-116.6-50.9-117.2-115.1c-0.6-64.2,50.9-116.6,115.1-117.2c0.7,0,1.4,0,2.2,0h211.3
		c64.1,0,116.2-52,116.2-116.1c0-64.1-52-116.2-116.1-116.2c0,0-0.1,0-0.1,0h-464.9c-64.2,0.6-116.6-50.9-117.2-115.1
		c-0.6-64.2,50.9-116.6,115.1-117.2c0.7,0,1.4,0,2.2,0h70.4c64.2,0.6,116.6-50.9,117.2-115.1c0.6-64.2-50.9-116.6-115.1-117.2
		c-0.7,0-1.4,0-2.2,0H592.4c-64.2-0.6-116.6,50.9-117.2,115.1s50.9,116.6,115.1,117.2c0.7,0,1.4,0,2.2,0h42.3
		c64.2-0.6,116.6,50.9,117.2,115.1c0.6,64.2-50.9,116.6-115.1,117.2c-0.7,0-1.4,0-2.2,0h-77.5c-64.1,0-116.2,52-116.2,116.1
		s52,116.2,116.1,116.2c0,0,0.1,0,0.1,0h-14.1c64.2-0.6,116.6,50.9,117.2,115.1c0.6,64.2-50.9,116.6-115.1,117.2c-0.7,0-1.4,0-2.2,0
		h-767.8c-64.2,0-116.2,51.9-116.2,116.1c0,0,0,0,0,0.1c0,64.2,52,116.2,116.2,116.2c0,0,0,0,0.1,0h197.2
		c64.2,0,116.2,51.9,116.2,116.1c0,0,0,0,0,0.1c0,64.2-52,116.2-116.2,116.1c0,0,0,0,0,0h-28.2c-64.2,0-116.2,52-116.2,116.1
		c0,0,0,0,0,0.1c0,64.2,52,116.1,116.2,116.1c0,0,0,0,0,0h528.3c64.2-0.6,116.6,50.9,117.2,115.1c0.6,64.2-50.9,116.6-115.1,117.2
		c-0.7,0-1.4,0-2.2,0H204.9c-64.1,0-116.2,52-116.2,116.2s52,116.2,116.2,116.2h1662.3c64.1,0,116.2-52,116.2-116.2
		S1931.4,1747.3,1867.3,1747.3L1867.3,1747.3z"/>
	<path style="fill:#494949;" d="M1867.3,1747.3h-225.4c-64.2,0.6-116.6-50.9-117.2-115.1c-0.6-64.2,50.9-116.6,115.1-117.2
		c0.7,0,1.4,0,2.2,0h77.5c64.2,0.6,116.6-50.9,117.2-115.1c0.6-64.2-50.9-116.6-115.1-117.2c-0.7,0-1.4,0-2.2,0h-464.9
		c-64.1,0-116.2-52-116.2-116.2c0-64.1,52-116.2,116.2-116.2h781.9c64.2,0.6,116.6-50.9,117.2-115.1s-50.9-116.6-115.1-117.2
		c-0.7,0-1.4,0-2.2,0h-556.5c-64.2,0.6-116.6-50.9-117.2-115.1c-0.6-64.2,50.9-116.6,115.1-117.2c0.7,0,1.4,0,2.2,0h211.3
		c64.1,0,116.2-52,116.2-116.1c0-64.1-52-116.2-116.1-116.2c0,0-0.1,0-0.1,0h-464.9c-64.2,0.6-116.6-50.9-117.2-115.1
		c-0.6-64.2,50.9-116.6,115.1-117.2c0.7,0,1.4,0,2.2,0h70.4c64.2,0.6,116.6-50.9,117.2-115.1c0.6-64.2-50.9-116.6-115.1-117.2
		c-0.7,0-1.4,0-2.2,0H592.4c-64.2-0.6-116.6,50.9-117.2,115.1s50.9,116.6,115.1,117.2c0.7,0,1.4,0,2.2,0h42.3
		c64.2-0.6,116.6,50.9,117.2,115.1c0.6,64.2-50.9,116.6-115.1,117.2c-0.7,0-1.4,0-2.2,0h-77.5c-64.1,0-116.2,52-116.2,116.1
		s52,116.2,116.1,116.2c0,0,0.1,0,0.1,0h-14.1c64.2-0.6,116.6,50.9,117.2,115.1c0.6,64.2-50.9,116.6-115.1,117.2c-0.7,0-1.4,0-2.2,0
		h-767.8c-64.2,0-116.2,51.9-116.2,116.1c0,0,0,0,0,0.1c0,64.2,52,116.2,116.2,116.2c0,0,0,0,0.1,0h197.2
		c64.2,0,116.2,51.9,116.2,116.1c0,0,0,0,0,0.1c0,64.2-52,116.2-116.2,116.1c0,0,0,0,0,0h-28.2c-64.2,0-116.2,52-116.2,116.1
		c0,0,0,0,0,0.1c0,64.2,52,116.1,116.2,116.1c0,0,0,0,0,0h528.3c64.2-0.6,116.6,50.9,117.2,115.1c0.6,64.2-50.9,116.6-115.1,117.2
		c-0.7,0-1.4,0-2.2,0H204.9c-64.1,0-116.2,52-116.2,116.2s52,116.2,116.2,116.2h1662.3c64.1,0,116.2-52,116.2-116.2
		S1931.4,1747.3,1867.3,1747.3L1867.3,1747.3z"/>
</g>
<g id="ELEMENTS">
	<ellipse style="fill:none;stroke:#E9D758;stroke-width:10;stroke-miterlimit:10;" cx="939.7" cy="801.7" rx="313" ry="330.1"/>
	<path style="fill:#EAD0CA;" d="M1249.8,1432.7L1249.8,1432.7c82.3-36,178.2,1.5,214.2,83.7l244.8,559.1
		c36,82.3-1.5,178.2-83.7,214.2l0,0c-82.3,36-178.2-1.5-214.2-83.7l-244.8-559.1C1130.1,1564.7,1167.6,1468.8,1249.8,1432.7z"/>
	<path style="fill:#297373;" d="M1228.7,2201.5l-926.8,4.5c-17.3-105.5-21.5-212.8-12.4-319.3c17.5-202.9,79.9-361.8,129.8-463
		c310.7-46.6,626.7-46.6,937.4,0c2,133.5-8.1,266.9-30,398.6C1305.3,1951.3,1272.5,2078.2,1228.7,2201.5z"/>
	<path style="fill:#EAD0CA;" d="M377.3,1432.8L377.3,1432.8c82.3-36,178.2,1.5,214.2,83.7l244.8,559.1c36,82.3-1.5,178.2-83.7,214.2
		l0,0c-82.3,36-178.2-1.5-214.2-83.7L293.5,1647C257.5,1564.7,295,1468.8,377.3,1432.8z"/>
	<path style="fill:none;stroke:#FFFFFF;stroke-width:10;stroke-miterlimit:10;" d="M1052.4,1673.7L1052.4,1673.7
		c-35.6-5-179.5-25.1-283.8-137.9c-23.5-25.4-59.1-70.8-83.9-140.5c30-1.8,70.7-4,119.2-5.7c12.9-0.4,58.6-2.2,98.7-2.3
		c77-0.1,148.6,3.6,214.2,9.6C1077.6,1565.4,1052.4,1673.7,1052.4,1673.7z"/>
	<ellipse style="fill:none;stroke:#E9D758;stroke-width:10;stroke-miterlimit:10;" cx="1155.1" cy="830.1" rx="313" ry="330.1"/>
	<circle style="fill:none;stroke:#E9D758;stroke-width:10;stroke-miterlimit:10;" cx="1030.1" cy="839.5" r="368.2"/>
	<circle style="fill:#EAD0CA;" cx="661.9" cy="808.2" r="131.8"/>
	<path style="fill:#EAD0CA;" d="M1012.4,1621.1c-119.5-31-219.1-113.5-271.8-225.2c29.7-116.6,59.3-233.2,89-349.8l309,78.6
		L1012.4,1621.1z"/>
	<circle style="fill:#EAD0CA;" cx="1067.9" cy="852.8" r="387.3"/>
	<path style="fill:#39393A;" d="M1110.2,1236c-132.8,27.6-258.5,82-369.5,159.9c21.8-85.8,43.7-171.7,65.5-257.5
		c36.1,33.2,89.8,72.1,161.6,88.4C1044.1,1244.1,1117.4,1234.5,1110.2,1236z"/>
	<circle style="fill:#E9D758;" cx="591.9" cy="459.4" r="198"/>
	<circle style="fill:none;stroke:#E9D758;stroke-width:10;stroke-miterlimit:10;" cx="573" cy="459.4" r="198"/>
	<path style="fill:#39393A;" d="M1130.9,824.1c-1.8,20.9-4.2,41.7-7.3,62.5c-3.1,20.8-6.8,41.5-11.2,62.3c-2.5,11.6-5.1,23.1-8,34.6
		c-0.9,3.8,4.8,5.3,5.8,1.6c5.1-20.6,9.6-41.4,13.4-62.3c3.8-20.9,7-42,9.6-63.1c1.4-11.8,2.7-23.7,3.7-35.6c0-1.7-1.3-3-3-3
		C1132.2,821.2,1130.9,822.5,1130.9,824.1L1130.9,824.1z"/>
	<path style="fill:#39393A;" d="M1107.9,987.4l47.7,5c1.7,0,3-1.3,3-3c0-1.6-1.4-3-3-3l-47.7-5c-1.7,0-3,1.3-3,3l0,0
		C1104.9,986.1,1106.3,987.4,1107.9,987.4z"/>
	<path style="fill:#39393A;" d="M1153.1,988.1c-15.1,12.3-30.1,24.8-44.9,37.4c-4.2,3.6-8.5,7.3-12.7,10.9c-1.2,1.2-1.2,3.1,0,4.2
		c1.2,1.1,3.1,1.1,4.3,0c14.7-12.8,29.6-25.4,44.7-37.8c4.3-3.5,8.6-7.1,12.9-10.6c1.2-1.2,1.2-3.1,0-4.2
		C1156.2,986.9,1154.3,986.9,1153.1,988.1z"/>
	
		<ellipse transform="matrix(0.1602 -0.9871 0.9871 0.1602 -251.9755 1989.0461)" style="fill:#FF8552;" cx="1043" cy="1142.6" rx="27.7" ry="71.3"/>
	<path style="fill:none;stroke:#39393A;stroke-width:5;stroke-miterlimit:10;" d="M959.5,1116.3c54.2,22.7,112.9,32.2,171.5,27.8"/>
	<circle style="opacity:0.25;fill:#FF8552;enable-background:new    ;" cx="847.2" cy="989.8" r="53.1"/>
	<circle style="opacity:0.25;fill:#FF8552;enable-background:new    ;" cx="1293.5" cy="1039.6" r="57.3"/>
	<line style="fill:none;stroke:#39393A;stroke-width:7;stroke-miterlimit:10;" x1="877.4" y1="857.4" x2="861.7" y2="867.1"/>
	<line style="fill:none;stroke:#39393A;stroke-width:7;stroke-miterlimit:10;" x1="883.8" y1="867.3" x2="871" y2="878"/>
	<line style="fill:none;stroke:#39393A;stroke-width:7;stroke-miterlimit:10;" x1="891.3" y1="878" x2="880.7" y2="889.5"/>
	<path style="fill:#FFFFFF;" d="M1060.5,878c0,0-56.4,45.7-106.8,37c-48.5-8.3-86.8-65.9-89.1-69.5l0,0
		c15.3-11.7,32.3-20.8,50.4-27.2c10.7-3.7,33.6-11.7,56.3-9.8C1024.4,813,1056.2,870,1060.5,878z"/>
	
		<ellipse transform="matrix(0.1602 -0.9871 0.9871 0.1602 -39.1943 1678.4486)" style="fill:#AB7359;" cx="966.8" cy="862.3" rx="54" ry="51.9"/>
	<path style="fill:none;stroke:#39393A;stroke-width:10;stroke-miterlimit:10;" d="M864.6,845.5c45.4-38.2,104.2-47.3,147.3-23.5
		c29.2,16.2,43.1,42.9,48.6,56"/>
	<line style="fill:none;stroke:#39393A;stroke-width:7;stroke-miterlimit:10;" x1="1369" y1="915.1" x2="1381.9" y2="928.1"/>
	<line style="fill:none;stroke:#39393A;stroke-width:7;stroke-miterlimit:10;" x1="1360.6" y1="923.3" x2="1370.5" y2="936.7"/>
	<line style="fill:none;stroke:#39393A;stroke-width:7;stroke-miterlimit:10;" x1="1350.9" y1="932.1" x2="1358.5" y2="945.6"/>
	<path style="fill:#FFFFFF;" d="M1187.7,894c0,0,44,57.2,94.6,60.1c48.7,2.9,98.7-44.6,101.8-47.7l0,0
		c-12.1-14.8-26.4-27.6-42.5-37.9c-9.4-6-29.8-19-52.1-22.2C1237.3,838.8,1193.7,887.2,1187.7,894z"/>
	
		<ellipse transform="matrix(9.949340e-02 -0.995 0.995 9.949340e-02 258.9282 2085.4812)" style="fill:#AB7359;" cx="1281.7" cy="899.7" rx="54" ry="51.4"/>
	<path style="fill:none;stroke:#39393A;stroke-width:10;stroke-miterlimit:10;" d="M1384.1,906.5c-35.1-47.5-89.7-69.5-136.8-56
		c-31.9,9.2-51.3,32.1-59.6,43.6"/>
	<ellipse style="fill:#AB7359;" cx="1293.8" cy="802.4" rx="86.1" ry="15.7"/>
	
		<ellipse transform="matrix(0.2278 -0.9737 0.9737 0.2278 20.1818 1571.2496)" style="fill:#AB7359;" cx="1000.8" cy="772.9" rx="16" ry="84.8"/>
	<path style="fill:#E9D758;" d="M1164.1,554.6c-20.8,70.2,63.6,216.9,161.6,230.9c44.7,6.4,111.4-12,126.4-67.8
		c17.6-65.5-42.5-158-100.3-194.8C1281.8,478.4,1182,494,1164.1,554.6z"/>
	<path style="fill:none;stroke:#E9D758;stroke-width:10;stroke-miterlimit:10;" d="M1164.1,554.6c-23.6,71.9,55,227,152.3,245.1
		c48.1,9,117.1-12.6,132.9-71.3c18.8-69.8-43.9-167.6-105.5-204.9C1278.3,483.9,1183.9,494.5,1164.1,554.6z"/>
	<path style="fill:#FFEE8A;" d="M1190.4,601.2c-1.5,1.8,54.8,146.2,140.9,149c53.1,1.7,96.1-51.1,94.3-56s-47.9,41.8-105.2,33
		C1239.4,714.8,1191.8,599.6,1190.4,601.2z"/>
	<path style="fill:#E9D758;" d="M1232.4,499.2c31.2,89.5-137.3,267.9-317.9,279c-82.3,5.1-202.6-22.5-224.7-93.5
		c-25.9-83.3,93-195.4,202.4-237.8C1024.3,395.8,1205.4,422,1232.4,499.2z"/>
	<path style="fill:#FFEE8A;" d="M1160.5,518c2.8,2.2-80.8,195.2-227.7,206.5c-90.7,7-168.9-58.1-166.2-64.6s85.6,50.3,182.7,33.8
		C1086.8,670.3,1158,516.1,1160.5,518z"/>
	<path style="fill:#FFEE8A;" d="M525,599.8c49.8,31.6,98.1,25.5,101,30c3.4,5.4-54.5,27.7-116.3-12.4s-65.4-102.2-58.6-101.2
		C457.2,517.1,473.4,567,525,599.8z"/>
	
		<rect x="123.8" y="128.8" style="fill:none;stroke:#FF8552;stroke-width:15;stroke-miterlimit:10;" width="1692.8" height="1692.8"/>
	<rect x="123.8" y="120.8" style="fill:#FF8552;" width="1692.8" height="76.2"/>
	<circle style="fill:#FCEE21;" cx="1669.9" cy="157" r="23.7"/>
	<circle style="fill:#297373;" cx="1743.4" cy="157" r="23.7"/>
	<circle style="fill:#39393A;" cx="1595.8" cy="157" r="23.7"/>
	<rect x="123.8" y="1744.2" style="fill:#FF8552;" width="1692.8" height="76.2"/>
	<path style="fill:none;stroke:#39393A;stroke-width:7;stroke-miterlimit:10;" d="M601.3,762.5c9.5,0.3,42.8,2.8,72.2,28.9
		c18.8,16.8,31.7,39.3,36.7,64"/>
	<line style="fill:none;stroke:#39393A;stroke-width:7;stroke-miterlimit:10;" x1="614" y1="827.8" x2="676.2" y2="795.1"/>
	<path style="fill:none;stroke:#D8C2BF;stroke-width:5;stroke-miterlimit:10;" d="M867.8,827.2c45.4-38.2,104.2-47.3,147.3-23.5
		c29.2,16.2,43.1,42.9,48.6,56"/>
	<path style="fill:none;stroke:#E9D758;stroke-width:10;stroke-miterlimit:10;" d="M1232.4,499.2c36.3,91.8-122.6,281.2-302.4,297.4
		c-88.9,8-213-23.5-236.3-98.3c-27.7-88.9,96.6-207.4,212.8-250C1030.2,403,1202,422.4,1232.4,499.2z"/>
	<path style="fill:none;stroke:#D8C2BF;stroke-width:5;stroke-miterlimit:10;" d="M1183.7,876.8c40.4-43.5,97.6-59.7,143.3-41.3
		c31,12.5,48,37.3,55.1,49.6"/>
</g>
<g id="INSTA">
	<path style="fill:#E36450;" d="M164.6,1057.6h317.6c55.4,0,100.3,44.9,100.3,100.3v0c0,55.4-44.9,100.3-100.3,100.3H164.6
		c-55.4,0-100.3-44.9-100.3-100.3v0C64.3,1102.4,109.2,1057.6,164.6,1057.6z"/>
	<path style="fill:#E36450;" d="M318.5,1328.6L318.5,1328.6l-44.6-91.4h91.4L318.5,1328.6z"/>
	<path style="fill:#FFFFFF;" d="M460.9,1095.2c-12.9,0-25.1,6.3-32.4,17l-1.5,1.8l-1-1.3c-7.1-11-19.3-17.6-32.5-17.6
		c-22.4,0-38.7,16.3-38.7,38.7c0,33.1,60,81.9,64.3,85.4c4.3,4.1,11,4.1,15.3,0c4.4-3.5,65.1-53.1,65.1-85.4
		C499.6,1111.4,483.3,1095.2,460.9,1095.2z"/>
	<path style="fill:none;stroke:#FFFFFF;stroke-width:10;stroke-miterlimit:10;" d="M229.8,1095.2c-36.4,0-66,26.6-66,59.4
		c0,11.5,3.7,22.8,10.5,32.1c-1.3,14.4-4.8,25.1-9.9,30.1c-0.9,0.9-0.9,2.3,0,3.1c0.4,0.4,1,0.6,1.5,0.6h0.3
		c0.9-0.1,21.6-3.1,36.6-11.7c8.6,3.4,17.7,5.2,26.9,5.2c36.4,0,66-26.6,66-59.4S266.2,1095.2,229.8,1095.2z"/>
</g>
</svg>
