<svg xmlns="http://www.w3.org/2000/svg" viewBox="0 0 1920 1920"><defs><style>.cls-1{fill:#39393a;}.cls-2{fill:#494949;}.cls-11,.cls-14,.cls-16,.cls-18,.cls-3,.cls-6,.cls-9{fill:none;stroke-miterlimit:10;}.cls-3{stroke:#e9d758;}.cls-14,.cls-3,.cls-6{stroke-width:10px;}.cls-4{fill:#ead0ca;}.cls-5{fill:#297373;}.cls-6{stroke:#fff;}.cls-7{fill:#e9d758;}.cls-10,.cls-8{fill:#ff8552;}.cls-11,.cls-14,.cls-9{stroke:#39393a;}.cls-18,.cls-9{stroke-width:5px;}.cls-10{opacity:0.25;}.cls-11{stroke-width:7px;}.cls-12{fill:#fff;}.cls-13{fill:#ab7359;}.cls-15{fill:#ffee8a;}.cls-16{stroke:#ff8552;stroke-width:15px;}.cls-17{fill:#fcee21;}.cls-18{stroke:#d8c2bf;}.cls-19{fill:#e36450;}</style></defs><g id="BACKGROUND"><rect class="cls-1" x="-39.3" y="-31.92" width="1983.73" height="1983.73"/></g><g id="_2ND_BACK" data-name="2ND BACK"><path class="cls-2" d="M1867.32,1747.33h-225.4a116.16,116.16,0,1,1,0-232.31h77.48a116.16,116.16,0,1,0,0-232.31H1254.5a116.15,116.15,0,1,1,0-232.3h781.88a116.16,116.16,0,1,0,0-232.31H1479.91a116.16,116.16,0,1,1,0-232.31h211.32a116.15,116.15,0,1,0,0-232.3H1226.34a116.16,116.16,0,1,1,0-232.31h70.43a116.16,116.16,0,1,0,0-232.31H592.38a116.16,116.16,0,1,0,0,232.31h42.26a116.16,116.16,0,1,1,0,232.31H557.16a116.15,116.15,0,1,0,0,232.3H543.07a116.16,116.16,0,1,1,0,232.31H-224.72A116.16,116.16,0,0,0-340.95,934.25a116.17,116.17,0,0,0,116.23,116.16H-27.5A116.16,116.16,0,0,1,88.72,1166.56,116.16,116.16,0,0,1-27.5,1282.71H-55.68a116.17,116.17,0,0,0-116.23,116.16A116.16,116.16,0,0,0-55.68,1515H472.61a116.16,116.16,0,1,1,0,232.31H204.94a116.15,116.15,0,1,0,0,232.3H1867.22a116.15,116.15,0,1,0,0-232.3Z"/><path class="cls-2" d="M1867.32,1747.33h-225.4a116.16,116.16,0,1,1,0-232.31h77.48a116.16,116.16,0,1,0,0-232.31H1254.5a116.15,116.15,0,1,1,0-232.3h781.88a116.16,116.16,0,1,0,0-232.31H1479.91a116.16,116.16,0,1,1,0-232.31h211.32a116.15,116.15,0,1,0,0-232.3H1226.34a116.16,116.16,0,1,1,0-232.31h70.43a116.16,116.16,0,1,0,0-232.31H592.38a116.16,116.16,0,1,0,0,232.31h42.26a116.16,116.16,0,1,1,0,232.31H557.16a116.15,116.15,0,1,0,0,232.3H543.07a116.16,116.16,0,1,1,0,232.31H-224.72A116.16,116.16,0,0,0-340.95,934.25a116.17,116.17,0,0,0,116.23,116.16H-27.5A116.16,116.16,0,0,1,88.72,1166.56,116.16,116.16,0,0,1-27.5,1282.71H-55.68a116.17,116.17,0,0,0-116.23,116.16A116.16,116.16,0,0,0-55.68,1515H472.61a116.16,116.16,0,1,1,0,232.31H204.94a116.15,116.15,0,1,0,0,232.3H1867.22a116.15,116.15,0,1,0,0-232.3Z"/></g><g id="ELEMENTS"><ellipse class="cls-3" cx="939.68" cy="801.74" rx="312.98" ry="330.06"/><rect class="cls-4" x="1274.81" y="1393.56" width="325.23" height="935.55" rx="162.62" transform="translate(-625.89 732.84) rotate(-23.65)"/><path class="cls-5" d="M1228.71,2201.51,301.92,2206a1288.81,1288.81,0,0,1-12.36-319.29c17.47-202.89,79.89-361.85,129.81-463a3163.2,3163.2,0,0,1,937.44,0,2223.34,2223.34,0,0,1-30,398.58A2222.9,2222.9,0,0,1,1228.71,2201.51Z"/><rect class="cls-4" x="402.22" y="1393.56" width="325.23" height="935.55" rx="162.62" transform="translate(-699.16 382.85) rotate(-23.65)"/><path class="cls-6" d="M1052.4,1673.71h0c-35.63-5-179.49-25.11-283.83-137.93-23.45-25.37-59.1-70.76-83.9-140.48,30-1.84,70.73-4,119.18-5.67,12.86-.44,58.6-2.2,98.74-2.26,77-.12,148.62,3.61,214.21,9.6C1077.58,1565.44,1052.4,1673.69,1052.4,1673.71Z"/><ellipse class="cls-3" cx="1155.11" cy="830.12" rx="312.98" ry="330.06"/><circle class="cls-3" cx="1030.08" cy="839.47" r="368.18"/><circle class="cls-4" cx="661.9" cy="808.18" r="131.83"/><path class="cls-4" d="M1012.43,1621.08a415.78,415.78,0,0,1-271.75-225.24q44.49-174.91,89-349.85l309,78.59Z"/><circle class="cls-4" cx="1067.9" cy="852.83" r="387.28"/><path class="cls-1" d="M1110.2,1236a996.54,996.54,0,0,0-369.52,159.86q32.75-128.77,65.5-257.55c36.09,33.23,89.77,72.11,161.57,88.45C1044.08,1244.11,1117.36,1234.49,1110.2,1236Z"/><circle class="cls-7" cx="591.9" cy="459.39" r="197.99"/><circle class="cls-3" cx="573.01" cy="459.39" r="197.99"/><path class="cls-1" d="M1130.9,824.13q-2.69,31.36-7.3,62.52t-11.2,62.27q-3.68,17.39-8,34.63c-.93,3.75,4.85,5.35,5.78,1.6q7.66-30.95,13.43-62.33t9.57-63.11q2.14-17.76,3.67-35.58a3,3,0,0,0-3-3,3.06,3.06,0,0,0-3,3Z"/><path class="cls-1" d="M1107.91,987.41l47.72,5a3,3,0,0,0,3-3,3.08,3.08,0,0,0-3-3l-47.72-5a3,3,0,0,0-3,3,3.07,3.07,0,0,0,3,3Z"/><path class="cls-1" d="M1153.1,988.07q-22.71,18.42-44.94,37.44-6.35,5.43-12.66,10.92a3,3,0,0,0,0,4.24,3.08,3.08,0,0,0,4.25,0q22.07-19.18,44.65-37.78,6.45-5.31,12.94-10.58a3,3,0,0,0,0-4.24,3.07,3.07,0,0,0-4.24,0Z"/><ellipse class="cls-8" cx="1042.95" cy="1142.55" rx="27.72" ry="71.32" transform="translate(-251.91 1989.02) rotate(-80.78)"/><path class="cls-9" d="M959.5,1116.35A372.5,372.5,0,0,0,1131,1144.19"/><circle class="cls-10" cx="847.23" cy="989.77" r="53.14"/><circle class="cls-10" cx="1293.47" cy="1039.63" r="57.33"/><line class="cls-11" x1="877.4" y1="857.36" x2="861.74" y2="867.06"/><line class="cls-11" x1="883.78" y1="867.26" x2="871.03" y2="878.03"/><line class="cls-11" x1="891.3" y1="878.03" x2="880.73" y2="889.46"/><path class="cls-12" d="M1060.52,878s-56.38,45.66-106.82,37c-48.48-8.29-86.82-65.89-89.13-69.55h0A181.88,181.88,0,0,1,915,818.26c10.65-3.71,33.61-11.72,56.35-9.78C1024.42,813,1056.2,870,1060.52,878Z"/><ellipse class="cls-13" cx="966.8" cy="862.21" rx="53.97" ry="51.87" transform="translate(-39.14 1678.42) rotate(-80.78)"/><path class="cls-14" d="M864.57,845.52c45.4-38.24,104.18-47.3,147.31-23.46,29.24,16.17,43.06,42.9,48.64,56"/><line class="cls-11" x1="1369.03" y1="915.11" x2="1381.93" y2="928.09"/><line class="cls-11" x1="1360.63" y1="923.32" x2="1370.48" y2="936.68"/><line class="cls-11" x1="1350.93" y1="932.12" x2="1358.52" y2="945.63"/><path class="cls-12" d="M1187.73,894.05s44,57.15,94.6,60.1C1331,957,1381,909.51,1384.1,906.47h0a179.56,179.56,0,0,0-42.49-37.9c-9.43-6-29.75-19-52.12-22.2C1237.31,838.85,1193.72,887.22,1187.73,894.05Z"/><ellipse class="cls-13" cx="1281.71" cy="899.72" rx="53.96" ry="51.38" transform="translate(258.89 2085.52) rotate(-84.29)"/><path class="cls-14" d="M1384.1,906.47c-35.11-47.46-89.73-69.5-136.75-56-31.88,9.17-51.27,32.09-59.62,43.57"/><ellipse class="cls-13" cx="1293.81" cy="802.4" rx="86.07" ry="15.73"/><ellipse class="cls-13" cx="1000.73" cy="772.86" rx="15.98" ry="84.75" transform="translate(20.23 1571.22) rotate(-76.83)"/><path class="cls-7" d="M1164.06,554.64c-20.78,70.24,63.61,216.9,161.58,230.94,44.68,6.4,111.41-12,126.41-67.85,17.61-65.48-42.49-158-100.34-194.82C1281.8,478.4,1182,494,1164.06,554.64Z"/><path class="cls-3" d="M1164.06,554.64c-23.64,71.86,55,227,152.33,245.14,48.12,9,117.07-12.56,132.92-71.34,18.84-69.85-43.93-167.6-105.52-204.86C1278.28,483.94,1183.86,494.46,1164.06,554.64Z"/><path class="cls-15" d="M1190.42,601.19c-1.53,1.78,54.81,146.18,140.87,149,53.1,1.74,96.13-51.14,94.33-56s-47.91,41.83-105.16,33C1239.37,714.81,1191.8,599.6,1190.42,601.19Z"/><path class="cls-7" d="M1232.37,499.24c31.23,89.49-137.33,267.89-317.93,279-82.35,5.07-202.65-22.46-224.72-93.5-25.87-83.31,93-195.38,202.42-237.76C1024.33,395.78,1205.41,422,1232.37,499.24Z"/><path class="cls-15" d="M1160.51,518c2.77,2.17-80.81,195.24-227.71,206.51-90.65,7-168.89-58.11-166.23-64.59s85.6,50.25,182.72,33.76C1086.85,670.34,1158,516.08,1160.51,518Z"/><path class="cls-15" d="M525,599.85c49.79,31.64,98.13,25.46,101,30,3.42,5.39-54.47,27.72-116.28-12.41s-65.43-102.17-58.59-101.21C457.18,517.11,473.39,567.05,525,599.85Z"/><rect class="cls-16" x="123.77" y="128.79" width="1692.79" height="1692.79"/><rect class="cls-8" x="123.77" y="120.83" width="1692.79" height="76.24"/><circle class="cls-17" cx="1669.87" cy="156.99" r="23.74"/><circle class="cls-5" cx="1743.38" cy="156.99" r="23.74"/><circle class="cls-1" cx="1595.82" cy="156.99" r="23.74"/><rect class="cls-8" x="123.77" y="1744.17" width="1692.79" height="76.24"/><path class="cls-11" d="M601.28,762.51c9.45.35,42.75,2.76,72.24,28.86a116.72,116.72,0,0,1,36.65,64"/><line class="cls-11" x1="613.95" y1="827.78" x2="676.15" y2="795.07"/><path class="cls-18" d="M867.83,827.16c45.4-38.24,104.18-47.29,147.31-23.45,29.24,16.17,43.05,42.9,48.64,56"/><path class="cls-3" d="M1232.37,499.24C1268.67,591,1109.82,780.4,930,796.68c-88.92,8.05-213-23.52-236.3-98.31C666,609.49,790.28,491,906.55,448.35,1030.23,403,1202,422.42,1232.37,499.24Z"/><path class="cls-18" d="M1183.72,876.76c40.38-43.52,97.6-59.7,143.33-41.32,31,12.47,48,37.31,55.13,49.6"/></g><g id="INSTA"><rect class="cls-19" x="64.32" y="1057.55" width="518.13" height="200.57" rx="100.28"/><path class="cls-19" d="M318.51,1328.55h0l-44.61-91.38h91.38Z"/><path class="cls-12" d="M460.89,1095.16a39.1,39.1,0,0,0-32.37,17L427,1114l-1-1.28a38.58,38.58,0,0,0-32.45-17.6c-22.43,0-38.71,16.28-38.71,38.71,0,33.12,59.95,81.93,64.32,85.44a11.06,11.06,0,0,0,15.27,0c4.39-3.54,65.15-53.12,65.15-85.44C499.6,1111.44,483.32,1095.16,460.89,1095.16Z"/><path class="cls-6" d="M229.79,1095.16c-36.39,0-66,26.64-66,59.39a54.85,54.85,0,0,0,10.49,32.12c-1.3,14.38-4.79,25.06-9.85,30.12a2.2,2.2,0,0,0,1.56,3.75l.31,0c.89-.13,21.58-3.11,36.55-11.74a71.61,71.61,0,0,0,26.93,5.16c36.39,0,66-26.64,66-59.39S266.18,1095.16,229.79,1095.16Z"/></g></svg>