<?xml version="1.0" encoding="utf-8"?>
<!-- Generator: Adobe Illustrator 24.3.0, SVG Export Plug-In . SVG Version: 6.00 Build 0)  -->
<svg version="1.1" id="Layer_1" xmlns="http://www.w3.org/2000/svg" xmlns:xlink="http://www.w3.org/1999/xlink" x="0px" y="0px"
	 viewBox="0 0 1920 1920" style="enable-background:new 0 0 1920 1920;" xml:space="preserve">
<g id="BACKGROUND">
	<rect x="-55.5" y="-56" style="fill:#E4DFDA;" width="2052.1" height="2052.1"/>
</g>
<g id="_2ND_BACK">
	<path style="fill:#F4EFEA;" d="M1880.9,1764.5h-225.4c-64.2,0-116.2-50.4-116.2-112.6s52-112.6,116.2-112.6h77.5
		c64.2,0,116.2-50.4,116.2-112.6S1797.2,1314,1733,1314h-464.9c-64.2,0-116.2-50.4-116.2-112.6s52-112.6,116.2-112.6H2050
		c64.2,0,116.2-50.4,116.2-112.6s-52-112.6-116.2-112.6h-556.5c-64.2,0-116.2-50.4-116.2-112.6s52-112.6,116.2-112.6h211.3
		c64.2,0,116.2-50.4,116.2-112.6s-52-112.6-116.2-112.6h-464.9c-64.2,0-116.2-50.4-116.2-112.6s52-112.6,116.2-112.6h70.4
		c64.2,0,116.2-50.4,116.2-112.6s-52-112.6-116.2-112.6H606c-64.2,0-116.2,50.4-116.2,112.6S541.8,188,606,188h42.3
		c64.2,0,116.2,50.4,116.2,112.6s-52,112.6-116.2,112.6h-77.5c-64.2,0-116.2,50.4-116.2,112.6s52,112.6,116.2,112.6h-14.1
		c64.2,0,116.2,50.4,116.2,112.6s-52,112.6-116.2,112.6h-767.8c-64.2,0-116.2,50.4-116.2,112.6s52,112.6,116.2,112.6h197.2
		c64.2,0,116.2,50.4,116.2,112.6S50.3,1314-13.9,1314h-28.2c-64.2,0-116.2,50.4-116.2,112.6s52,112.6,116.2,112.6h528.3
		c64.2,0,116.2,50.4,116.2,112.6s-52,112.6-116.2,112.6H218.5c-64.2,0-116.2,50.4-116.2,112.6s52,112.6,116.2,112.6h1662.3
		c64.2,0,116.2-50.4,116.2-112.6S1945,1764.4,1880.9,1764.5L1880.9,1764.5z"/>
</g>
<g id="ELEMENTS">
	<path style="fill:#FF8552;" d="M1446.8,1440.5L1446.8,1440.5c94.6-10.5,179.8,57.7,190.3,152.3l35.3,318
		c10.5,94.6-57.7,179.8-152.3,190.3l0,0c-94.6,10.5-179.8-57.7-190.3-152.3l-35.3-318C1284,1536.2,1352.2,1451,1446.8,1440.5z"/>
	<path style="fill:#FF8552;" d="M523.5,1446.2L523.5,1446.2c93,20.2,152.1,112,131.9,205l-67.9,312.7c-20.2,93-112,152.1-205,131.9
		l0,0c-93-20.2-152.1-112-131.9-205l67.9-312.7C338.6,1485,430.4,1426,523.5,1446.2z"/>
	<path style="fill:#FF8552;" d="M1501,2276.1l-1048-4c23.6-274.6,47.2-549.3,70.8-823.9c289.3-110.6,609.2-110.6,898.5,0
		C1448.5,1724.1,1474.8,2000.1,1501,2276.1z"/>
	<path style="fill:#E9D758;" d="M1131.9,1356.9c10.8,104.4-73.6,190.6-164.6,187.7c-87.5-2.8-164.4-87.5-153.7-187.7v-318.3h318.3
		V1356.9z"/>
	<circle style="fill:#E9D758;" cx="972.7" cy="819.6" r="343.7"/>
	<circle style="fill:#E9D758;" cx="601.2" cy="804.9" r="96.9"/>
	<circle style="fill:#E9D758;" cx="1350.6" cy="812.8" r="96.9"/>
	<path style="fill:#FF8552;" d="M453,2096.3h287.8v-709.5l-279.4,57.3C458.6,1661.5,455.8,1878.9,453,2096.3z"/>
	<path style="fill:#FF8552;" d="M1483.3,2096.3h-278.1v-709.5l278.1,53.6V2096.3z"/>
	<path style="fill:none;stroke:#FF8552;stroke-width:7;stroke-miterlimit:10;" d="M1406.8,776.6c-8.9,0.3-40.1,2.6-67.7,26.8
		c-17.6,15.5-29.7,36.3-34.4,59.3"/>
	<line style="fill:none;stroke:#FF8552;stroke-width:7;stroke-miterlimit:10;" x1="1394.9" y1="837.1" x2="1336.6" y2="806.8"/>
	<path style="fill:none;stroke:#FF8552;stroke-width:7;stroke-miterlimit:10;" d="M544.1,774.2c8.9,0.3,40.3,2.6,68,26.8
		c17.7,15.5,29.8,36.3,34.5,59.3"/>
	<line style="fill:none;stroke:#FF8552;stroke-width:7;stroke-miterlimit:10;" x1="556.1" y1="834.8" x2="614.6" y2="804.4"/>
	
		<rect x="130.1" y="120.1" style="fill:none;stroke:#39393A;stroke-width:15;stroke-miterlimit:10;" width="1692.8" height="1692.8"/>
	<rect x="130.1" y="126.8" style="fill:#39393A;" width="1692.8" height="76.2"/>
	<circle style="fill:#E4DFDA;" cx="1678.6" cy="161.9" r="23.7"/>
	<circle style="fill:#FF8552;" cx="1752.1" cy="161.9" r="23.7"/>
	<circle style="fill:#E9D758;" cx="1604.6" cy="161.9" r="23.7"/>
	<rect x="125.9" y="1743.5" style="fill:#39393A;" width="1692.8" height="76.2"/>
	<circle style="fill:#E4DFDA;" cx="960" cy="836.5" r="163"/>
	<circle style="fill:#FF8552;" cx="960" cy="837.9" r="52.8"/>
	<path style="fill:#297373;" d="M1125.6,785.2l0.3-0.3l-0.7-0.9c-22.3-70-87.9-120.8-165.2-120.8c-95.6,0-173.4,77.8-173.4,173.4
		s77.8,173.3,173.4,173.3s173.3-77.8,173.3-173.3C1133.4,819.1,1130.7,801.8,1125.6,785.2z M1112.6,781.6l-85.6,73.1l42.7-137.5
		C1088.9,734.9,1103.7,757,1112.6,781.6L1112.6,781.6z M1060.4,709.3L1027,817l-40.6-140.5C1013.4,681,1038.9,692.3,1060.4,709.3
		L1060.4,709.3z M1010,800.9l0.8,0.6l0.2,0.8C1010.8,801.8,1010.4,801.3,1010,800.9z M1010.3,836.5c0,24.8-18.1,45.9-42.6,49.7
		l-7.9,0.6c-6.5,0-13-1.3-19-3.8l-13.5-8.3c-2.9-2.5-5.6-5.4-7.8-8.5l-7.1-13.6c-5.3-15.6-2.6-32.9,7.4-46.1l11.8-11.4
		c22.9-15.8,54.2-10,69.9,12.8C1007.2,816.3,1010.3,826.3,1010.3,836.5L1010.3,836.5z M960,674.4c4.8,0,9.6,0.3,14.3,0.7l31.3,108.5
		l-120.1-91C908.5,680.6,934.1,674.3,960,674.4z M874.9,698.5l105.8,80.1c-6.7-2.4-13.7-3.7-20.8-3.7H810
		C823.1,743.3,845.8,716.6,874.9,698.5z M797.8,836.5c0-17.1,2.7-34.1,8-50.3h118.9c-5.1,3.6-9.6,7.9-13.4,12.8l-101.7,98.3
		C801.9,878,797.8,857.4,797.8,836.5L797.8,836.5z M814.6,908.2l83.7-80.9l-8.2,155.5C857.3,967,830.7,940.7,814.6,908.2
		L814.6,908.2z M960,998.7c-20.2,0-40.2-3.8-58.9-11.2l6.3-119.6c0.8,1.4,1.6,2.8,2.5,4.2l65.7,125.9
		C970.4,998.4,965.3,998.7,960,998.7z M987.3,996.3l-54.7-104.8c1,0.5,2,1,3,1.4l120.3,74.2C1035.7,982.1,1012.2,992.1,987.3,996.3z
		 M1065.2,959.8l-100.5-62c1.4-0.1,2.7-0.3,4-0.5l145.9-12C1105.4,914.3,1088.3,940,1065.2,959.8z M1117.8,873.9l-106.2,8.7
		l104.6-89.4C1123.6,819.5,1124.1,847.3,1117.8,873.9z"/>
</g>
</svg>
