<svg xmlns="http://www.w3.org/2000/svg" viewBox="0 0 1920 1920"><defs><style>.cls-1{fill:#e9d758;}.cls-2{fill:#f9e46e;}.cls-3{fill:#68524e;}.cls-13,.cls-14,.cls-18,.cls-19,.cls-21,.cls-23,.cls-4,.cls-9{fill:none;stroke-miterlimit:10;}.cls-4{stroke:#68524e;}.cls-21,.cls-23,.cls-4{stroke-width:10px;}.cls-5{fill:#f4d6b3;}.cls-6{fill:#fff;}.cls-7{fill:#39393a;}.cls-10,.cls-17,.cls-8{fill:#ff8552;}.cls-8{opacity:0.5;}.cls-18,.cls-21,.cls-9{stroke:#39393a;}.cls-19,.cls-9{stroke-width:5px;}.cls-10{opacity:0.25;}.cls-11{fill:#efd9c5;}.cls-12{fill:#8380c0;}.cls-13,.cls-23{stroke:#fff;}.cls-13{stroke-width:4px;}.cls-14{stroke:#297373;stroke-width:15px;}.cls-15{fill:#297373;}.cls-16{fill:#fcee21;}.cls-18{stroke-width:7px;}.cls-19{stroke:#e2c4a6;}.cls-20{fill:#895540;}.cls-22{fill:#e36450;}</style></defs><g id="BACKGROUND"><rect class="cls-1" x="-61.35" y="-31.92" width="2025.47" height="2025.47"/></g><g id="_2ND_BACK" data-name="2ND BACK"><path class="cls-2" d="M2242.91,1806.44H2017.5a116.15,116.15,0,1,1,0-232.3H2095a116.16,116.16,0,1,0,0-232.31H1630.09a116.16,116.16,0,1,1,0-232.31H2412a116.15,116.15,0,1,0,0-232.3H1855.49a116.16,116.16,0,1,1,0-232.31h211.32a116.16,116.16,0,1,0,0-232.31H1601.92a116.16,116.16,0,1,1,0-232.31h70.44a116.15,116.15,0,1,0,0-232.3H968a116.15,116.15,0,1,0,0,232.3h42.27a116.16,116.16,0,1,1,0,232.31H932.74a116.16,116.16,0,1,0,0,232.31H918.66a116.16,116.16,0,1,1,0,232.31H150.87a116.15,116.15,0,1,0,0,232.3H348.08a116.16,116.16,0,1,1,0,232.31H319.91a116.16,116.16,0,1,0,0,232.31H848.2a116.15,116.15,0,1,1,0,232.3H580.52a116.16,116.16,0,1,0,0,232.31H2242.81a116.16,116.16,0,1,0,0-232.31Z"/></g><g id="ELEMENTS"><circle class="cls-3" cx="1467.36" cy="1583" r="124.06"/><circle class="cls-3" cx="505.49" cy="1528.32" r="124.06"/><circle class="cls-4" cx="588.2" cy="1101.04" r="82.71"/><circle class="cls-4" cx="1357.34" cy="1445.61" r="124.06"/><circle class="cls-3" cx="1343.3" cy="1427.52" r="124.06"/><rect class="cls-5" x="1303.72" y="1490.27" width="344.72" height="664.68" rx="172.36" transform="translate(-191.85 173.75) rotate(-6.33)"/><circle class="cls-3" cx="588.2" cy="1428.54" r="124.06"/><rect class="cls-5" x="273.38" y="1490.27" width="344.72" height="664.68" rx="172.36" transform="translate(396.81 -53.08) rotate(12.25)"/><circle class="cls-4" cx="1269.43" cy="1012.67" r="124.06"/><circle class="cls-4" cx="1321.98" cy="1264.87" r="124.06"/><circle class="cls-4" cx="669.8" cy="996.16" r="124.06"/><circle class="cls-4" cx="633.88" cy="1246.13" r="124.06"/><circle class="cls-4" cx="584.34" cy="1351.96" r="124.06"/><circle class="cls-3" cx="1309.22" cy="1293.24" r="124.06"/><circle class="cls-3" cx="1283.51" cy="1151.29" r="124.06"/><circle class="cls-3" cx="641.92" cy="1265.31" r="124.06"/><circle class="cls-3" cx="683.01" cy="1074.8" r="124.06"/><path class="cls-3" d="M1340.94,1710.61H599.6V798.92C605.87,788.85,736,587.63,978.25,592.05c232.08,4.23,354.28,193.34,362.69,206.87Z"/><path class="cls-6" d="M1483.13,2327.73l-1027.56-4q34.71-411.94,69.41-823.9a1211.27,1211.27,0,0,1,881,0Q1444.56,1913.76,1483.13,2327.73Z"/><path class="cls-5" d="M1124.65,1427.52c-7,8.46-67.4,78.75-166.46,75.26-90.45-3.18-143.75-65.44-151.88-75.26V1109.18h318.34Z"/><path class="cls-7" d="M1124.65,1195.33c7.27-3.79-89.64,54.72-194.54,131.34a1512.41,1512.41,0,0,0-123.8,100.85V1195.33a344.31,344.31,0,0,0,318.34,0Z"/><circle class="cls-5" cx="965.48" cy="890.29" r="343.74"/><circle class="cls-5" cx="593.97" cy="875.53" r="96.92"/><circle class="cls-5" cx="1345.79" cy="909.2" r="96.92"/><ellipse class="cls-7" cx="829.88" cy="779.94" rx="14.38" ry="83.19" transform="translate(-72.92 1474.17) rotate(-80.78)"/><ellipse class="cls-7" cx="1109.08" cy="781.07" rx="83.19" ry="14.38" transform="translate(-79.32 126.97) rotate(-6.33)"/><ellipse class="cls-8" cx="974.3" cy="1124.55" rx="80.85" ry="31.42" transform="translate(-13.75 12.07) rotate(-0.7)"/><path class="cls-9" d="M876,1111.6a422.49,422.49,0,0,0,197-2.42"/><path class="cls-7" d="M969.17,833q1.79,27.45,1.89,55t-1.47,54.73q-.9,15.47-2.32,30.88a3,3,0,0,0,3,3,3.06,3.06,0,0,0,3-3q2.52-27.39,3.38-54.89t0-54.75q-.48-15.48-1.48-30.93a3.08,3.08,0,0,0-3-3,3,3,0,0,0-3,3Z"/><path class="cls-7" d="M970.77,976.53l41.48-2a3,3,0,0,0,0-6l-41.48,2a3,3,0,0,0,0,6Z"/><path class="cls-7" d="M1009.89,970.2q-17.05,18.74-33.61,37.91-4.72,5.46-9.39,11a3.09,3.09,0,0,0,0,4.25,3,3,0,0,0,4.24,0q16.41-19.3,33.32-38.16,4.81-5.38,9.68-10.72a3.07,3.07,0,0,0,0-4.24,3,3,0,0,0-4.24,0Z"/><circle class="cls-10" cx="743.25" cy="998.49" r="60.23"/><circle class="cls-10" cx="1194.76" cy="998.49" r="60.23"/><ellipse class="cls-11" cx="605.18" cy="956.8" rx="16.97" ry="14.98"/><ellipse class="cls-3" cx="818.58" cy="591.16" rx="207.24" ry="116.27" transform="translate(-167.63 374.51) rotate(-23.45)"/><ellipse class="cls-3" cx="1148.45" cy="597.9" rx="116.27" ry="207.24" transform="translate(56.43 1293.54) rotate(-60)"/><circle class="cls-3" cx="641.92" cy="719.39" r="82.71"/><circle class="cls-3" cx="1324.86" cy="764.39" r="82.71"/><circle class="cls-3" cx="917.02" cy="425.25" r="145.57"/><ellipse class="cls-4" cx="829.88" cy="597.9" rx="207.24" ry="116.27" transform="translate(-169.38 379.56) rotate(-23.45)"/><circle class="cls-4" cx="641.92" cy="732.09" r="82.71"/><circle class="cls-4" cx="1321.98" cy="773.45" r="82.71"/><ellipse class="cls-4" cx="1134.52" cy="609.52" rx="111.22" ry="183.65" transform="translate(-10.95 1198.21) rotate(-55.45)"/><circle class="cls-4" cx="866.8" cy="646.53" r="82.71"/><circle class="cls-4" cx="903.62" cy="418.25" r="145.57"/><circle class="cls-4" cx="793.86" cy="460.75" r="82.71"/><circle class="cls-4" cx="1148.45" cy="507.96" r="82.71"/><ellipse class="cls-4" cx="1182.69" cy="597.9" rx="111.22" ry="183.65" transform="matrix(0.57, -0.82, 0.82, 0.57, 19.47, 1232.84)"/><ellipse class="cls-4" cx="793.86" cy="570.82" rx="207.24" ry="116.27" transform="translate(-161.57 362.99) rotate(-23.45)"/><circle class="cls-4" cx="1134.52" cy="667.84" r="82.71"/><path class="cls-12" d="M1421.09,1661.88l-909.76-.06q1.74-21.06,3.47-42.11l902.36,0Z"/><path class="cls-12" d="M1430.41,1761.87H502.9l3.54-42.2h920Q1428.41,1740.77,1430.41,1761.87Z"/><path class="cls-12" d="M1440,1864.81l-945.78.09,3.75-42.29h937.94Q1438,1843.72,1440,1864.81Z"/><path class="cls-12" d="M1412.29,1567.48l-893-.07,3.65-42.13,885.44,0Q1410.32,1546.4,1412.29,1567.48Z"/><path class="cls-7" d="M946.34,531.13c2.1,1-41.62,123.16-143.45,144.1-62.83,12.93-122.48-17.89-121.11-22s63.66,21.35,130.29,2.16C906.45,628.24,944.44,530.22,946.34,531.13Z"/><path class="cls-7" d="M1297.05,672.7c.45,2.29-123.57,40.37-201.29-28.68-48-42.6-59-108.83-54.88-110.18s21,63.78,76.24,105.68C1195.38,698.86,1296.65,670.64,1297.05,672.7Z"/><path class="cls-7" d="M701.36,719.84c3.67.84,1.9,44.46-32.51,58.93s-66.72-15-64.86-18c1.6-2.57,29,13.4,56.82,2.1C689.39,751.3,698.11,719.09,701.36,719.84Z"/><path class="cls-7" d="M1389,757.41c3.67.84,1.9,44.46-32.51,58.93s-66.72-15-64.86-18c1.6-2.57,29,13.4,56.82,2.11C1377,788.87,1385.75,756.66,1389,757.41Z"/><path class="cls-7" d="M1367.7,1314.61c0,4.15-49.62,31.16-75,7s-.67-75.08,3.19-75.23c3.32-.13-7.48,37.2,12.57,56.93C1329.09,1323.64,1367.69,1311,1367.7,1314.61Z"/><path class="cls-7" d="M1370.71,1183.81c0,4.15-49.62,31.16-75,7s-.67-75.08,3.19-75.24c3.32-.13-7.47,37.2,12.57,56.94C1332.1,1192.84,1370.7,1180.15,1370.71,1183.81Z"/><path class="cls-7" d="M1230.39,1169.18c4.1-.64,38.37,44.29,18.4,73s-74.1,12.12-74.84,8.33c-.63-3.26,37.91,1.71,54.35-21.11C1245.21,1206,1226.78,1169.75,1230.39,1169.18Z"/><path class="cls-7" d="M1317.73,1436.91c-3.79.51-26.59-42.29-3.65-68.71s68.53-9.64,68.53-6.08c0,3.06-33.67-2.46-52.41,18.5C1310.92,1402.17,1321.07,1436.45,1317.73,1436.91Z"/><path class="cls-7" d="M1130,1318.08c-2-5.22,52.88-31.58,99.31,2.57s37.33,94.41,32.12,94c-4.49-.34-7.8-45.59-44.83-73.43C1178.57,1312.62,1131.83,1322.68,1130,1318.08Z"/><ellipse class="cls-13" cx="1345.79" cy="1093.07" rx="28.59" ry="119.96"/><ellipse class="cls-11" cx="1330.06" cy="989.61" rx="16.97" ry="14.98"/><path class="cls-7" d="M561.65,1290.5c0,4.15,50.06,31.15,75.64,7s.68-75.08-3.22-75.23c-3.35-.13,7.54,37.2-12.68,56.93C600.6,1299.53,561.66,1286.84,561.65,1290.5Z"/><path class="cls-7" d="M590.35,1181c0,4.15,50.06,31.16,75.64,7s.68-75.08-3.22-75.24c-3.35-.13,7.54,37.2-12.68,56.94C629.3,1190,590.36,1177.3,590.35,1181Z"/><path class="cls-7" d="M714.83,1172.29c-4.13-.65-38.7,44.29-18.56,73s74.76,12.12,75.51,8.33c.64-3.26-38.25,1.71-54.84-21.11C699.89,1209.07,718.48,1172.86,714.83,1172.29Z"/><path class="cls-7" d="M599.74,1431c3.82.52,26.83-42.28,3.68-68.7s-69.15-9.65-69.14-6.08c0,3.06,34-2.47,52.88,18.5C606.61,1396.3,596.37,1430.58,599.74,1431Z"/><path class="cls-7" d="M789.11,1337.89c2-5.21-53.36-31.57-100.2,2.57s-37.67,94.41-32.4,94c4.52-.34,7.86-45.59,45.23-73.43C740.15,1332.44,787.3,1342.49,789.11,1337.89Z"/><ellipse class="cls-13" cx="587.8" cy="1059.64" rx="28.59" ry="119.96"/><circle class="cls-3" cx="1049.19" cy="387.02" r="145.57"/><circle class="cls-4" cx="1058.26" cy="378.04" r="145.57"/><path class="cls-7" d="M940.85,332.77c-3.77-8.39,79.47-90.06,156.15-55.07s69.14,151.56,60.91,154c-7.08,2.07-17.33-79.34-78.56-108.36C1016.4,293.48,944.17,340.17,940.85,332.77Z"/><rect class="cls-14" x="128.09" y="106.92" width="1692.79" height="1692.79"/><rect class="cls-15" x="128.54" y="105.87" width="1692.79" height="76.24"/><circle class="cls-16" cx="1677.06" cy="140.99" r="23.74"/><circle class="cls-12" cx="1750.58" cy="140.99" r="23.74"/><circle class="cls-17" cx="1603.02" cy="140.99" r="23.74"/><rect class="cls-15" x="124.37" y="1722.57" width="1692.79" height="76.24"/><path class="cls-18" d="M535.5,838.93c8.76.33,39.63,2.56,67,26.75a108.11,108.11,0,0,1,34,59.3"/><line class="cls-18" x1="547.25" y1="899.44" x2="604.9" y2="869.11"/><path class="cls-18" d="M1404.69,874.46c-8.86.33-40.09,2.56-67.74,26.76a107.76,107.76,0,0,0-34.36,59.3"/><line class="cls-18" x1="1392.81" y1="934.98" x2="1334.49" y2="904.65"/><path class="cls-19" d="M715.36,841.37c47.7-40.18,109.45-49.69,154.77-24.64,30.72,17,45.23,45.07,51.1,58.8"/><path class="cls-19" d="M1013.47,872.17c32.93-53,88.71-81.12,139.55-71.31,34.47,6.64,57,28.86,66.79,40.1"/><line class="cls-18" x1="724.63" y1="870.48" x2="708.17" y2="880.68"/><line class="cls-18" x1="731.33" y1="880.88" x2="717.93" y2="892.2"/><line class="cls-18" x1="739.23" y1="892.2" x2="728.13" y2="904.21"/><path class="cls-6" d="M917,892.2s-59.23,48-112.23,38.91c-50.94-8.71-91.22-69.23-93.64-73.07h0a191,191,0,0,1,53-28.63c11.19-3.91,35.32-12.33,59.2-10.28C879.09,823.9,912.48,883.78,917,892.2Z"/><ellipse class="cls-20" cx="818.56" cy="875.58" rx="56.7" ry="54.5" transform="matrix(0.16, -0.99, 0.99, 0.16, -176.83, 1543.32)"/><path class="cls-21" d="M711.15,858c47.7-40.18,109.45-49.69,154.77-24.64,30.72,17,45.23,45.07,51.1,58.8"/><line class="cls-18" x1="747.1" y1="834.91" x2="739.4" y2="817.15"/><line class="cls-18" x1="735.41" y1="840.66" x2="726.39" y2="823.54"/><line class="cls-18" x1="723.72" y1="847.31" x2="714.04" y2="830.54"/><line class="cls-18" x1="1212.96" y1="865.69" x2="1229.57" y2="875.89"/><line class="cls-18" x1="1206.2" y1="876.09" x2="1219.72" y2="887.41"/><line class="cls-18" x1="1198.23" y1="887.41" x2="1209.43" y2="899.42"/><path class="cls-6" d="M1018.76,887.41s59.79,48,113.29,38.91c51.41-8.7,92.07-69.22,94.52-73.07h0A193.41,193.41,0,0,0,1173,824.62c-11.29-3.91-35.64-12.32-59.75-10.28C1057.05,819.11,1023.34,879,1018.76,887.41Z"/><ellipse class="cls-20" cx="1118.15" cy="870.79" rx="55" ry="56.72" transform="translate(-156.39 251.05) rotate(-11.98)"/><path class="cls-21" d="M1226.57,853.25c-48.15-40.18-110.48-49.69-156.23-24.64-31,17-45.66,45.07-51.58,58.8"/><line class="cls-18" x1="1190.28" y1="830.12" x2="1198.06" y2="812.36"/><line class="cls-18" x1="1202.08" y1="835.88" x2="1211.19" y2="818.75"/><line class="cls-18" x1="1213.88" y1="842.52" x2="1223.65" y2="825.75"/></g><g id="INSTA"><rect class="cls-22" x="1367.69" y="310.56" width="518.13" height="200.57" rx="100.28"/><path class="cls-22" d="M1621.87,581.56h0q-22.29-45.69-44.6-91.38h91.38Z"/><path class="cls-6" d="M1764.25,348.16a39.12,39.12,0,0,0-32.37,17l-1.5,1.91-1-1.27a38.56,38.56,0,0,0-32.44-17.61c-22.43,0-38.72,16.28-38.72,38.72,0,33.12,60,81.93,64.33,85.44a11.06,11.06,0,0,0,15.27,0c4.38-3.54,65.15-53.12,65.15-85.44C1803,364.44,1786.69,348.16,1764.25,348.16Z"/><path class="cls-23" d="M1533.16,348.16c-36.39,0-66,26.65-66,59.4a54.93,54.93,0,0,0,10.48,32.12c-1.3,14.38-4.78,25.06-9.84,30.11a2.2,2.2,0,0,0,1.56,3.76l.3,0c.9-.13,21.59-3.11,36.56-11.75a71.58,71.58,0,0,0,26.93,5.17c36.39,0,66-26.64,66-59.39S1569.55,348.16,1533.16,348.16Z"/></g></svg>