<?xml version="1.0" encoding="utf-8"?>
<!-- Generator: Adobe Illustrator 24.3.0, SVG Export Plug-In . SVG Version: 6.00 Build 0)  -->
<svg version="1.1" id="Layer_1" xmlns="http://www.w3.org/2000/svg" xmlns:xlink="http://www.w3.org/1999/xlink" x="0px" y="0px"
	 viewBox="0 0 1920 1920" style="enable-background:new 0 0 1920 1920;" xml:space="preserve">
<g id="BACKGROUND">
	<rect x="-61.3" y="-31.9" style="fill:#E9D758;" width="2025.5" height="2025.5"/>
</g>
<g id="_2ND_BACK">
	<path style="fill:#F9E46E;" d="M2242.9,1806.4h-225.4c-64.1,0-116.2-52-116.2-116.2s52-116.2,116.2-116.2h77.5
		c64.2,0.6,116.6-50.9,117.2-115.1c0.6-64.2-50.9-116.6-115.1-117.2c-0.7,0-1.4,0-2.2,0h-464.9c-64.2,0.6-116.6-50.9-117.2-115.1
		c-0.6-64.2,50.9-116.6,115.1-117.2c0.7,0,1.4,0,2.2,0H2412c64.1,0,116.2-52,116.2-116.1s-52-116.2-116.1-116.2c0,0-0.1,0-0.1,0
		h-556.5c-64.2,0.6-116.6-50.9-117.2-115.1c-0.6-64.2,50.9-116.6,115.1-117.2c0.7,0,1.4,0,2.2,0h211.3
		c64.2,0.6,116.6-50.9,117.2-115.1c0.6-64.2-50.9-116.6-115.1-117.2c-0.7,0-1.4,0-2.2,0h-464.9c-64.2,0.6-116.6-50.9-117.2-115.1
		c-0.6-64.2,50.9-116.6,115.1-117.2c0.7,0,1.4,0,2.2,0h70.4c64.1,0,116.2-52,116.2-116.1S1736.5-52,1672.4-52c0,0,0,0,0,0H968
		C903.9-52,851.8,0,851.8,64.1s52,116.2,116.1,116.2c0,0,0,0,0,0h42.3c64.2-0.6,116.6,50.9,117.2,115.1
		c0.6,64.2-50.9,116.6-115.1,117.2c-0.7,0-1.4,0-2.2,0h-77.5c-64.2-0.6-116.6,50.9-117.2,115.1c-0.6,64.2,50.9,116.6,115.1,117.2
		c0.7,0,1.4,0,2.2,0h-14.1c64.2-0.6,116.6,50.9,117.2,115.1c0.6,64.2-50.9,116.6-115.1,117.2c-0.7,0-1.4,0-2.2,0H150.9
		c-64.1,0-116.2,52-116.2,116.1s52,116.2,116.1,116.2c0,0,0.1,0,0.1,0h197.2c64.2-0.6,116.6,50.9,117.2,115.1
		c0.6,64.2-50.9,116.6-115.1,117.2c-0.7,0-1.4,0-2.2,0h-28.2c-64.2-0.6-116.6,50.9-117.2,115.1c-0.6,64.2,50.9,116.6,115.1,117.2
		c0.7,0,1.4,0,2.2,0h528.3c64.1,0,116.2,52,116.2,116.2s-52,116.2-116.2,116.2H580.5c-64.2-0.6-116.6,50.9-117.2,115.1
		c-0.6,64.2,50.9,116.6,115.1,117.2c0.7,0,1.4,0,2.2,0h1662.3c64.2,0.6,116.6-50.9,117.2-115.1c0.6-64.2-50.9-116.6-115.1-117.2
		C2244.2,1806.4,2243.5,1806.4,2242.9,1806.4L2242.9,1806.4z"/>
</g>
<g id="ELEMENTS">
	<circle style="fill:#68524E;" cx="1467.4" cy="1583" r="124.1"/>
	<circle style="fill:#68524E;" cx="505.5" cy="1528.3" r="124.1"/>
	<circle style="fill:none;stroke:#68524E;stroke-width:10;stroke-miterlimit:10;" cx="588.2" cy="1101" r="82.7"/>
	<circle style="fill:none;stroke:#68524E;stroke-width:10;stroke-miterlimit:10;" cx="1357.3" cy="1445.6" r="124.1"/>
	<circle style="fill:#68524E;" cx="1343.3" cy="1427.5" r="124.1"/>
	<path style="fill:#F4D6B3;" d="M1439.5,1492.2L1439.5,1492.2c94.6-10.5,179.8,57.7,190.3,152.3l35.3,318
		c10.5,94.6-57.7,179.8-152.3,190.3l0,0c-94.6,10.5-179.8-57.7-190.3-152.3l-35.3-318C1276.7,1587.9,1344.9,1502.7,1439.5,1492.2z"
		/>
	<circle style="fill:#68524E;" cx="588.2" cy="1428.5" r="124.1"/>
	<path style="fill:#F4D6B3;" d="M516.2,1497.8L516.2,1497.8c93,20.2,152.1,112,131.9,205l-67.9,312.7c-20.2,93-112,152.1-205,131.9
		l0,0c-93-20.2-152.1-112-131.9-205l67.9-312.7C331.4,1536.7,423.2,1477.6,516.2,1497.8z"/>
	<circle style="fill:none;stroke:#68524E;stroke-width:10;stroke-miterlimit:10;" cx="1269.4" cy="1012.7" r="124.1"/>
	<circle style="fill:none;stroke:#68524E;stroke-width:10;stroke-miterlimit:10;" cx="1322" cy="1264.9" r="124.1"/>
	<circle style="fill:none;stroke:#68524E;stroke-width:10;stroke-miterlimit:10;" cx="669.8" cy="996.2" r="124.1"/>
	<circle style="fill:none;stroke:#68524E;stroke-width:10;stroke-miterlimit:10;" cx="633.9" cy="1246.1" r="124.1"/>
	<circle style="fill:none;stroke:#68524E;stroke-width:10;stroke-miterlimit:10;" cx="584.3" cy="1352" r="124.1"/>
	<circle style="fill:#68524E;" cx="1309.2" cy="1293.2" r="124.1"/>
	<circle style="fill:#68524E;" cx="1283.5" cy="1151.3" r="124.1"/>
	<circle style="fill:#68524E;" cx="641.9" cy="1265.3" r="124.1"/>
	<circle style="fill:#68524E;" cx="683" cy="1074.8" r="124.1"/>
	<path style="fill:#68524E;" d="M1340.9,1710.6H599.6V798.9C605.9,788.8,736,587.6,978.3,592c232.1,4.2,354.3,193.3,362.7,206.9
		V1710.6z"/>
	<path style="fill:#FFFFFF;" d="M1483.1,2327.7l-1027.6-4c23.1-274.6,46.3-549.3,69.4-823.9c283.3-110.6,597.7-110.6,881,0
		C1431.7,1775.8,1457.4,2051.8,1483.1,2327.7z"/>
	<path style="fill:#F4D6B3;" d="M1124.7,1427.5c-7,8.5-67.4,78.8-166.5,75.3c-90.5-3.2-143.8-65.4-151.9-75.3v-318.3h318.3V1427.5z"
		/>
	<path style="fill:#39393A;" d="M1124.7,1195.3c7.3-3.8-89.6,54.7-194.5,131.3c-43,31.4-84.3,65.1-123.8,100.8v-232.2
		C906.1,1247.3,1024.9,1247.3,1124.7,1195.3z"/>
	<circle style="fill:#F4D6B3;" cx="965.5" cy="890.3" r="343.7"/>
	<circle style="fill:#F4D6B3;" cx="594" cy="875.5" r="96.9"/>
	<circle style="fill:#F4D6B3;" cx="1345.8" cy="909.2" r="96.9"/>
	
		<ellipse transform="matrix(0.1602 -0.9871 0.9871 0.1602 -72.9628 1474.1952)" style="fill:#39393A;" cx="829.9" cy="780" rx="14.4" ry="83.2"/>
	
		<ellipse transform="matrix(0.9939 -0.1103 0.1103 0.9939 -79.3467 127.0466)" style="fill:#39393A;" cx="1109.1" cy="781" rx="83.2" ry="14.4"/>
	
		<ellipse transform="matrix(0.9999 -1.221691e-02 1.221691e-02 0.9999 -13.6668 11.9858)" style="opacity:0.5;fill:#FF8552;enable-background:new    ;" cx="974.2" cy="1124.6" rx="80.9" ry="31.4"/>
	<path style="fill:none;stroke:#39393A;stroke-width:5;stroke-miterlimit:10;" d="M876,1111.6c64.9,14.7,132.4,13.9,197-2.4"/>
	<path style="fill:#39393A;" d="M969.2,833c1.2,18.3,1.8,36.6,1.9,55c0.1,18.4-0.4,36.6-1.5,54.7c-0.6,10.3-1.4,20.6-2.3,30.9
		c0,1.7,1.3,3,3,3c1.6,0,3-1.4,3-3c1.7-18.3,2.8-36.6,3.4-54.9c0.6-18.3,0.6-36.6,0-54.8c-0.3-10.3-0.8-20.6-1.5-30.9
		c0-1.6-1.4-3-3-3C970.5,830,969.2,831.4,969.2,833L969.2,833z"/>
	<path style="fill:#39393A;" d="M970.8,976.5l41.5-2c1.7,0,3-1.3,3-3s-1.3-3-3-3l-41.5,2c-1.7,0-3,1.3-3,3S969.1,976.5,970.8,976.5z
		"/>
	<path style="fill:#39393A;" d="M1009.9,970.2c-11.4,12.5-22.6,25.1-33.6,37.9c-3.1,3.6-6.3,7.3-9.4,11c-1.1,1.2-1.1,3.1,0,4.3
		c1.2,1.2,3.1,1.2,4.2,0c10.9-12.9,22-25.6,33.3-38.2c3.2-3.6,6.4-7.2,9.7-10.7c1.1-1.2,1.1-3.1,0-4.2
		C1013,969.1,1011.1,969.1,1009.9,970.2L1009.9,970.2z"/>
	<circle style="opacity:0.25;fill:#FF8552;enable-background:new    ;" cx="743.3" cy="998.5" r="60.2"/>
	<circle style="opacity:0.25;fill:#FF8552;enable-background:new    ;" cx="1194.8" cy="998.5" r="60.2"/>
	<ellipse style="fill:#EFD9C5;" cx="605.2" cy="956.8" rx="17" ry="15"/>
	
		<ellipse transform="matrix(0.9174 -0.3979 0.3979 0.9174 -167.6147 374.5775)" style="fill:#68524E;" cx="818.6" cy="591.1" rx="207.2" ry="116.3"/>
	
		<ellipse transform="matrix(0.5 -0.866 0.866 0.5 56.4264 1293.5398)" style="fill:#68524E;" cx="1148.5" cy="597.9" rx="116.3" ry="207.2"/>
	<circle style="fill:#68524E;" cx="641.9" cy="719.4" r="82.7"/>
	<circle style="fill:#68524E;" cx="1324.9" cy="764.4" r="82.7"/>
	
		<ellipse transform="matrix(0.7071 -0.7071 0.7071 0.7071 -32.1082 772.9839)" style="fill:#68524E;" cx="917" cy="425.3" rx="145.6" ry="145.6"/>
	
		<ellipse transform="matrix(0.9174 -0.3979 0.3979 0.9174 -169.3624 379.6304)" style="fill:none;stroke:#68524E;stroke-width:10;stroke-miterlimit:10;" cx="829.9" cy="597.8" rx="207.2" ry="116.3"/>
	<circle style="fill:none;stroke:#68524E;stroke-width:10;stroke-miterlimit:10;" cx="641.9" cy="732.1" r="82.7"/>
	<circle style="fill:none;stroke:#68524E;stroke-width:10;stroke-miterlimit:10;" cx="1322" cy="773.5" r="82.7"/>
	
		<ellipse transform="matrix(0.5671 -0.8236 0.8236 0.5671 -10.8786 1198.2164)" style="fill:none;stroke:#68524E;stroke-width:10;stroke-miterlimit:10;" cx="1134.5" cy="609.5" rx="111.2" ry="183.7"/>
	<circle style="fill:none;stroke:#68524E;stroke-width:10;stroke-miterlimit:10;" cx="866.8" cy="646.5" r="82.7"/>
	
		<ellipse transform="matrix(0.7071 -0.7071 0.7071 0.7071 -31.0832 761.4584)" style="fill:none;stroke:#68524E;stroke-width:10;stroke-miterlimit:10;" cx="903.6" cy="418.3" rx="145.6" ry="145.6"/>
	<circle style="fill:none;stroke:#68524E;stroke-width:10;stroke-miterlimit:10;" cx="793.9" cy="460.8" r="82.7"/>
	<circle style="fill:none;stroke:#68524E;stroke-width:10;stroke-miterlimit:10;" cx="1148.4" cy="508" r="82.7"/>
	
		<ellipse transform="matrix(0.5708 -0.8211 0.8211 0.5708 12.3398 1231.2803)" style="fill:none;stroke:#68524E;stroke-width:9.9865;stroke-miterlimit:9.9865;" cx="1183.9" cy="603.8" rx="111.1" ry="183.4"/>
	
		<ellipse transform="matrix(0.9174 -0.3979 0.3979 0.9174 -161.5604 363.0631)" style="fill:none;stroke:#68524E;stroke-width:10;stroke-miterlimit:10;" cx="793.9" cy="570.7" rx="207.2" ry="116.3"/>
	<circle style="fill:none;stroke:#68524E;stroke-width:10;stroke-miterlimit:10;" cx="1134.5" cy="667.8" r="82.7"/>
	<path style="fill:#8380C0;" d="M1421.1,1661.9l-909.8-0.1c1.2-14,2.3-28.1,3.5-42.1h902.4L1421.1,1661.9z"/>
	<path style="fill:#8380C0;" d="M1430.4,1761.9H502.9l3.5-42.2h920C1427.8,1733.7,1429.1,1747.8,1430.4,1761.9z"/>
	<path style="fill:#8380C0;" d="M1440,1864.8l-945.8,0.1l3.8-42.3h937.9C1437.3,1836.7,1438.7,1850.8,1440,1864.8z"/>
	<path style="fill:#8380C0;" d="M1412.3,1567.5l-893-0.1l3.7-42.1h885.4C1409.7,1539.4,1411,1553.4,1412.3,1567.5z"/>
	<path style="fill:#39393A;" d="M946.3,531.1c2.1,1-41.6,123.2-143.5,144.1c-62.8,12.9-122.5-17.9-121.1-22s63.7,21.3,130.3,2.2
		C906.5,628.2,944.4,530.2,946.3,531.1z"/>
	<path style="fill:#39393A;" d="M1297.1,672.7c0.4,2.3-123.6,40.4-201.3-28.7c-48-42.6-59-108.8-54.9-110.2s21,63.8,76.2,105.7
		C1195.4,698.9,1296.7,670.6,1297.1,672.7z"/>
	<path style="fill:#39393A;" d="M701.4,719.8c3.7,0.8,1.9,44.5-32.5,58.9s-66.7-15-64.9-18c1.6-2.6,29,13.4,56.8,2.1
		C689.4,751.3,698.1,719.1,701.4,719.8z"/>
	<path style="fill:#39393A;" d="M1389,757.4c3.7,0.8,1.9,44.5-32.5,58.9s-66.7-15-64.9-18c1.6-2.6,29,13.4,56.8,2.1
		C1377,788.9,1385.8,756.7,1389,757.4z"/>
	<path style="fill:#39393A;" d="M1367.7,1314.6c0,4.2-49.6,31.2-75,7s-0.7-75.1,3.2-75.2c3.3-0.1-7.5,37.2,12.6,56.9
		C1329.1,1323.6,1367.7,1311,1367.7,1314.6z"/>
	<path style="fill:#39393A;" d="M1370.7,1183.8c0,4.2-49.6,31.2-75,7s-0.7-75.1,3.2-75.2c3.3-0.1-7.5,37.2,12.6,56.9
		C1332.1,1192.8,1370.7,1180.2,1370.7,1183.8z"/>
	<path style="fill:#39393A;" d="M1230.4,1169.2c4.1-0.6,38.4,44.3,18.4,73s-74.1,12.1-74.8,8.3c-0.6-3.3,37.9,1.7,54.3-21.1
		C1245.2,1206,1226.8,1169.8,1230.4,1169.2z"/>
	<path style="fill:#39393A;" d="M1317.7,1436.9c-3.8,0.5-26.6-42.3-3.7-68.7s68.5-9.6,68.5-6.1c0,3.1-33.7-2.5-52.4,18.5
		C1310.9,1402.2,1321.1,1436.4,1317.7,1436.9z"/>
	<path style="fill:#39393A;" d="M1130,1318.1c-2-5.2,52.9-31.6,99.3,2.6s37.3,94.4,32.1,94c-4.5-0.3-7.8-45.6-44.8-73.4
		C1178.6,1312.6,1131.8,1322.7,1130,1318.1z"/>
	<ellipse style="fill:none;stroke:#FFFFFF;stroke-width:4;stroke-miterlimit:10;" cx="1345.8" cy="1093.1" rx="28.6" ry="120"/>
	<ellipse style="fill:#EFD9C5;" cx="1330.1" cy="989.6" rx="17" ry="15"/>
	<path style="fill:#39393A;" d="M561.7,1290.5c0,4.2,50.1,31.2,75.6,7s0.7-75.1-3.2-75.2c-3.3-0.1,7.5,37.2-12.7,56.9
		C600.6,1299.5,561.7,1286.8,561.7,1290.5z"/>
	<path style="fill:#39393A;" d="M590.3,1181c0,4.2,50.1,31.2,75.6,7s0.7-75.1-3.2-75.2c-3.3-0.1,7.5,37.2-12.7,56.9
		C629.3,1190,590.4,1177.3,590.3,1181z"/>
	<path style="fill:#39393A;" d="M714.8,1172.3c-4.1-0.7-38.7,44.3-18.6,73s74.8,12.1,75.5,8.3c0.6-3.3-38.3,1.7-54.8-21.1
		C699.9,1209.1,718.5,1172.9,714.8,1172.3z"/>
	<path style="fill:#39393A;" d="M599.7,1431c3.8,0.5,26.8-42.3,3.7-68.7s-69.2-9.7-69.1-6.1c0,3.1,34-2.5,52.9,18.5
		C606.6,1396.3,596.4,1430.6,599.7,1431z"/>
	<path style="fill:#39393A;" d="M789.1,1337.9c2-5.2-53.4-31.6-100.2,2.6s-37.7,94.4-32.4,94c4.5-0.3,7.9-45.6,45.2-73.4
		C740.2,1332.4,787.3,1342.5,789.1,1337.9z"/>
	<ellipse style="fill:none;stroke:#FFFFFF;stroke-width:4;stroke-miterlimit:10;" cx="587.8" cy="1059.6" rx="28.6" ry="120"/>
	
		<ellipse transform="matrix(0.7071 -0.7071 0.7071 0.7071 33.6362 855.2449)" style="fill:#68524E;" cx="1049.2" cy="387" rx="145.6" ry="145.6"/>
	
		<ellipse transform="matrix(0.7071 -0.7071 0.7071 0.7071 42.6425 859.0282)" style="fill:none;stroke:#68524E;stroke-width:10;stroke-miterlimit:10;" cx="1058.3" cy="378" rx="145.6" ry="145.6"/>
	<path style="fill:#39393A;" d="M940.8,332.8c-3.8-8.4,79.5-90.1,156.2-55.1s69.1,151.6,60.9,154c-7.1,2.1-17.3-79.3-78.6-108.4
		C1016.4,293.5,944.2,340.2,940.8,332.8z"/>
	
		<rect x="128.1" y="106.9" style="fill:none;stroke:#297373;stroke-width:15;stroke-miterlimit:10;" width="1692.8" height="1692.8"/>
	<rect x="128.5" y="105.9" style="fill:#297373;" width="1692.8" height="76.2"/>
	<circle style="fill:#FCEE21;" cx="1677.1" cy="141" r="23.7"/>
	<circle style="fill:#8380C0;" cx="1750.6" cy="141" r="23.7"/>
	<circle style="fill:#FF8552;" cx="1603" cy="141" r="23.7"/>
	<rect x="124.4" y="1722.6" style="fill:#297373;" width="1692.8" height="76.2"/>
	<path style="fill:none;stroke:#39393A;stroke-width:7;stroke-miterlimit:10;" d="M535.5,838.9c8.8,0.3,39.6,2.6,67,26.8
		c17.4,15.6,29.4,36.4,34,59.3"/>
	<line style="fill:none;stroke:#39393A;stroke-width:7;stroke-miterlimit:10;" x1="547.3" y1="899.4" x2="604.9" y2="869.1"/>
	<path style="fill:none;stroke:#39393A;stroke-width:7;stroke-miterlimit:10;" d="M1404.7,874.5c-8.9,0.3-40.1,2.6-67.7,26.8
		c-17.6,15.5-29.7,36.3-34.4,59.3"/>
	<line style="fill:none;stroke:#39393A;stroke-width:7;stroke-miterlimit:10;" x1="1392.8" y1="935" x2="1334.5" y2="904.7"/>
	<path style="fill:none;stroke:#E2C4A6;stroke-width:5;stroke-miterlimit:10;" d="M715.4,841.4c47.7-40.2,109.5-49.7,154.8-24.6
		c30.7,17,45.2,45.1,51.1,58.8"/>
	<path style="fill:none;stroke:#E2C4A6;stroke-width:5;stroke-miterlimit:10;" d="M1013.5,872.2c32.9-53,88.7-81.1,139.6-71.3
		c34.5,6.6,57,28.9,66.8,40.1"/>
	<line style="fill:none;stroke:#39393A;stroke-width:7;stroke-miterlimit:10;" x1="724.6" y1="870.5" x2="708.2" y2="880.7"/>
	<line style="fill:none;stroke:#39393A;stroke-width:7;stroke-miterlimit:10;" x1="731.3" y1="880.9" x2="717.9" y2="892.2"/>
	<line style="fill:none;stroke:#39393A;stroke-width:7;stroke-miterlimit:10;" x1="739.2" y1="892.2" x2="728.1" y2="904.2"/>
	<path style="fill:#FFFFFF;" d="M917,892.2c0,0-59.2,48-112.2,38.9c-50.9-8.7-91.2-69.2-93.6-73.1l0,0c16-12.3,33.9-22,53-28.6
		c11.2-3.9,35.3-12.3,59.2-10.3C879.1,823.9,912.5,883.8,917,892.2z"/>
	
		<ellipse transform="matrix(0.1595 -0.9872 0.9872 0.1595 -171.8728 1544.1963)" style="fill:#895540;" cx="821" cy="873" rx="56.9" ry="54.7"/>
	<path style="fill:none;stroke:#39393A;stroke-width:10;stroke-miterlimit:10;" d="M711.2,858c47.7-40.2,109.5-49.7,154.8-24.6
		c30.7,17,45.2,45.1,51.1,58.8"/>
	<line style="fill:none;stroke:#39393A;stroke-width:7;stroke-miterlimit:10;" x1="747.1" y1="834.9" x2="739.4" y2="817.2"/>
	<line style="fill:none;stroke:#39393A;stroke-width:7;stroke-miterlimit:10;" x1="735.4" y1="840.7" x2="726.4" y2="823.5"/>
	<line style="fill:none;stroke:#39393A;stroke-width:7;stroke-miterlimit:10;" x1="723.7" y1="847.3" x2="714" y2="830.5"/>
	<line style="fill:none;stroke:#39393A;stroke-width:7;stroke-miterlimit:10;" x1="1213" y1="865.7" x2="1229.6" y2="875.9"/>
	<line style="fill:none;stroke:#39393A;stroke-width:7;stroke-miterlimit:10;" x1="1206.2" y1="876.1" x2="1219.7" y2="887.4"/>
	<line style="fill:none;stroke:#39393A;stroke-width:7;stroke-miterlimit:10;" x1="1198.2" y1="887.4" x2="1209.4" y2="899.4"/>
	<path style="fill:#FFFFFF;" d="M1018.8,887.4c0,0,59.8,48,113.3,38.9c51.4-8.7,92.1-69.2,94.5-73.1l0,0
		c-16.2-12.3-34.3-22-53.6-28.6c-11.3-3.9-35.6-12.3-59.8-10.3C1057.1,819.1,1023.3,879,1018.8,887.4z"/>
	
		<ellipse transform="matrix(0.9782 -0.2076 0.2076 0.9782 -156.3946 251.0616)" style="fill:#895540;" cx="1118.2" cy="870.8" rx="55" ry="56.7"/>
	<path style="fill:none;stroke:#39393A;stroke-width:10;stroke-miterlimit:10;" d="M1226.6,853.3c-48.2-40.2-110.5-49.7-156.2-24.6
		c-31,17-45.7,45.1-51.6,58.8"/>
	<line style="fill:none;stroke:#39393A;stroke-width:7;stroke-miterlimit:10;" x1="1190.3" y1="830.1" x2="1198.1" y2="812.4"/>
	<line style="fill:none;stroke:#39393A;stroke-width:7;stroke-miterlimit:10;" x1="1202.1" y1="835.9" x2="1211.2" y2="818.8"/>
	<line style="fill:none;stroke:#39393A;stroke-width:7;stroke-miterlimit:10;" x1="1213.9" y1="842.5" x2="1223.7" y2="825.8"/>
</g>
<g id="INSTA">
	<path style="fill:#E36450;" d="M1468,310.6h317.6c55.4,0,100.3,44.9,100.3,100.3v0c0,55.4-44.9,100.3-100.3,100.3H1468
		c-55.4,0-100.3-44.9-100.3-100.3v0C1367.7,355.5,1412.6,310.6,1468,310.6z"/>
	<path style="fill:#E36450;" d="M1621.9,581.6L1621.9,581.6c-14.9-30.5-29.7-60.9-44.6-91.4h91.4L1621.9,581.6z"/>
	<path style="fill:#FFFFFF;" d="M1764.3,348.2c-12.9,0-25.1,6.3-32.4,17l-1.5,1.9l-1-1.3c-7.1-11-19.3-17.6-32.4-17.6
		c-22.4,0-38.7,16.3-38.7,38.7c0,33.1,60,81.9,64.3,85.4c4.3,4.1,11,4.1,15.3,0c4.4-3.5,65.2-53.1,65.2-85.4
		C1803,364.4,1786.7,348.2,1764.3,348.2z"/>
	<path style="fill:none;stroke:#FFFFFF;stroke-width:10;stroke-miterlimit:10;" d="M1533.2,348.2c-36.4,0-66,26.6-66,59.4
		c0,11.5,3.7,22.8,10.5,32.1c-1.3,14.4-4.8,25.1-9.8,30.1c-0.9,0.9-0.9,2.2,0,3.1c0.4,0.4,1,0.7,1.6,0.6h0.3
		c0.9-0.1,21.6-3.1,36.6-11.8c8.6,3.4,17.7,5.2,26.9,5.2c36.4,0,66-26.6,66-59.4S1569.6,348.2,1533.2,348.2z"/>
</g>
</svg>
