<?xml version="1.0" encoding="utf-8"?>
<!-- Generator: Adobe Illustrator 24.3.0, SVG Export Plug-In . SVG Version: 6.00 Build 0)  -->
<svg version="1.1" id="Layer_1" xmlns="http://www.w3.org/2000/svg" xmlns:xlink="http://www.w3.org/1999/xlink" x="0px" y="0px"
	 viewBox="0 0 1920 1920" style="enable-background:new 0 0 1920 1920;" xml:space="preserve">
<g id="BACKGROUND">
	<rect x="-52.7" y="-52.7" style="fill:#E9D758;" width="2025.5" height="2025.5"/>
</g>
<g id="_2ND_BACK">
	<path style="fill:#F9E46E;" d="M163.2,1754.4h185.5c52.8,0,95.6-52,95.6-116.2s-42.8-116.2-95.6-116.2h-63.8
		c-52.8,0-95.6-52-95.6-116.2s42.8-116.2,95.6-116.2h382.6c52.8,0,95.7-52,95.7-116.2s-42.8-116.2-95.7-116.2H24
		c-52.8,0-95.6-52-95.6-116.2S-28.8,825.2,24,825.2h458c52.8,0,95.6-52,95.6-116.2S534.8,592.9,482,592.9H308.1
		c-52.8,0-95.6-52-95.6-116.1s42.8-116.1,95.6-116.1h382.6c52.8,0,95.7-52,95.7-116.2s-42.8-116.1-95.7-116.1h-58
		c-52.8,0-95.7-52-95.7-116.2S579.9-104,632.7-104h579.7c52.8,0,95.7,52,95.7,116.2s-42.8,116.2-95.7,116.2h-34.8
		c-52.8,0-95.7,52-95.7,116.1s42.8,116.2,95.7,116.2h63.8c52.8,0,95.6,52,95.6,116.1s-42.8,116.1-95.6,116.1h11.6
		c-52.8,0-95.7,52-95.7,116.2s42.8,116.2,95.7,116.2h631.9c52.8,0,95.7,52,95.7,116.2s-42.8,116.2-95.7,116.2h-162.3
		c-52.8,0-95.7,52-95.7,116.2s42.8,116.2,95.7,116.2h23.2c52.8,0,95.7,52,95.7,116.2s-42.8,116.2-95.7,116.2H1311
		c-52.8,0-95.7,52-95.7,116.2s42.8,116.2,95.7,116.2h220.3c52.8,0,95.7,52,95.7,116.2s-42.8,116.2-95.7,116.2h-1368
		c-52.8,0-95.7-52-95.7-116.2s42.8-116.2,95.6-116.2L163.2,1754.4z"/>
</g>
<g id="ELEMENTS">
	<path style="fill:none;stroke:#333333;stroke-width:10;stroke-miterlimit:10;" d="M1370.3,1476.6l-875.6,3.1
		c39.5-53,85-133,81.9-229.1c-2.5-76.4-33.5-104.9-51.5-179.7c-42.6-177.5,58.9-342.1,69.3-358.4
		c74.3-116.9,226.7-239.5,410.5-226.1c122.5,8.9,273.4,79.2,321.5,202c1.5,3.8,6.2,24.6,15.6,66.3c31,137.3,46.6,206,49.1,281.2
		c1.5,44-1.8,57.3,4.2,95.1c9.5,59.7,27.9,91.6,36.2,119C1445,1294.5,1443.8,1365.1,1370.3,1476.6z"/>
	<path style="fill:#97B7C3;" d="M1440.5,1554.9L1440.5,1554.9c94.6-10.5,179.8,57.7,190.3,152.3l35.3,318
		c10.5,94.6-57.7,179.8-152.3,190.3l0,0c-94.6,10.5-179.8-57.7-190.3-152.3l-35.3-318C1277.7,1650.6,1345.9,1565.4,1440.5,1554.9z"
		/>
	<path style="fill:#97B7C3;" d="M517.2,1560.6L517.2,1560.6c93,20.2,152.1,112,131.9,205l-67.9,312.7c-20.2,93-112,152.1-205,131.9
		l0,0c-93-20.2-152.1-112-131.9-205l67.9-312.7C332.4,1599.4,424.1,1540.4,517.2,1560.6z"/>
	<path style="fill:#333333;" d="M1333.2,1476.7l-823.1,5.5c37.6-50.1,83.2-128,81.7-223.2c-1.2-75.9-31.6-116.6-49.7-180.2
		c-21.6-75.7-28.3-193.3,52.3-366.3C669.9,554,823.3,453.8,984.5,458.2c161.6,4.4,316.4,113.4,362.5,246c6.7,19.2,9.4,35,14.9,66.5
		c20.1,115-0.6,212.9,2.2,326.2c0.3,20.1,2.9,40.2,7.5,59.8c7.2,30.2,16.8,42.7,24.6,65.2c13.2,38.2,10.5,71.5,8.6,94.9
		C1398.4,1397,1352.3,1455,1333.2,1476.7z"/>
	<path style="fill:#1A1A1A;" d="M1494.7,2390.4l-1048-4c23.6-274.6,47.2-549.3,70.8-823.9c289.3-110.6,609.2-110.6,898.5,0
		C1442.2,1838.5,1468.5,2114.5,1494.7,2390.4z"/>
	<path style="fill:#EAD1C2;" d="M1125.6,1471.2c10.8,104.4-73.6,190.6-164.6,187.7c-87.5-2.8-164.4-87.5-153.7-187.7v-318.3h318.3
		L1125.6,1471.2z"/>
	<path style="fill:#39393A;" d="M1125.6,1239c7.3-3.8-89.6,54.7-194.5,131.3c-43,31.4-84.3,65.1-123.8,100.8V1239
		C907,1291,1025.9,1291,1125.6,1239z"/>
	<circle style="fill:#EAD1C2;" cx="966.5" cy="934" r="343.7"/>
	<circle style="fill:#EAD1C2;" cx="594.9" cy="919.2" r="96.9"/>
	<circle style="fill:#EAD1C2;" cx="1344.3" cy="927.2" r="96.9"/>
	
		<ellipse transform="matrix(0.9957 -9.271816e-02 9.271816e-02 0.9957 -73.2981 80.7071)" style="fill:#39393A;" cx="831.9" cy="829.2" rx="83.2" ry="14.4"/>
	
		<ellipse transform="matrix(8.315601e-02 -0.9965 0.9965 8.315601e-02 191.3836 1868.6996)" style="fill:#39393A;" cx="1111.3" cy="830.3" rx="14.4" ry="83.2"/>
	
		<ellipse transform="matrix(0.9999 -1.221700e-02 1.221700e-02 0.9999 -14.2246 11.9982)" style="opacity:0.5;fill:#FF8552;enable-background:new    ;" cx="974.9" cy="1170.3" rx="68.5" ry="20.5"/>
	<path style="fill:none;stroke:#39393A;stroke-width:5;stroke-miterlimit:10;" d="M877,1155.3c64.9,14.7,132.4,13.9,197-2.4"/>
	<path style="fill:#39393A;" d="M970,893.9c1.2,18.3,1.8,36.6,1.9,55s-0.4,36.6-1.5,54.7c-0.6,10.3-1.4,20.6-2.3,30.9
		c0,1.7,1.3,3,3,3c1.6,0,3-1.4,3-3c1.7-18.2,2.8-36.5,3.4-54.9c0.6-18.2,0.6-36.5,0-54.7c-0.3-10.3-0.8-20.7-1.5-31c0-1.6-1.4-3-3-3
		C971.3,890.9,970,892.2,970,893.9z"/>
	<path style="fill:#39393A;" d="M971.6,1037.4l41.5-2c1.6,0,3-1.4,3-3c0-1.7-1.3-3-3-3l-41.5,2c-1.6,0-3,1.4-3,3
		C968.6,1036.1,970,1037.4,971.6,1037.4z"/>
	<path style="fill:#39393A;" d="M1010.7,1031.1c-11.4,12.5-22.6,25.1-33.6,37.9c-3.2,3.6-6.3,7.3-9.4,11c-1.1,1.2-1.1,3.1,0,4.2
		c1.2,1.2,3.1,1.2,4.2,0c10.9-12.9,22-25.6,33.3-38.2c3.2-3.6,6.4-7.2,9.7-10.7c1.1-1.2,1.1-3.1,0-4.3
		C1013.8,1030,1011.9,1030,1010.7,1031.1L1010.7,1031.1z"/>
	<circle style="opacity:0.25;fill:#FF8552;enable-background:new    ;" cx="752.1" cy="1064.9" r="60.2"/>
	<circle style="opacity:0.25;fill:#FF8552;enable-background:new    ;" cx="1179.3" cy="1072.9" r="60.2"/>
	
		<ellipse transform="matrix(0.8173 -0.5761 0.5761 0.8173 -229.1438 573.4839)" style="fill:#333333;" cx="789.9" cy="648.1" rx="229.6" ry="124.9"/>
	
		<ellipse transform="matrix(0.5972 -0.8021 0.8021 0.5972 -59.0092 1191.595)" style="fill:#333333;" cx="1156.9" cy="654.6" rx="123.4" ry="226.6"/>
	<path style="fill:#4D4D4D;" d="M923,564.2c2.4,0.9-25.8,151.8-132.4,191.2c-65.8,24.3-134.8-3.6-134-8.7s72,16.2,140.8-16.1
		C895,684.9,920.8,563.4,923,564.2z"/>
	<path style="fill:#4D4D4D;" d="M1330,752.3c0.2,2.7-149.7,30.2-230.9-60.9c-50.1-56.3-53.9-135-49-136s15.8,77.3,74.5,133.7
		C1207.8,769,1329.8,749.9,1330,752.3z"/>
	<line style="fill:none;stroke:#39393A;stroke-width:5;stroke-miterlimit:10;" x1="882.5" y1="1141.9" x2="871.5" y2="1168.3"/>
	<line style="fill:none;stroke:#39393A;stroke-width:5;stroke-miterlimit:10;" x1="1069.6" y1="1140.3" x2="1077.8" y2="1165.8"/>
	<path style="fill:#97B7C3;" d="M446.7,2210.7h287.9v-709.5l-279.4,57.3C452.3,1775.9,449.5,1993.3,446.7,2210.7z"/>
	<path style="fill:#97B7C3;" d="M1477.1,2210.7h-278.1v-709.5l278.1,53.6V2210.7z"/>
	<circle style="fill:#39393A;" cx="1272.2" cy="1732" r="32.6"/>
	<circle style="fill:#39393A;" cx="1271.7" cy="1885.3" r="32.6"/>
	<rect x="622.7" y="1685" style="fill:#39393A;" width="79.1" height="19.4"/>
	<rect x="622.7" y="1828.6" style="fill:#39393A;" width="79.1" height="19.4"/>
	<path style="fill:none;stroke:#FFFFFF;stroke-width:10;stroke-miterlimit:10;" d="M951.9,1695.6c-7.6,1.3-84.2,13.5-142.5-43.5
		c-53.2-52-48.9-120.2-48.1-129.7c1.8-48.3,17.3-95.1,44.5-135.1c7.3,25.1,26.7,78.1,76.8,123.7c25.6,23.2,55.6,41.3,88.1,53.1
		c-11.4,26.7-18.1,55.2-20,84.2C949.6,1664.1,950,1680,951.9,1695.6z"/>
	<path style="fill:none;stroke:#FFFFFF;stroke-width:10;stroke-miterlimit:10;" d="M982.2,1696.3c9.3,1.3,85.6,11,142-44.1
		c0,0,52.5-50.6,49.3-129.7c-0.9-22.7-4.9-45.2-11.8-66.8c-7.8-24.3-19.2-47.3-33.8-68.3c-5.7,18.8-13.3,37-22.9,54.2
		c-3.7,6.7-21.5,37.7-55.8,69.5c-23.3,21.6-49.9,39.5-78.6,53C983.2,1607,987.2,1651.9,982.2,1696.3L982.2,1696.3z"/>
	<path style="fill:none;stroke:#D8C3B8;stroke-width:5;stroke-miterlimit:10;" d="M715,912.3c47.7-40.2,109.5-49.7,154.8-24.6
		c30.7,17,45.2,45.1,51.1,58.8"/>
	<path style="fill:none;stroke:#D8C3B8;stroke-width:5;stroke-miterlimit:10;" d="M1013.1,941.1c32.9-53,88.7-81.1,139.6-71.3
		c34.5,6.7,57,28.9,66.8,40.1"/>
	<line style="fill:none;stroke:#39393A;stroke-width:7;stroke-miterlimit:10;" x1="725.6" y1="934.1" x2="709.2" y2="944.3"/>
	<line style="fill:none;stroke:#39393A;stroke-width:7;stroke-miterlimit:10;" x1="732.3" y1="944.5" x2="718.9" y2="955.8"/>
	<line style="fill:none;stroke:#39393A;stroke-width:7;stroke-miterlimit:10;" x1="740.2" y1="955.8" x2="729.1" y2="967.8"/>
	<path style="fill:#FFFFFF;" d="M918,955.8c0,0-59.2,48-112.2,38.9c-50.9-8.7-91.2-69.2-93.7-73.1l0,0c16-12.3,33.9-21.9,53-28.6
		c11.2-3.9,35.3-12.3,59.2-10.3C880.1,887.5,913.5,947.4,918,955.8z"/>
	
		<ellipse transform="matrix(0.1602 -0.9871 0.9871 0.1602 -238.836 1597.7305)" style="fill:#80A9B2;" cx="819.6" cy="939.2" rx="56.7" ry="54.5"/>
	<path style="fill:none;stroke:#39393A;stroke-width:10;stroke-miterlimit:10;" d="M712.1,921.6c47.7-40.2,109.5-49.6,154.8-24.6
		c30.7,17,45.2,45.1,51.1,58.8"/>
	<line style="fill:none;stroke:#39393A;stroke-width:7;stroke-miterlimit:10;" x1="748.1" y1="898.5" x2="740.4" y2="880.8"/>
	<line style="fill:none;stroke:#39393A;stroke-width:7;stroke-miterlimit:10;" x1="736.4" y1="904.3" x2="727.4" y2="887.1"/>
	<line style="fill:none;stroke:#39393A;stroke-width:7;stroke-miterlimit:10;" x1="724.7" y1="910.9" x2="715" y2="894.2"/>
	<line style="fill:none;stroke:#39393A;stroke-width:7;stroke-miterlimit:10;" x1="1213.9" y1="929.3" x2="1230.6" y2="939.5"/>
	<line style="fill:none;stroke:#39393A;stroke-width:7;stroke-miterlimit:10;" x1="1207.2" y1="939.7" x2="1220.7" y2="951"/>
	<line style="fill:none;stroke:#39393A;stroke-width:7;stroke-miterlimit:10;" x1="1199.2" y1="951" x2="1210.4" y2="963"/>
	<path style="fill:#FFFFFF;" d="M1019.7,951c0,0,59.8,48,113.3,38.9c51.4-8.7,92.1-69.2,94.5-73.1l0,0c-16.2-12.3-34.3-22-53.6-28.6
		c-11.3-3.9-35.7-12.3-59.8-10.3C1058,882.7,1024.3,942.6,1019.7,951z"/>
	
		<ellipse transform="matrix(0.9782 -0.2076 0.2076 0.9782 -169.577 252.6509)" style="fill:#80A9B2;" cx="1119.1" cy="934.4" rx="55" ry="56.7"/>
	<path style="fill:none;stroke:#39393A;stroke-width:10;stroke-miterlimit:10;" d="M1227.6,916.9c-48.2-40.2-110.5-49.7-156.2-24.6
		c-31,17-45.7,45.1-51.6,58.8"/>
	<line style="fill:none;stroke:#39393A;stroke-width:7;stroke-miterlimit:10;" x1="1191.3" y1="893.7" x2="1199" y2="876"/>
	<line style="fill:none;stroke:#39393A;stroke-width:7;stroke-miterlimit:10;" x1="1203.1" y1="899.5" x2="1212.2" y2="882.3"/>
	<line style="fill:none;stroke:#39393A;stroke-width:7;stroke-miterlimit:10;" x1="1214.9" y1="906.1" x2="1224.6" y2="889.4"/>
	<path style="fill:none;stroke:#39393A;stroke-width:7;stroke-miterlimit:10;" d="M1400.5,891c-8.9,0.3-40.1,2.6-67.7,26.8
		c-17.6,15.5-29.7,36.3-34.4,59.3"/>
	<line style="fill:none;stroke:#39393A;stroke-width:7;stroke-miterlimit:10;" x1="1388.7" y1="951.5" x2="1330.3" y2="921.2"/>
	<path style="fill:none;stroke:#39393A;stroke-width:7;stroke-miterlimit:10;" d="M537.8,888.6c8.9,0.3,40.3,2.6,68,26.8
		c17.7,15.5,29.8,36.3,34.5,59.3"/>
	<line style="fill:none;stroke:#39393A;stroke-width:7;stroke-miterlimit:10;" x1="549.8" y1="949.1" x2="608.3" y2="918.8"/>
	<path style="fill:#4D4D4D;" d="M660.5,1463.6l-43.7-1.1c49.2-99.6,51.9-215.8,7.5-317.7c15.6,17.2,72.2,83.6,72.6,182.9
		C697.2,1392.2,673.7,1440.6,660.5,1463.6z"/>
	<path style="fill:#4D4D4D;" d="M1301.4,1456.4l-43.7-1.1c44.5-91.8,51.3-197.3,19.1-294.1c17.4,20.1,31.3,42.8,41.3,67.5
		C1359.8,1332.3,1313.3,1432.5,1301.4,1456.4z"/>
	<path style="fill:#2C4455;stroke:#333333;stroke-width:9;stroke-miterlimit:10;" d="M1344.3,712.9c-76.2-26.6-206-62.5-372-63.3
		c-171.9-0.8-306.1,36.4-383.2,63.3c-5.2-56.4-16.5-243.3,92.4-333c8.7-7.1,17.8-13.7,27.2-19.9c92.7-59.8,199.8-57.7,268.8-56.4
		c66.6,1.3,160.7,3.1,244.8,57.3c11.9,7.8,23.2,16.3,34,25.5C1363.3,479.7,1348.5,669.4,1344.3,712.9z"/>
	<path style="fill:#2C4455;stroke:#333333;stroke-width:9;stroke-miterlimit:10;" d="M1424.8,806.2c-309-47.1-623.4-47.4-932.5-0.8
		l96.8-112.3c83-36.8,216.2-82.1,383.2-81.5c163.9,0.5,294.8,45,377.2,81.5L1424.8,806.2z"/>
	<path style="fill:#333333;" d="M510.1,1920h-15.4v-369.6l15.4-3.2L510.1,1920z"/>
	<path style="fill:#333333;" d="M1441.7,1920h-15.4v-374.9l15.4,2.9L1441.7,1920z"/>
	
		<rect x="106.8" y="114.5" style="fill:none;stroke:#FF8552;stroke-width:15;stroke-miterlimit:10;" width="1692.8" height="1692.8"/>
	<rect x="106.8" y="106.6" style="fill:#FF8552;" width="1692.8" height="76.2"/>
	<circle style="fill:#FCEE21;" cx="1652.9" cy="142.7" r="23.7"/>
	<circle style="fill:#97B7C3;" cx="1726.5" cy="142.7" r="23.7"/>
	<circle style="fill:#39393A;" cx="1578.9" cy="142.7" r="23.7"/>
	<rect x="106.8" y="1725.1" style="fill:#FF8552;" width="1692.8" height="76.2"/>
	<ellipse style="fill:#FFFFFF;" cx="969.6" cy="478.1" rx="38.4" ry="96.4"/>
	
		<ellipse transform="matrix(0.6427 -0.7662 0.7662 0.6427 -15.7219 959.5731)" style="fill:#FFFFFF;" cx="1020.8" cy="496.6" rx="96.4" ry="38.4"/>
	
		<ellipse transform="matrix(0.764 -0.6452 0.6452 0.764 -102.8991 711.7952)" style="fill:#FFFFFF;" cx="921.6" cy="496.6" rx="38.4" ry="96.4"/>
</g>
<g id="INSTA">
	<path style="fill:#E36450;" d="M265.3,419.9h317.6c55.4,0,100.3,44.9,100.3,100.3v0c0,55.4-44.9,100.3-100.3,100.3H265.3
		c-55.4,0-100.3-44.9-100.3-100.3v0C165,464.8,209.9,419.9,265.3,419.9z"/>
	<path style="fill:#E36450;" d="M419.2,690.9L419.2,690.9l-44.6-91.4H466L419.2,690.9z"/>
	<path style="fill:#FFFFFF;" d="M561.6,457.5c-12.9,0-25.1,6.3-32.4,17l-1.5,1.9l-1-1.3c-7.1-11-19.3-17.6-32.4-17.6
		c-22.4,0-38.7,16.3-38.7,38.7c0,33.1,60,81.9,64.3,85.4c4.3,4.1,11,4.1,15.3,0c4.4-3.5,65.2-53.1,65.2-85.4
		C600.3,473.8,584,457.5,561.6,457.5z"/>
	<path style="fill:none;stroke:#FFFFFF;stroke-width:10;stroke-miterlimit:10;" d="M330.5,457.5c-36.4,0-66,26.6-66,59.4
		c0.1,11.5,3.7,22.8,10.5,32.1c-1.3,14.4-4.8,25-9.8,30.1c-0.9,0.9-0.9,2.3,0,3.1c0.4,0.4,1,0.6,1.5,0.6c0.1,0,0.2,0,0.3,0
		c0.9-0.1,21.6-3.1,36.5-11.7c8.6,3.4,17.7,5.2,26.9,5.2c36.4,0,66-26.6,66-59.4S366.9,457.5,330.5,457.5z"/>
</g>
</svg>
