<svg xmlns="http://www.w3.org/2000/svg" viewBox="0 0 1920 1920"><defs><style>.cls-1{fill:#e9d758;}.cls-2{fill:#f9e46e;}.cls-10,.cls-13,.cls-14,.cls-15,.cls-18,.cls-20,.cls-3{fill:none;}.cls-19,.cls-3{stroke:#333;}.cls-10,.cls-13,.cls-14,.cls-15,.cls-18,.cls-19,.cls-20,.cls-3{stroke-miterlimit:10;}.cls-13,.cls-18,.cls-3{stroke-width:10px;}.cls-4{fill:#97b7c3;}.cls-5{fill:#333;}.cls-6{fill:#1a1a1a;}.cls-7{fill:#ead1c2;}.cls-8{fill:#39393a;}.cls-11,.cls-21,.cls-9{fill:#ff8552;}.cls-9{opacity:0.5;}.cls-10,.cls-15,.cls-18{stroke:#39393a;}.cls-10,.cls-14{stroke-width:5px;}.cls-11{opacity:0.25;}.cls-12{fill:#4d4d4d;}.cls-13{stroke:#fff;}.cls-14{stroke:#d8c3b8;}.cls-15{stroke-width:7px;}.cls-16{fill:#fff;}.cls-17{fill:#80a9b2;}.cls-19{fill:#2c4455;stroke-width:9px;}.cls-20{stroke:#ff8552;stroke-width:15px;}.cls-22{fill:#fcee21;}.cls-23{fill:#e36450;}</style></defs><g id="BACKGROUND"><rect class="cls-1" x="-52.73" y="-52.73" width="2025.47" height="2025.47"/></g><g id="_2ND_BACK" data-name="2ND BACK"><path class="cls-2" d="M163.17,1754.42h185.5c52.82,0,95.65-52,95.65-116.16s-42.83-116.15-95.65-116.15H284.91c-52.82,0-95.65-52-95.65-116.15s42.83-116.16,95.65-116.16H667.49c52.83,0,95.65-52,95.65-116.15s-42.82-116.15-95.65-116.15H24c-52.82,0-95.64-52-95.64-116.16S-28.78,825.19,24,825.19H482c52.82,0,95.64-52,95.64-116.15S534.82,592.88,482,592.88H308.09c-52.83,0-95.65-52-95.65-116.15s42.82-116.15,95.65-116.15H690.67c52.82,0,95.65-52,95.65-116.16s-42.83-116.15-95.65-116.15h-58c-52.83,0-95.65-52-95.65-116.16S579.88-104,632.71-104h579.68c52.82,0,95.65,52,95.65,116.15s-42.83,116.16-95.65,116.16h-34.78c-52.82,0-95.65,52-95.65,116.15s42.83,116.16,95.65,116.16h63.77c52.82,0,95.64,52,95.64,116.15s-42.82,116.15-95.64,116.15H1253c-52.82,0-95.65,52-95.65,116.16s42.83,116.15,95.65,116.15h631.86c52.82,0,95.65,52,95.65,116.15s-42.83,116.16-95.65,116.16h-162.3c-52.82,0-95.65,52-95.65,116.15s42.83,116.15,95.65,116.15h23.18c52.83,0,95.65,52,95.65,116.16s-42.82,116.15-95.65,116.15H1311c-52.82,0-95.65,52-95.65,116.15s42.83,116.16,95.65,116.16h220.28c52.82,0,95.65,52,95.65,116.15s-42.83,116.15-95.65,116.15h-1368c-52.83,0-95.66-52-95.66-116.15s42.83-116.15,95.65-116.15Z"/></g><g id="ELEMENTS"><path class="cls-3" d="M1370.28,1476.56l-875.61,3.1c39.47-53,85-133,81.88-229.09-2.48-76.44-33.53-104.86-51.47-179.66C482.51,893.46,584,728.82,594.37,712.5c74.32-116.93,226.74-239.45,410.55-226.12,122.53,8.89,273.36,79.19,321.46,202,1.47,3.75,6.17,24.61,15.6,66.33,31,137.34,46.57,206,49.08,281.24,1.47,44-1.8,57.25,4.21,95.14,9.47,59.74,27.88,91.64,36.23,119C1445,1294.49,1443.77,1365.05,1370.28,1476.56Z"/><rect class="cls-4" x="1304.69" y="1552.98" width="344.72" height="664.68" rx="172.36" transform="translate(-198.76 174.24) rotate(-6.33)"/><rect class="cls-4" x="274.35" y="1552.98" width="344.72" height="664.68" rx="172.36" transform="translate(410.13 -51.85) rotate(12.25)"/><path class="cls-5" d="M1333.19,1476.69l-823.11,5.5c37.62-50.09,83.17-128,81.66-223.23-1.2-75.91-31.6-116.58-49.7-180.16-21.56-75.74-28.31-193.28,52.33-366.3C669.93,554,823.29,453.84,984.55,458.21c161.65,4.39,316.36,113.38,362.54,246,6.68,19.19,9.43,34.95,14.94,66.48,20.08,115-.56,212.94,2.2,326.16a278.8,278.8,0,0,0,7.54,59.75c7.24,30.22,16.84,42.71,24.6,65.15,13.22,38.22,10.5,71.53,8.6,94.92C1398.42,1397,1352.35,1455,1333.19,1476.69Z"/><path class="cls-6" d="M1494.67,2390.44l-1048-4q35.39-411.94,70.78-823.9a1258.17,1258.17,0,0,1,898.5,0Q1455.34,1976.47,1494.67,2390.44Z"/><path class="cls-7" d="M1125.62,1471.23C1136.4,1575.67,1052,1661.84,961,1658.88c-87.47-2.85-164.39-87.5-153.7-187.65V1152.89h318.34Z"/><path class="cls-8" d="M1125.62,1239c7.27-3.79-89.64,54.72-194.54,131.34a1512.41,1512.41,0,0,0-123.8,100.85V1239a344.31,344.31,0,0,0,318.34,0Z"/><circle class="cls-7" cx="966.45" cy="934" r="343.74"/><circle class="cls-7" cx="594.94" cy="919.24" r="96.92"/><circle class="cls-7" cx="1344.27" cy="927.19" r="96.92"/><ellipse class="cls-8" cx="831.98" cy="829.14" rx="83.19" ry="14.38" transform="translate(-73.34 80.77) rotate(-5.32)"/><ellipse class="cls-8" cx="1111.18" cy="830.27" rx="14.38" ry="83.19" transform="translate(191.46 1868.63) rotate(-85.23)"/><ellipse class="cls-9" cx="975.04" cy="1170.2" rx="68.46" ry="20.53" transform="translate(-14.32 12.08) rotate(-0.7)"/><path class="cls-10" d="M877,1155.31a422.49,422.49,0,0,0,197-2.42"/><path class="cls-8" d="M970,893.89q1.79,27.45,1.89,55t-1.47,54.73q-.9,15.46-2.32,30.88a3,3,0,0,0,3,3,3.06,3.06,0,0,0,3-3q2.52-27.37,3.38-54.89.84-27.36,0-54.74Q977,909.35,976,893.89a3.08,3.08,0,0,0-3-3,3,3,0,0,0-3,3Z"/><path class="cls-8" d="M971.62,1037.44l41.48-2a3.07,3.07,0,0,0,3-3,3,3,0,0,0-3-3l-41.48,2a3.06,3.06,0,0,0-3,3,3,3,0,0,0,3,3Z"/><path class="cls-8" d="M1010.74,1031.11q-17.06,18.73-33.61,37.91-4.73,5.46-9.39,11a3.08,3.08,0,0,0,0,4.24,3,3,0,0,0,4.24,0q16.41-19.31,33.32-38.16,4.82-5.38,9.68-10.71a3.08,3.08,0,0,0,0-4.25,3,3,0,0,0-4.24,0Z"/><circle class="cls-11" cx="752.09" cy="1064.9" r="60.23"/><circle class="cls-11" cx="1179.35" cy="1072.88" r="60.23"/><ellipse class="cls-5" cx="789.9" cy="648.08" rx="229.58" ry="124.93" transform="translate(-229.11 573.53) rotate(-35.18)"/><ellipse class="cls-5" cx="1156.96" cy="654.64" rx="123.4" ry="226.6" transform="translate(-59.11 1191.58) rotate(-53.33)"/><path class="cls-12" d="M923,564.19c2.42.9-25.84,151.78-132.41,191.17-65.76,24.31-134.85-3.62-134-8.65s72,16.15,140.83-16.12C895,684.88,920.85,563.38,923,564.19Z"/><path class="cls-12" d="M1330,752.35c.21,2.73-149.66,30.22-230.89-60.93-50.13-56.25-53.93-135-49-136s15.79,77.27,74.51,133.68C1207.85,769,1329.83,749.89,1330,752.35Z"/><line class="cls-10" x1="882.52" y1="1141.95" x2="871.55" y2="1168.28"/><line class="cls-10" x1="1069.57" y1="1140.3" x2="1077.8" y2="1165.78"/><path class="cls-4" d="M446.71,2210.67H734.57V1501.19l-279.44,57.3Q450.92,1884.58,446.71,2210.67Z"/><path class="cls-4" d="M1477.05,2210.67H1198.92V1501.19l278.13,53.64Z"/><circle class="cls-8" cx="1272.15" cy="1732.04" r="32.56"/><circle class="cls-8" cx="1271.74" cy="1885.32" r="32.56"/><rect class="cls-8" x="622.71" y="1685.04" width="79.12" height="19.42"/><rect class="cls-8" x="622.71" y="1828.61" width="79.12" height="19.42"/><path class="cls-13" d="M951.92,1695.64c-7.57,1.34-84.21,13.51-142.53-43.46-53.19-52-48.9-120.21-48.14-129.65a257.37,257.37,0,0,1,44.48-135.11c7.34,25.07,26.67,78.11,76.76,123.67a266,266,0,0,0,88.1,53.06,258.13,258.13,0,0,0-20,84.21A254.91,254.91,0,0,0,951.92,1695.64Z"/><path class="cls-13" d="M982.18,1696.32c9.35,1.34,85.56,11,142-44.08,0,0,52.46-50.58,49.35-129.65a252.17,252.17,0,0,0-11.79-66.85,255.19,255.19,0,0,0-33.81-68.26,271.49,271.49,0,0,1-22.9,54.15c-3.71,6.66-21.49,37.72-55.78,69.52a309.5,309.5,0,0,1-78.63,53,336.24,336.24,0,0,1,11.59,132.17Z"/><path class="cls-14" d="M715,912.27c47.7-40.18,109.45-49.69,154.77-24.64,30.72,17,45.23,45.07,51.1,58.8"/><path class="cls-14" d="M1013.13,941.07c32.93-53,88.7-81.11,139.55-71.31,34.47,6.65,57,28.86,66.79,40.11"/><line class="cls-15" x1="725.61" y1="934.09" x2="709.16" y2="944.28"/><line class="cls-15" x1="732.32" y1="944.49" x2="718.91" y2="955.81"/><line class="cls-15" x1="740.21" y1="955.81" x2="729.11" y2="967.82"/><path class="cls-16" d="M918,955.81s-59.23,48-112.22,38.91c-50.94-8.71-91.22-69.23-93.65-73.07h0a191.52,191.52,0,0,1,53-28.63c11.19-3.9,35.31-12.32,59.2-10.28C880.07,887.5,913.46,947.39,918,955.81Z"/><ellipse class="cls-17" cx="819.54" cy="939.19" rx="56.7" ry="54.5" transform="translate(-238.79 1597.7) rotate(-80.78)"/><path class="cls-18" d="M712.13,921.64C759.83,881.47,821.58,872,866.9,897c30.73,17,45.24,45.07,51.1,58.8"/><line class="cls-15" x1="748.09" y1="898.52" x2="740.38" y2="880.75"/><line class="cls-15" x1="736.4" y1="904.27" x2="727.37" y2="887.14"/><line class="cls-15" x1="724.7" y1="910.91" x2="715.02" y2="894.15"/><line class="cls-15" x1="1213.95" y1="929.3" x2="1230.56" y2="939.5"/><line class="cls-15" x1="1207.18" y1="939.7" x2="1220.71" y2="951.02"/><line class="cls-15" x1="1199.21" y1="951.02" x2="1210.41" y2="963.03"/><path class="cls-16" d="M1019.74,951s59.79,48,113.29,38.91c51.42-8.71,92.08-69.23,94.52-73.07h0A193.54,193.54,0,0,0,1174,888.22c-11.3-3.9-35.65-12.32-59.76-10.27C1058,882.71,1024.33,942.6,1019.74,951Z"/><ellipse class="cls-17" cx="1119.13" cy="934.4" rx="55" ry="56.72" transform="translate(-169.57 252.64) rotate(-11.98)"/><path class="cls-18" d="M1227.56,916.86c-48.16-40.18-110.49-49.7-156.23-24.64-31,17-45.67,45.07-51.59,58.8"/><line class="cls-15" x1="1191.26" y1="893.73" x2="1199.04" y2="875.97"/><line class="cls-15" x1="1203.06" y1="899.48" x2="1212.17" y2="882.35"/><line class="cls-15" x1="1214.87" y1="906.13" x2="1224.64" y2="889.36"/><path class="cls-15" d="M1400.54,891c-8.86.33-40.09,2.56-67.74,26.76a107.76,107.76,0,0,0-34.36,59.3"/><line class="cls-15" x1="1388.66" y1="951.49" x2="1330.34" y2="921.16"/><path class="cls-15" d="M537.85,888.61c8.9.33,40.25,2.56,68,26.75a107.69,107.69,0,0,1,34.51,59.3"/><line class="cls-15" x1="549.78" y1="949.12" x2="608.34" y2="918.79"/><path class="cls-12" d="M660.46,1463.56l-43.65-1.09a377.23,377.23,0,0,0,7.5-317.67c15.6,17.19,72.17,83.64,72.61,182.93C697.21,1392.24,673.67,1440.61,660.46,1463.56Z"/><path class="cls-12" d="M1301.4,1456.37l-43.65-1.1a390.93,390.93,0,0,0,19.12-294.06,240.6,240.6,0,0,1,41.29,67.46C1359.75,1332.35,1313.27,1432.5,1301.4,1456.37Z"/><path class="cls-19" d="M1344.27,712.87c-76.15-26.58-206-62.52-371.95-63.31-171.86-.83-306.14,36.41-383.21,63.31-5.23-56.42-16.49-243.26,92.43-333A334.84,334.84,0,0,1,708.74,360c92.66-59.8,199.85-57.7,268.78-56.35,66.63,1.31,160.72,3.15,244.84,57.32a336.12,336.12,0,0,1,34,25.53C1363.26,479.67,1348.52,669.43,1344.27,712.87Z"/><path class="cls-19" d="M1424.81,806.19a3110,3110,0,0,0-932.49-.82l96.79-112.25c83-36.76,216.24-82.07,383.21-81.52,163.88.54,294.78,45,377.17,81.52Z"/><path class="cls-5" d="M510.08,1920H494.67V1550.38l15.41-3.16Z"/><path class="cls-5" d="M1441.68,1920h-15.41l0-374.9,15.43,2.86Z"/><rect class="cls-20" x="106.85" y="114.54" width="1692.79" height="1692.79"/><rect class="cls-21" x="106.85" y="106.58" width="1692.79" height="76.24"/><circle class="cls-22" cx="1652.94" cy="142.74" r="23.74"/><circle class="cls-4" cx="1726.46" cy="142.74" r="23.74"/><circle class="cls-8" cx="1578.9" cy="142.74" r="23.74"/><rect class="cls-21" x="106.85" y="1725.09" width="1692.79" height="76.24"/><ellipse class="cls-16" cx="969.57" cy="478.1" rx="38.42" ry="96.36"/><ellipse class="cls-16" cx="1020.79" cy="496.59" rx="96.36" ry="38.42" transform="translate(-15.67 959.59) rotate(-50.01)"/><ellipse class="cls-16" cx="921.63" cy="496.64" rx="38.42" ry="96.36" transform="translate(-102.96 711.75) rotate(-40.18)"/></g><g id="INSTA"><rect class="cls-23" x="165.01" y="419.89" width="518.13" height="200.57" rx="100.28"/><path class="cls-23" d="M419.19,690.89h0l-44.61-91.38H466Z"/><path class="cls-16" d="M561.57,457.5a39.12,39.12,0,0,0-32.37,17l-1.5,1.91-1-1.28a38.59,38.59,0,0,0-32.44-17.6c-22.44,0-38.72,16.28-38.72,38.71,0,33.12,60,81.93,64.33,85.44a11,11,0,0,0,15.26,0c4.39-3.54,65.16-53.12,65.16-85.44C600.28,473.78,584,457.5,561.57,457.5Z"/><path class="cls-13" d="M330.48,457.5c-36.39,0-66,26.64-66,59.39A55,55,0,0,0,275,549c-1.3,14.38-4.78,25.05-9.84,30.11a2.2,2.2,0,0,0,1.55,3.75,1.56,1.56,0,0,0,.31,0c.89-.12,21.59-3.1,36.55-11.74a71.66,71.66,0,0,0,26.94,5.16c36.38,0,66-26.64,66-59.39S366.86,457.5,330.48,457.5Z"/></g></svg>