<?xml version="1.0" encoding="utf-8"?>
<!-- Generator: Adobe Illustrator 24.3.0, SVG Export Plug-In . SVG Version: 6.00 Build 0)  -->
<svg version="1.1" id="Layer_1" xmlns="http://www.w3.org/2000/svg" xmlns:xlink="http://www.w3.org/1999/xlink" x="0px" y="0px"
	 viewBox="0 0 625 174.5" style="enable-background:new 0 0 625 174.5;" xml:space="preserve">
<style type="text/css">
	.st0{fill:#FFFFFF;}
</style>
<g>
	<g>
		<g>
			<path class="st0" d="M403.8,78.8c-1.4,1.6-3.9,3.3-8.2,3.3c-6.5,0-11.5-4.6-11.5-11.6s5-11.6,11.5-11.6c4.2,0,6.7,1.8,8,3
				l-1.3,2.5c-0.9-1.1-3.4-2.7-6.5-2.7c-4.8,0-8.4,3.5-8.4,8.8c0,5.3,3.5,8.8,8.4,8.8c3,0,5.2-1.1,6.7-2.7L403.8,78.8z"/>
			<path class="st0" d="M413.5,82.1c-4.6,0-8.2-3.2-8.2-8s3.6-8.1,8.2-8.1s8.2,3.3,8.2,8.1C421.7,78.8,418.1,82.1,413.5,82.1z
				 M413.5,68.5c-3.1,0-5,2.4-5,5.4c0,3.1,1.9,5.5,5,5.5s5-2.4,5-5.5C418.5,70.9,416.6,68.5,413.5,68.5z"/>
			<path class="st0" d="M438.4,81.7h-3.2v-8.6c0-2.6-0.5-4.6-3.2-4.6c-2.9,0-4,2.4-4,5.4v7.8h-3.1V66.2h3.1v2.4h0.1
				c0.8-1.5,2.5-2.7,4.7-2.7c4.4,0,5.5,2.9,5.5,6.6v9.2H438.4z"/>
			<path class="st0" d="M451.4,80.7c-1.1,0.9-2.5,1.4-4.3,1.4c-2.6,0-4.7-1.1-6-2.8l1.5-1.8c1.2,1.4,3.1,2.2,4.6,2.2
				c1.4,0,3-0.5,3-2.2s-2.4-2.2-3.5-2.6c-1-0.4-1.4-0.4-2.1-0.8c-1-0.5-2.4-1.5-2.4-3.7c0-2.9,2.5-4.4,5.2-4.4s4.3,1,5.3,2l-1.3,1.9
				c-0.9-0.9-2.4-1.7-3.9-1.7s-2.5,0.6-2.5,1.9s1.5,1.8,3,2.3c0.8,0.3,1.4,0.5,2.1,0.7c0.6,0.3,1.3,0.7,1.8,1.1
				c0.6,0.6,1.2,1.5,1.2,2.9C452.9,78.7,452.4,79.8,451.4,80.7z"/>
			<path class="st0" d="M470,74.7h-11.9c0.2,3.1,2.1,4.9,5,4.9s4.8-1.6,5.1-1.8l1.3,1.8c-0.2,0.2-2.2,2.4-6.8,2.4s-7.7-3.2-7.7-8.1
				s3.5-8,7.8-8s7.3,3.1,7.3,7.4C470.1,73.9,470,74.7,470,74.7z M467.2,72.6c0-1.7-1.3-4.4-4.5-4.4c-3.1,0-4.5,2.6-4.6,4.4H467.2z"
				/>
			<path class="st0" d="M474.9,63.1c-1.2,0-2-0.8-2-1.9c0-1.1,0.8-1.9,2-1.9s2,0.8,2,1.9S476.1,63.1,474.9,63.1z M476.5,81.7h-3.1
				V66.2h3.1V81.7z"/>
			<path class="st0" d="M484.1,81.7H481V59.2h3.1V81.7z"/>
			<path class="st0" d="M510,81.7h-3v-2.5h-0.1c-1.3,1.9-3.2,2.8-5.4,2.8c-4.6,0-7.5-3.5-7.5-8.1s2.9-8,7.5-8c2.5,0,4.3,1.1,5.4,2.7
				h0.1v-9.4h3.1L510,81.7L510,81.7z M502.1,68.5c-3.1,0-4.9,2.3-4.9,5.4s1.8,5.5,4.9,5.5c3.1,0,4.9-2.4,4.9-5.5
				C507,70.8,505.2,68.5,502.1,68.5z"/>
			<path class="st0" d="M528.5,74.7h-11.9c0.2,3.1,2.1,4.9,5,4.9s4.8-1.6,5.1-1.8l1.3,1.8c-0.2,0.2-2.2,2.4-6.8,2.4
				s-7.7-3.2-7.7-8.1s3.5-8,7.8-8s7.3,3.1,7.3,7.4C528.6,73.9,528.5,74.7,528.5,74.7z M525.7,72.6c0-1.7-1.3-4.4-4.5-4.4
				c-3.1,0-4.5,2.6-4.6,4.4H525.7z"/>
			<path class="st0" d="M540.5,80.7c-1.1,0.9-2.5,1.4-4.3,1.4c-2.6,0-4.7-1.1-6-2.8l1.5-1.8c1.2,1.4,3.1,2.2,4.6,2.2
				c1.4,0,3-0.5,3-2.2s-2.4-2.2-3.5-2.6c-1-0.4-1.4-0.4-2.1-0.8c-1-0.5-2.4-1.5-2.4-3.7c0-2.9,2.5-4.4,5.2-4.4s4.3,1,5.3,2l-1.3,1.9
				c-0.9-0.9-2.4-1.7-3.9-1.7s-2.5,0.6-2.5,1.9s1.5,1.8,3,2.3c0.8,0.3,1.4,0.5,2.1,0.7c0.6,0.3,1.3,0.7,1.8,1.1
				c0.6,0.6,1.2,1.5,1.2,2.9C542.1,78.7,541.5,79.8,540.5,80.7z"/>
			<path class="st0" d="M563.7,81.7h-3v-2c-0.6,0.7-2.1,2.3-4.9,2.3c-2.9,0-5.3-1.8-5.3-4.8s2.5-4.6,6.1-4.7l4.1-0.2v-0.6
				c0-2.3-1.6-3.5-3.8-3.5s-4.1,1-4.7,1.3l-0.9-2.1c1.1-0.7,3.2-1.6,5.8-1.6s4.1,0.7,5.1,1.8c1,1.1,1.7,2.4,1.7,5v9.1H563.7z
				 M560.6,74.3l-3.6,0.2c-2.5,0.1-3.5,1.2-3.5,2.7s1.1,2.7,3.2,2.7c2,0,3.4-1.4,3.9-2.2L560.6,74.3L560.6,74.3z"/>
			<path class="st0" d="M576.1,69.1L576.1,69.1c-0.4-0.1-0.9-0.3-1.8-0.3c-1.4,0-2.2,0.9-2.5,1.3s-0.9,1.6-0.9,3.9v7.7h-3.1V66.2
				h3.1v2.4h0.1c0.7-1.8,2.1-2.7,3.8-2.7c1,0,1.6,0.3,1.6,0.3L576.1,69.1z"/>
			<path class="st0" d="M586.1,81.5c0,0-1.2,0.5-2.8,0.5s-2.6-0.6-3.3-1.6c-0.6-1-0.8-2.2-0.8-4.6v-7.1h-2.3v-2.5h2.3v-4.6h3.1v4.6
				h3.7v2.5h-3.7v7c0,1.3,0,2.2,0.4,2.8c0.3,0.5,0.7,0.8,1.6,0.8c0.9,0,1.6-0.4,1.6-0.4L586.1,81.5z"/>
			<path class="st0" d="M597.5,80.7c-1.1,0.9-2.5,1.4-4.3,1.4c-2.6,0-4.7-1.1-6-2.8l1.5-1.8c1.2,1.4,3.1,2.2,4.6,2.2
				c1.4,0,3-0.5,3-2.2s-2.4-2.2-3.5-2.6c-1-0.4-1.4-0.4-2.1-0.8c-1-0.5-2.4-1.5-2.4-3.7c0-2.9,2.5-4.4,5.2-4.4s4.3,1,5.3,2l-1.3,1.9
				c-0.9-0.9-2.4-1.7-3.9-1.7s-2.5,0.6-2.5,1.9s1.5,1.8,3,2.3c0.8,0.3,1.4,0.5,2.1,0.7c0.6,0.3,1.3,0.7,1.8,1.1
				c0.6,0.6,1.2,1.5,1.2,2.9C599.1,78.7,598.5,79.8,597.5,80.7z"/>
			<path class="st0" d="M400,118.3h-3v-2.5h-0.1c-1.3,1.9-3.2,2.8-5.4,2.8c-4.6,0-7.5-3.5-7.5-8.1s2.9-8,7.5-8
				c2.5,0,4.3,1.1,5.4,2.7h0.1v-9.4h3.1v22.5H400z M392.1,105.1c-3.1,0-4.9,2.3-4.9,5.4s1.8,5.5,4.9,5.5s4.9-2.4,4.9-5.5
				S395.2,105.1,392.1,105.1z"/>
			<path class="st0" d="M417.6,118.3h-3v-2.2c-0.8,1.5-2.6,2.6-4.8,2.6c-2.2,0-3.5-0.8-4.3-1.8s-1.1-2.6-1.1-4.8v-9.3h3.1v9.1
				c0,2.1,0.5,4.1,3.2,4.1s3.8-2.3,3.8-4.9v-8.3h3.1L417.6,118.3L417.6,118.3z"/>
			<path class="st0" d="M447.1,115.4c-1.4,1.6-3.9,3.3-8.2,3.3c-6.5,0-11.5-4.6-11.5-11.6s5-11.6,11.5-11.6c4.2,0,6.7,1.8,8,3
				l-1.3,2.5c-0.9-1.1-3.4-2.7-6.5-2.7c-4.9,0-8.4,3.5-8.4,8.8s3.5,8.8,8.4,8.8c3,0,5.2-1.1,6.7-2.7L447.1,115.4z"/>
			<path class="st0" d="M462,118.3h-3v-2c-0.6,0.7-2.1,2.3-4.9,2.3c-2.9,0-5.3-1.8-5.3-4.8s2.5-4.6,6.1-4.7l4.1-0.2v-0.6
				c0-2.3-1.6-3.5-3.8-3.5s-4.1,1-4.7,1.3l-0.9-2.1c1.1-0.6,3.2-1.6,5.8-1.6s4.1,0.7,5.1,1.8c1,1.1,1.7,2.4,1.7,5v9.1H462z
				 M458.9,110.9l-3.6,0.2c-2.5,0.1-3.5,1.2-3.5,2.7s1.1,2.7,3.2,2.7c2,0,3.4-1.4,3.9-2.2L458.9,110.9L458.9,110.9z"/>
			<path class="st0" d="M479.5,118.3h-3.1v-8.6c0-2.6-0.5-4.6-3.2-4.6c-2.9,0-4,2.4-4,5.4v7.8h-3.1v-15.5h3.1v2.4h0.1
				c0.8-1.5,2.5-2.7,4.7-2.7c4.4,0,5.5,2.9,5.5,6.6V118.3z"/>
			<path class="st0" d="M495.6,118.3h-3v-2c-0.6,0.7-2.1,2.3-4.9,2.3c-2.9,0-5.3-1.8-5.3-4.8s2.5-4.6,6.1-4.7l4.1-0.2v-0.6
				c0-2.3-1.6-3.5-3.8-3.5s-4.1,1-4.7,1.3l-0.9-2.1c1.1-0.6,3.2-1.6,5.8-1.6s4.1,0.7,5.1,1.8c1,1.1,1.7,2.4,1.7,5v9.1H495.6z
				 M492.5,110.9l-3.6,0.2c-2.5,0.1-3.5,1.2-3.5,2.7s1.1,2.7,3.2,2.7c2,0,3.4-1.4,3.9-2.2L492.5,110.9L492.5,110.9z"/>
			<path class="st0" d="M514.6,118.3h-3v-2.5h-0.1c-1.3,1.9-3.2,2.8-5.4,2.8c-4.6,0-7.5-3.5-7.5-8.1s2.9-8,7.5-8
				c2.5,0,4.3,1.1,5.4,2.7h0.1v-9.4h3.1L514.6,118.3L514.6,118.3z M506.7,105.1c-3.1,0-4.9,2.3-4.9,5.4s1.8,5.5,4.9,5.5
				c3.1,0,4.9-2.4,4.9-5.5S509.8,105.1,506.7,105.1z"/>
			<path class="st0" d="M531.1,118.3h-3v-2c-0.6,0.7-2.1,2.3-4.9,2.3c-2.9,0-5.3-1.8-5.3-4.8s2.5-4.6,6-4.7l4.1-0.2v-0.6
				c0-2.3-1.6-3.5-3.8-3.5s-4.1,1-4.7,1.3l-0.9-2.1c1.1-0.6,3.2-1.6,5.8-1.6s4.1,0.7,5.1,1.8c1,1.1,1.7,2.4,1.7,5L531.1,118.3
				L531.1,118.3z M528,110.9l-3.6,0.2c-2.5,0.1-3.5,1.2-3.5,2.7s1.1,2.7,3.2,2.7c2,0,3.4-1.4,3.9-2.2L528,110.9L528,110.9z"/>
		</g>
	</g>
	<g>
		<path class="st0" d="M161.5,78.8c-1.4,1.6-3.9,3.3-8.2,3.3c-6.5,0-11.5-4.6-11.5-11.6s5-11.6,11.5-11.6c4.2,0,6.7,1.8,8,3
			l-1.3,2.5c-0.9-1.1-3.4-2.7-6.5-2.7c-4.8,0-8.4,3.5-8.4,8.8c0,5.3,3.5,8.8,8.4,8.8c3,0,5.2-1.1,6.7-2.7L161.5,78.8z"/>
		<path class="st0" d="M176.4,81.7h-3v-2c-0.6,0.7-2.1,2.3-4.9,2.3c-2.9,0-5.3-1.8-5.3-4.8s2.5-4.6,6.1-4.7l4.1-0.2v-0.6
			c0-2.3-1.6-3.5-3.8-3.5s-4.1,1-4.7,1.3l-0.9-2.1c1.1-0.7,3.2-1.6,5.8-1.6c2.6,0,4.1,0.7,5.1,1.8c1,1.1,1.7,2.4,1.7,5v9.1H176.4z
			 M173.3,74.3l-3.6,0.2c-2.5,0.1-3.5,1.2-3.5,2.7s1.1,2.7,3.2,2.7c2,0,3.4-1.4,3.9-2.2V74.3z"/>
		<path class="st0" d="M193.8,81.7h-3.1v-8.6c0-2.6-0.5-4.6-3.2-4.6c-2.9,0-4,2.4-4,5.4v7.8h-3.1V66.2h3.1v2.4h0.1
			c0.8-1.5,2.5-2.7,4.7-2.7c4.4,0,5.5,2.9,5.5,6.6V81.7z"/>
		<path class="st0" d="M210,81.7h-3v-2c-0.6,0.7-2.1,2.3-4.9,2.3c-2.9,0-5.3-1.8-5.3-4.8s2.5-4.6,6.1-4.7l4.1-0.2v-0.6
			c0-2.3-1.6-3.5-3.8-3.5c-2.2,0-4.1,1-4.7,1.3l-0.9-2.1c1.1-0.7,3.2-1.6,5.8-1.6s4.1,0.7,5.1,1.8c1,1.1,1.7,2.4,1.7,5v9.1H210z
			 M206.9,74.3l-3.6,0.2c-2.5,0.1-3.5,1.2-3.5,2.7s1.1,2.7,3.2,2.7c2,0,3.4-1.4,3.9-2.2V74.3z"/>
		<path class="st0" d="M229,81.7h-3v-2.5h-0.1c-1.3,1.9-3.2,2.8-5.4,2.8c-4.6,0-7.5-3.5-7.5-8.1s2.9-8,7.5-8c2.5,0,4.3,1.1,5.4,2.7
			h0.1v-9.4h3.1v22.5H229z M221.1,68.5c-3.1,0-4.9,2.3-4.9,5.4s1.8,5.5,4.9,5.5s4.9-2.4,4.9-5.5S224.2,68.5,221.1,68.5z"/>
		<path class="st0" d="M245.4,81.7h-3v-2c-0.6,0.7-2.1,2.3-4.9,2.3c-2.9,0-5.3-1.8-5.3-4.8s2.5-4.6,6.1-4.7l4.1-0.2v-0.6
			c0-2.3-1.6-3.5-3.8-3.5c-2.2,0-4.1,1-4.7,1.3l-0.9-2.1c1.1-0.7,3.2-1.6,5.8-1.6c2.6,0,4.1,0.7,5.1,1.8c1,1.1,1.7,2.4,1.7,5v9.1
			H245.4z M242.3,74.3l-3.6,0.2c-2.5,0.1-3.5,1.2-3.5,2.7s1.1,2.7,3.2,2.7c2,0,3.4-1.4,3.9-2.2V74.3z"/>
		<path class="st0" d="M274.7,78.8c-1.4,1.6-3.9,3.3-8.2,3.3c-6.5,0-11.5-4.6-11.5-11.6s5-11.6,11.5-11.6c4.2,0,6.7,1.8,8,3
			l-1.3,2.5c-0.9-1.1-3.4-2.7-6.5-2.7c-4.8,0-8.4,3.5-8.4,8.8c0,5.3,3.5,8.8,8.4,8.8c3,0,5.2-1.1,6.7-2.7L274.7,78.8z"/>
		<path class="st0" d="M284.4,82.1c-4.6,0-8.2-3.2-8.2-8s3.6-8.1,8.2-8.1s8.2,3.3,8.2,8.1C292.6,78.8,289,82.1,284.4,82.1z
			 M284.4,68.5c-3.1,0-5,2.4-5,5.4c0,3.1,1.9,5.5,5,5.5s5-2.4,5-5.5C289.4,70.9,287.5,68.5,284.4,68.5z"/>
		<path class="st0" d="M308.9,81.7h-3v-2.2c-0.8,1.5-2.6,2.6-4.8,2.6c-2.2,0-3.5-0.7-4.3-1.8c-0.8-1-1.1-2.6-1.1-4.8v-9.3h3.1v9.1
			c0,2.1,0.5,4.1,3.2,4.1s3.8-2.3,3.8-4.9v-8.3h3.1L308.9,81.7L308.9,81.7z"/>
		<path class="st0" d="M326.7,81.7h-3.1v-8.6c0-2.6-0.5-4.6-3.2-4.6c-2.9,0-4,2.4-4,5.4v7.8h-3.2V66.2h3.1v2.4h0.1
			c0.8-1.5,2.5-2.7,4.7-2.7c4.4,0,5.5,2.9,5.5,6.6L326.7,81.7L326.7,81.7z"/>
		<path class="st0" d="M343.8,79.7c-0.5,0.5-2,2.3-6.2,2.3s-7.8-3.1-7.8-8.1s3.8-8,7.9-8s5.8,2,6,2.2l-1.1,2.3
			c-0.5-0.5-1.9-1.9-4.6-1.9s-5,2.1-5,5.3c0,3.3,2,5.5,5,5.5s4.7-2,4.7-2L343.8,79.7z"/>
		<path class="st0" d="M348,63.1c-1.2,0-2-0.8-2-1.9c0-1.1,0.8-1.9,2-1.9s2,0.8,2,1.9S349.2,63.1,348,63.1z M349.6,81.7h-3.1V66.2
			h3.1V81.7z"/>
		<path class="st0" d="M357.2,81.7h-3.1V59.2h3.1V81.7z"/>
		<path class="st0" d="M150.6,98.2c0,0-0.9-0.3-1.8-0.3c-2,0-2.4,1.5-2.4,3.3v1.7h3.7v2.5h-3.7v12.9h-3.1v-12.9h-2.2v-2.5h2.2v-1.6
			c0-2,0.4-3.3,1-4.1c0.7-0.8,1.9-1.7,3.7-1.7s2.7,0.4,2.7,0.4L150.6,98.2z"/>
		<path class="st0" d="M158.8,118.7c-4.6,0-8.2-3.2-8.2-8s3.6-8.1,8.2-8.1c4.6,0,8.2,3.3,8.2,8.1
			C166.9,115.4,163.4,118.7,158.8,118.7z M158.8,105.1c-3.1,0-5,2.4-5,5.4c0,3.1,1.9,5.5,5,5.5s5-2.4,5-5.5
			C163.8,107.5,161.9,105.1,158.8,105.1z"/>
		<path class="st0" d="M178.6,105.7h-0.1c-0.3-0.1-0.8-0.3-1.7-0.3c-1.4,0-2.2,0.9-2.5,1.3s-0.9,1.6-0.9,3.9v7.7h-3.2v-15.5h3.1v2.4
			h0.1c0.7-1.8,2.1-2.7,3.8-2.7c1,0,1.6,0.3,1.6,0.3L178.6,105.7z"/>
		<path class="st0" d="M195.1,118.1c0,0-1.2,0.5-2.8,0.5c-1.6,0-2.6-0.6-3.3-1.6c-0.6-1-0.8-2.2-0.8-4.6v-7.1h-2.3v-2.5h2.3v-4.6
			h3.1v4.6h3.7v2.5h-3.7v7c0,1.3,0,2.2,0.4,2.8c0.3,0.5,0.7,0.8,1.6,0.8s1.6-0.4,1.6-0.4L195.1,118.1z"/>
		<path class="st0" d="M211.3,118.3h-3.1v-8.8c0-2.2-0.4-4.4-3.2-4.4c-2.8,0-4,2.4-4,5.5v7.6h-3.1V95.8h3.1v9.4h0.1
			c0.8-1.5,2.5-2.7,4.8-2.7c4.5,0,5.5,2.9,5.5,6.5L211.3,118.3L211.3,118.3z"/>
		<path class="st0" d="M229.5,111.3h-11.9c0.2,3.1,2.1,4.9,5,4.9s4.8-1.6,5.1-1.8l1.3,1.8c-0.2,0.2-2.2,2.4-6.8,2.4
			c-4.6,0-7.7-3.2-7.7-8.1s3.5-8,7.8-8s7.3,3.1,7.3,7.4C229.6,110.5,229.5,111.3,229.5,111.3z M226.7,109.2c0-1.7-1.3-4.4-4.5-4.4
			c-3.1,0-4.5,2.6-4.6,4.4H226.7z"/>
		<path class="st0" d="M258.2,118.3h-3.5l-2.3-5.9h-9.6l-2.3,5.9h-3.3l9.1-22.5h2.8L258.2,118.3z M251.5,109.8l-3.9-10.1l-3.9,10.1
			H251.5z"/>
		<path class="st0" d="M268.8,105.7h-0.1c-0.3-0.1-0.8-0.3-1.7-0.3c-1.4,0-2.2,0.9-2.5,1.3s-0.9,1.6-0.9,3.9v7.7h-3.1v-15.5h3.1v2.4
			h0.1c0.7-1.8,2.1-2.7,3.8-2.7c1,0,1.6,0.3,1.6,0.3L268.8,105.7z"/>
		<path class="st0" d="M278.8,118.1c0,0-1.2,0.5-2.8,0.5c-1.6,0-2.6-0.6-3.3-1.6c-0.6-1-0.8-2.2-0.8-4.6v-7.1h-2.3v-2.5h2.3v-4.6
			h3.1v4.6h3.7v2.5H275v7c0,1.3,0,2.2,0.4,2.8c0.3,0.5,0.7,0.8,1.6,0.8s1.6-0.4,1.6-0.4L278.8,118.1z"/>
		<path class="st0" d="M290.2,117.3c-1.1,0.9-2.5,1.4-4.3,1.4c-2.6,0-4.7-1.1-6-2.8l1.5-1.8c1.2,1.4,3.1,2.2,4.6,2.2
			c1.4,0,3-0.5,3-2.2s-2.4-2.2-3.5-2.6c-1-0.4-1.4-0.4-2.1-0.8c-1-0.5-2.4-1.5-2.4-3.7c0-2.9,2.5-4.4,5.2-4.4s4.3,1,5.3,2l-1.3,1.9
			c-0.9-0.9-2.4-1.7-3.9-1.7s-2.5,0.6-2.5,1.9s1.5,1.8,3,2.3c0.8,0.3,1.4,0.5,2.1,0.7c0.6,0.3,1.3,0.7,1.8,1.1
			c0.6,0.6,1.2,1.5,1.2,2.9C291.8,115.3,291.2,116.4,290.2,117.3z"/>
	</g>
</g>
<g>
	<path class="st0" d="M116.2,119.2c-5-4.9-19.5-9.1-34.4-10c-1.1,0.8-1.8,1.7-2.2,2.6c12.5,0.6,24.6,4.1,29,8.1
		c4,3.2,3.4,7.6-1.3,10.6c-6.8,4.8-20.9,7-36.2,6.9c-15.3,0.1-29.4-2.1-36.2-6.9c-4.7-3-5.3-7.4-1.3-10.6c4.5-4,16.5-7.6,29-8.1
		c-0.4-0.9-1.2-1.7-2.2-2.6c-14.9,0.9-29.3,5.1-34.4,10c-6.8,6.2-1.4,13.2,13.5,17.6c8.3,2.5,20,3.9,31.5,3.9s23.2-1.4,31.5-3.9
		C117.5,132.4,123,125.3,116.2,119.2z"/>
	<path class="st0" d="M108.2,68.6c-0.3-4.1-3.6-7.3-7.6-8.8c1.6-2.3,1.9-4.8,0.7-7.6c-1.9-4.4-7-5.8-10.1-5.6
		c-4.3,0.3-6.9,2.1-11.5,5.6c-1.1-0.8-3.2-2.4-4.2-3.2l0,0c0,0,3.1-2.6,6.4-4.3c3.1-1.7,5.2-1.9,5.2-1.9s-5.5-7.5-16.1-7.6l0,0l0,0
		l0,0l0,0c-10.6,0.1-16.1,7.6-16.1,7.6s2.1,0.2,5.2,1.9c3.3,1.7,6.4,4.3,6.4,4.3c-0.9,0.7-3.1,2.3-4.2,3.2
		c-4.6-3.5-7.2-5.3-11.5-5.6c-3.1-0.2-8.2,1.2-10.1,5.6c-1.2,2.8-0.9,5.3,0.7,7.6c-4,1.5-7.3,4.7-7.6,8.8c-0.3,4.1,2.1,7.9,6.4,9.7
		c-1.2,1.5-1.8,3.3-1.8,4.8c0,4,3.6,9.4,11.2,9.2c5.7-0.2,7.9-1.9,12.4-5.4c0.3,0.4,3.7,5.9,3.7,15.4c0,0,0.5,7.3-3.1,25.1l0,0
		c0,1,3.7,1.7,8.3,1.7s8.3-0.8,8.3-1.7l0,0c-3.6-17.8-3.1-25.1-3.1-25.1c0-9.6,3.5-15,3.7-15.4c4.5,3.5,6.7,5.2,12.4,5.4
		c7.6,0.2,11.2-5.2,11.2-9.2c0-1.5-0.6-3.2-1.8-4.8C106.1,76.5,108.5,72.7,108.2,68.6z M91.1,52.3c4-0.2,5.5,2.2,5.2,3.8
		c-0.4,2-2.9,3.5-5.2,3.2c-2.3-0.2-4-1.4-6.7-3.6C86.2,54.2,88.5,52.4,91.1,52.3z M79.9,59.1c1.3,1,2.5,1.9,3.5,2.6
		c0.5,0.4,1,0.8,1.5,1.1c-0.7,0.5-1.2,0.9-2,1.5c-0.6,0.4-1.4,1.1-2.3,1.7c-1.4-1-3-2.3-4.9-3.7C77,61.4,78.3,60.3,79.9,59.1z
		 M75.3,55.6c-1.3,1-2.5,1.9-4.1,3.2l0,0l0,0c-1.6-1.2-2.8-2.2-4.1-3.2c1-0.8,2.3-1.8,4-3.1l0.1-0.1l0.1,0.1
		C73,53.9,74.2,54.8,75.3,55.6z M65.4,41.8c0,0,1.4-1.6,5.6-1.6c4.2,0,5.6,1.6,5.6,1.6s-1.1,0.6-2.6,1.7c-2,1.4-2.9,2.2-3,2.2
		c-0.1-0.1-1-0.9-3-2.2C66.5,42.4,65.4,41.8,65.4,41.8z M70.9,65.9l0.2-0.2l0.2,0.2c1.5,1.2,3.1,2.3,4.8,3.6c-1,0.7-1.8,1.3-2.5,1.9
		c-0.7,0.5-1.5,1.1-2.3,1.7l-0.1,0.1l-0.1-0.1c-0.8-0.6-1.6-1.2-2.3-1.7s-1.5-1.2-2.5-1.9C67.8,68.2,69.4,67.1,70.9,65.9z
		 M62.3,59.1c1.5,1.1,2.9,2.2,4.2,3.2c-1.9,1.5-3.6,2.7-5,3.7c-0.8-0.6-1.7-1.3-2.3-1.7c-0.8-0.6-1.3-1-2-1.5c0.5-0.3,1-0.7,1.5-1.1
		C59.8,61,61.1,60.1,62.3,59.1z M51.1,52.3c2.6,0.1,4.9,2,6.7,3.4c-2.8,2.2-4.5,3.4-6.7,3.6c-2.3,0.3-4.8-1.2-5.2-3.2
		C45.6,54.5,47.1,52.1,51.1,52.3z M39.5,69.7c-0.1-2.1,1.4-5.1,7-5.4c3.8-0.2,6.4,2,10.6,5.1c-3.3,2.5-5.9,4.7-10.7,5
		C42.6,74.7,39.6,71.8,39.5,69.7z M50.2,87c-4,0.2-6.4-1.8-6.2-4c0.1-1.7,3.9-5.7,11.8-2.2c1.1,0.5,2,1.1,2.9,1.8
		C54.8,85.6,53.3,86.8,50.2,87z M63,79.4c-1.5-1.4-3.1-2.6-5.2-3.6c1.3-0.8,2.5-1.8,3.8-2.8c0.1-0.1,0.1-0.1,0.1-0.1
		c1.8,1.3,3.5,2.6,5,3.7C65.4,77.6,64.2,78.5,63,79.4z M71.2,94.4l-0.1,0.5L71,94.4c-1-4.1-2.2-7.7-4-10.4c1.4-1.1,2.7-2.1,4.1-3.1
		c1.3,1,2.6,2,4.1,3.1C73.5,86.7,72.2,90.3,71.2,94.4z M79.2,79.4c-1.2-0.9-2.4-1.8-3.7-2.8c1.5-1.1,3.2-2.4,4.9-3.7
		c0.1,0,0.1,0,0.1,0.1c1.3,1.1,2.5,2,3.8,2.8C82.3,76.8,80.7,78,79.2,79.4z M92,87c-3.1-0.1-4.5-1.4-8.5-4.3
		c0.9-0.8,1.8-1.3,2.9-1.8c7.9-3.6,11.7,0.4,11.8,2.2C98.4,85.2,96,87.2,92,87z M95.8,74.4c-4.8-0.3-7.3-2.5-10.7-5
		c4.1-3.1,6.8-5.3,10.6-5.1c5.6,0.3,7.1,3.3,7,5.4C102.6,71.8,99.6,74.7,95.8,74.4z"/>
</g>
</svg>
