<svg xmlns="http://www.w3.org/2000/svg" viewBox="0 0 1920 1920"><defs><style>.cls-1,.cls-11{fill:#ff8552;}.cls-2{fill:#ff9d7b;}.cls-10,.cls-12,.cls-15,.cls-16,.cls-18,.cls-3,.cls-6,.cls-9{fill:none;stroke-miterlimit:10;}.cls-3,.cls-6{stroke:#68524e;}.cls-15,.cls-18,.cls-3{stroke-width:10px;}.cls-4{fill:#68524e;}.cls-5{fill:#39393a;}.cls-6,.cls-9{stroke-width:5px;}.cls-7{fill:#fff;}.cls-8{fill:#fce7e3;}.cls-10,.cls-18,.cls-9{stroke:#39393a;}.cls-10{stroke-width:7px;}.cls-11{opacity:0.25;}.cls-12{stroke:#e4dfda;stroke-width:15px;}.cls-13{fill:#e4dfda;}.cls-14{fill:#e9d758;}.cls-15{stroke:#fff;}.cls-16{stroke:#d8c8c5;stroke-width:3px;}.cls-17{fill:#9cb0bc;}.cls-19{fill:#e36450;}</style></defs><g id="BACKGROUND"><rect class="cls-1" x="-127.11" y="-55.96" width="2183.3" height="2031.91"/></g><g id="_2ND_BACK" data-name="2ND BACK"><path class="cls-2" d="M1699.28,1777.9h-225.4a116.15,116.15,0,1,1,0-232.3h77.47a116.16,116.16,0,1,0,0-232.31H1086.46a116.15,116.15,0,1,1,0-232.3h781.88a116.16,116.16,0,1,0,0-232.31H1311.87a116.16,116.16,0,1,1,0-232.31h211.31a116.16,116.16,0,1,0,0-232.31H1058.29a116.15,116.15,0,1,1,0-232.3h70.44a116.16,116.16,0,1,0,0-232.31H424.34a116.16,116.16,0,1,0,0,232.31H466.6a116.15,116.15,0,1,1,0,232.3H389.11a116.16,116.16,0,1,0,0,232.31H375a116.16,116.16,0,1,1,0,232.31H-392.76A116.16,116.16,0,0,0-509,964.83,116.17,116.17,0,0,0-392.76,1081h197.22A116.16,116.16,0,0,1-79.32,1197.14a116.16,116.16,0,0,1-116.22,116.15h-28.18a116.17,116.17,0,0,0-116.23,116.16A116.16,116.16,0,0,0-223.72,1545.6H304.57a116.15,116.15,0,1,1,0,232.3H36.9a116.16,116.16,0,1,0,0,232.31H1699.18a116.16,116.16,0,1,0,0-232.31Z"/></g><g id="ELEMENTS"><circle class="cls-3" cx="1158.66" cy="954.81" r="298.98"/><circle class="cls-3" cx="1255.35" cy="1561.01" r="298.98"/><circle class="cls-4" cx="1223.8" cy="1535.69" r="298.98"/><circle class="cls-3" cx="1184.93" cy="1345.43" r="298.98"/><circle class="cls-3" cx="777.54" cy="633.87" r="150.66"/><circle class="cls-3" cx="869.78" cy="1222.17" r="298.98"/><ellipse class="cls-3" cx="975.53" cy="923.18" rx="433.67" ry="486.14"/><circle class="cls-4" cx="1153.38" cy="1320.11" r="298.98"/><circle class="cls-4" cx="907" cy="1159.73" r="298.98"/><ellipse class="cls-4" cx="1004.46" cy="893.17" rx="433.67" ry="486.14"/><path class="cls-5" d="M1222.58,2082.28l-860,2.62C333.3,2014,291,1884.54,300.38,1720c11.55-202.75,95.28-349,139.44-415.58a2959.88,2959.88,0,0,1,906.64,0A1102.92,1102.92,0,0,1,1362.1,1663C1339.16,1852.72,1271.48,1996.75,1222.58,2082.28Z"/><ellipse class="cls-3" cx="1153.38" cy="738.93" rx="302.69" ry="330.06"/><ellipse class="cls-6" cx="1032.46" cy="748.29" rx="356.09" ry="368.18"/><path class="cls-5" d="M1399.44,926c2.4.91,4.6,163.11-85.93,207.45-55.85,27.36-124.51-1.17-124.68-6.57s69.1,15.85,126.34-20.1C1396.25,1055.83,1397.29,925.15,1399.44,926Z"/><path class="cls-5" d="M826.26,1045.32c-1,2.34-163.14-3.54-202.92-96.15C598.8,892,630.72,824.86,636.12,825s-19.27,68.22,13.78,127.17C696.73,1035.66,827.19,1043.21,826.26,1045.32Z"/><path class="cls-5" d="M880.06,1306.87c-1,2.35-163.14-3.53-202.92-96.15-24.54-57.15,7.37-124.3,12.78-124.2s-19.28,68.22,13.78,127.18C750.52,1297.22,881,1304.76,880.06,1306.87Z"/><path class="cls-5" d="M1346.73,1434.85c2.45.07,49.87-141.67-20.73-213.58-43.56-44.37-114.5-44.28-116.17-39.59s67.8,11.21,110.22,63.63C1380.15,1319.57,1344.52,1434.79,1346.73,1434.85Z"/><ellipse class="cls-3" cx="1016.08" cy="458.54" rx="215" ry="150.66" transform="translate(-68.14 199.4) rotate(-10.85)"/><path class="cls-7" d="M1380.81,1561l-1055.55,0q2.85-11,6.17-22.35,2.61-8.92,5.31-17.47H1380.81Z"/><path class="cls-7" d="M1382.57,1663.3l-1077,.1q1.29-9.87,2.93-20.18,1.62-10.15,3.45-19.78H1382.57Z"/><path class="cls-7" d="M1391.45,1759.64H299.1c.06-7.16.21-14.49.49-22q.32-9,.84-17.66l1091-.24Z"/><path class="cls-7" d="M1394.4,1853H303.8q-1.1-9.73-2-19.91t-1.46-20h1094Z"/><path class="cls-7" d="M1263.12,1945.27H292.66q-1.56-7.17-3.05-14.53-2.61-12.9-4.76-25.36l993.88,0Z"/><path class="cls-7" d="M1368.92,1458.79l-1000.82-.08v-39.86h996.48Q1366.74,1438.82,1368.92,1458.79Z"/><path class="cls-8" d="M1046.92,1401.7c-43.63,51.81-116,72.14-181.17,50.92-65.61-21.37-110.92-80.58-113.18-148l86-349.85,298.89,78.59Q1092.2,1217.54,1046.92,1401.7Z"/><path class="cls-5" d="M1109.55,1146.68h0S1001.41,1179,906.73,1213.5c-35.26,12.84-85.82,32.23-146.27,59q27.66-112.74,55.33-225.5c30.15,26.73,91.93,76.22,156.38,88.57,23.69,4.54,51.4,7.23,51.4,7.23C1065.47,1146.85,1109.54,1146.69,1109.55,1146.68Z"/><ellipse class="cls-8" cx="676.37" cy="715.23" rx="127.5" ry="131.83"/><ellipse class="cls-8" cx="1069.03" cy="761.65" rx="374.55" ry="387.28"/><path class="cls-5" d="M1129.87,732.94q-2.61,31.34-7,62.48T1112,857.63q-3.57,17.43-7.71,34.74c-.9,3.75,4.88,5.35,5.78,1.59q7.41-30.93,13-62.27t9.25-63.06q2.09-17.8,3.57-35.69a3,3,0,0,0-3-3,3.07,3.07,0,0,0-3,3Z"/><path class="cls-5" d="M1107.73,896.23l46.15,5c1.61.18,3-1.5,3-3a3.08,3.08,0,0,0-3-3l-46.15-5c-1.61-.18-3,1.5-3,3a3.08,3.08,0,0,0,3,3Z"/><path class="cls-5" d="M1151.37,896.89q-22,18.43-43.49,37.45-6.12,5.43-12.22,10.9a3,3,0,0,0,4.25,4.24q21.35-19.18,43.2-37.79,6.24-5.31,12.5-10.56a3,3,0,0,0,0-4.24,3.06,3.06,0,0,0-4.24,0Z"/><path class="cls-1" d="M1112,1063.48c-2,15.27-40.79,27.06-73.43,21.73-33-5.39-66.11-29.35-62.76-44.47,3.17-14.36,39.94-24.15,58-17.47a87.31,87.31,0,0,0,14.74,4.5,91.43,91.43,0,0,0,20.82,1.69C1088.27,1029.67,1113.76,1050.16,1112,1063.48Z"/><path class="cls-9" d="M964.19,1025.17A349.71,349.71,0,0,0,1130.1,1053"/><path class="cls-10" d="M617.83,668.82c9.45.35,42.75,2.76,72.24,28.86a116.61,116.61,0,0,1,36.65,64"/><ellipse class="cls-11" cx="855.61" cy="898.58" rx="51.39" ry="53.14"/><ellipse class="cls-11" cx="1287.19" cy="948.44" rx="55.45" ry="57.33"/><ellipse class="cls-5" cx="1275.82" cy="706.72" rx="76.58" ry="21.99"/><ellipse class="cls-5" cx="1004.46" cy="676.95" rx="21.94" ry="76.73" transform="translate(101.15 1483.95) rotate(-75.75)"/><path class="cls-4" d="M1023.3,356.24c27,35.42-45.14,112.54-90.25,149.38-67,54.72-182.47,109-217.24,80.64-38.68-31.56,13.93-172.38,130.26-224.7C908,333.71,999.91,325.58,1023.3,356.24Z"/><path class="cls-4" d="M1023.48,366.76c-40.38,84.51,81,282.74,237.4,317,71.29,15.63,180.53,3.92,210.19-63.52C1505.85,541.19,1418.22,415,1328.7,359,1220.54,291.24,1058.32,293.83,1023.48,366.76Z"/><path class="cls-3" d="M1030,367.72c-44.7,86.12,64.72,293.75,217.49,332.73,75.54,19.27,187.17,3.82,218.2-67.21,36.88-84.4-53.07-217.42-147.17-274.41C1218.43,298.2,1067.44,295.6,1030,367.72Z"/><path class="cls-5" d="M1089.26,395.46c-2.71,1.8,41.23,203.43,166.33,233.26,77.19,18.41,154.19-36,152.84-42.75s-81.19,38.83-162.56,10.15C1130.59,555.51,1091.69,393.84,1089.26,395.46Z"/><path class="cls-3" d="M1029,371.65C1056,407.08,983.8,484.19,938.7,521c-67,54.73-182.47,109-217.24,80.64C682.78,570.12,735.39,429.29,851.71,377,913.64,349.12,1005.55,341,1029,371.65Z"/><path class="cls-3" d="M1022.11,354.05c4.83,22.74-53.45,46.79-86.87,56.22-49.64,14-124.62,18.39-135.38-2.37-12-23.09,52.88-82.4,127.78-85.64C967.52,320.54,1017.93,334.37,1022.11,354.05Z"/><path class="cls-5" d="M971.19,372.72c2.11,0-14,88.19-102.79,132.31-54.8,27.23-115.21,26.7-114.75,23.78s62.23-6.5,119.26-38.73C953.71,444.43,969.28,372.75,971.19,372.72Z"/><path class="cls-5" d="M746.25,2175.9h0c-82.76,28.41-171.37-17.59-197.9-102.74L368,1494.52c-26.54-85.15,19-177.2,101.8-205.61h0c82.76-28.41,171.37,17.59,197.91,102.74l180.33,578.64C874.59,2055.44,829,2147.49,746.25,2175.9Z"/><path class="cls-5" d="M1605.9,2170.6h0c-79.57,36-172.32-1.46-207.16-83.73-37.2-87.85-88.14-208.16-88.15-208.16a989.09,989.09,0,0,0,45.4-172.4c25.23-150,9.84-272.49,1.43-335.62-3.65-27.44-7.58-50-10.41-65.13a126.19,126.19,0,0,1,38.26,12.87c43.41,23,60,65.06,64.85,78.91l236.76,559.07C1721.72,2038.68,1685.46,2134.58,1605.9,2170.6Z"/><path class="cls-7" d="M708.07,1521.15H376.3A247.48,247.48,0,0,1,361,1458.73l327.6,0Z"/><path class="cls-7" d="M740,1623.44H408.19q-6.3-18.6-12.32-38.25-3.75-12.26-7.16-24.22H720.49Z"/><path class="cls-7" d="M770,1719.91l-331.9,0q-5-14.34-9.79-29.85-4.2-13.66-7.7-26.7l330.84-.09Q760.75,1691.61,770,1719.91Z"/><path class="cls-7" d="M799.7,1813.08l-331.9,0q-5-13.58-9.8-28.26-4.19-12.93-7.69-25.28l330.84-.08Q790.42,1786.28,799.7,1813.08Z"/><path class="cls-7" d="M827.83,1905.36l-331.89,0c-3.21-8.9-6.35-18.27-9.35-28.1q-3.81-12.46-6.85-24.23l331.75-.08Q819.67,1879.16,827.83,1905.36Z"/><path class="cls-7" d="M676,1418.85H362.5a143.32,143.32,0,0,1,13-44.48,141.28,141.28,0,0,1,10.34-17.93l266.13,0a178.06,178.06,0,0,1,24,62.43Z"/><path class="cls-7" d="M1459.26,1418.91l-96-.06q-2.37-19.85-4.75-39.69l84.32.15Q1451.05,1399.11,1459.26,1418.91Z"/><path class="cls-7" d="M1502.57,1521.19l-133.5-.06q-.9-31.1-1.81-62.19H1476Z"/><path class="cls-7" d="M1545.89,1623.47l-179.54,0q2.06-31.11,4.12-62.22h149.18Z"/><path class="cls-7" d="M1587.23,1721.11l-233.6-1.33q2.28-14.46,4.52-28.91,2.11-13.72,4.21-27.47l200.39-.1Z"/><path class="cls-7" d="M1625.62,1811.74l-293.82,1.37q3.67-13.29,7.28-26.89,3.43-13,6.67-25.79l258.08-.13Q1614.72,1786,1625.62,1811.74Z"/><path class="cls-7" d="M1663.76,1901.81l-344.26-.17h0c2.74,6.23-7-12.28-7.26-19.08-.21-5.18,1.64-5.62,5.11-19.69,1-4.19,1.73-7.64,2.15-9.9h323.64Q1653.45,1877.39,1663.76,1901.81Z"/><rect class="cls-12" x="125.11" y="118.44" width="1692.79" height="1692.79"/><rect class="cls-13" x="125.11" y="110.48" width="1692.79" height="76.24"/><rect class="cls-13" x="125.11" y="1733.82" width="1692.79" height="76.24"/><circle class="cls-1" cx="1664.26" cy="148.6" r="23.74"/><circle class="cls-14" cx="1737.78" cy="148.6" r="23.74"/><circle class="cls-5" cx="1590.22" cy="148.6" r="23.74"/><path class="cls-15" d="M1086.24,1439.73c-53.73,59.21-148.37,79.22-235.39,50.1-83.15-27.82-144.38-95.49-154.61-171.08q18.76-60.48,37.52-121a693.91,693.91,0,0,0,390,121Q1105,1379.26,1086.24,1439.73Z"/><line class="cls-15" x1="772.81" y1="1222.17" x2="723.29" y2="1391.95"/><line class="cls-15" x1="818.97" y1="1247.51" x2="762.85" y2="1438.82"/><line class="cls-15" x1="868.46" y1="1269.51" x2="811.95" y2="1473.12"/><line class="cls-15" x1="919.88" y1="1287.69" x2="868.51" y2="1495.04"/><line class="cls-15" x1="975.53" y1="1302.42" x2="926.59" y2="1502.99"/><line class="cls-15" x1="1025.86" y1="1311.61" x2="985.37" y2="1496.93"/><line class="cls-15" x1="1067.9" y1="1316.39" x2="1033.57" y2="1481.33"/><line class="cls-10" x1="630.5" y1="734.09" x2="692.7" y2="701.38"/><path class="cls-16" d="M873.63,737.65c45.41-38.24,104.18-47.3,147.31-23.45,29.25,16.16,43.06,42.89,48.64,56"/><path class="cls-16" d="M1176.59,787.24c40.38-43.51,97.6-59.7,143.33-41.31,31,12.46,48,37.3,55.12,49.59"/><line class="cls-10" x1="1351.69" y1="785.15" x2="1364.47" y2="772.37"/><line class="cls-10" x1="1363.35" y1="797.25" x2="1375.84" y2="786.33"/><line class="cls-10" x1="1373.64" y1="809.41" x2="1386.22" y2="800.11"/><path class="cls-7" d="M1184.93,802.86s42.55,57.15,91.5,60.1c47,2.84,95.46-44.63,98.41-47.68h0a175.71,175.71,0,0,0-41.09-37.89c-9.11-6-28.77-19-50.4-22.21C1232.88,747.67,1190.72,796,1184.93,802.86Z"/><ellipse class="cls-17" cx="1275.82" cy="808.54" rx="53.95" ry="49.7" transform="translate(393.19 2034.27) rotate(-86.61)"/><path class="cls-18" d="M1374.84,815.28c-33.94-47.45-86.78-69.5-132.25-56-30.83,9.16-49.58,32.09-57.66,43.56"/><line class="cls-10" x1="901.48" y1="730.8" x2="891.44" y2="716.04"/><line class="cls-10" x1="887.13" y1="738.93" x2="876.59" y2="726.4"/><line class="cls-10" x1="874.31" y1="748.94" x2="862.72" y2="738.75"/><path class="cls-7" d="M1061.9,786.85s-54.53,45.66-103.31,37c-46.89-8.28-84-65.89-86.2-69.55h0a174.42,174.42,0,0,1,48.81-27.25c10.3-3.72,32.51-11.73,54.49-9.78C1027,721.83,1057.72,778.83,1061.9,786.85Z"/><ellipse class="cls-17" cx="971.26" cy="771.03" rx="53.94" ry="50.19" transform="translate(118.51 1671.39) rotate(-85)"/><path class="cls-18" d="M872.39,754.33c43.91-38.24,100.75-47.29,142.47-23.45,28.28,16.17,41.64,42.9,47,56"/></g><g id="INSTA"><rect class="cls-19" x="68.13" y="367.59" width="518.13" height="200.57" rx="100.28"/><path class="cls-19" d="M322.31,638.6h0L277.7,547.22h91.38Z"/><path class="cls-7" d="M464.69,405.2a39.11,39.11,0,0,0-32.37,17l-1.5,1.91-1-1.27a38.59,38.59,0,0,0-32.45-17.61c-22.43,0-38.71,16.28-38.71,38.71,0,33.12,59.95,81.93,64.33,85.45a11,11,0,0,0,15.26,0c4.39-3.54,65.15-53.12,65.15-85.44C503.4,421.48,487.12,405.2,464.69,405.2Z"/><path class="cls-15" d="M233.59,405.2c-36.39,0-66,26.65-66,59.4a54.87,54.87,0,0,0,10.49,32.12c-1.3,14.38-4.79,25.06-9.85,30.11a2.2,2.2,0,0,0,1.56,3.76l.31,0c.89-.13,21.58-3.11,36.55-11.75A71.62,71.62,0,0,0,233.59,524c36.39,0,66-26.64,66-59.39S270,405.2,233.59,405.2Z"/></g></svg>