<?xml version="1.0" encoding="utf-8"?>
<!-- Generator: Adobe Illustrator 24.3.0, SVG Export Plug-In . SVG Version: 6.00 Build 0)  -->
<svg version="1.1" id="Layer_1" xmlns="http://www.w3.org/2000/svg" xmlns:xlink="http://www.w3.org/1999/xlink" x="0px" y="0px"
	 viewBox="0 0 1920 1920" style="enable-background:new 0 0 1920 1920;" xml:space="preserve">
<g id="BACKGROUND">
	<rect x="-127.1" y="-56" style="fill:#FF8552;" width="2183.3" height="2031.9"/>
</g>
<g id="_2ND_BACK">
	<path style="fill:#FF9D7B;" d="M1699.3,1777.9h-225.4c-64.1,0-116.2-52-116.2-116.2s52-116.2,116.2-116.2h77.5
		c64.2,0.6,116.6-50.9,117.2-115.1c0.6-64.2-50.9-116.6-115.1-117.2c-0.7,0-1.4,0-2.2,0h-464.9c-64.1,0-116.2-52-116.2-116.2
		s52-116.2,116.2-116.2h781.9c64.2,0.6,116.6-50.9,117.2-115.1c0.6-64.2-50.9-116.6-115.1-117.2c-0.7,0-1.4,0-2.2,0h-556.5
		c-64.2,0.6-116.6-50.9-117.2-115.1c-0.6-64.2,50.9-116.6,115.1-117.2c0.7,0,1.4,0,2.2,0h211.3c64.2,0.6,116.6-50.9,117.2-115.1
		c0.6-64.2-50.9-116.6-115.1-117.2c-0.7,0-1.4,0-2.2,0h-464.9c-64.1,0-116.2-52-116.2-116.1s52-116.2,116.1-116.2c0,0,0,0,0,0h70.4
		c64.2,0.6,116.6-50.9,117.2-115.1c0.6-64.2-50.9-116.6-115.1-117.2c-0.7,0-1.4,0-2.2,0H424.3c-64.2-0.6-116.6,50.9-117.2,115.1
		S358,151.2,422.2,151.8c0.7,0,1.4,0,2.2,0h42.3c64.1,0,116.2,52,116.2,116.1s-52,116.2-116.1,116.2c0,0,0,0,0,0h-77.5
		C325,383.5,272.5,435,271.9,499.1S322.8,615.8,387,616.4c0.7,0,1.4,0,2.2,0H375c64.2-0.6,116.6,50.9,117.2,115.1
		s-50.9,116.6-115.1,117.2c-0.7,0-1.4,0-2.2,0h-767.8c-64.2,0-116.2,51.9-116.2,116.1c0,0,0,0,0,0.1c0,64.2,52,116.2,116.2,116.2
		c0,0,0,0,0.1,0h197.2c64.2,0,116.2,51.9,116.2,116.1c0,0,0,0,0,0c0,64.2-52,116.2-116.2,116.2c0,0,0,0-0.1,0h-28.2
		c-64.2,0-116.2,52-116.2,116.1c0,0,0,0,0,0.1c0,64.2,52,116.2,116.2,116.1c0,0,0,0,0.1,0h528.3c64.1,0,116.2,52,116.2,116.2
		s-52,116.2-116.2,116.2H36.9c-64.2-0.6-116.6,50.9-117.2,115.1s50.9,116.6,115.1,117.2c0.7,0,1.4,0,2.2,0h1662.3
		c64.2,0.6,116.6-50.9,117.2-115.1c0.6-64.2-50.9-116.6-115.1-117.2C1700.6,1777.9,1699.9,1777.9,1699.3,1777.9L1699.3,1777.9z"/>
</g>
<g id="ELEMENTS">
	<circle style="fill:none;stroke:#68524E;stroke-width:10;stroke-miterlimit:10;" cx="1158.7" cy="954.8" r="299"/>
	<circle style="fill:none;stroke:#68524E;stroke-width:10;stroke-miterlimit:10;" cx="1255.3" cy="1561" r="299"/>
	<circle style="fill:#68524E;" cx="1223.8" cy="1535.7" r="299"/>
	<circle style="fill:none;stroke:#68524E;stroke-width:10;stroke-miterlimit:10;" cx="1184.9" cy="1345.4" r="299"/>
	<circle style="fill:none;stroke:#68524E;stroke-width:10;stroke-miterlimit:10;" cx="777.5" cy="633.9" r="150.7"/>
	<circle style="fill:none;stroke:#68524E;stroke-width:10;stroke-miterlimit:10;" cx="869.8" cy="1222.2" r="299"/>
	<ellipse style="fill:none;stroke:#68524E;stroke-width:10;stroke-miterlimit:10;" cx="975.5" cy="923.2" rx="433.7" ry="486.1"/>
	<circle style="fill:#68524E;" cx="1153.4" cy="1320.1" r="299"/>
	<circle style="fill:#68524E;" cx="907" cy="1159.7" r="299"/>
	<ellipse style="fill:#68524E;" cx="1004.5" cy="893.2" rx="433.7" ry="486.1"/>
	<path style="fill:#39393A;" d="M1222.6,2082.3l-860,2.6c-29.3-70.9-71.6-200.4-62.2-364.9c11.5-202.8,95.3-349,139.4-415.6
		c300.4-46.6,606.2-46.6,906.6,0c24.8,117.9,30,239,15.6,358.6C1339.2,1852.7,1271.5,1996.8,1222.6,2082.3z"/>
	<ellipse style="fill:none;stroke:#68524E;stroke-width:10;stroke-miterlimit:10;" cx="1153.4" cy="738.9" rx="302.7" ry="330.1"/>
	<ellipse style="fill:none;stroke:#68524E;stroke-width:5;stroke-miterlimit:10;" cx="1032.5" cy="748.3" rx="356.1" ry="368.2"/>
	<path style="fill:#39393A;" d="M1399.4,926c2.4,0.9,4.6,163.1-85.9,207.4c-55.8,27.4-124.5-1.2-124.7-6.6s69.1,15.8,126.3-20.1
		C1396.3,1055.8,1397.3,925.2,1399.4,926z"/>
	<path style="fill:#39393A;" d="M826.3,1045.3c-1,2.3-163.1-3.5-202.9-96.2c-24.5-57.2,7.4-124.3,12.8-124.2s-19.3,68.2,13.8,127.2
		C696.7,1035.7,827.2,1043.2,826.3,1045.3z"/>
	<path style="fill:#39393A;" d="M880.1,1306.9c-1,2.3-163.1-3.5-202.9-96.2c-24.5-57.2,7.4-124.3,12.8-124.2s-19.3,68.2,13.8,127.2
		C750.5,1297.2,881,1304.8,880.1,1306.9z"/>
	<path style="fill:#39393A;" d="M1346.7,1434.8c2.4,0.1,49.9-141.7-20.7-213.6c-43.6-44.4-114.5-44.3-116.2-39.6
		s67.8,11.2,110.2,63.6C1380.2,1319.6,1344.5,1434.8,1346.7,1434.8z"/>
	
		<ellipse transform="matrix(0.9821 -0.1882 0.1882 0.9821 -68.1388 199.4633)" style="fill:none;stroke:#68524E;stroke-width:10;stroke-miterlimit:10;" cx="1016.1" cy="458.5" rx="215" ry="150.7"/>
	<path style="fill:#FFFFFF;" d="M1380.8,1561H325.3c1.9-7.3,4-14.8,6.2-22.3c1.7-5.9,3.5-11.8,5.3-17.5h1044.1V1561z"/>
	<path style="fill:#FFFFFF;" d="M1382.6,1663.3l-1077,0.1c0.9-6.6,1.8-13.3,2.9-20.2c1.1-6.8,2.2-13.4,3.5-19.8h1070.6V1663.3z"/>
	<path style="fill:#FFFFFF;" d="M1391.4,1759.6H299.1c0.1-7.2,0.2-14.5,0.5-22c0.2-6,0.5-11.9,0.8-17.7l1091-0.2L1391.4,1759.6z"/>
	<path style="fill:#FFFFFF;" d="M1394.4,1853H303.8c-0.7-6.5-1.4-13.1-2-19.9c-0.6-6.8-1.1-13.5-1.5-20h1094L1394.4,1853z"/>
	<path style="fill:#FFFFFF;" d="M1263.1,1945.3H292.7c-1-4.8-2.1-9.6-3-14.5c-1.7-8.6-3.3-17.1-4.8-25.4h993.9L1263.1,1945.3z"/>
	<path style="fill:#FFFFFF;" d="M1368.9,1458.8l-1000.8-0.1v-39.9h996.5C1366,1432.2,1367.5,1445.5,1368.9,1458.8z"/>
	<path style="fill:#FCE7E3;" d="M1046.9,1401.7c-43.6,51.8-116,72.1-181.2,50.9c-65.6-21.4-110.9-80.6-113.2-148l86-349.8
		l298.9,78.6C1107.3,1156.1,1077.1,1278.9,1046.9,1401.7z"/>
	<path style="fill:#39393A;" d="M1109.6,1146.7L1109.6,1146.7c0,0-108.1,32.3-202.8,66.8c-35.3,12.8-85.8,32.2-146.3,59
		c18.4-75.2,36.9-150.3,55.3-225.5c30.2,26.7,91.9,76.2,156.4,88.6c23.7,4.5,51.4,7.2,51.4,7.2
		C1065.5,1146.8,1109.5,1146.7,1109.6,1146.7z"/>
	<ellipse style="fill:#FCE7E3;" cx="676.4" cy="715.2" rx="127.5" ry="131.8"/>
	<ellipse style="fill:#FCE7E3;" cx="1069" cy="761.7" rx="374.6" ry="387.3"/>
	<path style="fill:#39393A;" d="M1129.9,732.9c-1.7,20.9-4.1,41.7-7,62.5c-2.9,20.8-6.6,41.5-10.9,62.2c-2.4,11.6-4.9,23.2-7.7,34.7
		c-0.9,3.8,4.9,5.3,5.8,1.6c4.9-20.6,9.3-41.4,13-62.3c3.7-20.9,6.8-41.9,9.3-63.1c1.4-11.9,2.6-23.8,3.6-35.7c0-1.7-1.3-3-3-3
		C1131.2,730,1129.9,731.3,1129.9,732.9L1129.9,732.9z"/>
	<path style="fill:#39393A;" d="M1107.7,896.2l46.2,5c1.6,0.2,3-1.5,3-3c0-1.6-1.4-3-3-3l-46.2-5c-1.6-0.2-3,1.5-3,3
		C1104.8,894.9,1106.1,896.2,1107.7,896.2z"/>
	<path style="fill:#39393A;" d="M1151.4,896.9c-14.7,12.3-29.2,24.8-43.5,37.5c-4.1,3.6-8.2,7.3-12.2,10.9c-1.2,1.2-1.2,3.1,0,4.2
		s3.1,1.2,4.2,0c14.2-12.8,28.6-25.4,43.2-37.8c4.2-3.5,8.3-7.1,12.5-10.6c1.2-1.2,1.2-3.1,0-4.2
		C1154.4,895.8,1152.6,895.8,1151.4,896.9L1151.4,896.9z"/>
	<path style="fill:#FF8552;" d="M1112,1063.5c-2,15.3-40.8,27.1-73.4,21.7c-33-5.4-66.1-29.3-62.8-44.5c3.2-14.4,39.9-24.2,58-17.5
		c4.8,1.9,9.7,3.4,14.7,4.5c6.9,1.4,13.8,1.9,20.8,1.7C1088.3,1029.7,1113.8,1050.2,1112,1063.5z"/>
	<path style="fill:none;stroke:#39393A;stroke-width:5;stroke-miterlimit:10;" d="M964.2,1025.2c52.2,22.6,109.2,32.2,165.9,27.8"/>
	<path style="fill:none;stroke:#39393A;stroke-width:7;stroke-miterlimit:10;" d="M617.8,668.8c9.5,0.3,42.8,2.8,72.2,28.9
		c18.8,16.8,31.7,39.3,36.7,64"/>
	<ellipse style="opacity:0.25;fill:#FF8552;enable-background:new    ;" cx="855.6" cy="898.6" rx="51.4" ry="53.1"/>
	<ellipse style="opacity:0.25;fill:#FF8552;enable-background:new    ;" cx="1287.2" cy="948.4" rx="55.4" ry="57.3"/>
	<ellipse style="fill:#39393A;" cx="1275.8" cy="706.7" rx="76.6" ry="22"/>
	
		<ellipse transform="matrix(0.2462 -0.9692 0.9692 0.2462 101.0574 1483.9905)" style="fill:#39393A;" cx="1004.5" cy="677" rx="21.9" ry="76.7"/>
	<path style="fill:#68524E;" d="M1023.3,356.2c27,35.4-45.1,112.5-90.3,149.4c-67,54.7-182.5,109-217.2,80.6
		c-38.7-31.6,13.9-172.4,130.3-224.7C908,333.7,999.9,325.6,1023.3,356.2z"/>
	<path style="fill:#68524E;" d="M1023.5,366.8c-40.4,84.5,81,282.7,237.4,317c71.3,15.6,180.5,3.9,210.2-63.5
		c34.8-79-52.9-205.2-142.4-261.2C1220.5,291.2,1058.3,293.8,1023.5,366.8z"/>
	<path style="fill:none;stroke:#68524E;stroke-width:10;stroke-miterlimit:10;" d="M1030,367.7c-44.7,86.1,64.7,293.7,217.5,332.7
		c75.5,19.3,187.2,3.8,218.2-67.2c36.9-84.4-53.1-217.4-147.2-274.4C1218.4,298.2,1067.4,295.6,1030,367.7z"/>
	<path style="fill:#39393A;" d="M1089.3,395.5c-2.7,1.8,41.2,203.4,166.3,233.3c77.2,18.4,154.2-36,152.8-42.8
		s-81.2,38.8-162.6,10.2C1130.6,555.5,1091.7,393.8,1089.3,395.5z"/>
	<path style="fill:none;stroke:#68524E;stroke-width:10;stroke-miterlimit:10;" d="M1029,371.6c27,35.4-45.2,112.5-90.3,149.4
		c-67,54.7-182.5,109-217.2,80.6c-38.7-31.5,13.9-172.4,130.3-224.6C913.6,349.1,1005.5,341,1029,371.6z"/>
	<path style="fill:none;stroke:#68524E;stroke-width:10;stroke-miterlimit:10;" d="M1022.1,354c4.8,22.7-53.5,46.8-86.9,56.2
		c-49.6,14-124.6,18.4-135.4-2.4c-12-23.1,52.9-82.4,127.8-85.6C967.5,320.5,1017.9,334.4,1022.1,354z"/>
	<path style="fill:#39393A;" d="M971.2,372.7c2.1,0-14,88.2-102.8,132.3c-54.8,27.2-115.2,26.7-114.8,23.8s62.2-6.5,119.3-38.7
		C953.7,444.4,969.3,372.8,971.2,372.7z"/>
	<path style="fill:#39393A;" d="M746.3,2175.9L746.3,2175.9c-82.8,28.4-171.4-17.6-197.9-102.7L368,1494.5
		c-26.5-85.2,19-177.2,101.8-205.6l0,0c82.8-28.4,171.4,17.6,197.9,102.7L848,1970.3C874.6,2055.4,829,2147.5,746.3,2175.9z"/>
	<path style="fill:#39393A;" d="M1605.9,2170.6L1605.9,2170.6c-79.6,36-172.3-1.5-207.2-83.7c-37.2-87.8-88.1-208.2-88.2-208.2
		c20.3-56,35.5-113.7,45.4-172.4c25.2-150,9.8-272.5,1.4-335.6c-3.7-27.4-7.6-50-10.4-65.1c13.4,2.2,26.3,6.6,38.3,12.9
		c43.4,23,60,65.1,64.8,78.9l236.8,559.1C1721.7,2038.7,1685.5,2134.6,1605.9,2170.6z"/>
	<path style="fill:#FFFFFF;" d="M708.1,1521.2H376.3c-7.8-20.1-12.9-41-15.3-62.4h327.6L708.1,1521.2z"/>
	<path style="fill:#FFFFFF;" d="M740,1623.4H408.2c-4.2-12.4-8.3-25.1-12.3-38.3c-2.5-8.2-4.9-16.2-7.2-24.2h331.8L740,1623.4z"/>
	<path style="fill:#FFFFFF;" d="M770,1719.9H438.1c-3.3-9.6-6.6-19.5-9.8-29.8c-2.8-9.1-5.4-18-7.7-26.7l330.8-0.1
		C757.6,1682.2,763.8,1701,770,1719.9z"/>
	<path style="fill:#FFFFFF;" d="M799.7,1813.1H467.8c-3.3-9.1-6.6-18.5-9.8-28.3c-2.8-8.6-5.4-17-7.7-25.3l330.8-0.1
		C787.3,1777.3,793.5,1795.2,799.7,1813.1z"/>
	<path style="fill:#FFFFFF;" d="M827.8,1905.4H495.9c-3.2-8.9-6.4-18.3-9.4-28.1c-2.5-8.3-4.8-16.4-6.9-24.2l331.8-0.1
		C816.9,1870.4,822.4,1887.9,827.8,1905.4z"/>
	<path style="fill:#FFFFFF;" d="M676,1418.8H362.5c1.9-15.4,6.3-30.5,13-44.5c3-6.2,6.5-12.2,10.3-17.9H652
		C663.8,1375.5,672,1396.7,676,1418.8L676,1418.8z"/>
	<path style="fill:#FFFFFF;" d="M1459.3,1418.9l-96-0.1c-1.6-13.2-3.2-26.5-4.8-39.7l84.3,0.2
		C1448.3,1392.5,1453.8,1405.7,1459.3,1418.9z"/>
	<path style="fill:#FFFFFF;" d="M1502.6,1521.2l-133.5-0.1c-0.6-20.7-1.2-41.5-1.8-62.2H1476L1502.6,1521.2z"/>
	<path style="fill:#FFFFFF;" d="M1545.9,1623.5h-179.5c1.4-20.7,2.7-41.5,4.1-62.2h149.2L1545.9,1623.5z"/>
	<path style="fill:#FFFFFF;" d="M1587.2,1721.1l-233.6-1.3c1.5-9.6,3-19.3,4.5-28.9c1.4-9.1,2.8-18.3,4.2-27.5l200.4-0.1
		L1587.2,1721.1z"/>
	<path style="fill:#FFFFFF;" d="M1625.6,1811.7l-293.8,1.4c2.4-8.9,4.9-17.8,7.3-26.9c2.3-8.7,4.5-17.3,6.7-25.8l258.1-0.1
		C1611.1,1777.4,1618.4,1794.6,1625.6,1811.7z"/>
	<path style="fill:#FFFFFF;" d="M1663.8,1901.8l-344.3-0.2l0,0c2.7,6.2-7-12.3-7.3-19.1c-0.2-5.2,1.6-5.6,5.1-19.7
		c1-4.2,1.7-7.6,2.2-9.9h323.6C1650,1869.3,1656.9,1885.5,1663.8,1901.8z"/>
	
		<rect x="125.1" y="118.4" style="fill:none;stroke:#E4DFDA;stroke-width:15;stroke-miterlimit:10;" width="1692.8" height="1692.8"/>
	<rect x="125.1" y="110.5" style="fill:#E4DFDA;" width="1692.8" height="76.2"/>
	<rect x="125.1" y="1733.8" style="fill:#E4DFDA;" width="1692.8" height="76.2"/>
	<circle style="fill:#FF8552;" cx="1664.3" cy="148.6" r="23.7"/>
	<circle style="fill:#E9D758;" cx="1737.8" cy="148.6" r="23.7"/>
	<circle style="fill:#39393A;" cx="1590.2" cy="148.6" r="23.7"/>
	<path style="fill:none;stroke:#FFFFFF;stroke-width:10;stroke-miterlimit:10;" d="M1086.2,1439.7c-53.7,59.2-148.4,79.2-235.4,50.1
		c-83.2-27.8-144.4-95.5-154.6-171.1c12.5-40.3,25-80.7,37.5-121c114.9,78.5,250.8,120.7,390,121
		C1111.3,1359.1,1098.7,1399.4,1086.2,1439.7z"/>
	<line style="fill:none;stroke:#FFFFFF;stroke-width:10;stroke-miterlimit:10;" x1="772.8" y1="1222.2" x2="723.3" y2="1391.9"/>
	<line style="fill:none;stroke:#FFFFFF;stroke-width:10;stroke-miterlimit:10;" x1="819" y1="1247.5" x2="762.8" y2="1438.8"/>
	<line style="fill:none;stroke:#FFFFFF;stroke-width:10;stroke-miterlimit:10;" x1="868.5" y1="1269.5" x2="812" y2="1473.1"/>
	<line style="fill:none;stroke:#FFFFFF;stroke-width:10;stroke-miterlimit:10;" x1="919.9" y1="1287.7" x2="868.5" y2="1495"/>
	<line style="fill:none;stroke:#FFFFFF;stroke-width:10;stroke-miterlimit:10;" x1="975.5" y1="1302.4" x2="926.6" y2="1503"/>
	<line style="fill:none;stroke:#FFFFFF;stroke-width:10;stroke-miterlimit:10;" x1="1025.9" y1="1311.6" x2="985.4" y2="1496.9"/>
	<line style="fill:none;stroke:#FFFFFF;stroke-width:10;stroke-miterlimit:10;" x1="1067.9" y1="1316.4" x2="1033.6" y2="1481.3"/>
	<line style="fill:none;stroke:#39393A;stroke-width:7;stroke-miterlimit:10;" x1="630.5" y1="734.1" x2="692.7" y2="701.4"/>
	<path style="fill:none;stroke:#D8C8C5;stroke-width:3;stroke-miterlimit:10;" d="M873.6,737.7c45.4-38.2,104.2-47.3,147.3-23.5
		c29.2,16.2,43.1,42.9,48.6,56"/>
	<path style="fill:none;stroke:#D8C8C5;stroke-width:3;stroke-miterlimit:10;" d="M1176.6,787.2c40.4-43.5,97.6-59.7,143.3-41.3
		c31,12.5,48,37.3,55.1,49.6"/>
	<line style="fill:none;stroke:#39393A;stroke-width:7;stroke-miterlimit:10;" x1="1351.7" y1="785.2" x2="1364.5" y2="772.4"/>
	<line style="fill:none;stroke:#39393A;stroke-width:7;stroke-miterlimit:10;" x1="1363.3" y1="797.3" x2="1375.8" y2="786.3"/>
	<line style="fill:none;stroke:#39393A;stroke-width:7;stroke-miterlimit:10;" x1="1373.6" y1="809.4" x2="1386.2" y2="800.1"/>
	<path style="fill:#FFFFFF;" d="M1184.9,802.9c0,0,42.6,57.2,91.5,60.1c47,2.8,95.5-44.6,98.4-47.7l0,0
		c-11.6-14.7-25.5-27.5-41.1-37.9c-9.1-6-28.8-19-50.4-22.2C1232.9,747.7,1190.7,796,1184.9,802.9z"/>
	
		<ellipse transform="matrix(5.913214e-02 -0.9983 0.9983 5.913214e-02 393.2404 2034.2101)" style="fill:#9CB0BC;" cx="1275.8" cy="808.5" rx="53.9" ry="49.7"/>
	<path style="fill:none;stroke:#39393A;stroke-width:10;stroke-miterlimit:10;" d="M1374.8,815.3c-33.9-47.5-86.8-69.5-132.3-56
		c-30.8,9.2-49.6,32.1-57.7,43.6"/>
	<line style="fill:none;stroke:#39393A;stroke-width:7;stroke-miterlimit:10;" x1="901.5" y1="730.8" x2="891.4" y2="716"/>
	<line style="fill:none;stroke:#39393A;stroke-width:7;stroke-miterlimit:10;" x1="887.1" y1="738.9" x2="876.6" y2="726.4"/>
	<line style="fill:none;stroke:#39393A;stroke-width:7;stroke-miterlimit:10;" x1="874.3" y1="748.9" x2="862.7" y2="738.8"/>
	<path style="fill:#FFFFFF;" d="M1061.9,786.8c0,0-54.5,45.7-103.3,37c-46.9-8.3-84-65.9-86.2-69.5l0,0
		c14.7-11.6,31.2-20.8,48.8-27.3c10.3-3.7,32.5-11.7,54.5-9.8C1027,721.8,1057.7,778.8,1061.9,786.8z"/>
	
		<ellipse transform="matrix(8.715379e-02 -0.9962 0.9962 8.715379e-02 118.5164 1671.389)" style="fill:#9CB0BC;" cx="971.3" cy="771" rx="53.9" ry="50.2"/>
	<path style="fill:none;stroke:#39393A;stroke-width:10;stroke-miterlimit:10;" d="M872.4,754.3c43.9-38.2,100.8-47.3,142.5-23.5
		c28.3,16.2,41.6,42.9,47,56"/>
</g>
<g id="INSTA">
	<path style="fill:#E36450;" d="M168.4,367.6H486c55.4,0,100.3,44.9,100.3,100.3v0c0,55.4-44.9,100.3-100.3,100.3H168.4
		c-55.4,0-100.3-44.9-100.3-100.3v0C68.1,412.5,113,367.6,168.4,367.6z"/>
	<path style="fill:#E36450;" d="M322.3,638.6L322.3,638.6l-44.6-91.4h91.4L322.3,638.6z"/>
	<path style="fill:#FFFFFF;" d="M464.7,405.2c-12.9,0-25.1,6.3-32.4,17l-1.5,1.9l-1-1.3c-7.1-11-19.3-17.6-32.5-17.6
		c-22.4,0-38.7,16.3-38.7,38.7c0,33.1,60,81.9,64.3,85.4c4.3,4.1,11,4.1,15.3,0c4.4-3.5,65.1-53.1,65.1-85.4
		C503.4,421.5,487.1,405.2,464.7,405.2z"/>
	<path style="fill:none;stroke:#FFFFFF;stroke-width:10;stroke-miterlimit:10;" d="M233.6,405.2c-36.4,0-66,26.6-66,59.4
		c0,11.5,3.7,22.8,10.5,32.1c-1.3,14.4-4.8,25.1-9.9,30.1c-0.9,0.9-0.9,2.2,0,3.1c0.4,0.4,1,0.7,1.6,0.6h0.3
		c0.9-0.1,21.6-3.1,36.6-11.8c8.6,3.4,17.7,5.2,26.9,5.2c36.4,0,66-26.6,66-59.4S270,405.2,233.6,405.2z"/>
</g>
</svg>
