<svg xmlns="http://www.w3.org/2000/svg" viewBox="0 0 1920 1920"><defs><style>.cls-1{fill:#39393a;}.cls-2{fill:#494949;}.cls-3{fill:#615f5e;}.cls-10,.cls-14,.cls-16,.cls-17,.cls-19,.cls-4,.cls-8,.cls-9{fill:none;stroke-miterlimit:10;}.cls-4{stroke:#615f5e;}.cls-19,.cls-4,.cls-8{stroke-width:10px;}.cls-5{fill:#9cb0bc;}.cls-6{fill:#fff;}.cls-7{fill:#fce7e3;}.cls-8{stroke:#fff;}.cls-14,.cls-16,.cls-19,.cls-9{stroke:#39393a;}.cls-9{stroke-width:20px;}.cls-10{stroke:#e9d758;stroke-width:15px;}.cls-11{fill:#e9d758;}.cls-12{fill:#297373;}.cls-13,.cls-15{fill:#ff8552;}.cls-14{stroke-width:5px;}.cls-15{opacity:0.25;}.cls-16{stroke-width:7px;}.cls-17{stroke:#e8d0cd;stroke-width:4px;}.cls-18{fill:#895540;}.cls-20{fill:#e36450;}</style></defs><g id="BACKGROUND"><rect class="cls-1" x="-61.35" y="-55.96" width="2066.17" height="2066.17"/></g><g id="_2ND_BACK" data-name="2ND BACK"><path class="cls-2" d="M285.08,1785.26H469.52c52.52,0,95.11-52,95.11-116.15S522,1553,469.52,1553h-63.4c-52.52,0-95.1-52-95.1-116.15s42.58-116.15,95.1-116.15H786.53c52.52,0,95.11-52,95.11-116.16s-42.59-116.15-95.11-116.15H146.74c-52.52,0-95.1-52-95.1-116.15S94.22,856,146.74,856H602.09c52.52,0,95.1-52,95.1-116.15s-42.58-116.15-95.1-116.15H429.17c-52.53,0-95.1-52-95.1-116.16s42.57-116.15,95.1-116.15H809.58c52.52,0,95.1-52,95.1-116.16s-42.58-116.15-95.1-116.15H751.94c-52.52,0-95.1-52-95.1-116.15S699.42-73.2,751.94-73.2h576.39c52.52,0,95.11,52,95.11,116.16s-42.59,116.15-95.11,116.15h-34.58c-52.53,0-95.1,52-95.1,116.15s42.57,116.16,95.1,116.16h63.41c52.52,0,95.1,52,95.1,116.15s-42.58,116.16-95.1,116.16h11.52c-52.52,0-95.1,52-95.1,116.15S1316.16,856,1368.68,856H1997c52.52,0,95.11,52,95.11,116.16s-42.59,116.15-95.11,116.15H1835.57c-52.52,0-95.1,52-95.1,116.15s42.58,116.16,95.1,116.16h23c52.53,0,95.11,52,95.11,116.15S1911.15,1553,1858.62,1553H1426.34c-52.52,0-95.11,52-95.11,116.16s42.59,116.15,95.11,116.15h219c52.52,0,95.11,52,95.11,116.15s-42.59,116.16-95.11,116.16H285.16c-52.52,0-95.11-52-95.11-116.16s42.58-116.15,95.11-116.15Z"/></g><g id="ELEMENTS"><ellipse class="cls-3" cx="646.08" cy="1123.5" rx="178.68" ry="156.77"/><ellipse class="cls-4" cx="930.45" cy="1046.55" rx="247.21" ry="258.1"/><ellipse class="cls-4" cx="794.53" cy="984.87" rx="357.36" ry="313.55"/><ellipse class="cls-4" cx="945.58" cy="798.4" rx="357.36" ry="313.55"/><ellipse class="cls-3" cx="930.45" cy="782.73" rx="357.36" ry="313.55"/><ellipse class="cls-3" cx="824.75" cy="997.14" rx="357.36" ry="313.55"/><ellipse class="cls-3" cx="824.75" cy="793.89" rx="357.36" ry="313.55"/><path class="cls-5" d="M550.94,2138.84l819.39,2.62a869.08,869.08,0,0,0,59.3-364.89c-11-202.75-90.77-349-132.86-415.58a2688.82,2688.82,0,0,0-863.87,0,1151.5,1151.5,0,0,0,118,777.85Z"/><path class="cls-6" d="M400.17,1617.57l1005.76,0q-2.72-10.95-5.88-22.35-2.47-8.91-5.06-17.47H400.17Z"/><path class="cls-6" d="M398.49,1719.86l1026.19.09q-1.23-9.85-2.79-20.17-1.55-10.15-3.28-19.78H398.49Z"/><path class="cls-6" d="M390,1816.2H1430.85q-.07-10.74-.46-22-.3-9-.8-17.66L390,1776.33Z"/><path class="cls-6" d="M387.22,1909.53H1426.38q1-9.73,1.88-19.91t1.38-19.95H387.22Z"/><path class="cls-6" d="M411.5,1515.34l953.62-.07v-39.86H415.63Q413.58,1495.38,411.5,1515.34Z"/><path class="cls-7" d="M966.28,1409.27c-33.91,56.86-98.91,86.12-162.73,73.31-64.24-12.9-114.54-65.88-125.66-132.37q16.9-178.77,33.8-357.56l290.16,40.2Q984.06,1221.07,966.28,1409.27Z"/><path class="cls-1" d="M990.72,1150.61q-95.06,24.21-195.62,46.33-53,11.61-104.87,22l12.41-132.07c31.79,22.68,96.2,63.94,158.16,68.06,22.76,1.51,49.05.68,49.05.68q26.88-2.47,55.39-3.95Q978.14,1151,990.72,1150.61Z"/><path class="cls-5" d="M1033.8,2248.46h0c78.86,28.41,163.28-17.59,188.57-102.74l171.83-578.64c25.29-85.15-18.14-177.2-97-205.61h0c-78.86-28.41-163.29,17.59-188.57,102.74L936.8,2042.85C911.51,2128,954.94,2220.05,1033.8,2248.46Z"/><path class="cls-5" d="M185.7,2227.16h0c75.81,36,164.19-1.47,197.38-83.74,35.45-87.84,84-208.15,84-208.15a1029.47,1029.47,0,0,1-43.25-172.4c-24-150-9.37-272.5-1.36-335.62,3.48-27.44,7.22-50,9.92-65.14A116.69,116.69,0,0,0,395.92,1375c-41.36,23-57.22,65.06-61.8,78.91L108.53,2013C75.34,2095.24,109.89,2191.14,185.7,2227.16Z"/><path class="cls-6" d="M1072.25,1578.7h316.12a256.19,256.19,0,0,0,10.33-35.64,259.67,259.67,0,0,0,4.23-26.77l-312.14,0Z"/><path class="cls-6" d="M1039.8,1681h316.12q6-18.6,11.74-38.25,3.55-12.26,6.81-24.22H1058.34Z"/><path class="cls-6" d="M1015.66,1774.66l316.24,0q4.78-14.34,9.34-29.84,4-13.68,7.32-26.71l-315.23-.08Z"/><path class="cls-6" d="M982.87,1870.64l316.25,0q4.77-13.58,9.33-28.26,4-12.93,7.33-25.28l-315.23-.08Q991.7,1843.84,982.87,1870.64Z"/><path class="cls-6" d="M956.06,1962.91l316.24,0c3.06-8.9,6.06-18.28,8.92-28.11q3.62-12.45,6.51-24.22l-316.1-.08Z"/><path class="cls-6" d="M1100.76,1491.41h298.68a148.41,148.41,0,0,0-12.41-44.48,143.11,143.11,0,0,0-9.85-17.93l-253.58,0a181.84,181.84,0,0,0-12.07,24.43A185.54,185.54,0,0,0,1100.76,1491.41Z"/><path class="cls-6" d="M325.42,1475.47l91.44-.06,4.53-39.69-80.34.14Z"/><path class="cls-6" d="M284.15,1577.75l127.21-.06q.86-31.1,1.72-62.19H309.45Z"/><path class="cls-6" d="M242.88,1680,414,1680,410,1617.78H267.88Q255.37,1648.91,242.88,1680Z"/><path class="cls-6" d="M203.48,1777.67l222.59-1.33q-2.18-14.46-4.31-28.91-2-13.73-4-27.47l-190.94-.1Z"/><path class="cls-6" d="M166.91,1868.3l280,1.37q-3.51-13.31-6.93-26.89-3.29-13-6.37-25.79l-245.9-.13Z"/><path class="cls-6" d="M130.57,1958.37l328-.17h0c-2.6,6.23,6.66-12.28,6.92-19.08.21-5.18-1.56-5.62-4.86-19.69-1-4.19-1.65-7.65-2.06-9.9H150.21Q140.4,1934,130.57,1958.37Z"/><path class="cls-8" d="M1011.76,1455.89a486.9,486.9,0,0,1-382.22-9.42q14.37-122.19,28.72-244.37a385.84,385.84,0,0,0,363.29,0Q1016.65,1329,1011.76,1455.89Z"/><path class="cls-8" d="M690.23,1219q-13.37,120.72-26.74,241.46"/><line class="cls-8" x1="730.95" y1="1231.79" x2="706.27" y2="1477.84"/><line class="cls-8" x1="765.51" y1="1239.1" x2="749.51" y2="1485.56"/><line class="cls-8" x1="799.92" y1="1245.45" x2="789.14" y2="1490.44"/><line class="cls-8" x1="838.56" y1="1247.53" x2="827.98" y2="1490.4"/><line class="cls-8" x1="874.28" y1="1245.99" x2="865.5" y2="1490.44"/><line class="cls-8" x1="911.59" y1="1240.79" x2="901.51" y2="1485.56"/><line class="cls-8" x1="944.93" y1="1232.92" x2="938.12" y2="1477.45"/><line class="cls-8" x1="981.98" y1="1220.39" x2="970.07" y2="1469.23"/><path class="cls-9" d="M497.43,1351.29a1192.32,1192.32,0,0,0,413,790.17"/><ellipse class="cls-4" cx="607.06" cy="578.91" rx="158.51" ry="96.92" transform="translate(-231.55 598.81) rotate(-45)"/><ellipse class="cls-4" cx="824.75" cy="438.5" rx="188.85" ry="139.28" transform="translate(-51.16 114.05) rotate(-7.67)"/><ellipse class="cls-4" cx="1166.95" cy="521.46" rx="82.85" ry="108" transform="translate(66.36 1171.38) rotate(-54.64)"/><ellipse class="cls-4" cx="1220.9" cy="572.35" rx="69" ry="71.21" transform="translate(47.59 1236.82) rotate(-54.64)"/><circle class="cls-3" cx="543.91" cy="717.37" r="76.52"/><rect class="cls-10" x="115.78" y="117.25" width="1692.79" height="1692.79"/><rect class="cls-11" x="116.23" y="116.2" width="1692.79" height="76.24"/><circle class="cls-12" cx="1664.75" cy="151.32" r="23.74"/><circle class="cls-5" cx="1738.27" cy="151.32" r="23.74"/><circle class="cls-13" cx="1590.7" cy="151.32" r="23.74"/><rect class="cls-11" x="112.06" y="1732.9" width="1692.79" height="76.24"/><path class="cls-1" d="M735.58,1182.57c-1,2.35-163.14-3.53-202.92-96.15-24.54-57.15,7.38-124.3,12.78-124.2s-19.27,68.22,13.78,127.18C606.05,1172.92,736.51,1180.46,735.58,1182.57Z"/><path class="cls-1" d="M1117.13,901.62c2.55-.16,71.68,146.59,7.63,224.42-39.53,48-113.84,50.46-116.23,45.61s69.46-14.16,106.69-70.58C1168,1021.15,1114.82,901.76,1117.13,901.62Z"/><ellipse class="cls-7" cx="527.9" cy="812.71" rx="86.51" ry="94.74" transform="translate(-103.79 77.76) rotate(-7.67)"/><ellipse class="cls-7" cx="901.51" cy="772.17" rx="353.64" ry="387.28" transform="translate(-95.03 127.29) rotate(-7.67)"/><path class="cls-1" d="M954.41,735.67q1.76,31.62,1.75,63.29t-1.81,63.19q-1,17.79-2.59,35.55a3,3,0,0,0,3,3,3.06,3.06,0,0,0,3-3q2.79-31.46,3.81-63t.26-63.26q-.42-17.88-1.42-35.74a3.07,3.07,0,0,0-3-3,3,3,0,0,0-3,3Z"/><path class="cls-1" d="M955.29,900.69l43.84-.9c3.85-.07,3.87-6.07,0-6l-43.84.9c-3.86.08-3.87,6.08,0,6Z"/><path class="cls-1" d="M996.75,895.53q-18.11,21-35.65,42.56-5,6.18-10,12.38a3.09,3.09,0,0,0,0,4.25,3,3,0,0,0,4.24,0q17.38-21.68,35.35-42.87,5.13-6.06,10.31-12.08a3.07,3.07,0,0,0,0-4.24,3,3,0,0,0-4.24,0Z"/><path class="cls-13" d="M982.15,1059.36c.25,10.75-34.29,22-65.54,21-31.65-1.08-65.94-15-65-25.78.94-10.2,33.9-20,51.73-16.77a109.12,109.12,0,0,0,14.41,1.94,115,115,0,0,0,19.7-.51C955.22,1037.84,981.94,1050,982.15,1059.36Z"/><path class="cls-14" d="M838.59,1046.55a318.37,318.37,0,0,0,78.81,13.57,311.08,311.08,0,0,0,80.15-6.9"/><ellipse class="cls-15" cx="720.09" cy="934.78" rx="48.52" ry="53.14" transform="matrix(0.99, -0.13, 0.13, 0.99, -118.37, 104.52)"/><ellipse class="cls-15" cx="1130.58" cy="929.79" rx="52.35" ry="57.33" transform="translate(-114.02 159.28) rotate(-7.67)"/><ellipse class="cls-1" cx="1090.6" cy="698.63" rx="71.88" ry="12.09" transform="translate(-83.52 151.88) rotate(-7.67)"/><ellipse class="cls-1" cx="824.75" cy="698.63" rx="12.02" ry="72.3" transform="translate(12.31 1411.55) rotate(-81.53)"/><path class="cls-16" d="M479.21,770.27C486.9,770.6,514,772.83,538,797c22.37,22.57,28.25,50.33,29.81,59.3"/><line class="cls-16" x1="489.52" y1="830.79" x2="540.11" y2="800.46"/><ellipse class="cls-3" cx="839.87" cy="449.21" rx="188.85" ry="139.28" transform="translate(-52.46 116.16) rotate(-7.67)"/><ellipse class="cls-3" cx="1040.49" cy="459.95" rx="125.16" ry="153.44" transform="translate(432.37 1421.39) rotate(-81.53)"/><ellipse class="cls-3" cx="626.28" cy="578.85" rx="172.15" ry="96.92" transform="translate(-225.87 612.39) rotate(-45)"/><ellipse class="cls-3" cx="1176.09" cy="545.32" rx="82.85" ry="108" transform="translate(50.75 1188.88) rotate(-54.64)"/><path class="cls-1" d="M721,383.82c-4.16-7.55,72.22-74.14,148.9-39.15s76,136.42,68.16,138.05c-6.77,1.41-21.44-70.34-82.73-99.21C792.36,353.83,724.7,390.47,721,383.82Z"/><path class="cls-1" d="M693,527.53c6.2-1.76,16.85,60.54-34.24,108.17S546.37,668,548.44,662.39c1.78-4.87,51-4.46,92.4-42.4C683.38,581,687.49,529.07,693,527.53Z"/><path class="cls-1" d="M999.8,385.53c-1.18-7.27,79.23-37.83,130.86,12.9S1152.78,530.06,1146,529c-5.84-.89,2.88-62.6-38.13-103.87C1065.69,382.72,1000.85,391.93,999.8,385.53Z"/><path class="cls-17" d="M712.47,762.28C757.87,724,816.65,715,859.78,738.82c29.24,16.17,43.05,42.9,48.64,56"/><path class="cls-17" d="M1004.76,785.47c24.37-40,67.9-63,111.81-58.82,49.39,4.69,77.52,41.68,82.12,47.94"/><line class="cls-16" x1="737.8" y1="765.76" x2="725.23" y2="753.67"/><line class="cls-16" x1="727.63" y1="773.31" x2="715.36" y2="763.26"/><line class="cls-16" x1="717.95" y1="783.02" x2="705.84" y2="774.43"/><path class="cls-6" d="M898.19,798s-44.92,52.13-91.72,49.73c-45-2.3-87.37-54.71-89.94-58.06h0a162.43,162.43,0,0,1,42-33.16c9.14-5,28.85-15.72,49.69-16.57C856.84,738,893.21,790.63,898.19,798Z"/><ellipse class="cls-18" cx="811.27" cy="793.79" rx="47.4" ry="53.93" transform="translate(-64.78 72.13) rotate(-4.9)"/><path class="cls-19" d="M716.53,789.71c36-43.43,88-59.58,130.18-41.2C875.33,761,891.4,785.77,898.19,798"/><line class="cls-16" x1="1171.04" y1="763.55" x2="1183.39" y2="751.21"/><line class="cls-16" x1="1182.63" y1="772.18" x2="1193.88" y2="760.93"/><line class="cls-16" x1="1192.15" y1="781.67" x2="1203.27" y2="771.73"/><path class="cls-6" d="M1015.45,798.4s47.45,51.28,93.64,48c44.4-3.12,83.37-56.27,85.72-59.66h0a170.56,170.56,0,0,0-43.51-32.38c-9.34-4.81-29.46-15.18-50.13-15.65C1053,737.66,1020,790.9,1015.45,798.4Z"/><ellipse class="cls-18" cx="1101.26" cy="792.57" rx="46.93" ry="53.94" transform="translate(-73.07 112.95) rotate(-5.68)"/><path class="cls-19" d="M1194.82,786.77c-38.11-42.75-90.49-57.94-131.23-38.81-27.62,13-42.11,38.06-48.14,50.44"/></g><g id="INSTA"><rect class="cls-20" x="1307.9" y="999.89" width="518.13" height="200.57" rx="100.28"/><path class="cls-20" d="M1562.08,1270.9h0l-44.61-91.38h91.38Z"/><path class="cls-6" d="M1704.46,1037.5a39.12,39.12,0,0,0-32.37,17l-1.5,1.91-1-1.28a38.59,38.59,0,0,0-32.44-17.6c-22.44,0-38.72,16.28-38.72,38.71,0,33.12,60,81.93,64.33,85.45a11.07,11.07,0,0,0,15.27,0c4.38-3.53,65.15-53.12,65.15-85.44C1743.17,1053.78,1726.89,1037.5,1704.46,1037.5Z"/><path class="cls-8" d="M1473.37,1037.5c-36.39,0-66,26.64-66,59.39a55,55,0,0,0,10.49,32.13c-1.3,14.38-4.78,25-9.84,30.11a2.2,2.2,0,0,0,1.55,3.76,1.55,1.55,0,0,0,.31,0c.89-.12,21.59-3.1,36.56-11.74a71.58,71.58,0,0,0,26.93,5.17c36.38,0,66-26.65,66-59.4S1509.75,1037.5,1473.37,1037.5Z"/></g></svg>