<svg xmlns="http://www.w3.org/2000/svg" viewBox="0 0 1920 1920"><defs><style>.cls-1{fill:#297373;}.cls-2{fill:#327f7b;}.cls-14,.cls-3{fill:#552f41;}.cls-3,.cls-4{stroke:#3b2531;stroke-width:25px;}.cls-11,.cls-12,.cls-17,.cls-18,.cls-19,.cls-24,.cls-3,.cls-4,.cls-8{stroke-miterlimit:10;}.cls-11,.cls-12,.cls-17,.cls-18,.cls-19,.cls-24,.cls-4,.cls-8{fill:none;}.cls-5{fill:#c48e76;}.cls-6{fill:#39393a;}.cls-21,.cls-7{fill:#ff8552;}.cls-7{opacity:0.5;}.cls-8{stroke:#a5796b;}.cls-18,.cls-8{stroke-width:5px;}.cls-9{fill:#fff;}.cls-10{fill:#604740;}.cls-11,.cls-12,.cls-18{stroke:#39393a;}.cls-11,.cls-17,.cls-24{stroke-width:10px;}.cls-12{stroke-width:7px;}.cls-13{fill:#3b2531;}.cls-15{fill:#1a59b5;}.cls-16{fill:#224e7a;}.cls-17{stroke:#224e7a;}.cls-19{stroke:#e4dfda;stroke-width:15px;}.cls-20{fill:#e4dfda;}.cls-22{fill:#e9d758;}.cls-23{fill:#e36450;}.cls-24{stroke:#fff;}</style></defs><g id="BACKGROUND"><rect class="cls-1" x="-68.73" y="-45.69" width="2031.64" height="2031.64"/></g><g id="_2ND_BACK" data-name="2ND BACK"><path class="cls-2" d="M229.36,1744h225.4a116,116,0,1,0,0-232.09H377.28a116,116,0,1,1,0-232.09h464.9a116.05,116.05,0,1,0,0-232.1H60.3a116,116,0,1,1,0-232.09H616.77a116.05,116.05,0,1,0,0-232.1H405.45a116,116,0,1,1,0-232.09H870.34a116.05,116.05,0,1,0,0-232.1H799.91a116.11,116.11,0,0,1-116.23-116,116.12,116.12,0,0,1,116.23-116H1504.3A116.12,116.12,0,0,1,1620.53,3.26a116.11,116.11,0,0,1-116.23,116H1462a116.05,116.05,0,1,0,0,232.1h77.48a116,116,0,1,1,0,232.09h14.09a116.05,116.05,0,1,0,0,232.1H2321.4a116,116,0,1,1,0,232.09H2124.18a116.05,116.05,0,1,0,0,232.1h28.18a116,116,0,1,1,0,232.09H1624.07a116,116,0,1,0,0,232.09h267.67a116.05,116.05,0,1,1,0,232.1H229.46a116.05,116.05,0,1,1,0-232.1Z"/></g><g id="ELEMENTS"><path class="cls-3" d="M1338.49,1534.18l-733,1.94c-56.49-198.42-61.07-365-55.34-476.31,10.11-196.4,20.55-399.36,169-509.17,97.77-72.34,214.84-74.23,248.85-74.78,35-.57,166.68-2.69,271.93,80.58C1350.4,643.91,1370.22,777.61,1390,925.78,1407.05,1053.54,1417.24,1268.15,1338.49,1534.18Z"/><path class="cls-4" d="M910.35,514.89c-42.91,12.38-105,37.68-151.06,93.86-66.38,81-60.56,178.6-49.87,391.59,3.61,71.75,10.54,211.92,20,420.18"/><path class="cls-4" d="M961.52,507.18c-42.91,12.39-105,37.69-151.06,93.87-66.38,81-60.56,178.6-49.87,391.59,3.6,71.75,10.54,211.92,20,420.18"/><path class="cls-4" d="M1030.21,521.83c42.91,12.39,105,37.69,151.06,93.87,66.38,81,60.56,178.6,49.87,391.59-3.6,71.75-10.54,211.92-20,420.18"/><path class="cls-4" d="M979,514.13c42.91,12.38,105,37.68,151.07,93.87,66.37,81,60.55,178.59,49.86,391.59-3.6,71.74-10.53,211.91-20,420.17"/><rect class="cls-5" x="1310.98" y="1465.76" width="344.72" height="664.68" rx="172.36" transform="translate(-189.11 174.41) rotate(-6.33)"/><rect class="cls-5" x="280.64" y="1463.01" width="344.72" height="664.68" rx="172.36" transform="translate(391.19 -55.24) rotate(12.25)"/><circle class="cls-5" cx="966.6" cy="845.74" r="343.74"/><circle class="cls-5" cx="601.23" cy="829.27" r="96.92"/><circle class="cls-5" cx="1350.56" cy="837.23" r="96.92"/><ellipse class="cls-6" cx="838.27" cy="739.17" rx="14.38" ry="83.19" transform="translate(-25.63 1448.22) rotate(-80.78)"/><path class="cls-7" d="M1059,1067.7c-.08,1.15-4,1.61-16.94,3-45.17,4.91-41.38,7.56-60,7.75-9.62.09-23-1.6-49.82-5-17.31-2.19-25.95-3.5-26-5.16-.23-4.27,37.49-12.18,76-12.25C1021.5,1056,1059.28,1064.14,1059,1067.7Z"/><path class="cls-6" d="M976.3,803.92q1.79,27.45,1.9,55t-1.48,54.72q-.88,15.46-2.31,30.89a3,3,0,0,0,3,3,3.07,3.07,0,0,0,3-3q2.52-27.39,3.37-54.89t0-54.75q-.48-15.48-1.49-30.94a3.07,3.07,0,0,0-3-3,3,3,0,0,0-3,3Z"/><path class="cls-6" d="M977.91,947.47l41.47-2a3.07,3.07,0,0,0,3-3,3,3,0,0,0-3-3l-41.47,2a3.07,3.07,0,0,0-3,3,3,3,0,0,0,3,3Z"/><path class="cls-6" d="M1017,941.14q-17,18.74-33.6,37.91-4.73,5.46-9.4,11a3.09,3.09,0,0,0,0,4.24,3,3,0,0,0,4.25,0q16.4-19.31,33.31-38.16,4.83-5.37,9.69-10.71a3,3,0,0,0-4.25-4.25Z"/><circle class="cls-7" cx="758.38" cy="974.94" r="60.23"/><circle class="cls-7" cx="1185.64" cy="982.91" r="60.23"/><path class="cls-8" d="M721.31,813.3c47.7-40.17,109.45-49.69,154.77-24.64,30.72,17,45.23,45.07,51.1,58.81"/><path class="cls-8" d="M1019.41,844.4c32.94-53,88.71-81.12,139.56-71.32,34.47,6.65,57,28.87,66.78,40.11"/><path class="cls-9" d="M924.29,865.84s-59.23,48-112.23,38.91c-50.93-8.71-91.22-69.23-93.64-73.07h0a191.1,191.1,0,0,1,53-28.64c11.19-3.9,35.31-12.32,59.2-10.27C886.36,797.53,919.75,857.42,924.29,865.84Z"/><ellipse class="cls-10" cx="825.83" cy="849.22" rx="56.7" ry="54.5" transform="translate(-144.71 1528.35) rotate(-80.78)"/><path class="cls-11" d="M718.42,831.68C766.12,791.5,827.87,782,873.19,807c30.72,17,45.23,45.07,51.1,58.8"/><line class="cls-12" x1="754.37" y1="808.55" x2="746.67" y2="790.79"/><line class="cls-12" x1="742.69" y1="814.3" x2="733.66" y2="797.17"/><line class="cls-12" x1="730.99" y1="820.95" x2="721.31" y2="804.18"/><path class="cls-9" d="M1026,861.05s59.79,48,113.29,38.91c51.42-8.71,92.08-69.23,94.52-73.07h0a193.21,193.21,0,0,0-53.52-28.63c-11.3-3.91-35.65-12.33-59.76-10.28C1064.32,792.74,1030.62,852.63,1026,861.05Z"/><ellipse class="cls-10" cx="1125.42" cy="844.43" rx="55" ry="56.72" transform="translate(-150.76 251.99) rotate(-11.98)"/><path class="cls-11" d="M1233.84,826.89c-48.15-40.18-110.48-49.69-156.23-24.64-31,17-45.66,45.07-51.58,58.8"/><line class="cls-12" x1="1197.55" y1="803.76" x2="1205.33" y2="786"/><line class="cls-12" x1="1209.35" y1="809.51" x2="1218.46" y2="792.39"/><line class="cls-12" x1="1221.16" y1="816.16" x2="1230.93" y2="799.39"/><path class="cls-12" d="M1406.83,801c-8.86.33-40.09,2.56-67.74,26.75a107.76,107.76,0,0,0-34.36,59.3"/><line class="cls-12" x1="1394.95" y1="861.52" x2="1336.63" y2="831.19"/><path class="cls-12" d="M544.14,798.64c8.89.33,40.25,2.56,68,26.76a107.63,107.63,0,0,1,34.51,59.3"/><line class="cls-12" x1="556.07" y1="859.15" x2="614.63" y2="828.82"/><ellipse class="cls-6" cx="1103.76" cy="739.17" rx="83.19" ry="14.38" transform="translate(-104.15 186.35) rotate(-9.22)"/><path class="cls-4" d="M854.27,522.91c-42.91,12.38-105,37.68-151.06,93.86-66.38,81-60.56,178.6-49.87,391.59,3.61,71.75,10.54,211.92,20,420.18"/><path class="cls-4" d="M874.67,518.31C793.74,549.1,745.39,591.84,718,621.67,596.11,754.37,598.13,948.16,599.4,1071c0,2.93,2.56,49.82,7.62,143.61,5.81,107.79,10.67,196,14,255.14"/><path class="cls-4" d="M1086.29,529.86c42.91,12.38,105,37.68,151.06,93.86,66.38,81,60.56,178.6,49.87,391.59-3.6,71.75-10.54,211.92-20,420.18"/><path class="cls-4" d="M1065.9,525.25c80.92,30.79,129.27,73.54,156.67,103.36,121.88,132.71,119.87,326.5,118.59,449.34,0,2.94-2.56,49.83-7.62,143.62-5.81,107.79-10.67,196-14,255.14"/><path class="cls-13" d="M1061.77,453.26c-2.47,4.38-39-29-95.16-28.79s-92.34,33.69-94.83,29.33c-2.82-4.92,39.1-55.16,94.78-55.35S1064.56,448.32,1061.77,453.26Z"/><path class="cls-14" d="M1099.35,526.8c.4,27.81-12.61,65.27-36.29,72.08-6,1.72-10.68.91-18.77,5-13.79,6.92-13.8,16.08-26,20.24-7.73,2.63-8.06-.92-21.73.95-16.7,2.29-18.48,7.9-29.94,7.32-9.47-.48-9.08-4.35-22.06-6.85-15.82-3-18.48,2.31-28.75-1.16-11.58-3.9-10.85-11.57-25.38-18.92-8.62-4.35-14-4.27-19.51-5.93-24-7.27-37.48-44.57-37-72.7.41-26.95,12.77-60.92,35.88-71.92,5.11-2.44,12-4.35,22.41-10.85,12.68-7.93,14.7-12.74,24.61-15.5,8.07-2.24,8.64.41,21.87-1.19,15.69-1.91,16.47-5.84,28-6.09,9-.2,8.61,2.2,25.63,4.71,17.28,2.55,18.29.18,26.77,3.08,8.66,2.95,9.61,6.1,23,14.19,10.6,6.41,17.68,9.07,21.65,11.07C1084.93,465,1098.94,497.81,1099.35,526.8Z"/><ellipse class="cls-13" cx="966.61" cy="526.8" rx="19.77" ry="104.26"/><ellipse class="cls-13" cx="917.09" cy="526.43" rx="19.77" ry="97.58"/><ellipse class="cls-13" cx="1016.82" cy="526.8" rx="19.77" ry="97.58"/><ellipse class="cls-13" cx="871.64" cy="526.9" rx="13.87" ry="72.7"/><ellipse class="cls-13" cx="1061.9" cy="526.43" rx="13.87" ry="72.7"/><path class="cls-15" d="M1501,2300.47l-1048-4q97-431.36,194-862.71a1227,1227,0,0,1,686.89,10.11Q1417.43,1872.15,1501,2300.47Z"/><path class="cls-15" d="M453,2120.7H740.85V1411.22l-279.43,57.3c24.54,49.2,31.71,90.53,33.67,119.37,6.78,99.58-37.88,206.43-37.88,206.43h0S454.86,1976.33,453,2120.7Z"/><path class="cls-15" d="M1483.34,2119.42H1195.48V1409.94l279.43,57.29c-24.54,49.2-31.71,90.53-33.67,119.38-6.78,99.57,37.88,206.42,37.88,206.42h0S1481.47,1975.05,1483.34,2119.42Z"/><path class="cls-16" d="M982.26,1718.28c-74.59,3.53-130.57-107-138.73-123.11,0,0-17.14-33.82-46.33-192.88h0a1420.43,1420.43,0,0,1,359.55,1.16h0c-33.08,158.74-53,196.88-53,196.88C1084.85,1636.58,1043.74,1715.38,982.26,1718.28Z"/><path class="cls-17" d="M828.54,1516a920.32,920.32,0,0,1-76.35,253.62,920.64,920.64,0,0,1-165.63,243.27"/><path class="cls-17" d="M1122.82,1516a919.22,919.22,0,0,0,242,496.89"/><line class="cls-17" x1="981.73" y1="1696.45" x2="981.75" y2="1985.96"/><path class="cls-17" d="M1475.39,1468q-120-25.92-249.3-47.42-52.77-8.7-104.29-16.08"/><circle class="cls-16" cx="1474.05" cy="1469.04" r="7.47"/><path class="cls-17" d="M1475.39,1468c-29.21,52.8-35.08,95.86-35.43,124.25-.67,54.78,18.38,126.42,37.38,197.94.12.46.45,1.71.81,3.4a71.11,71.11,0,0,1-.81,31.38c-7.74,33.31.33,101.77,2.8,122.76h0"/><path class="cls-17" d="M460,1468.73c29.21,52.8,35.09,95.86,35.43,124.25.67,54.78-18.37,126.42-37.37,197.94-.12.45-.46,1.71-.81,3.4a71.11,71.11,0,0,0,.81,31.38c7.74,33.31-.33,101.77-2.8,122.75h0"/><path class="cls-17" d="M460,1468.73q120-25.92,249.31-47.43,52.77-8.68,104.29-16.07"/><circle class="cls-16" cx="461.31" cy="1469.76" r="7.47"/><path class="cls-5" d="M1131.67,1400.4c1.6,174.24-84.32,294.15-150.15,296-66.78,1.94-162.13-116.18-165.83-296.7q-1.5-123.24-3-246.48a344.73,344.73,0,0,0,318.86-5.87Q1131.61,1273.9,1131.67,1400.4Z"/><path class="cls-6" d="M1131.53,1147.4s-107,65.49-194.9,137.46a1147.63,1147.63,0,0,0-120.94,114.89q-1.43-123.12-2.86-246.24a345.35,345.35,0,0,0,318.7-6.11Z"/><path class="cls-7" d="M904.71,1083.07c2.55-4,31.53,23.27,76.57,23.11,48.67-.18,79.68-32.25,82.45-28.29,3.17,4.53-32.57,53.89-81.53,53.75C936.17,1131.51,901.76,1087.71,904.71,1083.07Z"/><path class="cls-9" d="M907.94,1084.49c-17-13.52-24.07-15.93-23.61-17.71,1.18-4.5,46.84,8.11,96.9,9a325.62,325.62,0,0,0,77.8-8.09c12.56-3.72,15.63-3.35,16.12-2.32.93,2-6.8,7.73-17.6,15.79-1,.75-8.36,7.61-12.72,9-31.54,10.46-47.31,15.69-63.55,16,0,0-30.07.48-66.81-16.34C913.64,1089.46,911.5,1087.32,907.94,1084.49Z"/><path class="cls-18" d="M883.25,1065.34a422.13,422.13,0,0,0,197-2.42"/><path class="cls-18" d="M887.74,1044.28a38.6,38.6,0,0,1-15.93,37.27"/><path class="cls-18" d="M1075.94,1043.15a38.6,38.6,0,0,0,15.93,37.27"/><path class="cls-18" d="M883.25,1065.75c6.4,6.41,41.89,40.72,98,40.43,57.38-.3,92.93-36.51,99-42.86"/><rect class="cls-19" x="113.61" y="117.58" width="1692.79" height="1692.79"/><rect class="cls-20" x="113.61" y="109.63" width="1692.79" height="76.24"/><rect class="cls-20" x="113.61" y="1732.96" width="1692.79" height="76.24"/><circle class="cls-21" cx="1652.76" cy="147.75" r="23.74"/><circle class="cls-22" cx="1726.27" cy="147.75" r="23.74"/><circle class="cls-6" cx="1578.71" cy="147.75" r="23.74"/></g><g id="INSTA"><rect class="cls-23" x="32.79" y="515" width="518.13" height="200.57" rx="100.28"/><path class="cls-23" d="M287,786h0l-44.61-91.38h91.38Z"/><path class="cls-9" d="M429.35,552.61a39.11,39.11,0,0,0-32.37,17l-1.5,1.91-1-1.28A38.58,38.58,0,0,0,362,552.61c-22.43,0-38.71,16.28-38.71,38.71,0,33.12,59.95,81.93,64.33,85.44a11,11,0,0,0,15.26,0c4.39-3.54,65.15-53.12,65.15-85.44C468.06,568.89,451.78,552.61,429.35,552.61Z"/><path class="cls-24" d="M198.25,552.61c-36.39,0-66,26.64-66,59.39a54.85,54.85,0,0,0,10.49,32.12c-1.3,14.38-4.79,25.06-9.85,30.12a2.2,2.2,0,0,0,1.56,3.75l.31,0c.89-.13,21.58-3.11,36.55-11.74a71.61,71.61,0,0,0,26.93,5.16c36.39,0,66-26.64,66-59.39S234.64,552.61,198.25,552.61Z"/></g></svg>