<?xml version="1.0" encoding="utf-8"?>
<!-- Generator: Adobe Illustrator 24.3.0, SVG Export Plug-In . SVG Version: 6.00 Build 0)  -->
<svg version="1.1" id="Layer_1" xmlns="http://www.w3.org/2000/svg" xmlns:xlink="http://www.w3.org/1999/xlink" x="0px" y="0px"
	 viewBox="0 0 720 432" style="enable-background:new 0 0 720 432;" xml:space="preserve">
<style type="text/css">
	.st0{fill:#FFFFFF;}
</style>
<g>
	<g>
		<path class="st0" d="M202.4,185.8c-6.8,5.1-15.2,7.6-23.7,7c-8.6-0.6-16.7-4.2-22.8-10.3c-6.7-6.7-10.4-15.6-10.4-25.1
			c0-9.5,3.7-18.4,10.4-25.1c13.9-13.9,36.4-13.9,50.3,0l12.5,12.5c2.3,2.3,6.1,2.3,8.4,0c2.3-2.3,2.3-6.1,0-8.4l-12.5-12.5
			c-18.5-18.5-48.6-18.5-67,0c-9,9-13.9,20.9-13.9,33.5s4.9,24.6,13.9,33.5c8.1,8.1,18.9,13,30.4,13.8c1,0.1,2.1,0.1,3.1,0.1
			c10.3,0,20.3-3.3,28.5-9.5c2.6-2,3.1-5.7,1.2-8.3C208.7,184.4,205,183.8,202.4,185.8z"/>
		<path class="st0" d="M344.4,119.6C334.4,109.5,321,104,306.7,104s-27.6,5.5-37.7,15.6l0,0l-50.3,50.3c-2.3,2.3-2.3,6.1,0,8.4
			c1.2,1.2,2.7,1.7,4.2,1.7c1.5,0,3-0.6,4.2-1.7l50.3-50.3h0c7.8-7.8,18.3-12.2,29.3-12.2c11.1,0,21.5,4.3,29.3,12.2
			c1.2,1.2,2.7,1.7,4.2,1.7c1.5,0,3-0.6,4.2-1.7C346.7,125.7,346.7,121.9,344.4,119.6z"/>
	</g>
	<g>
		<path class="st0" d="M453.4,270.5L419.9,304c0,0,0,0,0,0c-16.2,16.2-42.5,16.2-58.7,0c-2.3-2.3-6.1-2.3-8.4,0
			c-2.3,2.3-2.3,6.1,0,8.4c10.4,10.4,24.1,15.6,37.7,15.6c13.7,0,27.3-5.2,37.7-15.6l0,0l33.5-33.5c2.3-2.3,2.3-6.1,0-8.4
			C459.5,268.2,455.7,268.2,453.4,270.5z"/>
		<circle class="st0" cx="474.4" cy="257.9" r="5.9"/>
	</g>
	<g>
		<path class="st0" d="M253.1,234.8h-8.6L244,231c-1.9,2.7-4.8,4.8-9.2,4.8c-8.3,0-12.4-6.9-12.4-17.4c0-10,5.1-17.2,13.5-17.2
			c3,0,5.6,1.2,7.5,3.1v-16l9.7,1V234.8z M243.4,225.1v-14c-1.5-1.7-2.9-2.8-5-2.8c-3.5,0-5.9,2.9-5.9,10.2c0,8.1,2.2,10.2,5.4,10.2
			C240.1,228.7,241.9,227.5,243.4,225.1z"/>
		<path class="st0" d="M270.2,190.7c0,3.2-2.5,5.7-6,5.7c-3.5,0-5.9-2.5-5.9-5.7c0-3.2,2.4-5.7,5.9-5.7
			C267.7,185,270.2,187.4,270.2,190.7z M259.5,234.8v-32.5h9.7v32.5H259.5z"/>
		<path class="st0" d="M296.1,205.5c4.1,1.8,6.1,4.2,6.1,8.4c0,6.3-5.2,10.9-13.6,10.9c-1.3,0-2.6-0.1-3.7-0.4c-0.7,0.4-1,1.1-1,1.8
			c0,1,0.4,2,3.6,2h4.9c7.6,0,12.4,4,12.4,9.4c0,6.7-5.9,10.8-17,10.8c-12.3,0-15.5-4-15.5-10.5h8.7c0,2.8,1.2,4,7.1,4
			c5.7,0,7-1.6,7-3.7c0-1.9-1.4-3.2-4.7-3.2h-4.7c-7.1,0-10-2.9-10-6.4c0-2.4,1.5-4.8,3.9-6.2c-4.2-2.2-5.8-5.1-5.8-9.3
			c0-7.3,5.8-11.9,14.3-11.9c7.2,0.2,11.4-1.9,15.3-4.2l2.3,7.2C303.2,205.1,300.2,205.5,296.1,205.5z M283.2,213
			c0,3.5,2,5.5,4.9,5.5c3.2,0,4.9-1.9,4.9-5.6c0-3.6-1.7-5.3-4.9-5.3C285.1,207.6,283.2,209.6,283.2,213z"/>
		<path class="st0" d="M320.2,190.7c0,3.2-2.5,5.7-6,5.7c-3.5,0-5.9-2.5-5.9-5.7c0-3.2,2.4-5.7,5.9-5.7
			C317.8,185,320.2,187.4,320.2,190.7z M309.5,234.8v-32.5h9.7v32.5H309.5z"/>
		<path class="st0" d="M338.7,235.8c-7.2-0.1-10.7-4.1-10.7-11.8V209h-4.6v-6.7h4.6v-7l9.7-1.1v8.1h7.5l-1,6.7h-6.4V224
			c0,3.1,1,4.2,3.1,4.2c1.1,0,2.2-0.3,3.5-1.1l3.2,6.2C345.1,235,341.7,235.8,338.7,235.8z"/>
		<path class="st0" d="M378.7,229.3l-2,6.3c-3.9-0.3-6.4-1.5-7.8-4.7c-2.3,3.6-5.9,4.9-9.8,4.9c-6.5,0-10.6-4.2-10.6-10.2
			c0-7.1,5.4-11,15.2-11h3.3v-1.4c0-3.9-1.5-5-5.5-5c-2.1,0-5.3,0.6-8.5,1.7l-2.2-6.4c4.1-1.5,8.6-2.4,12.2-2.4
			c9.4,0,13.5,4,13.5,11.5v12.6C376.5,227.9,377.2,228.8,378.7,229.3z M367,225.8V220h-2.4c-4.4,0-6.5,1.5-6.5,4.8
			c0,2.6,1.4,4.1,3.8,4.1C364.1,228.9,365.8,227.8,367,225.8z"/>
		<path class="st0" d="M394,228.2c0.5,0,1.2-0.1,1.6-0.3l1.9,6.9c-1.7,0.7-4,1.1-6.2,1.1c-5.4,0-8.6-3.2-8.6-9.2v-37.3l9.7-1v37.3
			C392.4,227.5,393,228.2,394,228.2z"/>
		<path class="st0" d="M412.4,248.3l-3.2-7c4.2-1.9,6.6-3.6,6.6-9.5v-29.4h9.7v28.8C425.5,241.7,420,245.6,412.4,248.3z
			 M426.6,190.7c0,3.2-2.5,5.7-6,5.7c-3.5,0-5.9-2.5-5.9-5.7c0-3.2,2.4-5.7,5.9-5.7C424.1,185,426.6,187.4,426.6,190.7z"/>
		<path class="st0" d="M449.8,234.8l-0.4-4.1c-2.4,3.4-5.6,5.1-9.9,5.1c-6.1,0-9.1-3.9-9.1-10.2v-23.3h9.7v22.1
			c0,3.3,1.1,4.3,3.1,4.3s3.9-1.3,5.3-3.8v-22.6h9.7v32.5H449.8z"/>
		<path class="st0" d="M487.6,205.2l-3.6,5.5c-2.5-1.7-5.2-2.6-7.7-2.6c-2.9,0-4.2,1-4.2,2.4c0,1.7,0.9,2.4,6.7,4.2
			c6.4,1.8,10,4.5,10,10.3c0,6.7-6.4,10.7-14.4,10.7c-5.6,0-10.4-2-13.6-4.8l4.8-5.3c2.4,2,5.4,3.2,8.5,3.2c3,0,4.8-1.1,4.8-3
			c0-2.3-1-2.9-6.9-4.6c-6.4-1.8-9.6-5.1-9.6-10.2c0-5.6,5.1-9.9,13.3-9.9C480.4,201.2,484.6,202.8,487.6,205.2z"/>
		<path class="st0" d="M504.8,235.8c-7.2-0.1-10.7-4.1-10.7-11.8V209h-4.6v-6.7h4.6v-7l9.7-1.1v8.1h7.5l-1,6.7h-6.4V224
			c0,3.1,1,4.2,3.1,4.2c1.1,0,2.2-0.3,3.5-1.1l3.2,6.2C511.2,235,507.7,235.8,504.8,235.8z"/>
		<path class="st0" d="M526.4,190.7c0,3.2-2.5,5.7-6,5.7c-3.5,0-5.9-2.5-5.9-5.7c0-3.2,2.4-5.7,5.9-5.7
			C523.9,185,526.4,187.4,526.4,190.7z M515.7,234.8v-32.5h9.7v32.5H515.7z"/>
		<path class="st0" d="M556.1,205.2l-4.2,5.8c-2-1.7-3.9-2.4-6.1-2.4c-4.2,0-6.5,2.8-6.5,10.1c0,7.2,2.6,9.4,6.4,9.4
			c2.3,0,3.9-0.7,6.1-2.4l4.4,6.2c-3,2.4-6.5,3.9-11,3.9c-10,0-16.1-6.7-16.1-17c0-10.3,6.2-17.6,15.9-17.6
			C549.5,201.2,553,202.6,556.1,205.2z"/>
		<path class="st0" d="M586.2,221.4h-20.1c0.7,5.8,3.4,7.4,7.4,7.4c2.6,0,5-0.9,7.8-2.9l4,5.4c-3.2,2.6-7.4,4.5-12.7,4.5
			c-10.8,0-16.3-7-16.3-17.1c0-9.7,5.3-17.4,15.2-17.4c9.3,0,15,6.1,15,16.6C586.4,218.9,586.3,220.4,586.2,221.4z M576.9,215.1
			c-0.1-4.4-1.4-7.5-5.3-7.5c-3.2,0-5.1,2.1-5.6,7.9h10.8V215.1z"/>
		<path class="st0" d="M235.9,299c0.5,0,1.2-0.1,1.6-0.3l1.9,6.9c-1.7,0.7-4,1.1-6.2,1.1c-5.4,0-8.6-3.2-8.6-9.2v-37.3l9.7-1v37.3
			C234.2,298.3,234.9,299,235.9,299z"/>
		<path class="st0" d="M271.9,300.2l-2,6.3c-3.9-0.3-6.4-1.5-7.8-4.7c-2.3,3.6-5.9,4.9-9.8,4.9c-6.5,0-10.6-4.2-10.6-10.2
			c0-7.1,5.4-11,15.2-11h3.3v-1.4c0-3.9-1.5-5-5.5-5c-2.1,0-5.3,0.6-8.5,1.7l-2.2-6.4c4.1-1.5,8.6-2.4,12.2-2.4
			c9.4,0,13.5,4,13.5,11.5v12.6C269.7,298.7,270.4,299.6,271.9,300.2z M260.2,296.6v-5.8h-2.4c-4.4,0-6.5,1.5-6.5,4.8
			c0,2.6,1.4,4.1,3.8,4.1C257.3,299.7,259,298.6,260.2,296.6z"/>
		<path class="st0" d="M307.1,289.4c0,10-4.8,17.3-12.9,17.3c-3.6,0-6.5-1.6-8.5-4.2l-0.5,3.1h-8.6v-45.4l9.7-1v17.3
			c2-2.7,5.3-4.3,8.6-4.3C302.9,272.1,307.1,278.5,307.1,289.4z M297,289.4c0-8.3-2.2-10.2-5.2-10.2c-2.3,0-4.2,1.4-5.6,3.8v13.5
			c1.2,2,3.1,3.1,5.1,3.1C294.7,299.6,297,297,297,289.4z"/>
	</g>
</g>
</svg>
