<?xml version="1.0" encoding="utf-8"?>
<!-- Generator: Adobe Illustrator 24.3.0, SVG Export Plug-In . SVG Version: 6.00 Build 0)  -->
<svg version="1.1" id="Layer_1" xmlns="http://www.w3.org/2000/svg" xmlns:xlink="http://www.w3.org/1999/xlink" x="0px" y="0px"
	 viewBox="0 0 1920 1920" style="enable-background:new 0 0 1920 1920;" xml:space="preserve">
<g id="BACKGROUND">
	<rect x="-51.3" y="-55.8" style="fill:#297373;" width="2031.6" height="2031.6"/>
</g>
<g id="_2ND_BACK">
	<path style="fill:#327F7B;" d="M1465.1,1602.9h-225.4c-64.2,0-116.2-50.4-116.2-112.6s52-112.6,116.2-112.6h77.5
		c64.2,0,116.2-50.4,116.2-112.6s-52-112.6-116.2-112.6H852.2c-64.2,0-116.2-50.4-116.2-112.6s52-112.6,116.2-112.6h781.9
		c64.2,0,116.2-50.4,116.2-112.6s-52-112.6-116.2-112.6h-556.5c-64.2,0-116.2-50.4-116.2-112.6s52-112.6,116.2-112.6H1289
		c64.2,0,116.2-50.4,116.2-112.6s-52-112.6-116.2-112.6H824.1c-64.2,0-116.2-50.4-116.2-112.6s52-112.6,116.2-112.6h70.4
		c64.2,0,116.2-50.4,116.2-112.6s-52-112.6-116.2-112.6H190.1c-64.2,0-116.2,50.4-116.2,112.6s52,112.6,116.2,112.6h42.3
		c64.2,0,116.2,50.4,116.2,112.6s-52,112.6-116.2,112.6h-77.5c-64.2,0-116.2,50.4-116.2,112.6s52,112.6,116.2,112.6h-14.1
		c64.2,0,116.2,50.4,116.2,112.6s-52,112.6-116.2,112.6H-627c-64.2,0-116.2,50.4-116.2,112.6s52.1,112.6,116.2,112.6h197.2
		c64.2,0,116.2,50.4,116.2,112.6s-52,112.6-116.2,112.6H-458c-64.2,0-116.2,50.4-116.2,112.6s52,112.6,116.2,112.6H70.3
		c64.2,0,116.2,50.4,116.2,112.6s-52,112.6-116.2,112.6h-267.7c-64.2,0-116.2,50.4-116.2,112.6s52,112.6,116.2,112.6H1465
		c64.2,0,116.2-50.4,116.2-112.6S1529.2,1602.9,1465.1,1602.9L1465.1,1602.9z"/>
</g>
<g id="ELEMENTS">
	<path style="fill:none;stroke:#333333;stroke-width:10;stroke-miterlimit:10;" d="M1434,1683.3l-967.7,4.4
		c35.2-327,70.4-654,105.5-981c6.2-12,116.8-214.2,347.1-230.3c164.4-11.5,322.9,76.7,404.2,225
		C1360.1,1028.7,1397,1356,1434,1683.3z"/>
	<path style="fill:#333333;" d="M1405.6,1673.5l-918.3,3.4c28.2-334.7,56.4-669.5,84.6-1004.2C635.4,511.9,792.4,408,961.7,413.5
		c158.2,5.1,300.4,104.9,361.4,253.9C1350.6,1002.8,1378.1,1338.1,1405.6,1673.5z"/>
	<path style="fill:#4D4D4D;" d="M581.3,1474.6l41.2-13v-355.3h-18.6C596.3,1229.1,588.8,1351.9,581.3,1474.6z"/>
	<path style="fill:#4D4D4D;" d="M1290.7,1474.6l-36.4-10.8l0.8-357.4h16.1C1277.7,1229.1,1284.2,1351.9,1290.7,1474.6z"/>
	<path style="fill:#E4DFDA;" d="M1419.7,1491.2L1419.7,1491.2c94.6-10.5,179.8,57.7,190.3,152.3l35.3,318
		c10.5,94.6-57.7,179.8-152.3,190.3l0,0c-94.6,10.5-179.8-57.7-190.3-152.3l-35.3-318C1256.9,1586.9,1325,1501.7,1419.7,1491.2z"/>
	<path style="fill:#E4DFDA;" d="M516.5,1493.4L516.5,1493.4c93,20.2,152.1,112,131.9,205l-67.9,312.7c-20.2,93-112,152.1-205,131.9
		l0,0c-93-20.2-152.1-112-131.9-205l67.9-312.7C331.7,1532.3,423.5,1473.2,516.5,1493.4z"/>
	<path style="fill:#E4DFDA;" d="M1473.8,2326.7l-1048-4c23.6-274.6,47.2-549.3,70.8-823.9c289.3-110.6,609.2-110.6,898.5,0
		C1421.4,1774.8,1447.6,2050.7,1473.8,2326.7z"/>
	<path style="fill:#E4DFDA;" d="M425.9,2146.9h287.9v-709.5l-279.4,57.3L425.9,2146.9z"/>
	<path style="fill:#E4DFDA;" d="M1456.2,2146.9h-278.1v-709.5l278.1,53.6V2146.9z"/>
	<path style="fill:#AFABA7;" d="M601.9,1889h-15.4v-271l15.4-2.3V1889z"/>
	<path style="fill:#AFABA7;" d="M1333.6,1889h-15.4v-274.9l15.4,2.1L1333.6,1889z"/>
	<line style="fill:none;stroke:#87837E;stroke-width:15;stroke-miterlimit:10;" x1="493.8" y1="1628.9" x2="594.4" y2="1762.6"/>
	<line style="fill:none;stroke:#87837E;stroke-width:15;stroke-miterlimit:10;" x1="1430.9" y1="1635.3" x2="1323.4" y2="1750.9"/>
	<path style="fill:#AFABA7;" d="M1104.8,1469.4c10.8,104.4-73.6,190.6-164.6,187.7c-87.5-2.8-164.4-87.5-153.7-187.7v-318.3h318.3
		V1469.4z"/>
	<path style="fill:#FFD2A6;" d="M1104.8,1426.5c10.8,104.4-73.6,190.6-164.6,187.7c-87.5-2.8-164.4-87.5-153.7-187.7v-318.3h318.3
		V1426.5z"/>
	<path style="fill:#39393A;" d="M1104.8,1194.3c7.3-3.8-89.6,54.7-194.5,131.3c-43,31.4-84.3,65.1-123.8,100.8v-232.2
		C886.2,1246.3,1005,1246.3,1104.8,1194.3z"/>
	<circle style="fill:#FFD2A6;" cx="945.6" cy="889.3" r="343.7"/>
	<circle style="fill:#FFD2A6;" cx="574.1" cy="874.5" r="96.9"/>
	<circle style="fill:#FFD2A6;" cx="1323.4" cy="882.5" r="96.9"/>
	<ellipse style="fill:#39393A;" cx="811.1" cy="790" rx="83.2" ry="16.6"/>
	<ellipse style="fill:#39393A;" cx="1090.3" cy="791.3" rx="83.2" ry="16.6"/>
	
		<ellipse transform="matrix(0.9999 -1.221700e-02 1.221700e-02 0.9999 -13.6485 11.7397)" style="opacity:0.5;fill:#FF8552;enable-background:new    ;" cx="954.1" cy="1123" rx="68.5" ry="34.6"/>
	<path style="fill:none;stroke:#39393A;stroke-width:5;stroke-miterlimit:10;" d="M856.1,1110.6c64.9,14.7,132.4,13.9,197-2.4"/>
	<path style="fill:#39393A;" d="M949.2,849.2c1.1,16.8,1.7,33.6,1.7,50.5c0,16.8-0.6,33.6-1.7,50.2c-0.6,9.5-1.4,18.9-2.4,28.4
		c0,1.7,1.3,3,3,3c1.6,0,3-1.4,3-3c1.8-16.8,3-33.6,3.6-50.4c0.6-16.7,0.7-33.5,0.2-50.2c-0.3-9.5-0.7-19-1.4-28.4c0-1.6-1.4-3-3-3
		C950.5,846.2,949.2,847.5,949.2,849.2L949.2,849.2z"/>
	<path style="fill:#39393A;" d="M950.1,980.9l48.3-2.3c1.7,0,3-1.3,3-3s-1.3-3-3-3l-48.3,2.3c-1.6,0-3,1.4-3,3
		C947.1,979.5,948.5,980.9,950.1,980.9z"/>
	<path style="fill:#39393A;" d="M996,974.3c-13.3,14.6-26.4,29.4-39.3,44.3c-3.6,4.2-7.2,8.4-10.8,12.6c-1.1,1.2-1.1,3.1,0,4.2
		c1.2,1.2,3.1,1.2,4.2,0c0,0,0,0,0,0c12.8-15,25.8-29.9,39-44.6c3.7-4.1,7.4-8.2,11.2-12.3c1.1-1.2,1.1-3.1,0-4.3
		C999.1,973.2,997.2,973.2,996,974.3L996,974.3z"/>
	<circle style="opacity:0.25;fill:#FF8552;enable-background:new    ;" cx="731.3" cy="1020.2" r="60.2"/>
	<circle style="opacity:0.25;fill:#FF8552;enable-background:new    ;" cx="1158.5" cy="1028.1" r="60.2"/>
	<path style="fill:#333333;" d="M960.9,477.9c19.4,44.3-91.8,131.9-153.7,180.7c-52,41-193.3,152.3-233.2,119
		c-38.8-32.3,11.1-207.7,135.1-284.6C805.6,433.3,942.4,435.6,960.9,477.9z"/>
	<path style="fill:#333333;" d="M1309.1,791c-51.3,33.5-176.1-79.7-207.2-107.9c-43.3-39.2-174.9-168.3-147.5-208.5
		c33.1-48.7,308.9,16.5,365.7,181.4C1335.7,701.3,1340.4,770.6,1309.1,791z"/>
	<path style="fill:#4D4D4D;" d="M862,485.6c2.4,0-11.5,122.7-108.7,181.3c-60,36.2-127.6,33.4-127.2,29.3s69.3-7,131.5-50
		C845.8,585.2,859.8,485.6,862,485.6z"/>
	<path style="fill:#4D4D4D;" d="M1282.4,726.4c0.8,2.5-113.1-7.3-199.1-107.2c-53.1-61.6-74.1-132.8-70.4-132.5
		s30.3,72.5,90.3,136.3C1188.2,713.3,1281.7,724.2,1282.4,726.4z"/>
	<path style="fill:#FFFFFF;" d="M897.2,901.1c0,0-59.2,37.9-112.2,30.7c-50.9-6.9-91.2-54.6-93.6-57.6l0,0
		c16.5-9.9,34.4-17.5,53-22.6c11.2-3.1,35.3-9.7,59.2-8.1C859.2,847.2,892.6,894.5,897.2,901.1z"/>
	
		<ellipse transform="matrix(0.9995 -3.106186e-02 3.106186e-02 0.9995 -27.1995 25.2357)" style="fill:#1A1A1A;" cx="798.6" cy="888.1" rx="54.6" ry="44.7"/>
	<path style="fill:none;stroke:#39393A;stroke-width:10;stroke-miterlimit:10;" d="M691.3,874.2c47.7-31.7,109.5-39.2,154.8-19.4
		c21.8,9.3,39.8,25.6,51.1,46.4"/>
	<path style="fill:#FFFFFF;" d="M998.9,901c0,0,59.8,40.7,113.3,33c51.4-7.4,92.1-58.8,94.5-62l0,0c-16.6-10.6-34.6-18.8-53.5-24.3
		c-11.3-3.3-35.6-10.5-59.8-8.7C1037.2,843,1003.5,893.8,998.9,901z"/>
	
		<ellipse transform="matrix(4.588600e-02 -0.9989 0.9989 4.588600e-02 161.9404 1943.2142)" style="fill:#1A1A1A;" cx="1098.2" cy="886.8" rx="48.1" ry="55.1"/>
	<path style="fill:none;stroke:#39393A;stroke-width:10;stroke-miterlimit:10;" d="M1206.7,872c-48.2-34.1-110.5-42.2-156.2-20.9
		c-22.3,10.4-40.5,28-51.6,49.9"/>
	<path style="fill:none;stroke:#39393A;stroke-width:7;stroke-miterlimit:10;" d="M1379.7,846.2c-8.9,0.3-40.1,2.6-67.7,26.8
		c-17.6,15.5-29.7,36.3-34.4,59.3"/>
	<line style="fill:none;stroke:#39393A;stroke-width:7;stroke-miterlimit:10;" x1="1367.8" y1="906.8" x2="1309.5" y2="876.4"/>
	<path style="fill:none;stroke:#39393A;stroke-width:7;stroke-miterlimit:10;" d="M517,843.9c8.9,0.3,40.3,2.6,68,26.8
		c17.7,15.5,29.8,36.3,34.5,59.3"/>
	<line style="fill:none;stroke:#39393A;stroke-width:7;stroke-miterlimit:10;" x1="528.9" y1="904.4" x2="587.5" y2="874"/>
	<ellipse style="fill:none;stroke:#E9D758;stroke-width:8;stroke-miterlimit:10;" cx="1329.7" cy="1002" rx="28.6" ry="66.6"/>
	<ellipse style="fill:none;stroke:#E9D758;stroke-width:8;stroke-miterlimit:10;" cx="567" cy="1002" rx="28.6" ry="66.6"/>
	<circle style="fill:#FFD2A6;" cx="588.3" cy="952.8" r="17.4"/>
	<circle style="fill:#FFD2A6;" cx="1306" cy="960.3" r="17.4"/>
	<rect x="119" y="106.4" style="fill:none;stroke:#39393A;stroke-width:15;stroke-miterlimit:10;" width="1692.8" height="1692.8"/>
	<rect x="119" y="113.1" style="fill:#39393A;" width="1692.8" height="76.2"/>
	<circle style="fill:#E4DFDA;" cx="1667.5" cy="148.2" r="23.7"/>
	<circle style="fill:#297373;" cx="1741" cy="148.2" r="23.7"/>
	<circle style="fill:#E9D758;" cx="1593.4" cy="148.2" r="23.7"/>
	<rect x="114.8" y="1729.8" style="fill:#39393A;" width="1692.8" height="76.2"/>
</g>
<g id="INSTA">
	<path style="fill:#E36450;" d="M1445.7,381.1h317.6c55.4,0,100.3,44.9,100.3,100.3v0c0,55.4-44.9,100.3-100.3,100.3h-317.6
		c-55.4,0-100.3-44.9-100.3-100.3v0C1345.4,426,1390.3,381.1,1445.7,381.1z"/>
	<path style="fill:#E36450;" d="M1599.6,652.2L1599.6,652.2l-44.6-91.4h91.4L1599.6,652.2z"/>
	<path style="fill:#FFFFFF;" d="M1742,418.8c-12.9,0-25.1,6.3-32.4,17l-1.5,1.9l-1-1.3c-7.1-11-19.3-17.6-32.4-17.6
		c-22.4,0-38.7,16.3-38.7,38.7c0,33.1,59.9,81.9,64.3,85.5c4.3,4.1,11,4.1,15.3,0c4.4-3.5,65.2-53.1,65.2-85.4
		C1780.7,435,1764.4,418.8,1742,418.8z"/>
	<path style="fill:none;stroke:#FFFFFF;stroke-width:10;stroke-miterlimit:10;" d="M1510.8,418.8c-36.4,0-66,26.6-66,59.4
		c0,11.5,3.7,22.8,10.5,32.1c-1.3,14.4-4.8,25-9.8,30.1c-0.9,0.9-0.9,2.2,0,3.1c0.4,0.4,1,0.6,1.6,0.6h0.3
		c0.9-0.1,21.6-3.1,36.6-11.7c8.6,3.4,17.7,5.2,26.9,5.2c36.4,0,66-26.6,66-59.4S1547.2,418.8,1510.8,418.8z"/>
</g>
</svg>
