<svg xmlns="http://www.w3.org/2000/svg" viewBox="0 0 1920 1920"><defs><style>.cls-1{fill:#297373;}.cls-2{fill:#327f7b;}.cls-12,.cls-16,.cls-17,.cls-18,.cls-19,.cls-22,.cls-3{fill:none;}.cls-3{stroke:#333;}.cls-12,.cls-16,.cls-17,.cls-18,.cls-19,.cls-22,.cls-3,.cls-8{stroke-miterlimit:10;}.cls-16,.cls-22,.cls-3{stroke-width:10px;}.cls-4{fill:#333;}.cls-5{fill:#4d4d4d;}.cls-6{fill:#e4dfda;}.cls-7,.cls-8{fill:#afaba7;}.cls-8{stroke:#87837e;}.cls-19,.cls-8{stroke-width:15px;}.cls-9{fill:#ffd2a6;}.cls-10{fill:#39393a;}.cls-11,.cls-13{fill:#ff8552;}.cls-11{opacity:0.5;}.cls-12,.cls-16,.cls-17,.cls-19{stroke:#39393a;}.cls-12{stroke-width:5px;}.cls-13{opacity:0.25;}.cls-14{fill:#fff;}.cls-15{fill:#1a1a1a;}.cls-17{stroke-width:7px;}.cls-18{stroke:#e9d758;stroke-width:8px;}.cls-20{fill:#e9d758;}.cls-21{fill:#e36450;}.cls-22{stroke:#fff;}</style></defs><g id="BACKGROUND"><rect class="cls-1" x="-51.28" y="-55.82" width="2031.64" height="2031.64"/></g><g id="_2ND_BACK" data-name="2ND BACK"><path class="cls-2" d="M1465.06,1602.92h-225.4c-64.19,0-116.24-50.37-116.24-112.6s52-112.6,116.24-112.6h77.47c64.19,0,116.23-50.38,116.23-112.61s-52-112.6-116.23-112.6H852.24c-64.19,0-116.22-50.38-116.22-112.61s52-112.6,116.22-112.6h781.88c64.18,0,116.22-50.38,116.22-112.61s-52-112.6-116.22-112.6H1077.65c-64.19,0-116.22-50.39-116.22-112.61s52-112.6,116.22-112.6H1289c64.19,0,116.23-50.38,116.23-112.61s-52-112.6-116.23-112.6H824.07c-64.18,0-116.22-50.38-116.22-112.61s52-112.6,116.22-112.6h70.44c64.19,0,116.23-50.38,116.23-112.61s-52-112.6-116.23-112.6H190.12c-64.19,0-116.23,50.38-116.23,112.6s52,112.61,116.23,112.61h42.26c64.19,0,116.22,50.37,116.22,112.6s-52,112.61-116.22,112.61H154.89c-64.18,0-116.22,50.37-116.22,112.6s52,112.61,116.22,112.61H140.81C205,476.88,257,527.26,257,589.48S205,702.09,140.81,702.09H-627c-64.19,0-116.23,50.37-116.23,112.6S-691.17,927.3-627,927.3h197.21c64.19,0,116.23,50.37,116.23,112.6s-52,112.61-116.23,112.61h-28.17c-64.19,0-116.23,50.37-116.23,112.6s52,112.61,116.23,112.61H70.35c64.18,0,116.22,50.38,116.22,112.6s-52,112.6-116.22,112.6H-197.32c-64.19,0-116.23,50.38-116.23,112.61s52,112.6,116.23,112.6H1465c64.19,0,116.23-50.37,116.23-112.6s-52-112.61-116.23-112.61Z"/></g><g id="ELEMENTS"><path class="cls-3" d="M1434,1683.33l-967.65,4.39q52.77-490.53,105.52-981C578.1,694.75,688.71,492.5,919,476.42c164.45-11.48,322.88,76.66,404.16,225Q1378.56,1192.39,1434,1683.33Z"/><path class="cls-4" d="M1405.56,1673.49l-918.33,3.42q42.32-502.11,84.62-1004.24C635.4,511.93,792.39,408,961.71,413.51c158.23,5.12,300.36,104.87,361.43,253.91Q1364.34,1170.46,1405.56,1673.49Z"/><path class="cls-5" d="M581.28,1474.63l41.18-13V1106.38H603.83Q592.55,1290.51,581.28,1474.63Z"/><path class="cls-5" d="M1290.72,1474.63l-36.41-10.83.81-357.42h16.11Q1281,1290.51,1290.72,1474.63Z"/><rect class="cls-6" x="1283.84" y="1489.24" width="344.72" height="664.68" rx="172.36" transform="translate(-191.86 171.56) rotate(-6.33)"/><rect class="cls-6" x="273.71" y="1485.86" width="344.72" height="664.68" rx="172.36" transform="translate(395.88 -53.25) rotate(12.25)"/><path class="cls-6" d="M1473.82,2326.7l-1048-4q35.4-411.95,70.79-823.9a1258.17,1258.17,0,0,1,898.5,0Q1434.48,1912.74,1473.82,2326.7Z"/><path class="cls-6" d="M425.86,2146.93H713.72V1437.45l-279.43,57.3Z"/><path class="cls-6" d="M1456.2,2146.93H1178.07V1437.45l278.13,53.64Z"/><path class="cls-7" d="M601.87,1889H586.46V1618l15.41-2.31Z"/><path class="cls-7" d="M1333.57,1889h-15.41l0-274.86,15.43,2.09Z"/><line class="cls-8" x1="493.77" y1="1628.89" x2="594.37" y2="1762.56"/><line class="cls-8" x1="1430.91" y1="1635.28" x2="1323.37" y2="1750.88"/><path class="cls-7" d="M1104.78,1469.43c10.77,104.45-73.64,190.61-164.64,187.65-87.47-2.85-164.39-87.5-153.7-187.65V1151.09h318.34Z"/><path class="cls-9" d="M1104.78,1426.49c10.77,104.44-73.64,190.61-164.64,187.65-87.47-2.85-164.39-87.5-153.7-187.65V1108.15h318.34Z"/><path class="cls-10" d="M1104.78,1194.3c7.26-3.79-89.64,54.72-194.54,131.34a1508.92,1508.92,0,0,0-123.8,100.85V1194.3a344.31,344.31,0,0,0,318.34,0Z"/><circle class="cls-9" cx="945.61" cy="889.26" r="343.74"/><circle class="cls-9" cx="574.09" cy="874.5" r="96.92"/><circle class="cls-9" cx="1323.42" cy="882.45" r="96.92"/><ellipse class="cls-10" cx="811.14" cy="790" rx="83.19" ry="16.61"/><ellipse class="cls-10" cx="1090.34" cy="791.31" rx="83.19" ry="16.61"/><ellipse class="cls-11" cx="954.16" cy="1122.92" rx="68.46" ry="34.58" transform="translate(-13.74 11.82) rotate(-0.7)"/><path class="cls-12" d="M856.12,1110.57a422.49,422.49,0,0,0,197-2.42"/><path class="cls-10" d="M949.17,849.15q1.68,25.19,1.68,50.45t-1.68,50.22q-.95,14.22-2.44,28.39a3,3,0,0,0,3,3,3.06,3.06,0,0,0,3-3q2.64-25.14,3.59-50.4.95-25.11.22-50.23-.42-14.24-1.37-28.43a3.08,3.08,0,0,0-3-3,3,3,0,0,0-3,3Z"/><path class="cls-10" d="M950.12,980.88l48.33-2.28a3,3,0,0,0,0-6l-48.33,2.28a3.07,3.07,0,0,0-3,3,3,3,0,0,0,3,3Z"/><path class="cls-10" d="M996.05,974.35q-19.93,21.9-39.28,44.32-5.44,6.3-10.83,12.64a3.08,3.08,0,0,0,0,4.24,3,3,0,0,0,4.25,0q19.17-22.56,38.95-44.61,5.55-6.2,11.15-12.34a3.07,3.07,0,0,0,0-4.25,3,3,0,0,0-4.24,0Z"/><circle class="cls-13" cx="731.25" cy="1020.16" r="60.23"/><circle class="cls-13" cx="1158.51" cy="1028.14" r="60.23"/><path class="cls-4" d="M960.91,477.87c19.41,44.35-91.76,131.93-153.66,180.69-52,41-193.25,152.25-233.16,119C535.25,745.23,585.2,569.85,709.23,493,805.58,433.25,942.42,435.59,960.91,477.87Z"/><path class="cls-4" d="M1309.07,791c-51.34,33.46-176.14-79.71-207.21-107.88C1058.59,643.88,927,514.85,954.37,474.57c33.09-48.68,308.87,16.53,365.67,181.35C1335.66,701.26,1340.39,770.58,1309.07,791Z"/><path class="cls-5" d="M862,485.64c2.37,0-11.49,122.74-108.72,181.35-60,36.16-127.56,33.36-127.2,29.29s69.28-6.95,131.54-50C845.8,585.24,859.84,485.61,862,485.64Z"/><path class="cls-5" d="M1282.39,726.4c.8,2.48-113.1-7.27-199.09-107.16-53.06-61.64-74.12-132.77-70.38-132.54s30.33,72.54,90.32,136.29C1188.22,713.3,1281.68,724.16,1282.39,726.4Z"/><path class="cls-14" d="M897.16,901.12S837.93,939,784.93,931.81c-50.94-6.87-91.22-54.61-93.64-57.64h0a210.55,210.55,0,0,1,53-22.58c11.19-3.08,35.32-9.73,59.2-8.11C859.23,847.23,892.62,894.47,897.16,901.12Z"/><ellipse class="cls-15" cx="798.7" cy="888" rx="54.57" ry="44.68" transform="translate(-27.26 25.3) rotate(-1.78)"/><path class="cls-16" d="M691.29,874.16C739,842.47,800.74,835,846.06,854.73a105.1,105.1,0,0,1,51.1,46.39"/><path class="cls-14" d="M998.9,901s59.79,40.73,113.29,33c51.41-7.39,92.07-58.77,94.52-62h0a206.53,206.53,0,0,0-53.53-24.31c-11.29-3.31-35.64-10.46-59.75-8.72C1037.19,843,1003.48,893.85,998.9,901Z"/><ellipse class="cls-15" cx="1098.29" cy="886.88" rx="48.08" ry="55.09" transform="translate(161.89 1943.27) rotate(-87.37)"/><path class="cls-16" d="M1206.71,872c-48.15-34.11-110.48-42.19-156.23-20.92A109.39,109.39,0,0,0,998.9,901"/><path class="cls-17" d="M1379.7,846.23c-8.86.33-40.09,2.56-67.74,26.76a107.86,107.86,0,0,0-34.37,59.3"/><line class="cls-17" x1="1367.82" y1="906.75" x2="1309.49" y2="876.42"/><path class="cls-17" d="M517,843.87c8.89.33,40.25,2.56,68,26.76a107.64,107.64,0,0,1,34.51,59.29"/><line class="cls-17" x1="528.94" y1="904.38" x2="587.5" y2="874.05"/><ellipse class="cls-18" cx="1329.66" cy="1001.95" rx="28.59" ry="66.56"/><ellipse class="cls-18" cx="567.02" cy="1001.95" rx="28.59" ry="66.56"/><circle class="cls-9" cx="588.27" cy="952.8" r="17.41"/><circle class="cls-9" cx="1306.02" cy="960.25" r="17.41"/><rect class="cls-19" x="118.97" y="106.4" width="1692.79" height="1692.79"/><rect class="cls-10" x="118.97" y="113.08" width="1692.79" height="76.24"/><circle class="cls-6" cx="1667.5" cy="148.2" r="23.74"/><circle class="cls-1" cx="1741.01" cy="148.2" r="23.74"/><circle class="cls-20" cx="1593.45" cy="148.2" r="23.74"/><rect class="cls-10" x="114.81" y="1729.78" width="1692.79" height="76.24"/></g><g id="INSTA"><rect class="cls-21" x="1345.39" y="381.14" width="518.13" height="200.57" rx="100.28"/><path class="cls-21" d="M1599.57,652.15h0L1555,560.77h91.38Z"/><path class="cls-14" d="M1742,418.75a39.11,39.11,0,0,0-32.37,17l-1.5,1.91-1-1.28a38.61,38.61,0,0,0-32.45-17.6c-22.43,0-38.71,16.28-38.71,38.71,0,33.12,59.95,81.93,64.33,85.45a11.06,11.06,0,0,0,15.26,0c4.39-3.53,65.15-53.12,65.15-85.44C1780.66,435,1764.38,418.75,1742,418.75Z"/><path class="cls-22" d="M1510.85,418.75c-36.39,0-66,26.64-66,59.39a54.9,54.9,0,0,0,10.49,32.13c-1.3,14.38-4.79,25.05-9.84,30.11a2.2,2.2,0,0,0,1.55,3.76l.31,0c.89-.12,21.58-3.1,36.55-11.74a71.62,71.62,0,0,0,26.93,5.17c36.39,0,66-26.65,66-59.4S1547.24,418.75,1510.85,418.75Z"/></g></svg>