<svg xmlns="http://www.w3.org/2000/svg" viewBox="0 0 1920 1920"><defs><style>.cls-1{fill:#39393a;}.cls-12,.cls-2{fill:#494949;}.cls-3{fill:#c2cade;}.cls-4{fill:#edb9a0;}.cls-11,.cls-13,.cls-14,.cls-19,.cls-5,.cls-6,.cls-8{fill:none;stroke-miterlimit:10;}.cls-11,.cls-5,.cls-8{stroke:#39393a;}.cls-5{stroke-width:7px;}.cls-6{stroke:#2376c9;}.cls-11,.cls-19,.cls-6{stroke-width:10px;}.cls-7{fill:#495dab;}.cls-13,.cls-8{stroke-width:5px;}.cls-9{fill:#fff;}.cls-10{fill:#ce9761;}.cls-12{opacity:0.25;}.cls-13{stroke:#c99783;}.cls-14{stroke:#e4dfda;stroke-width:15px;}.cls-15{fill:#e4dfda;}.cls-16{fill:#ff8552;}.cls-17{fill:#e9d758;}.cls-18{fill:#e36450;}.cls-19{stroke:#fff;}</style></defs><g id="BACKGROUND"><rect class="cls-1" x="-85.99" y="-90.24" width="2066.17" height="2066.17"/></g><g id="_2ND_BACK" data-name="2ND BACK"><path class="cls-2" d="M23.11,1789.3H207.55c52.53,0,95.11-52,95.11-116.15S260.08,1557,207.55,1557h-63.4c-52.52,0-95.1-52-95.1-116.16s42.58-116.15,95.1-116.15H524.56c52.53,0,95.11-52,95.11-116.15s-42.58-116.16-95.11-116.16H-115.23c-52.52,0-95.1-52-95.1-116.15s42.58-116.15,95.1-116.15H340.12c52.52,0,95.1-52,95.1-116.16s-42.58-116.15-95.1-116.15H167.2c-52.52,0-95.1-52-95.1-116.15s42.58-116.16,95.1-116.16H547.61c52.52,0,95.11-52,95.11-116.15s-42.59-116.16-95.11-116.16H490c-52.53,0-95.11-52-95.11-116.15S437.45-69.15,490-69.15h576.39c52.52,0,95.1,52,95.1,116.15s-42.58,116.15-95.1,116.15h-34.59c-52.52,0-95.1,52-95.1,116.16s42.58,116.15,95.1,116.15h63.41c52.52,0,95.1,52,95.1,116.16s-42.58,116.15-95.1,116.15h11.52c-52.52,0-95.1,52-95.1,116.15s42.58,116.16,95.1,116.16H1735c52.53,0,95.11,52,95.11,116.15s-42.58,116.15-95.11,116.15H1573.6c-52.52,0-95.1,52-95.1,116.16s42.58,116.15,95.1,116.15h23.06c52.52,0,95.11,52,95.11,116.15S1649.18,1557,1596.66,1557H1164.37c-52.52,0-95.1,52-95.1,116.15s42.58,116.15,95.1,116.15h219c52.53,0,95.11,52,95.11,116.16s-42.58,116.15-95.11,116.15H23.19c-52.52,0-95.1-52-95.1-116.15s42.58-116.16,95.1-116.16Z"/></g><g id="ELEMENTS"><path class="cls-3" d="M1605.48,2227.88l-1309.22,1.5q58.15-383.27,116.33-766.54A1344.46,1344.46,0,0,1,925,1347.16c266.28-6.58,472.12,68,581.7,117Z"/><ellipse class="cls-4" cx="973.52" cy="824.07" rx="343.74" ry="362.72"/><circle class="cls-4" cx="602.01" cy="868.84" r="96.92"/><circle class="cls-4" cx="1351.34" cy="885" r="96.92"/><path class="cls-4" d="M1133.69,1418.9c-72.64,84.84-126.43,98.74-162.67,95-72.92-7.56-155.66-95-155.67-95h0V1100.56h318.34Z"/><path class="cls-1" d="M1133.69,1148.08s.37-.2.39-.17-7.62,4-20.74,11.08c-127.81,69-193.49,126.07-193.49,126.07-29.23,26.1-68.06,66.68-104.5,127v-264a344.31,344.31,0,0,0,318.34,0Z"/><path class="cls-5" d="M560.86,836.27c8.41.29,38,2.26,64.3,23.64a93.52,93.52,0,0,1,32.62,52.38"/><path class="cls-5" d="M1402.39,844.33c-8.53.31-38.61,2.46-65.24,25.77a103.73,103.73,0,0,0-33.09,57.1"/><line class="cls-5" x1="1390.95" y1="902.61" x2="1334.78" y2="873.4"/><line class="cls-5" x1="568.14" y1="886.4" x2="623.5" y2="859.61"/><path class="cls-6" d="M959.4,1574.06c-7.57,1.34-84.22,13.51-142.53-43.46-53.2-52-48.9-120.21-48.15-129.65a257.61,257.61,0,0,1,44.48-135.11c7.34,25.07,26.67,78.11,76.76,123.67a266.13,266.13,0,0,0,88.11,53.06A258.11,258.11,0,0,0,958,1526.78,254.84,254.84,0,0,0,959.4,1574.06Z"/><path class="cls-6" d="M989.66,1574.74c9.35,1.34,85.55,11,142-44.09,0,0,52.47-50.57,49.35-129.64a252.1,252.1,0,0,0-11.78-66.85,255.49,255.49,0,0,0-33.81-68.26,271.65,271.65,0,0,1-22.91,54.15c-3.71,6.66-21.48,37.72-55.78,69.52a309.47,309.47,0,0,1-78.62,53,336.8,336.8,0,0,1,11.59,132.17Z"/><rect class="cls-7" x="1342.83" y="1428.37" width="344.72" height="664.68" rx="172.36" transform="translate(-184.79 177.69) rotate(-6.33)"/><rect class="cls-7" x="221.78" y="1428.63" width="344.72" height="664.68" rx="172.36" transform="translate(382.55 -43.53) rotate(12.25)"/><path class="cls-7" d="M390.06,2086.06H677.92V1376.58l-279.44,57.3Q394.28,1760,390.06,2086.06Z"/><path class="cls-7" d="M1515.19,2086.06H1237.06V1376.58l278.13,53.65Z"/><ellipse class="cls-1" cx="827.29" cy="730.32" rx="14.38" ry="83.19" transform="translate(-26.12 1429.94) rotate(-80.78)"/><ellipse class="cls-1" cx="1106.49" cy="731.45" rx="83.19" ry="14.38" transform="translate(-73.86 126.38) rotate(-6.33)"/><path class="cls-8" d="M888.42,1053a422.32,422.32,0,0,0,197-2.43"/><path class="cls-1" d="M975.46,788.52q-1.79,27.45-1.89,55T975,898.21q.88,15.46,2.32,30.88a3.08,3.08,0,0,0,3,3,3,3,0,0,0,3-3q-2.54-27.37-3.38-54.89-.84-27.36,0-54.74.46-15.48,1.48-30.94a3,3,0,0,0-3-3,3.06,3.06,0,0,0-3,3Z"/><path class="cls-1" d="M979.86,926.07l-41.48-2a3,3,0,0,0-3,3,3.06,3.06,0,0,0,3,3l41.48,2a3,3,0,0,0,0-6Z"/><path class="cls-1" d="M936.5,930q17.06,18.72,33.61,37.9,4.71,5.48,9.39,11a3,3,0,0,0,4.24,0,3.07,3.07,0,0,0,0-4.24q-16.41-19.3-33.32-38.16-4.81-5.38-9.68-10.72A3,3,0,0,0,936.5,930Z"/><path class="cls-9" d="M916.38,848s-51.27,41.52-97.14,33.67c-44.08-7.53-79-59.91-81-63.24h0a165.32,165.32,0,0,1,45.89-24.78c9.68-3.38,30.56-10.67,51.24-8.9C883.55,788.85,912.44,840.68,916.38,848Z"/><ellipse class="cls-10" cx="826.14" cy="833.58" rx="49.07" ry="47.17" transform="translate(-129.01 1515.52) rotate(-80.78)"/><path class="cls-11" d="M738.2,818.4c41.28-34.77,94.73-43,133.95-21.33,26.59,14.7,39.15,39,44.23,50.9"/><path class="cls-9" d="M1032.22,848s51.75,41.52,98,33.67c44.5-7.53,79.69-59.91,81.81-63.24h0a167.34,167.34,0,0,0-46.32-24.78c-9.78-3.38-30.86-10.67-51.72-8.9C1065.36,788.85,1036.19,840.68,1032.22,848Z"/><ellipse class="cls-10" cx="1118.24" cy="833.58" rx="47.6" ry="49.09" transform="translate(-148.67 250.26) rotate(-11.98)"/><path class="cls-11" d="M1212.08,818.4c-41.67-34.77-95.62-43-135.21-21.33-26.85,14.7-39.52,39-44.65,50.9"/><path class="cls-12" d="M1264.88,1010.33c-1.64,2.95-3.83,6.76-6.5,11.15s-8.34,13.49-16.21,24.27a368.17,368.17,0,0,1-27.68,33.3c-42.73,45.41-92.22,70.38-96.71,72.6a342.23,342.23,0,0,1-42.89,17.51,352.92,352.92,0,0,1-103,17.92c-9.71.19-114.17,1-205-62.77a354.22,354.22,0,0,1-41-33.9,346.15,346.15,0,0,1-58.76-75c-5-8.64-8.81-16-11.38-21.31,32.35,26.19,148,113.28,318.33,112.21C1124.18,1105.37,1229,1036.42,1264.88,1010.33Z"/><path class="cls-13" d="M731.83,806.45c46.25-40.42,105.88-50.29,149.45-25.53,29.54,16.79,43.38,44.77,49,58.45"/><path class="cls-13" d="M1221.36,806.45c-46.26-40.42-105.88-50.29-149.46-25.53-29.54,16.79-43.37,44.77-49,58.45"/><rect class="cls-14" x="113.61" y="117.58" width="1692.79" height="1692.79"/><rect class="cls-15" x="113.61" y="109.63" width="1692.79" height="76.24"/><rect class="cls-15" x="113.61" y="1732.96" width="1692.79" height="76.24"/><circle class="cls-16" cx="1652.76" cy="147.75" r="23.74"/><circle class="cls-17" cx="1726.27" cy="147.75" r="23.74"/><circle class="cls-1" cx="1578.71" cy="147.75" r="23.74"/></g><g id="INSTA"><rect class="cls-18" x="1319.65" y="364.06" width="518.13" height="200.57" rx="100.28"/><path class="cls-18" d="M1573.83,635.06h0l-44.61-91.38h91.38Z"/><path class="cls-9" d="M1716.21,401.67a39.12,39.12,0,0,0-32.37,17l-1.5,1.91-1-1.28a38.58,38.58,0,0,0-32.44-17.6c-22.44,0-38.72,16.28-38.72,38.71,0,33.12,60,81.93,64.33,85.44a11,11,0,0,0,15.26,0c4.39-3.54,65.16-53.12,65.16-85.44C1754.92,418,1738.64,401.67,1716.21,401.67Z"/><path class="cls-19" d="M1485.11,401.67c-36.38,0-66,26.64-66,59.39a54.85,54.85,0,0,0,10.49,32.12c-1.3,14.38-4.78,25.06-9.84,30.12a2.19,2.19,0,0,0,1.55,3.75,1.62,1.62,0,0,0,.31,0c.89-.13,21.59-3.11,36.55-11.74a71.61,71.61,0,0,0,26.93,5.16c36.39,0,66-26.64,66-59.39S1521.5,401.67,1485.11,401.67Z"/></g></svg>