<svg xmlns="http://www.w3.org/2000/svg" viewBox="0 0 1920 1920"><defs><style>.cls-1{fill:#297373;}.cls-2{fill:#327f7b;}.cls-3{fill:#1a1a1a;}.cls-4{fill:#fff;}.cls-11,.cls-13,.cls-14,.cls-16,.cls-19,.cls-20,.cls-21,.cls-5{fill:none;stroke-miterlimit:10;}.cls-5{stroke:#ff8552;}.cls-13,.cls-20,.cls-5{stroke-width:10px;}.cls-10,.cls-15,.cls-6{fill:#ff8552;}.cls-7{fill:#ffd7c5;}.cls-8{fill:#ed7248;}.cls-9{fill:#39393a;}.cls-10{opacity:0.25;}.cls-11{stroke:#e2b19f;}.cls-11,.cls-16{stroke-width:5px;}.cls-12{fill:#2b1811;}.cls-13,.cls-14,.cls-16{stroke:#39393a;}.cls-14{stroke-width:7px;}.cls-15{opacity:0.5;}.cls-17{fill:#ba4457;}.cls-18{fill:#3c4bb4;}.cls-19{stroke:#ba4457;stroke-width:6px;}.cls-20{stroke:#fff;}.cls-21{stroke:#e9d758;stroke-width:15px;}.cls-22{fill:#e9d758;}.cls-23{fill:#d6694c;}.cls-24{fill:#e36450;}</style></defs><g id="BACKGROUND"><rect class="cls-1" x="-53.63" y="-52.01" width="2031.64" height="2031.64"/></g><g id="_2ND_BACK" data-name="2ND BACK"><path class="cls-2" d="M2047.66,151.48h-225.4a116,116,0,1,0,0,232.09h77.48a116.05,116.05,0,1,1,0,232.1H1434.85a116,116,0,1,0,0,232.09h781.87a116.05,116.05,0,1,1,0,232.1H1660.25a116,116,0,1,0,0,232.09h211.32a116,116,0,1,1,0,232.09H1406.68a116.05,116.05,0,1,0,0,232.1h70.43a116,116,0,1,1,0,232.09H772.72a116,116,0,1,1,0-232.09H815a116.05,116.05,0,1,0,0-232.1H737.5a116,116,0,1,1,0-232.09H723.41a116,116,0,1,0,0-232.09H-44.38a116.12,116.12,0,0,1-116.23-116,116.12,116.12,0,0,1,116.23-116H152.84a116,116,0,1,0,0-232.09H124.66a116.05,116.05,0,1,1,0-232.1H653a116,116,0,1,0,0-232.09H385.28a116,116,0,1,1,0-232.09H2047.56a116,116,0,1,1,0,232.09Z"/></g><g id="ELEMENTS"><path class="cls-3" d="M1499,2160.85l-1153.18,2.7Q404,1780.29,462.18,1397a1344.46,1344.46,0,0,1,512.43-115.68c266.28-6.58,472.13,68,581.7,117Q1527.68,1779.59,1499,2160.85Z"/><rect class="cls-3" x="1374.98" y="1373.22" width="325.23" height="935.55" rx="162.62" transform="translate(-206.73 194.55) rotate(-6.78)"/><rect class="cls-4" x="1328.81" y="1412.98" width="325.23" height="935.55" rx="162.62" transform="translate(-146.92 126.5) rotate(-4.63)"/><ellipse class="cls-5" cx="1008.11" cy="585.93" rx="371.57" ry="301.24"/><ellipse class="cls-5" cx="1054.47" cy="568.96" rx="371.57" ry="301.24"/><path class="cls-5" d="M1537.6,1268.18,783.78,1267c26.82-41.41,60.48-106.69,65.46-189.48,9.62-159.74-96.18-240.26-78.29-381.6C777,648,799,579.9,875.34,504.3h477.34c89,61.27,121.55,125.17,134.42,173.7,44.2,166.69-104.26,302.9-50.5,461.5C1458,1202.66,1502.7,1243.43,1537.6,1268.18Z"/><ellipse class="cls-6" cx="1029.13" cy="568.96" rx="371.57" ry="301.24"/><path class="cls-6" d="M1522.67,1271.78,633,1270.49c31.66-44.49,71.38-114.64,77.26-203.6,11.36-171.65-113.51-258.17-92.4-410C625,605.39,650.89,532.2,741,451h563.39c105,65.83,143.46,134.5,158.65,186.65,52.17,179.11-123,325.47-59.61,495.88C1428.74,1201.38,1481.49,1245.19,1522.67,1271.78Z"/><circle class="cls-7" cx="1023.12" cy="777.22" r="343.74"/><circle class="cls-7" cx="651.6" cy="762.46" r="96.92"/><circle class="cls-7" cx="1400.93" cy="819.17" r="96.92"/><ellipse class="cls-8" cx="895.16" cy="635.09" rx="83.19" ry="14.38"/><ellipse class="cls-8" cx="1166.36" cy="637.23" rx="14.38" ry="83.19" transform="translate(465.9 1766.74) rotate(-86.84)"/><path class="cls-9" d="M1029.94,689.45q2.1,32.35,2.23,64.8t-1.74,64.57q-1,18.16-2.73,36.29a3,3,0,0,0,3,3,3.06,3.06,0,0,0,3-3q3-32.29,4-64.72t0-64.6q-.56-18.18-1.74-36.34a3.08,3.08,0,0,0-3-3,3,3,0,0,0-3,3Z"/><path class="cls-9" d="M1031.29,858.08l48.88-2.3a3.07,3.07,0,0,0,3-3,3,3,0,0,0-3-3l-48.88,2.3a3.06,3.06,0,0,0-3,3,3,3,0,0,0,3,3Z"/><path class="cls-9" d="M1077.77,851.54q-20.07,22-39.55,44.6-5.6,6.48-11.13,13a3.09,3.09,0,0,0,0,4.25,3,3,0,0,0,4.25,0q19.31-22.71,39.2-44.91,5.71-6.37,11.47-12.69a3.07,3.07,0,0,0,0-4.24,3,3,0,0,0-4.24,0Z"/><circle class="cls-10" cx="808.76" cy="881.76" r="60.23"/><circle class="cls-10" cx="1219.66" cy="894.35" r="60.23"/><path class="cls-6" d="M1071.55,565.68H720.69q8.71-86.88,17.44-173.74l341.9.78c-11,15.36-41.59,62.55-29.76,121.52A148.45,148.45,0,0,0,1071.55,565.68Z"/><path class="cls-6" d="M1303.42,569.68l-207.46-4A265.13,265.13,0,0,1,1061,495.33c-7.73-24.2-10.33-46.08-15.21-88.84-2.92-25.63-4.57-47-5.53-62l241,19.4Z"/><path class="cls-11" d="M774.38,706c47.71-40.17,109.46-49.69,154.77-24.63,30.73,17,45.24,45.07,51.1,58.8"/><path class="cls-11" d="M1072.49,734.76c32.94-53,88.71-81.12,139.56-71.32,34.47,6.65,57,28.87,66.78,40.11"/><path class="cls-4" d="M974.78,762.88s-59.23,48-112.23,38.91c-50.93-8.71-91.22-69.23-93.64-73.07h0a191.11,191.11,0,0,1,53-28.63c11.19-3.9,35.31-12.32,59.2-10.28C936.85,694.57,970.24,754.46,974.78,762.88Z"/><ellipse class="cls-12" cx="876.32" cy="746.25" rx="56.7" ry="54.5" transform="translate(-0.67 1491.72) rotate(-80.78)"/><path class="cls-13" d="M768.91,728.71c47.7-40.17,109.45-49.69,154.77-24.64,30.72,17,45.23,45.07,51.1,58.81"/><line class="cls-14" x1="805.32" y1="702.8" x2="797.62" y2="685.04"/><line class="cls-14" x1="792.94" y1="708.89" x2="783.91" y2="691.76"/><line class="cls-14" x1="779.48" y1="715.98" x2="769.8" y2="699.22"/><line class="cls-14" x1="818.28" y1="697.31" x2="812.34" y2="678.89"/><path class="cls-4" d="M1077.52,760.09s59.79,48,113.29,38.91c51.41-8.71,92.08-69.23,94.52-73.07h0a193.46,193.46,0,0,0-53.52-28.64c-11.3-3.9-35.65-12.32-59.76-10.28C1115.81,691.78,1082.11,751.67,1077.52,760.09Z"/><ellipse class="cls-12" cx="1176.91" cy="743.47" rx="55" ry="56.72" transform="translate(-128.68 260.47) rotate(-11.98)"/><path class="cls-13" d="M1285.33,725.93c-48.15-40.18-110.48-49.7-156.23-24.64-31,17-45.66,45.07-51.58,58.8"/><line class="cls-14" x1="1251.04" y1="703.8" x2="1258.82" y2="686.03"/><line class="cls-14" x1="1262.84" y1="710.55" x2="1271.95" y2="693.42"/><line class="cls-14" x1="1274.64" y1="717.2" x2="1284.42" y2="700.43"/><line class="cls-14" x1="1237.28" y1="697.65" x2="1245.06" y2="679.89"/><path class="cls-7" d="M1183.29,1353.07c-72.64,84.84-126.43,98.74-162.68,95-72.92-7.57-155.66-95-155.66-95h0V1034.73h318.34Z"/><path class="cls-9" d="M1183.28,1082.25s.37-.2.39-.17-7.62,4-20.73,11.08c-127.82,69-193.5,126.07-193.5,126.07-29.23,26.1-68.05,66.68-104.49,127v-264a344.29,344.29,0,0,0,318.33,0Z"/><ellipse class="cls-15" cx="1023.31" cy="996.1" rx="56.58" ry="31.42" transform="translate(-12.17 12.66) rotate(-0.7)"/><path class="cls-16" d="M924.81,983.15a422.13,422.13,0,0,0,197-2.42"/><path class="cls-4" d="M1464.17,2183.83,507.54,2188,625,1405.67c198.57-50.09,362.63-57.75,473.61-55.45a1306.79,1306.79,0,0,1,281.75,36.91c117.49,28.59,176.23,42.89,206.46,84.7,50.92,70.42,9.31,160.93-54.61,411.18C1498.6,2014.54,1476.52,2121,1464.17,2183.83Z"/><path class="cls-17" d="M1392,2173.79l-936.63,5.93L572.8,1397.38a1617.18,1617.18,0,0,1,753.43-22.09,230.66,230.66,0,0,1,60.89,37.21s28,23.77,47.65,55.78c39.41,64.2,31.08,151.86,28.54,175.86C1438.15,1881.86,1394.9,2155.4,1392,2173.79Z"/><path class="cls-18" d="M1367.61,1918.58H1219.34l17.79-133,148.08-.19Z"/><rect class="cls-17" x="1302.53" y="1785.32" width="6.42" height="167.29" transform="translate(-563.22 3174.7) rotate(-90)"/><rect class="cls-17" x="1303.24" y="1752.3" width="6.42" height="168.71" transform="translate(-530.21 3143.11) rotate(-90)"/><line class="cls-19" x1="1288.51" y1="1779.41" x2="1269.1" y2="1928.6"/><line class="cls-19" x1="1335.13" y1="1779.41" x2="1315.72" y2="1928.6"/><path class="cls-18" d="M1184.55,1916.58H1036.28l17.79-133,148.08-.18Z"/><rect class="cls-17" x="1119.47" y="1783.31" width="6.42" height="167.29" transform="translate(-744.28 2989.64) rotate(-90)"/><rect class="cls-17" x="1120.18" y="1750.3" width="6.42" height="168.71" transform="translate(-711.27 2958.05) rotate(-90)"/><line class="cls-19" x1="1105.45" y1="1777.4" x2="1086.04" y2="1926.59"/><line class="cls-19" x1="1152.07" y1="1777.4" x2="1132.66" y2="1926.59"/><path class="cls-18" d="M1001,1915.58H852.73q8.89-66.49,17.8-133l148.07-.18Z"/><rect class="cls-17" x="935.92" y="1782.31" width="6.42" height="167.29" transform="translate(-926.83 2805.09) rotate(-90)"/><rect class="cls-17" x="936.63" y="1749.3" width="6.42" height="168.71" transform="translate(-893.81 2773.5) rotate(-90)"/><line class="cls-19" x1="921.91" y1="1776.4" x2="902.49" y2="1925.59"/><line class="cls-19" x1="968.52" y1="1776.4" x2="949.11" y2="1925.59"/><path class="cls-18" d="M817.94,1913.58H669.67q8.9-66.49,17.8-133l148.07-.18Z"/><rect class="cls-17" x="752.86" y="1780.31" width="6.42" height="167.29" transform="translate(-1107.89 2620.03) rotate(-90)"/><rect class="cls-17" x="753.57" y="1747.3" width="6.42" height="168.71" transform="translate(-1074.87 2588.43) rotate(-90)"/><line class="cls-19" x1="738.85" y1="1774.4" x2="719.43" y2="1923.59"/><line class="cls-19" x1="785.46" y1="1774.4" x2="766.05" y2="1923.59"/><path class="cls-18" d="M1390.34,1759H1242.07l17.79-133,148.08-.18Z"/><rect class="cls-17" x="1325.26" y="1625.74" width="6.42" height="167.29" transform="translate(-380.92 3037.85) rotate(-90)"/><rect class="cls-17" x="1325.97" y="1592.73" width="6.42" height="168.71" transform="translate(-347.91 3006.26) rotate(-90)"/><line class="cls-19" x1="1311.24" y1="1619.83" x2="1291.83" y2="1769.02"/><line class="cls-19" x1="1357.86" y1="1619.83" x2="1338.44" y2="1769.02"/><path class="cls-18" d="M1207.28,1757H1059l17.79-133,148.08-.18Z"/><rect class="cls-17" x="1142.2" y="1623.74" width="6.42" height="167.29" transform="translate(-561.98 2852.79) rotate(-90)"/><rect class="cls-17" x="1142.91" y="1590.73" width="6.42" height="168.71" transform="translate(-528.97 2821.2) rotate(-90)"/><line class="cls-19" x1="1128.18" y1="1617.83" x2="1108.77" y2="1767.02"/><line class="cls-19" x1="1174.8" y1="1617.83" x2="1155.38" y2="1767.02"/><path class="cls-18" d="M1023.73,1756H875.46l17.79-133,148.08-.18Z"/><rect class="cls-17" x="958.65" y="1622.74" width="6.42" height="167.29" transform="translate(-744.53 2668.24) rotate(-90)"/><rect class="cls-17" x="959.36" y="1589.73" width="6.42" height="168.71" transform="translate(-711.51 2636.65) rotate(-90)"/><line class="cls-19" x1="944.63" y1="1616.83" x2="925.22" y2="1766.02"/><line class="cls-19" x1="991.25" y1="1616.83" x2="971.84" y2="1766.02"/><path class="cls-18" d="M840.67,1754H692.4l17.79-133,148.08-.19Z"/><rect class="cls-17" x="775.59" y="1620.74" width="6.42" height="167.29" transform="translate(-925.58 2483.18) rotate(-90)"/><rect class="cls-17" x="776.3" y="1587.72" width="6.42" height="168.71" transform="translate(-892.57 2451.59) rotate(-90)"/><line class="cls-19" x1="761.57" y1="1614.83" x2="742.16" y2="1764.02"/><line class="cls-19" x1="808.19" y1="1614.83" x2="788.78" y2="1764.02"/><path class="cls-18" d="M1415.44,1598.37H1267.17q8.89-66.49,17.8-133l119-.15h0s5.63,7.67,7.37,10.12c10.36,14.6,16.12,32.37,16.12,32.37h0S1422.74,1543.18,1415.44,1598.37Z"/><rect class="cls-17" x="1350.36" y="1465.1" width="6.42" height="167.29" transform="translate(-195.18 2902.32) rotate(-90)"/><rect class="cls-17" x="1347.34" y="1435.82" width="6.42" height="161.24" transform="translate(-165.9 2866.99) rotate(-90)"/><line class="cls-19" x1="1336.34" y1="1459.19" x2="1316.93" y2="1608.38"/><line class="cls-19" x1="1382.96" y1="1459.19" x2="1363.55" y2="1608.38"/><path class="cls-18" d="M1232.38,1596.37H1084.11q8.9-66.49,17.8-133l148.07-.18Z"/><rect class="cls-17" x="1167.3" y="1463.1" width="6.42" height="167.29" transform="translate(-376.23 2717.25) rotate(-90)"/><rect class="cls-17" x="1168.01" y="1430.09" width="6.42" height="168.71" transform="translate(-343.22 2685.66) rotate(-90)"/><line class="cls-19" x1="1153.28" y1="1457.19" x2="1133.87" y2="1606.38"/><line class="cls-19" x1="1199.9" y1="1457.19" x2="1180.49" y2="1606.38"/><path class="cls-18" d="M1048.84,1595.36H900.56q8.91-66.49,17.8-133l148.07-.19Z"/><rect class="cls-17" x="983.75" y="1462.1" width="6.42" height="167.29" transform="translate(-558.78 2532.71) rotate(-90)"/><rect class="cls-17" x="984.46" y="1429.08" width="6.42" height="168.71" transform="translate(-525.77 2501.11) rotate(-90)"/><line class="cls-19" x1="969.74" y1="1456.19" x2="950.33" y2="1605.38"/><line class="cls-19" x1="1016.35" y1="1456.19" x2="996.94" y2="1605.38"/><path class="cls-18" d="M865.78,1593.36H717.5q8.91-66.49,17.8-133l148.07-.18Z"/><rect class="cls-17" x="800.7" y="1460.09" width="6.42" height="167.29" transform="translate(-739.84 2347.64) rotate(-90)"/><rect class="cls-17" x="801.41" y="1427.08" width="6.42" height="168.71" transform="translate(-706.82 2316.05) rotate(-90)"/><line class="cls-19" x1="786.68" y1="1454.18" x2="767.27" y2="1603.37"/><line class="cls-19" x1="833.29" y1="1454.18" x2="813.88" y2="1603.37"/><path class="cls-4" d="M377.85,2283.09h0a162.62,162.62,0,0,1-102.52-205.86l194-578.68A162.62,162.62,0,0,1,675.14,1396h0A162.62,162.62,0,0,1,777.66,1601.9l-85.53,576.63C659.1,2207,594.91,2254,502,2274.47A426.7,426.7,0,0,1,377.85,2283.09Z"/><path class="cls-3" d="M288.62,2272h0A162.62,162.62,0,0,1,186.1,2066.11a1611.47,1611.47,0,0,1,188.7-601.9,198,198,0,0,1,86.95-70.67c56.91-23.55,107.51-12.89,124.16-8.62h0a162.61,162.61,0,0,1,102.51,205.86Q633.71,1874.46,579,2158.14c-21.88,25.23-76.67,81.25-166.23,105.21A328.52,328.52,0,0,1,288.62,2272Z"/><path class="cls-20" d="M1008.8,1557.24c-7.57,1.34-84.22,13.51-142.53-43.46-53.2-52-48.9-120.21-48.15-129.65A257.61,257.61,0,0,1,862.6,1249c7.34,25.07,26.67,78.11,76.76,123.67a266.13,266.13,0,0,0,88.11,53.06,258.11,258.11,0,0,0-20.05,84.21A254.84,254.84,0,0,0,1008.8,1557.24Z"/><path class="cls-20" d="M1039.06,1557.91c9.35,1.35,85.55,11,142-44.08,0,0,52.47-50.57,49.35-129.64a252.1,252.1,0,0,0-11.78-66.85,255.49,255.49,0,0,0-33.81-68.26,271.65,271.65,0,0,1-22.91,54.15c-3.71,6.66-21.48,37.72-55.78,69.52a309.47,309.47,0,0,1-78.62,53,336.76,336.76,0,0,1,11.59,132.16Z"/><rect class="cls-21" x="118.38" y="111.2" width="1692.79" height="1692.79"/><rect class="cls-22" x="118.38" y="111.06" width="1692.79" height="76.24"/><circle class="cls-17" cx="1674.32" cy="146.18" r="23.74"/><circle class="cls-1" cx="1747.83" cy="146.18" r="23.74"/><circle class="cls-6" cx="1600.27" cy="146.18" r="23.74"/><rect class="cls-22" x="123.1" y="1728.5" width="1692.79" height="76.24"/><path class="cls-14" d="M610.45,729.88c8.41.3,38.06,2.27,64.3,23.64a93.47,93.47,0,0,1,32.62,52.39"/><line class="cls-14" x1="621.73" y1="783.34" x2="677.09" y2="756.55"/><path class="cls-14" d="M1452,778.5c-8.53.32-38.61,2.46-65.23,25.77a103.75,103.75,0,0,0-33.1,57.11"/><line class="cls-14" x1="1440.54" y1="836.78" x2="1384.37" y2="807.57"/><path class="cls-23" d="M1330.37,1256.36l38.43-1.1a418.62,418.62,0,0,1-33.67-143.84,425.41,425.41,0,0,1,27.06-173.82c-13.74,17.19-63.54,83.63-63.93,182.92A299,299,0,0,0,1330.37,1256.36Z"/><path class="cls-23" d="M767.09,1254.86l-36.82-.85a279.8,279.8,0,0,0,32.26-110.36A275.43,275.43,0,0,0,746.4,1028.4a182.59,182.59,0,0,1,34.84,51.76C816.33,1159.7,777.11,1236.54,767.09,1254.86Z"/><path class="cls-23" d="M1262.06,549c-.93,2-140.62-2.31-173.32-79.87-20.17-47.86,8.52-104.35,13.18-104.28s-17.81,57.33,9.67,106.67C1150.52,541.42,1262.9,547.22,1262.06,549Z"/></g><g id="INSTA"><rect class="cls-24" x="55.32" y="973.67" width="518.13" height="200.57" rx="100.28"/><path class="cls-24" d="M309.51,1244.68h0L264.9,1153.3h91.38Z"/><path class="cls-4" d="M451.89,1011.28a39.1,39.1,0,0,0-32.37,17l-1.5,1.91-1-1.27a38.59,38.59,0,0,0-32.45-17.61c-22.43,0-38.71,16.28-38.71,38.71,0,33.12,59.95,81.93,64.32,85.45a11.06,11.06,0,0,0,15.27,0c4.39-3.54,65.15-53.12,65.15-85.45C490.6,1027.56,474.32,1011.28,451.89,1011.28Z"/><path class="cls-20" d="M220.79,1011.28c-36.39,0-66,26.65-66,59.4a54.89,54.89,0,0,0,10.49,32.12c-1.3,14.38-4.79,25.06-9.85,30.11a2.2,2.2,0,0,0,1.56,3.76l.31,0c.89-.13,21.58-3.11,36.55-11.75a71.62,71.62,0,0,0,26.93,5.17c36.39,0,66-26.65,66-59.39S257.18,1011.28,220.79,1011.28Z"/></g></svg>