<?xml version="1.0" encoding="utf-8"?>
<!-- Generator: Adobe Illustrator 24.3.0, SVG Export Plug-In . SVG Version: 6.00 Build 0)  -->
<svg version="1.1" id="Layer_1" xmlns="http://www.w3.org/2000/svg" xmlns:xlink="http://www.w3.org/1999/xlink" x="0px" y="0px"
	 viewBox="0 0 1920 1920" style="enable-background:new 0 0 1920 1920;" xml:space="preserve">
<g id="BACKGROUND">
	<rect x="-53.6" y="-52" style="fill:#297373;" width="2031.6" height="2031.6"/>
</g>
<g id="_2ND_BACK">
	<path style="fill:#327F7B;" d="M2047.7,151.5h-225.4c-64.1,0-116,52-116,116s52,116,116,116h77.5c64.1,0,116.1,52,116.1,116.1
		s-52,116.1-116.1,116.1l0,0h-464.9c-64.1,0-116,52-116,116s52,116,116,116h781.9c64.1,0,116.1,51.9,116.1,116
		s-51.9,116.1-116,116.1c0,0-0.1,0-0.1,0h-556.5c-64.1,0-116,52-116,116c0,64.1,52,116,116,116h211.3c64.1,0,116,52,116,116
		c0,64.1-52,116-116,116h-464.9c-64.1,0-116.1,51.9-116.1,116c0,64.1,51.9,116.1,116,116.1c0,0,0.1,0,0.1,0h70.4
		c64.1,0,116,52,116,116c0,64.1-52,116-116,116H772.7c-64.1,0-116-52-116-116c0-64.1,52-116,116-116H815
		c64.1,0,116.1-51.9,116.1-116c0-64.1-51.9-116.1-116-116.1c0,0-0.1,0-0.1,0h-77.5c-64.1,0-116-52-116-116c0-64.1,52-116,116-116
		h-14.1c64.1,0,116-52,116-116c0-64.1-52-116-116-116H-44.4c-64.1,0.1-116.2-51.9-116.2-116c0.1-64.1,52.1-116.1,116.2-116h197.2
		c64.1,0,116-52,116-116s-52-116-116-116h-28.2c-64.1,0-116.1-51.9-116.1-116c0-64.1,51.9-116.1,116-116.1c0,0,0,0,0,0H653
		c64.1,0,116-52,116-116s-52-116-116-116H385.3c-64.1,0-116-52-116-116s52-116,116-116h1662.3c64.1,0,116,52,116,116
		s-52,116-116,116L2047.7,151.5z"/>
</g>
<g id="ELEMENTS">
	<path style="fill:#1A1A1A;" d="M1499,2160.9l-1153.2,2.7c38.8-255.5,77.6-511,116.4-766.6c161.5-71.9,335.7-111.2,512.4-115.7
		c266.3-6.6,472.1,68,581.7,117C1537.2,1652.5,1518.1,1906.7,1499,2160.9z"/>
	<path style="fill:#1A1A1A;" d="M1482.2,1376.6L1482.2,1376.6c89.2-10.6,170.1,53.1,180.7,142.3l72.1,606
		c10.6,89.2-53.1,170.1-142.3,180.7l0,0c-89.2,10.6-170.1-53.1-180.7-142.3l-72.1-606C1329.3,1468.1,1393,1387.2,1482.2,1376.6z"/>
	<path style="fill:#FFFFFF;" d="M1453.7,1414.5L1453.7,1414.5c89.5-7.2,168,59.4,175.2,149l49.3,608.3c7.2,89.5-59.4,168-149,175.2
		l0,0c-89.5,7.2-168-59.4-175.2-149l-49.3-608.3C1297.5,1500.2,1364.2,1421.7,1453.7,1414.5z"/>
	<ellipse style="fill:none;stroke:#FF8552;stroke-width:10;stroke-miterlimit:10;" cx="1008.1" cy="585.9" rx="371.6" ry="301.2"/>
	<ellipse style="fill:none;stroke:#FF8552;stroke-width:10;stroke-miterlimit:10;" cx="1054.5" cy="569" rx="371.6" ry="301.2"/>
	<path style="fill:none;stroke:#FF8552;stroke-width:10;stroke-miterlimit:10;" d="M1537.6,1268.2l-753.8-1.2
		c26.8-41.4,60.5-106.7,65.5-189.5c9.6-159.7-96.2-240.3-78.3-381.6c6-47.9,28-116,104.4-191.6h477.3
		c89,61.3,121.6,125.2,134.4,173.7c44.2,166.7-104.3,302.9-50.5,461.5C1458,1202.7,1502.7,1243.4,1537.6,1268.2z"/>
	<ellipse style="fill:#FF8552;" cx="1029.1" cy="569" rx="371.6" ry="301.2"/>
	<path style="fill:#FF8552;" d="M1522.7,1271.8l-889.7-1.3c31.7-44.5,71.4-114.6,77.3-203.6c11.4-171.7-113.5-258.2-92.4-410
		c7.1-51.5,33-124.7,123.1-205.9h563.4c105,65.8,143.5,134.5,158.7,186.7c52.2,179.1-123,325.5-59.6,495.9
		C1428.7,1201.4,1481.5,1245.2,1522.7,1271.8z"/>
	<circle style="fill:#FFD7C5;" cx="1023.1" cy="777.2" r="343.7"/>
	<circle style="fill:#FFD7C5;" cx="651.6" cy="762.5" r="96.9"/>
	<circle style="fill:#FFD7C5;" cx="1400.9" cy="819.2" r="96.9"/>
	<ellipse style="fill:#ED7248;" cx="895.2" cy="635.1" rx="83.2" ry="14.4"/>
	
		<ellipse transform="matrix(5.512451e-02 -0.9985 0.9985 5.512451e-02 465.8443 1766.8331)" style="fill:#ED7248;" cx="1166.5" cy="637.3" rx="14.4" ry="83.2"/>
	<path style="fill:#39393A;" d="M1029.9,689.5c1.4,21.6,2.1,43.2,2.2,64.8s-0.5,43.2-1.7,64.6c-0.7,12.1-1.6,24.2-2.7,36.3
		c0,1.7,1.3,3,3,3c1.6,0,3-1.4,3-3c2-21.5,3.3-43.1,4-64.7s0.7-43.2,0-64.6c-0.4-12.1-1-24.2-1.7-36.3c0-1.6-1.4-3-3-3
		C1031.3,686.5,1030,687.8,1029.9,689.5L1029.9,689.5z"/>
	<path style="fill:#39393A;" d="M1031.3,858.1l48.9-2.3c1.6,0,3-1.4,3-3c0-1.7-1.3-3-3-3l-48.9,2.3c-1.6,0-3,1.4-3,3
		C1028.3,856.7,1029.6,858.1,1031.3,858.1z"/>
	<path style="fill:#39393A;" d="M1077.8,851.5c-13.4,14.7-26.6,29.5-39.6,44.6c-3.7,4.3-7.4,8.7-11.1,13c-1.1,1.2-1.1,3.1,0,4.3
		c1.2,1.2,3.1,1.2,4.2,0c0,0,0,0,0,0c12.9-15.1,25.9-30.1,39.2-44.9c3.8-4.2,7.6-8.5,11.5-12.7c1.1-1.2,1.1-3.1,0-4.2
		C1080.8,850.4,1078.9,850.4,1077.8,851.5L1077.8,851.5z"/>
	<circle style="opacity:0.25;fill:#FF8552;enable-background:new    ;" cx="808.8" cy="881.8" r="60.2"/>
	<circle style="opacity:0.25;fill:#FF8552;enable-background:new    ;" cx="1219.7" cy="894.3" r="60.2"/>
	<path style="fill:#FF8552;" d="M1071.6,565.7H720.7c5.8-57.9,11.6-115.8,17.4-173.7l341.9,0.8c-11,15.4-41.6,62.5-29.8,121.5
		C1054.1,532.6,1061.3,550,1071.6,565.7z"/>
	<path style="fill:#FF8552;" d="M1303.4,569.7l-207.5-4c-15.1-21.6-26.9-45.3-35-70.4c-7.7-24.2-10.3-46.1-15.2-88.8
		c-2.9-25.6-4.6-47-5.5-62l241,19.4L1303.4,569.7z"/>
	<path style="fill:none;stroke:#E2B19F;stroke-width:5;stroke-miterlimit:10;" d="M774.4,706c47.7-40.2,109.5-49.7,154.8-24.6
		c30.7,17,45.2,45.1,51.1,58.8"/>
	<path style="fill:none;stroke:#E2B19F;stroke-width:5;stroke-miterlimit:10;" d="M1072.5,734.8c32.9-53,88.7-81.1,139.6-71.3
		c34.5,6.7,57,28.9,66.8,40.1"/>
	<path style="fill:#FFFFFF;" d="M974.8,762.9c0,0-59.2,48-112.2,38.9c-50.9-8.7-91.2-69.2-93.6-73.1l0,0c16-12.3,33.9-21.9,53-28.6
		c11.2-3.9,35.3-12.3,59.2-10.3C936.8,694.6,970.2,754.5,974.8,762.9z"/>
	
		<ellipse transform="matrix(0.1602 -0.9871 0.9871 0.1602 -0.7141 1491.741)" style="fill:#2B1811;" cx="876.3" cy="746.3" rx="56.7" ry="54.5"/>
	<path style="fill:none;stroke:#39393A;stroke-width:10;stroke-miterlimit:10;" d="M768.9,728.7c47.7-40.2,109.5-49.7,154.8-24.6
		c30.7,17,45.2,45.1,51.1,58.8"/>
	<line style="fill:none;stroke:#39393A;stroke-width:7;stroke-miterlimit:10;" x1="805.3" y1="702.8" x2="797.6" y2="685"/>
	<line style="fill:none;stroke:#39393A;stroke-width:7;stroke-miterlimit:10;" x1="792.9" y1="708.9" x2="783.9" y2="691.8"/>
	<line style="fill:none;stroke:#39393A;stroke-width:7;stroke-miterlimit:10;" x1="779.5" y1="716" x2="769.8" y2="699.2"/>
	<line style="fill:none;stroke:#39393A;stroke-width:7;stroke-miterlimit:10;" x1="818.3" y1="697.3" x2="812.3" y2="678.9"/>
	<path style="fill:#FFFFFF;" d="M1077.5,760.1c0,0,59.8,48,113.3,38.9c51.4-8.7,92.1-69.2,94.5-73.1l0,0
		c-16.2-12.3-34.3-22-53.5-28.6c-11.3-3.9-35.7-12.3-59.8-10.3C1115.8,691.8,1082.1,751.7,1077.5,760.1z"/>
	
		<ellipse transform="matrix(0.9782 -0.2076 0.2076 0.9782 -128.6861 260.4858)" style="fill:#2B1811;" cx="1176.9" cy="743.5" rx="55" ry="56.7"/>
	<path style="fill:none;stroke:#39393A;stroke-width:10;stroke-miterlimit:10;" d="M1285.3,725.9c-48.2-40.2-110.5-49.7-156.2-24.6
		c-31,17-45.7,45.1-51.6,58.8"/>
	<line style="fill:none;stroke:#39393A;stroke-width:7;stroke-miterlimit:10;" x1="1251" y1="703.8" x2="1258.8" y2="686"/>
	<line style="fill:none;stroke:#39393A;stroke-width:7;stroke-miterlimit:10;" x1="1262.8" y1="710.5" x2="1271.9" y2="693.4"/>
	<line style="fill:none;stroke:#39393A;stroke-width:7;stroke-miterlimit:10;" x1="1274.6" y1="717.2" x2="1284.4" y2="700.4"/>
	<line style="fill:none;stroke:#39393A;stroke-width:7;stroke-miterlimit:10;" x1="1237.3" y1="697.7" x2="1245.1" y2="679.9"/>
	<path style="fill:#FFD7C5;" d="M1183.3,1353.1c-72.6,84.8-126.4,98.7-162.7,95c-72.9-7.6-155.7-95-155.7-95l0,0v-318.3h318.3
		V1353.1z"/>
	<path style="fill:#39393A;" d="M1183.3,1082.3c0,0,0.4-0.2,0.4-0.2s-7.6,4-20.7,11.1c-127.8,69-193.5,126.1-193.5,126.1
		c-29.2,26.1-68,66.7-104.5,127v-264C964.7,1134.2,1083.5,1134.2,1183.3,1082.3L1183.3,1082.3z"/>
	
		<ellipse transform="matrix(0.9999 -1.221700e-02 1.221700e-02 0.9999 -12.094 12.5752)" style="opacity:0.5;fill:#FF8552;enable-background:new    ;" cx="1023.2" cy="996.2" rx="56.6" ry="31.4"/>
	<path style="fill:none;stroke:#39393A;stroke-width:5;stroke-miterlimit:10;" d="M924.8,983.2c64.9,14.7,132.4,13.9,197-2.4"/>
	<path style="fill:#FFFFFF;" d="M1464.2,2183.8l-956.6,4.2L625,1405.7c198.6-50.1,362.6-57.8,473.6-55.4c95,2,189.5,14.4,281.8,36.9
		c117.5,28.6,176.2,42.9,206.5,84.7c50.9,70.4,9.3,160.9-54.6,411.2C1498.6,2014.5,1476.5,2121,1464.2,2183.8z"/>
	<path style="fill:#BA4457;" d="M1392,2173.8l-936.6,5.9l117.4-782.3c245.9-66.6,504.1-74.2,753.4-22.1
		c22.1,9.2,42.6,21.7,60.9,37.2c0,0,28,23.8,47.7,55.8c39.4,64.2,31.1,151.9,28.5,175.9C1438.2,1881.9,1394.9,2155.4,1392,2173.8z"
		/>
	<path style="fill:#3C4BB4;" d="M1367.6,1918.6h-148.3l17.8-133l148.1-0.2L1367.6,1918.6z"/>
	<rect x="1222.1" y="1865.7" style="fill:#BA4457;" width="167.3" height="6.4"/>
	<rect x="1222.1" y="1833.5" style="fill:#BA4457;" width="168.7" height="6.4"/>
	<line style="fill:none;stroke:#BA4457;stroke-width:6;stroke-miterlimit:10;" x1="1288.5" y1="1779.4" x2="1269.1" y2="1928.6"/>
	<line style="fill:none;stroke:#BA4457;stroke-width:6;stroke-miterlimit:10;" x1="1335.1" y1="1779.4" x2="1315.7" y2="1928.6"/>
	<path style="fill:#3C4BB4;" d="M1184.6,1916.6h-148.3l17.8-133l148.1-0.2L1184.6,1916.6z"/>
	<rect x="1039" y="1863.7" style="fill:#BA4457;" width="167.3" height="6.4"/>
	<rect x="1039" y="1831.4" style="fill:#BA4457;" width="168.7" height="6.4"/>
	<line style="fill:none;stroke:#BA4457;stroke-width:6;stroke-miterlimit:10;" x1="1105.4" y1="1777.4" x2="1086" y2="1926.6"/>
	<line style="fill:none;stroke:#BA4457;stroke-width:6;stroke-miterlimit:10;" x1="1152.1" y1="1777.4" x2="1132.7" y2="1926.6"/>
	<path style="fill:#3C4BB4;" d="M1001,1915.6H852.7c5.9-44.3,11.9-88.7,17.8-133l148.1-0.2L1001,1915.6z"/>
	<rect x="855.5" y="1862.8" style="fill:#BA4457;" width="167.3" height="6.4"/>
	<rect x="855.5" y="1830.4" style="fill:#BA4457;" width="168.7" height="6.4"/>
	<line style="fill:none;stroke:#BA4457;stroke-width:6;stroke-miterlimit:10;" x1="921.9" y1="1776.4" x2="902.5" y2="1925.6"/>
	<line style="fill:none;stroke:#BA4457;stroke-width:6;stroke-miterlimit:10;" x1="968.5" y1="1776.4" x2="949.1" y2="1925.6"/>
	<path style="fill:#3C4BB4;" d="M817.9,1913.6H669.7c5.9-44.3,11.9-88.7,17.8-133l148.1-0.2L817.9,1913.6z"/>
	<rect x="672.4" y="1860.8" style="fill:#BA4457;" width="167.3" height="6.4"/>
	<rect x="672.4" y="1828.4" style="fill:#BA4457;" width="168.7" height="6.4"/>
	<line style="fill:none;stroke:#BA4457;stroke-width:6;stroke-miterlimit:10;" x1="738.8" y1="1774.4" x2="719.4" y2="1923.6"/>
	<line style="fill:none;stroke:#BA4457;stroke-width:6;stroke-miterlimit:10;" x1="785.5" y1="1774.4" x2="766" y2="1923.6"/>
	<path style="fill:#3C4BB4;" d="M1390.3,1759h-148.3l17.8-133l148.1-0.2L1390.3,1759z"/>
	<rect x="1244.8" y="1706.2" style="fill:#BA4457;" width="167.3" height="6.4"/>
	<rect x="1244.8" y="1673.9" style="fill:#BA4457;" width="168.7" height="6.4"/>
	<line style="fill:none;stroke:#BA4457;stroke-width:6;stroke-miterlimit:10;" x1="1311.2" y1="1619.8" x2="1291.8" y2="1769"/>
	<line style="fill:none;stroke:#BA4457;stroke-width:6;stroke-miterlimit:10;" x1="1357.9" y1="1619.8" x2="1338.4" y2="1769"/>
	<path style="fill:#3C4BB4;" d="M1207.3,1757H1059l17.8-133l148.1-0.2L1207.3,1757z"/>
	<rect x="1061.8" y="1704.2" style="fill:#BA4457;" width="167.3" height="6.4"/>
	<rect x="1061.8" y="1671.9" style="fill:#BA4457;" width="168.7" height="6.4"/>
	<line style="fill:none;stroke:#BA4457;stroke-width:6;stroke-miterlimit:10;" x1="1128.2" y1="1617.8" x2="1108.8" y2="1767"/>
	<line style="fill:none;stroke:#BA4457;stroke-width:6;stroke-miterlimit:10;" x1="1174.8" y1="1617.8" x2="1155.4" y2="1767"/>
	<path style="fill:#3C4BB4;" d="M1023.7,1756H875.5l17.8-133l148.1-0.2L1023.7,1756z"/>
	<rect x="878.2" y="1703.2" style="fill:#BA4457;" width="167.3" height="6.4"/>
	<rect x="878.2" y="1670.9" style="fill:#BA4457;" width="168.7" height="6.4"/>
	<line style="fill:none;stroke:#BA4457;stroke-width:6;stroke-miterlimit:10;" x1="944.6" y1="1616.8" x2="925.2" y2="1766"/>
	<line style="fill:none;stroke:#BA4457;stroke-width:6;stroke-miterlimit:10;" x1="991.3" y1="1616.8" x2="971.8" y2="1766"/>
	<path style="fill:#3C4BB4;" d="M840.7,1754H692.4l17.8-133l148.1-0.2L840.7,1754z"/>
	<rect x="695.2" y="1701.2" style="fill:#BA4457;" width="167.3" height="6.4"/>
	<rect x="695.1" y="1668.9" style="fill:#BA4457;" width="168.7" height="6.4"/>
	<line style="fill:none;stroke:#BA4457;stroke-width:6;stroke-miterlimit:10;" x1="761.6" y1="1614.8" x2="742.2" y2="1764"/>
	<line style="fill:none;stroke:#BA4457;stroke-width:6;stroke-miterlimit:10;" x1="808.2" y1="1614.8" x2="788.8" y2="1764"/>
	<path style="fill:#3C4BB4;" d="M1415.4,1598.4h-148.3c5.9-44.3,11.9-88.7,17.8-133l119-0.2l0,0c0,0,5.6,7.7,7.4,10.1
		c10.4,14.6,16.1,32.4,16.1,32.4l0,0C1427.5,1507.7,1422.7,1543.2,1415.4,1598.4z"/>
	<rect x="1269.9" y="1545.5" style="fill:#BA4457;" width="167.3" height="6.4"/>
	<rect x="1269.9" y="1513.2" style="fill:#BA4457;" width="161.2" height="6.4"/>
	<line style="fill:none;stroke:#BA4457;stroke-width:6;stroke-miterlimit:10;" x1="1336.3" y1="1459.2" x2="1316.9" y2="1608.4"/>
	<line style="fill:none;stroke:#BA4457;stroke-width:6;stroke-miterlimit:10;" x1="1383" y1="1459.2" x2="1363.6" y2="1608.4"/>
	<path style="fill:#3C4BB4;" d="M1232.4,1596.4h-148.3c5.9-44.3,11.9-88.7,17.8-133l148.1-0.2L1232.4,1596.4z"/>
	<rect x="1086.9" y="1543.5" style="fill:#BA4457;" width="167.3" height="6.4"/>
	<rect x="1086.9" y="1511.2" style="fill:#BA4457;" width="168.7" height="6.4"/>
	<line style="fill:none;stroke:#BA4457;stroke-width:6;stroke-miterlimit:10;" x1="1153.3" y1="1457.2" x2="1133.9" y2="1606.4"/>
	<line style="fill:none;stroke:#BA4457;stroke-width:6;stroke-miterlimit:10;" x1="1199.9" y1="1457.2" x2="1180.5" y2="1606.4"/>
	<path style="fill:#3C4BB4;" d="M1048.8,1595.4H900.6c5.9-44.3,11.9-88.7,17.8-133l148.1-0.2L1048.8,1595.4z"/>
	<rect x="903.3" y="1542.5" style="fill:#BA4457;" width="167.3" height="6.4"/>
	<rect x="903.3" y="1510.2" style="fill:#BA4457;" width="168.7" height="6.4"/>
	<line style="fill:none;stroke:#BA4457;stroke-width:6;stroke-miterlimit:10;" x1="969.7" y1="1456.2" x2="950.3" y2="1605.4"/>
	<line style="fill:none;stroke:#BA4457;stroke-width:6;stroke-miterlimit:10;" x1="1016.3" y1="1456.2" x2="996.9" y2="1605.4"/>
	<path style="fill:#3C4BB4;" d="M865.8,1593.4H717.5c5.9-44.3,11.9-88.7,17.8-133l148.1-0.2L865.8,1593.4z"/>
	<rect x="720.2" y="1540.5" style="fill:#BA4457;" width="167.3" height="6.4"/>
	<rect x="720.3" y="1508.2" style="fill:#BA4457;" width="168.7" height="6.4"/>
	<line style="fill:none;stroke:#BA4457;stroke-width:6;stroke-miterlimit:10;" x1="786.7" y1="1454.2" x2="767.3" y2="1603.4"/>
	<line style="fill:none;stroke:#BA4457;stroke-width:6;stroke-miterlimit:10;" x1="833.3" y1="1454.2" x2="813.9" y2="1603.4"/>
	<path style="fill:#FFFFFF;" d="M377.9,2283.1L377.9,2283.1c-85.2-28.5-131.1-120.7-102.5-205.9l194-578.7
		c28.5-85.1,120.7-131,205.8-102.6l0,0c85.2,28.5,131.1,120.7,102.5,205.9c0,0,0,0,0,0l-85.5,576.6c-33,28.5-97.2,75.5-190.1,95.9
		C461.3,2283.4,419.4,2286.3,377.9,2283.1z"/>
	<path style="fill:#1A1A1A;" d="M288.6,2272L288.6,2272c-85.2-28.5-131.1-120.7-102.5-205.9c0,0,0,0,0,0
		c22.6-211.1,86.8-415.7,188.7-601.9c21.6-31.4,51.8-56,87-70.7c56.9-23.6,107.5-12.9,124.2-8.6l0,0
		c85.2,28.5,131,120.7,102.5,205.9c0,0,0,0,0,0c-36.5,189.1-72.9,378.2-109.4,567.4c-21.9,25.2-76.7,81.3-166.2,105.2
		C372.3,2274.1,330.2,2277.1,288.6,2272z"/>
	<path style="fill:none;stroke:#FFFFFF;stroke-width:10;stroke-miterlimit:10;" d="M1008.8,1557.2c-7.6,1.3-84.2,13.5-142.5-43.5
		c-53.2-52-48.9-120.2-48.2-129.7c1.8-48.3,17.3-95.2,44.5-135.1c7.3,25.1,26.7,78.1,76.8,123.7c25.6,23.2,55.6,41.3,88.1,53.1
		c-11.4,26.7-18.2,55.2-20,84.2C1006.4,1525.7,1006.9,1541.6,1008.8,1557.2z"/>
	<path style="fill:none;stroke:#FFFFFF;stroke-width:10;stroke-miterlimit:10;" d="M1039.1,1557.9c9.3,1.3,85.6,11,142-44.1
		c0,0,52.5-50.6,49.3-129.6c-0.9-22.7-4.9-45.2-11.8-66.8c-7.8-24.3-19.2-47.3-33.8-68.3c-5.7,18.8-13.3,37-22.9,54.2
		c-3.7,6.7-21.5,37.7-55.8,69.5c-23.3,21.6-49.8,39.5-78.6,53C1040.1,1468.6,1044,1513.5,1039.1,1557.9L1039.1,1557.9z"/>
	
		<rect x="118.4" y="111.2" style="fill:none;stroke:#E9D758;stroke-width:15;stroke-miterlimit:10;" width="1692.8" height="1692.8"/>
	<rect x="118.4" y="111.1" style="fill:#E9D758;" width="1692.8" height="76.2"/>
	<circle style="fill:#BA4457;" cx="1674.3" cy="146.2" r="23.7"/>
	<circle style="fill:#297373;" cx="1747.8" cy="146.2" r="23.7"/>
	<circle style="fill:#FF8552;" cx="1600.3" cy="146.2" r="23.7"/>
	<rect x="123.1" y="1728.5" style="fill:#E9D758;" width="1692.8" height="76.2"/>
	<path style="fill:none;stroke:#39393A;stroke-width:7;stroke-miterlimit:10;" d="M610.5,729.9c8.4,0.3,38.1,2.3,64.3,23.6
		c16.5,13.3,28,31.7,32.6,52.4"/>
	<line style="fill:none;stroke:#39393A;stroke-width:7;stroke-miterlimit:10;" x1="621.7" y1="783.3" x2="677.1" y2="756.5"/>
	<path style="fill:none;stroke:#39393A;stroke-width:7;stroke-miterlimit:10;" d="M1452,778.5c-8.5,0.3-38.6,2.5-65.2,25.8
		c-17,14.9-28.6,35-33.1,57.1"/>
	<line style="fill:none;stroke:#39393A;stroke-width:7;stroke-miterlimit:10;" x1="1440.5" y1="836.8" x2="1384.4" y2="807.6"/>
	<path style="fill:#D6694C;" d="M1330.4,1256.4l38.4-1.1c-19.7-45.6-31.1-94.3-33.7-143.8c-3.2-59.2,6-118.4,27.1-173.8
		c-13.7,17.2-63.5,83.6-63.9,182.9C1298.1,1167.7,1309.1,1214.2,1330.4,1256.4z"/>
	<path style="fill:#D6694C;" d="M767.1,1254.9l-36.8-0.8c18.3-34.2,29.3-71.7,32.3-110.4c2.9-39.1-2.6-78.4-16.1-115.3
		c14.5,15.1,26.3,32.6,34.8,51.8C816.3,1159.7,777.1,1236.5,767.1,1254.9z"/>
	<path style="fill:#D6694C;" d="M1262.1,549c-0.9,2-140.6-2.3-173.3-79.9c-20.2-47.9,8.5-104.4,13.2-104.3s-17.8,57.3,9.7,106.7
		C1150.5,541.4,1262.9,547.2,1262.1,549z"/>
</g>
<g id="INSTA">
	<path style="fill:#E36450;" d="M155.6,973.7h317.6c55.4,0,100.3,44.9,100.3,100.3v0c0,55.4-44.9,100.3-100.3,100.3H155.6
		c-55.4,0-100.3-44.9-100.3-100.3v0C55.3,1018.6,100.2,973.7,155.6,973.7z"/>
	<path style="fill:#E36450;" d="M309.5,1244.7L309.5,1244.7l-44.6-91.4h91.4L309.5,1244.7z"/>
	<path style="fill:#FFFFFF;" d="M451.9,1011.3c-12.9,0-25.1,6.3-32.4,17l-1.5,1.9l-1-1.3c-7.1-11-19.3-17.6-32.5-17.6
		c-22.4,0-38.7,16.3-38.7,38.7c0,33.1,60,81.9,64.3,85.4c4.3,4.1,11,4.1,15.3,0c4.4-3.5,65.1-53.1,65.1-85.4
		C490.6,1027.6,474.3,1011.3,451.9,1011.3z"/>
	<path style="fill:none;stroke:#FFFFFF;stroke-width:10;stroke-miterlimit:10;" d="M220.8,1011.3c-36.4,0-66,26.7-66,59.4
		c0,11.5,3.7,22.8,10.5,32.1c-1.3,14.4-4.8,25.1-9.9,30.1c-0.9,0.9-0.9,2.2,0,3.1c0.4,0.4,1,0.7,1.6,0.6h0.3
		c0.9-0.1,21.6-3.1,36.6-11.8c8.6,3.4,17.7,5.2,26.9,5.2c36.4,0,66-26.7,66-59.4S257.2,1011.3,220.8,1011.3z"/>
</g>
</svg>
