<svg xmlns="http://www.w3.org/2000/svg" viewBox="0 0 1920 1920"><defs><style>.cls-1{fill:#ff8552;}.cls-2{fill:#ff9d7b;}.cls-19,.cls-3{fill:#1e131a;}.cls-3,.cls-4{stroke:#ccc;}.cls-11,.cls-12,.cls-15,.cls-16,.cls-18,.cls-20,.cls-25,.cls-3,.cls-4,.cls-5{stroke-miterlimit:10;}.cls-3{stroke-width:20px;}.cls-11,.cls-12,.cls-15,.cls-16,.cls-18,.cls-20,.cls-25,.cls-4,.cls-5{fill:none;}.cls-4,.cls-5{stroke-width:25px;}.cls-5{stroke:#1e131a;}.cls-6{fill:#282828;}.cls-7{fill:#ad8679;}.cls-8{fill:#39393a;}.cls-10,.cls-9{fill:#552f41;}.cls-9{opacity:0.5;}.cls-10{opacity:0.25;}.cls-11{stroke:#a5796b;}.cls-11,.cls-16,.cls-18{stroke-width:5px;}.cls-12,.cls-15,.cls-16{stroke:#39393a;}.cls-12{stroke-width:7px;}.cls-13{fill:#fff;}.cls-14{fill:#604740;}.cls-15,.cls-25{stroke-width:10px;}.cls-17{fill:#f2f2f2;}.cls-18{stroke:#f2f2f2;}.cls-20{stroke:#e9d758;stroke-width:15px;}.cls-21{fill:#e9d758;}.cls-22{fill:#297373;}.cls-23{fill:#9cb0bc;}.cls-24{fill:#e36450;}.cls-25{stroke:#fff;}</style></defs><g id="BACKGROUND"><rect class="cls-1" x="-144.56" y="-35.23" width="2183.3" height="2031.91"/></g><g id="_2ND_BACK" data-name="2ND BACK"><path class="cls-2" d="M1908.58,208h-225.4C1619,208,1567,259.14,1567,322.38s52,114.42,116.23,114.42h77.48c64.18,0,116.22,51.19,116.22,114.42s-52,114.43-116.22,114.43H1295.77c-64.19,0-116.23,51.19-116.23,114.42s52,114.43,116.23,114.43h781.87c64.19,0,116.23,51.19,116.23,114.42s-52,114.43-116.23,114.43H1521.17c-64.18,0-116.22,51.2-116.22,114.42s52,114.43,116.22,114.43h211.32c64.19,0,116.22,51.19,116.22,114.42s-52,114.43-116.22,114.43H1267.6c-64.18,0-116.22,51.19-116.22,114.43s52,114.42,116.22,114.42H1338c64.18,0,116.22,51.19,116.22,114.43s-52,114.42-116.22,114.42H633.64c-64.18,0-116.22-51.2-116.22-114.42s52-114.43,116.22-114.43h42.27c64.19,0,116.22-51.19,116.22-114.42s-52-114.43-116.22-114.43H598.42c-64.18,0-116.22-51.19-116.22-114.43s52-114.42,116.22-114.42H584.33c64.19,0,116.23-51.19,116.23-114.43s-52-114.42-116.23-114.42H-183.46c-64.19,0-116.23-51.19-116.23-114.43s52-114.42,116.23-114.42H13.76C77.94,894.5,130,843.31,130,780.07s-52-114.42-116.22-114.42H-14.41c-64.19,0-116.23-51.19-116.23-114.43S-78.6,436.8-14.41,436.8H513.87c64.19,0,116.23-51.2,116.23-114.42S578.06,208,513.87,208H246.2C182,208,130,156.76,130,93.52S182-20.9,246.2-20.9H1908.48c64.19,0,116.23,51.19,116.23,114.42S1972.67,208,1908.48,208Z"/></g><g id="ELEMENTS"><path class="cls-3" d="M1357,1547.46l-751.6-4.8c-56.49-198.42-61.07-365-55.34-476.31C560.21,870,570.65,667,719.06,557.18,816.83,484.83,933.9,483,967.91,482.4c35-.57,166.68-2.69,271.93,80.58,125.56,99.33,140,262.35,150.15,369.34,4.55,47.7,3.24,80.5-1.82,167.61C1381.71,1211.1,1371.9,1363.13,1357,1547.46Z"/><path class="cls-4" d="M937.35,521.43c-42.91,12.38-105,37.68-151.06,93.86-66.38,81-60.56,178.6-49.87,391.59,3.61,71.75,10.54,211.92,20,420.18"/><path class="cls-5" d="M961.52,513.72c-42.91,12.38-105,37.68-151.06,93.87-66.38,81-60.56,178.59-49.87,391.59,3.6,71.75,10.54,211.91,20,420.17"/><path class="cls-4" d="M1003.21,528.37c42.91,12.38,105,37.68,151.06,93.87,66.38,81,60.56,178.59,49.87,391.59-3.6,71.75-10.54,211.91-20,420.17"/><path class="cls-5" d="M979,520.67c42.91,12.38,105,37.68,151.07,93.87,66.37,81,60.55,178.59,49.86,391.59-3.6,71.74-10.53,211.91-20,420.17"/><rect class="cls-6" x="280.64" y="1469.55" width="344.72" height="664.68" rx="172.36" transform="translate(392.57 -55.09) rotate(12.25)"/><circle class="cls-7" cx="966.6" cy="852.28" r="343.74"/><circle class="cls-7" cx="1350.56" cy="843.76" r="96.92"/><ellipse class="cls-8" cx="838.27" cy="745.71" rx="83.19" ry="14.38" transform="translate(-71.62 89.3) rotate(-5.85)"/><path class="cls-9" d="M1059,1074.24c-.08,1.15-4,1.61-16.94,3-45.17,4.91-41.38,7.56-60,7.75-9.62.09-23-1.6-49.82-5-17.31-2.19-25.95-3.5-26-5.16-.23-4.27,37.49-12.19,76-12.25C1021.5,1062.53,1059.28,1070.68,1059,1074.24Z"/><path class="cls-8" d="M976.3,810.46q1.79,27.45,1.9,55t-1.48,54.72q-.88,15.47-2.31,30.88a3,3,0,0,0,3,3,3.06,3.06,0,0,0,3-3q2.52-27.37,3.37-54.89.84-27.36,0-54.74-.48-15.48-1.49-30.94a3.07,3.07,0,0,0-3-3,3,3,0,0,0-3,3Z"/><path class="cls-8" d="M977.91,954l41.47-2a3.07,3.07,0,0,0,3-3,3,3,0,0,0-3-3l-41.47,2a3.07,3.07,0,0,0-3,3,3,3,0,0,0,3,3Z"/><path class="cls-8" d="M1017,947.68q-17,18.74-33.6,37.91-4.73,5.46-9.4,11a3.09,3.09,0,0,0,0,4.24,3,3,0,0,0,4.25,0q16.4-19.31,33.31-38.16,4.83-5.37,9.69-10.71a3,3,0,0,0-4.25-4.25Z"/><circle class="cls-10" cx="758.38" cy="981.47" r="60.23"/><circle class="cls-10" cx="1185.64" cy="989.45" r="60.23"/><path class="cls-11" d="M721.31,819.84c47.7-40.17,109.45-49.69,154.77-24.64,30.72,17,45.23,45.07,51.1,58.8"/><path class="cls-11" d="M1019.41,850.93c32.94-53,88.71-81.11,139.56-71.31,34.47,6.65,57,28.87,66.78,40.11"/><line class="cls-12" x1="731.9" y1="850.66" x2="715.45" y2="860.86"/><line class="cls-12" x1="738.6" y1="861.06" x2="725.2" y2="872.38"/><line class="cls-12" x1="746.5" y1="872.38" x2="735.4" y2="884.39"/><path class="cls-13" d="M924.29,872.38s-59.23,48-112.23,38.91c-50.93-8.71-91.22-69.23-93.64-73.07h0a191.1,191.1,0,0,1,53-28.64c11.19-3.9,35.31-12.32,59.2-10.28C886.36,804.07,919.75,864,924.29,872.38Z"/><ellipse class="cls-14" cx="825.83" cy="855.76" rx="56.7" ry="54.5" transform="translate(-151.16 1533.85) rotate(-80.78)"/><path class="cls-15" d="M718.42,838.22c47.7-40.18,109.45-49.7,154.77-24.64,30.72,17,45.23,45.07,51.1,58.8"/><line class="cls-12" x1="754.37" y1="815.09" x2="746.67" y2="797.32"/><line class="cls-12" x1="742.69" y1="820.84" x2="733.66" y2="803.71"/><line class="cls-12" x1="730.99" y1="827.49" x2="721.31" y2="810.72"/><line class="cls-12" x1="1220.23" y1="845.87" x2="1236.85" y2="856.07"/><line class="cls-12" x1="1213.47" y1="856.27" x2="1227" y2="867.59"/><line class="cls-12" x1="1205.5" y1="867.59" x2="1216.7" y2="879.6"/><path class="cls-13" d="M1026,867.59s59.79,48,113.29,38.91c51.42-8.71,92.08-69.23,94.52-73.07h0a193.46,193.46,0,0,0-53.52-28.64c-11.3-3.9-35.65-12.32-59.76-10.27C1064.32,799.28,1030.62,859.17,1026,867.59Z"/><ellipse class="cls-14" cx="1125.42" cy="850.97" rx="55" ry="56.72" transform="translate(-152.12 252.13) rotate(-11.98)"/><path class="cls-15" d="M1233.84,833.43c-48.15-40.18-110.48-49.69-156.23-24.64-31,17-45.66,45.07-51.58,58.8"/><line class="cls-12" x1="1197.55" y1="810.3" x2="1205.33" y2="792.54"/><line class="cls-12" x1="1209.35" y1="816.05" x2="1218.46" y2="798.92"/><line class="cls-12" x1="1221.16" y1="822.7" x2="1230.93" y2="805.93"/><path class="cls-12" d="M1406.83,807.54c-8.86.33-40.09,2.56-67.74,26.76a107.76,107.76,0,0,0-34.36,59.3"/><line class="cls-12" x1="1394.95" y1="868.06" x2="1336.63" y2="837.73"/><path class="cls-3" d="M1120.64,548.33c-7,14.73-76.12-29-185.68-19.91-116.65,9.68-180.78,71.09-188.64,59.8-10.25-14.73,82-144.14,204.53-142.59C1048.79,446.86,1128.78,531.3,1120.64,548.33Z"/><path class="cls-9" d="M904.71,1089.61c2.55-4,31.53,23.27,76.57,23.1,48.67-.17,79.68-32.24,82.45-28.28,3.17,4.53-32.57,53.89-81.53,53.75C936.17,1138.05,901.76,1094.25,904.71,1089.61Z"/><path class="cls-13" d="M907.94,1091c-17-13.52-24.07-15.93-23.61-17.71,1.18-4.5,46.84,8.11,96.9,9a325.18,325.18,0,0,0,77.8-8.08c12.56-3.72,15.63-3.35,16.12-2.32.93,2-6.8,7.73-17.6,15.79-1,.75-8.36,7.6-12.72,9-31.54,10.46-47.31,15.69-63.55,16,0,0-30.07.49-66.81-16.33C913.64,1096,911.5,1093.86,907.94,1091Z"/><path class="cls-16" d="M883.25,1071.88a422.49,422.49,0,0,0,197-2.42"/><path class="cls-16" d="M887.74,1050.82a38.6,38.6,0,0,1-15.93,37.27"/><path class="cls-16" d="M1075.94,1049.69a38.6,38.6,0,0,0,15.93,37.27"/><path class="cls-16" d="M883.25,1072.29c6.4,6.41,41.89,40.72,98,40.42,57.38-.29,92.93-36.5,99-42.85"/><circle class="cls-17" cx="1326.73" cy="942" r="11.61"/><circle class="cls-17" cx="1333.75" cy="901.55" r="11.61"/><circle class="cls-17" cx="1367.84" cy="979.78" r="11.61"/><circle class="cls-17" cx="1404.84" cy="942" r="11.61"/><circle class="cls-17" cx="1340.89" cy="968.17" r="11.61"/><circle class="cls-17" cx="1393.24" cy="968.17" r="11.61"/><path class="cls-18" d="M1333.87,901.55c-2.68,4.5-11.65,20.79-7.14,40.45,4.17,18.15,20.3,41.18,42.88,39.71,20.81-1.35,35-22.71,37.08-40.48a43.59,43.59,0,0,0-1.86-18.16"/><ellipse class="cls-8" cx="1087.34" cy="745.71" rx="14.38" ry="83.19" transform="translate(234.71 1751.4) rotate(-84.15)"/><path class="cls-3" d="M1033.24,527.22c-6.26,9.95-30.78-5.46-82.9-6.11C879.19,520.23,843.61,548,837,537.62c-9.61-14.9,47.35-99.41,113.9-92C1003.28,451.47,1042.66,512.23,1033.24,527.22Z"/><circle class="cls-17" cx="611.26" cy="920.65" r="11.61"/><circle class="cls-17" cx="604.24" cy="880.19" r="11.61"/><circle class="cls-17" cx="570.15" cy="958.43" r="11.61"/><circle class="cls-17" cx="533.14" cy="920.65" r="11.61"/><circle class="cls-17" cx="597.1" cy="946.82" r="11.61"/><circle class="cls-17" cx="544.75" cy="946.82" r="11.61"/><path class="cls-18" d="M604.11,880.19c2.69,4.5,11.66,20.79,7.15,40.46-4.17,18.15-20.3,41.17-42.88,39.71-20.81-1.36-35-22.72-37.08-40.48a43.64,43.64,0,0,1,1.85-18.17"/><circle class="cls-7" cx="601.23" cy="835.81" r="96.92"/><path class="cls-12" d="M544.14,805.18c8.89.33,40.25,2.56,68,26.76a107.64,107.64,0,0,1,34.51,59.29"/><line class="cls-12" x1="556.07" y1="865.69" x2="614.63" y2="835.36"/><path class="cls-4" d="M866.77,535.25c-31,14.14-76.18,39.7-114.57,85.45-66.09,78.77-75.44,173.8-71.86,394.2,1.87,114.63,7.12,256.65,20,420.18"/><path class="cls-4" d="M1107.93,542c-51.78-11.78-255.39-52.26-378.75,61.75S613,939.22,617.4,1077.55c.16,5,2.64,51.23,7.62,143.61,5.81,107.79,10.67,196,14,255.14"/><rect class="cls-6" x="1310.98" y="1472.3" width="344.72" height="664.68" rx="172.36" transform="translate(-189.83 174.45) rotate(-6.33)"/><path class="cls-6" d="M1501,2307l-1048-4q97-431.35,194-862.71a1227,1227,0,0,1,686.89,10.11Q1417.43,1878.69,1501,2307Z"/><path class="cls-6" d="M453,2127.24H740.85V1417.76l-279.43,57.3c24.54,49.2,31.71,90.53,33.67,119.37,6.78,99.57-37.88,206.42-37.88,206.42h0S454.86,1982.87,453,2127.24Z"/><path class="cls-7" d="M1131.67,1406.93S1059,1818.7,980.25,1819.84C901,1821,815.7,1406.3,815.69,1406.29h0s-1.05-86-3-246.48a344.73,344.73,0,0,0,318.86-5.87c.09,166.18.14,253,.14,253Z"/><path class="cls-8" d="M1131.53,1153.94s-107,65.49-194.9,137.45a1147.9,1147.9,0,0,0-120.94,114.9q-1.43-123.12-2.86-246.24a345.43,345.43,0,0,0,318.7-6.11Z"/><path class="cls-6" d="M1483.34,2126H1195.48V1416.48l279.43,57.29c-24.54,49.2-31.71,90.53-33.67,119.38-6.78,99.57,37.88,206.42,37.88,206.42h0S1481.47,1981.59,1483.34,2126Z"/><path class="cls-19" d="M1334.21,1816.66l-130.8-.82a298.37,298.37,0,0,0,29.11-64.33c18.93-60,13.59-110.73,12.11-127.37-5.41-60.79,4.62-184.35,24.7-431.46,14-172.73,29.26-229.67,15.05-353.76a1092.36,1092.36,0,0,0-20.61-120.15l30.07,1.72a650,650,0,0,1,30,88.27c27.69,106,20.31,188.15,14.78,266.92-24,341.27-.08,429.83-20.08,509.5,0,0-5.59,71.08-5.59,132.5Z"/><path class="cls-4" d="M1059.29,536.4c42.43,13.39,102.63,39.45,151.06,93.86,99.57,111.85,82.66,266.89,67,459.34-12.35,151.36-27.45,369.87-37,646.73"/><path class="cls-4" d="M1098.37,523c45.26,25,112.15,69.7,164.91,145.61,83.29,119.84,82,246.36,70.62,555.77-8.17,222.74-16.42,400.09-21.72,508.44"/><path class="cls-4" d="M1241.57,1731.53l-38.16,84.31,144,.9q-18.08-44.67-36.13-89.33"/><rect class="cls-20" x="115.24" y="114.13" width="1692.79" height="1692.79"/><rect class="cls-21" x="115.69" y="113.08" width="1692.79" height="76.24"/><circle class="cls-22" cx="1664.21" cy="148.2" r="23.74"/><circle class="cls-23" cx="1737.73" cy="148.2" r="23.74"/><circle class="cls-1" cx="1590.17" cy="148.2" r="23.74"/><rect class="cls-21" x="111.52" y="1729.78" width="1692.79" height="76.24"/></g><g id="INSTA"><rect class="cls-24" x="32.46" y="382.11" width="518.13" height="200.57" rx="100.28"/><path class="cls-24" d="M286.64,653.11h0L242,561.73h91.38Z"/><path class="cls-13" d="M429,419.71a39.13,39.13,0,0,0-32.37,17l-1.5,1.9-1-1.27a38.58,38.58,0,0,0-32.44-17.61C339.27,419.71,323,436,323,458.43c0,33.12,60,81.93,64.33,85.44a11,11,0,0,0,15.26,0c4.39-3.54,65.16-53.12,65.16-85.44C467.73,436,451.45,419.71,429,419.71Z"/><path class="cls-25" d="M197.93,419.71c-36.39,0-66,26.65-66,59.4a54.92,54.92,0,0,0,10.49,32.12c-1.3,14.38-4.78,25.06-9.84,30.11a2.2,2.2,0,0,0,1.55,3.76l.31,0C135.33,545,156,542,171,533.34a71.77,71.77,0,0,0,26.93,5.16c36.38,0,66-26.64,66-59.39S234.31,419.71,197.93,419.71Z"/></g></svg>