<svg xmlns="http://www.w3.org/2000/svg" viewBox="0 0 1920 1920"><defs><style>.cls-1,.cls-14,.cls-9{fill:#ff8552;}.cls-2{fill:#aa4457;}.cls-3{fill:#ff9d7b;}.cls-12,.cls-13,.cls-15,.cls-16,.cls-18,.cls-22,.cls-4{fill:none;stroke-miterlimit:10;}.cls-4{stroke:#26262b;}.cls-12,.cls-22,.cls-4{stroke-width:10px;}.cls-5{fill:#26262b;}.cls-6{fill:#c14a5d;}.cls-7{fill:#ffecd7;}.cls-8{fill:#39393a;}.cls-9{opacity:0.25;}.cls-10{fill:#fff;}.cls-11{fill:#2b1811;}.cls-12,.cls-13,.cls-15{stroke:#39393a;}.cls-13{stroke-width:7px;}.cls-14{opacity:0.5;}.cls-15{stroke-width:5px;}.cls-16,.cls-22{stroke:#fff;}.cls-16{stroke-width:8px;}.cls-17{fill:#434349;}.cls-18{stroke:#297373;stroke-width:15px;}.cls-19{fill:#297373;}.cls-20{fill:#e4dfda;}.cls-21{fill:#e36450;}</style></defs><g id="BACKGROUND"><rect class="cls-1" x="-119.91" y="-55.96" width="2183.3" height="2031.91"/></g><g id="_2ND_BACK" data-name="2ND BACK"><path class="cls-2" d="M725.46,2151.86H781c15.81,0,28.63-15.64,28.63-35s-12.82-35-28.63-35H761.88c-15.8,0-28.62-15.64-28.62-35s12.82-35,28.62-35H876.36c15.81,0,28.63-15.64,28.63-35s-12.82-34.95-28.63-34.95H683.83c-15.81,0-28.62-15.64-28.62-35s12.81-35,28.62-35h137c15.8,0,28.62-15.64,28.62-35s-12.82-35-28.62-35h-52c-15.81,0-28.62-15.64-28.62-35s12.81-34.95,28.62-34.95H883.3c15.81,0,28.62-15.64,28.62-35s-12.81-35-28.62-35H866c-15.81,0-28.63-15.64-28.63-35s12.82-35,28.63-35h173.46c15.8,0,28.62,15.64,28.62,35s-12.82,35-28.62,35H1029c-15.81,0-28.62,15.64-28.62,35s12.81,35,28.62,35h19.08c15.8,0,28.62,15.64,28.62,34.95s-12.82,35-28.62,35h3.47c-15.81,0-28.62,15.64-28.62,35s12.81,35,28.62,35h189.07c15.81,0,28.62,15.64,28.62,35s-12.81,35-28.62,35h-48.57c-15.8,0-28.62,15.64-28.62,34.95s12.82,35,28.62,35H1199c15.81,0,28.62,15.64,28.62,35s-12.81,35-28.62,35H1068.91c-15.81,0-28.62,15.64-28.62,35s12.81,35,28.62,35h65.91c15.81,0,28.63,15.64,28.63,35s-12.82,34.95-28.63,34.95H725.48c-15.8,0-28.62-15.64-28.62-34.95s12.82-35,28.62-35Z"/><path class="cls-3" d="M2331.6,1710.15H2106.2a116.16,116.16,0,1,1,0-232.31h77.47a116.15,116.15,0,1,0,0-232.3H1718.78a116.16,116.16,0,1,1,0-232.31h781.88a116.16,116.16,0,1,0,0-232.31H1944.19a116.15,116.15,0,1,1,0-232.3h211.32a116.16,116.16,0,1,0,0-232.31h-464.9a116.16,116.16,0,1,1,0-232.31h70.44A116.16,116.16,0,0,0,1877.28-32.15a116.17,116.17,0,0,0-116.23-116.16H1056.66A116.17,116.17,0,0,0,940.43-32.15,116.16,116.16,0,0,0,1056.66,84h42.26a116.16,116.16,0,1,1,0,232.31h-77.49a116.16,116.16,0,1,0,0,232.31h-14.08a116.15,116.15,0,1,1,0,232.3H239.56a116.16,116.16,0,1,0,0,232.31H436.78a116.16,116.16,0,1,1,0,232.31H408.6a116.15,116.15,0,1,0,0,232.3H936.89a116.16,116.16,0,1,1,0,232.31H669.22a116.16,116.16,0,1,0,0,232.31H2331.5a116.16,116.16,0,1,0,0-232.31Z"/></g><g id="ELEMENTS"><path class="cls-4" d="M1053,1544.11l-457.56-10.63C529.42,1424.92,510,1329,522.12,1244.29c14.67-102.54,65.4-117.77,76.91-225.49,14.52-135.94-59.1-179.06-41.43-296.75,7.49-49.9,32.94-123.57,123.2-205.88h563.39c45.79,32.43,99,82.39,118.87,154.73,33.65,122.42-62.28,184.6-63.48,365.05-.92,137.08,54.05,160.5,35.06,250.18C1319.42,1358,1260.48,1454.49,1053,1544.11Z"/><path class="cls-5" d="M1079.38,1554.46l-457.55-10.63c-66.06-108.55-85.5-204.44-73.37-289.18,14.68-102.55,65.41-117.78,76.91-225.49,14.52-136-59.09-179.07-41.43-296.76,7.49-49.9,32.95-123.57,123.21-205.88h563.38c45.79,32.43,99,82.39,118.87,154.73,33.87,123.21-54.38,183.08-63.48,365-8.47,169.56,65.32,213,28.65,312.84C1330.82,1423.86,1264.87,1500.91,1079.38,1554.46Z"/><path class="cls-6" d="M706,2231.24l889.2,4.48a1337.64,1337.64,0,0,0-112.68-782.33,2912.32,2912.32,0,0,0-899.41,0A2308.78,2308.78,0,0,0,706,2231.24Z"/><ellipse class="cls-4" cx="974.22" cy="661.47" rx="371.57" ry="301.24"/><ellipse class="cls-4" cx="1046.28" cy="656.07" rx="338.76" ry="301.24"/><ellipse class="cls-5" cx="995.24" cy="644.5" rx="371.57" ry="301.24"/><circle class="cls-7" cx="989.23" cy="852.76" r="343.74"/><circle class="cls-7" cx="617.71" cy="838" r="96.92"/><circle class="cls-7" cx="1385.04" cy="843.44" r="96.92"/><ellipse class="cls-5" cx="861.28" cy="710.64" rx="14.38" ry="83.19" transform="translate(-1.31 1419.7) rotate(-78.95)"/><ellipse class="cls-5" cx="1132.48" cy="712.78" rx="83.19" ry="14.38" transform="translate(-73.7 133.39) rotate(-6.53)"/><path class="cls-8" d="M996.05,765q2.1,32.36,2.23,64.8t-1.74,64.57q-1,18.17-2.73,36.29a3,3,0,0,0,6,0q3-32.29,4-64.72t0-64.6q-.56-18.18-1.74-36.34a3.08,3.08,0,0,0-3-3,3,3,0,0,0-3,3Z"/><path class="cls-8" d="M997.4,933.63l48.88-2.3a3.07,3.07,0,0,0,3-3,3,3,0,0,0-3-3l-48.88,2.3a3.06,3.06,0,0,0-3,3,3,3,0,0,0,3,3Z"/><path class="cls-8" d="M1043.88,927.09q-20.07,22-39.55,44.6-5.58,6.48-11.12,13a3.08,3.08,0,0,0,0,4.25,3,3,0,0,0,4.24,0q19.31-22.73,39.21-44.91,5.7-6.37,11.46-12.69a3.06,3.06,0,0,0,0-4.24,3,3,0,0,0-4.24,0Z"/><circle class="cls-9" cx="774.87" cy="957.31" r="60.23"/><circle class="cls-9" cx="1185.77" cy="969.9" r="60.23"/><path class="cls-5" d="M1037.66,641.23H686.8q8.73-86.88,17.45-173.74l366.26-3a281.68,281.68,0,0,1-8.06,117.89A276.3,276.3,0,0,1,1037.66,641.23Z"/><path class="cls-5" d="M1269.53,645.23l-207.46-4c9.62-16.8,19.21-40.6,18.52-68.94-1.47-60-48.56-116.52-118.9-144.08l285.71,11.25Q1258.47,542.35,1269.53,645.23Z"/><path class="cls-10" d="M940.89,827.65s-59.23,41.81-112.22,33.91C777.73,854,737.45,801.22,735,797.87h0a200.91,200.91,0,0,1,53-25c11.19-3.4,35.31-10.74,59.2-9C903,768.11,936.35,820.31,940.89,827.65Z"/><ellipse class="cls-11" cx="842.43" cy="813.16" rx="54.58" ry="49.35" transform="translate(-49.02 54.06) rotate(-3.57)"/><path class="cls-12" d="M735,797.87c47.7-35,109.45-43.32,154.77-21.48,30.73,14.81,45.24,39.29,51.1,51.26"/><line class="cls-13" x1="771.43" y1="775.28" x2="763.73" y2="759.8"/><line class="cls-13" x1="759.05" y1="780.58" x2="750.02" y2="765.65"/><line class="cls-13" x1="745.59" y1="786.77" x2="735.91" y2="772.16"/><line class="cls-13" x1="784.4" y1="770.5" x2="778.45" y2="754.43"/><path class="cls-10" d="M1043.63,825.22s59.79,41.81,113.29,33.91c51.42-7.59,92.08-60.34,94.53-63.69h0a203.59,203.59,0,0,0-53.53-25c-11.3-3.4-35.65-10.74-59.76-9C1081.92,765.68,1048.22,817.88,1043.63,825.22Z"/><ellipse class="cls-11" cx="1143.02" cy="810.73" rx="49.36" ry="55.09" transform="translate(268.49 1905.7) rotate(-86.73)"/><path class="cls-12" d="M1251.45,795.44c-48.16-35-110.49-43.32-156.23-21.48a111,111,0,0,0-51.59,51.26"/><line class="cls-13" x1="1217.15" y1="776.15" x2="1224.93" y2="760.67"/><line class="cls-13" x1="1228.95" y1="782.04" x2="1238.06" y2="767.11"/><line class="cls-13" x1="1240.76" y1="787.83" x2="1250.53" y2="773.21"/><line class="cls-13" x1="1203.39" y1="770.79" x2="1211.17" y2="755.31"/><path class="cls-7" d="M1149.4,1421.27c-54.15,75.75-126.42,128-181.31,113.93-46.3-11.84-110.12-78.47-136.89-106.43l-.14-.15V1110.28H1149.4Z"/><path class="cls-8" d="M1149.4,1157.8s.37-.2.38-.17-7.61,4-20.73,11.08c-127.82,69-193.49,126.07-193.49,126.07-29.23,26.1-68.06,66.68-104.5,127v-264a344.31,344.31,0,0,0,318.34,0Z"/><ellipse class="cls-14" cx="989.42" cy="1071.65" rx="56.58" ry="31.42" transform="translate(-13.1 12.25) rotate(-0.7)"/><path class="cls-15" d="M890.93,1058.7a422.45,422.45,0,0,0,197-2.42"/><path class="cls-13" d="M576.56,805.43c8.41.29,38.06,2.26,64.3,23.64a93.58,93.58,0,0,1,32.63,52.38"/><line class="cls-13" x1="587.84" y1="858.89" x2="643.2" y2="832.1"/><path class="cls-13" d="M1436.09,802.77c-8.53.31-38.6,2.46-65.23,25.77a103.77,103.77,0,0,0-33.1,57.1"/><line class="cls-13" x1="1424.65" y1="861.05" x2="1368.48" y2="831.84"/><ellipse class="cls-16" cx="1385.04" cy="976.23" rx="28.59" ry="66.56"/><ellipse class="cls-16" cx="608.1" cy="976.23" rx="28.59" ry="66.56"/><circle class="cls-7" cx="628.08" cy="917.52" r="17.41"/><circle class="cls-7" cx="1366.81" cy="920.92" r="17.41"/><path class="cls-2" d="M1523.5,1594.17h-53.91c-15.35,0-27.8,16-27.8,35.81s12.45,35.8,27.8,35.8h18.53c15.35,0,27.8,16,27.8,35.81s-12.45,35.81-27.8,35.81H1376.93c-15.35,0-27.8,16-27.8,35.81s12.45,35.81,27.8,35.81h187c15.35,0,27.79,16,27.79,35.81s-12.44,35.81-27.79,35.81h-133.1c-15.35,0-27.8,16-27.8,35.81s12.45,35.81,27.8,35.81h50.54c15.36,0,27.8,16,27.8,35.8s-12.44,35.81-27.8,35.81H1370.19c-15.35,0-27.8,16-27.8,35.81s12.45,35.81,27.8,35.81H1387c15.35,0,27.8,16,27.8,35.81s-12.45,35.8-27.8,35.8H1218.56c-15.35,0-27.8-16-27.8-35.8s12.45-35.81,27.8-35.81h10.11c15.35,0,27.8-16,27.8-35.81s-12.45-35.81-27.8-35.81h-18.53c-15.36,0-27.8-16-27.8-35.81s12.44-35.8,27.8-35.8h-3.37c15.35,0,27.8-16,27.8-35.81s-12.45-35.81-27.8-35.81H1023.13c-15.36,0-27.8-16-27.8-35.81s12.44-35.8,27.8-35.8h47.17c15.35,0,27.8-16,27.8-35.81s-12.45-35.81-27.8-35.81h-6.74c-15.35,0-27.8-16-27.8-35.81s12.45-35.81,27.8-35.81h126.35c15.36,0,27.8-16,27.8-35.8s-12.44-35.81-27.8-35.81h-64c-15.35,0-27.8-16-27.8-35.81s12.45-35.81,27.8-35.81h397.59c15.35,0,27.8,16,27.8,35.81s-12.45,35.81-27.8,35.81Z"/><path class="cls-7" d="M1151.73,2319.56h0c77.41,36,167.64-1.47,201.53-83.74l230.34-559.07c33.89-82.27-1.38-178.16-78.79-214.19h0c-77.41-36-167.64,1.47-201.53,83.74l-230.34,559.07C1039.05,2187.64,1074.32,2283.54,1151.73,2319.56Z"/><path class="cls-2" d="M884.63,1618.32H837.18c-13.52,0-24.47,16-24.47,35.81s10.95,35.81,24.47,35.81h16.31c13.51,0,24.47,16,24.47,35.81s-11,35.8-24.47,35.8H755.61c-13.51,0-24.47,16-24.47,35.81s11,35.81,24.47,35.81H920.22c13.52,0,24.47,16,24.47,35.81s-11,35.81-24.47,35.81H803.07c-13.51,0-24.47,16-24.47,35.8s11,35.81,24.47,35.81h44.49c13.51,0,24.47,16,24.47,35.81s-11,35.81-24.47,35.81H749.68c-13.51,0-24.47,16-24.47,35.81s11,35.8,24.47,35.8h14.83c13.52,0,24.47,16,24.47,35.81s-11,35.81-24.47,35.81H616.21c-13.51,0-24.46-16-24.46-35.81s11-35.81,24.46-35.81h8.9c13.52,0,24.47-16,24.47-35.8s-11-35.81-24.47-35.81H608.8c-13.51,0-24.47-16-24.47-35.81s11-35.81,24.47-35.81h-3c13.52,0,24.47-16,24.47-35.81s-10.95-35.8-24.47-35.8H444.19c-13.51,0-24.47-16-24.47-35.81s11-35.81,24.47-35.81h41.52c13.51,0,24.47-16,24.47-35.81s-11-35.8-24.47-35.8h-5.93c-13.52,0-24.47-16-24.47-35.81s10.95-35.81,24.47-35.81H591c13.51,0,24.47-16,24.47-35.81s-11-35.81-24.47-35.81H534.65c-13.52,0-24.47-16-24.47-35.8s10.95-35.81,24.47-35.81h350c13.51,0,24.47,16,24.47,35.81s-11,35.8-24.47,35.8Z"/><path class="cls-7" d="M330.71,2319.56h0c77.41,36,167.64-1.47,201.53-83.74q52.23-126.75,104.45-253.52c-31.69-160.46-45-284.49-49-345.55-1.8-27.72-5-93.29-4.82-136.27,0-3.85.2-47.09.2-47.09h0C558,1468,556.31,1469,553.88,1470.62A240.47,240.47,0,0,0,520.53,1498c-104.75,102.11-214.21,436.81-214.21,436.81-15.11,46.2-33.66,103.84-54.4,170.52C247.31,2116.29,226.41,2168.94,330.71,2319.56Z"/><path class="cls-17" d="M659.52,1418.46l38.43-1.1a418.89,418.89,0,0,1-33.66-143.84,425.06,425.06,0,0,1,27.06-173.82c-13.74,17.19-63.54,83.64-63.93,182.92A299,299,0,0,0,659.52,1418.46Z"/><path class="cls-17" d="M1249.83,1406.66l-36.83-.93a329.89,329.89,0,0,0,16.13-248.11,203,203,0,0,1,34.84,56.92C1299.06,1302,1259.85,1386.52,1249.83,1406.66Z"/><path class="cls-17" d="M805.93,611.42c1.46,2.17,187,15.21,221.75-61.58,21.45-47.38-23.13-109.88-29.33-110.39s30.19,62-.83,110C953.59,617.49,804.61,609.46,805.93,611.42Z"/><rect class="cls-18" x="123.24" y="111.44" width="1692.79" height="1692.79"/><rect class="cls-19" x="123.68" y="110.39" width="1692.79" height="76.24"/><circle class="cls-6" cx="1672.21" cy="145.51" r="23.74"/><circle class="cls-20" cx="1745.72" cy="145.51" r="23.74"/><circle class="cls-1" cx="1598.16" cy="145.51" r="23.74"/><rect class="cls-19" x="119.52" y="1727.09" width="1692.79" height="76.24"/></g><g id="INSTA"><rect class="cls-21" x="62.97" y="384.4" width="518.13" height="200.57" rx="100.28"/><path class="cls-21" d="M317.16,655.4h0L272.55,564h91.38Z"/><path class="cls-10" d="M459.53,422a39.09,39.09,0,0,0-32.36,17l-1.51,1.91-1-1.28A38.55,38.55,0,0,0,392.22,422c-22.43,0-38.72,16.28-38.72,38.71,0,33.12,60,81.93,64.33,85.44a11.06,11.06,0,0,0,15.27,0c4.39-3.54,65.15-53.12,65.15-85.44C498.25,438.29,482,422,459.53,422Z"/><path class="cls-22" d="M228.44,422c-36.39,0-66,26.64-66,59.39a54.85,54.85,0,0,0,10.49,32.12c-1.3,14.38-4.79,25.06-9.85,30.12a2.2,2.2,0,0,0,1.56,3.75l.3,0c.9-.13,21.59-3.11,36.56-11.74a71.57,71.57,0,0,0,26.93,5.16c36.39,0,66-26.64,66-59.39S264.83,422,228.44,422Z"/></g></svg>