<?xml version="1.0" encoding="utf-8"?>
<!-- Generator: Adobe Illustrator 24.3.0, SVG Export Plug-In . SVG Version: 6.00 Build 0)  -->
<svg version="1.1" id="Layer_1" xmlns="http://www.w3.org/2000/svg" xmlns:xlink="http://www.w3.org/1999/xlink" x="0px" y="0px"
	 viewBox="0 0 1280 720" style="enable-background:new 0 0 1280 720;" xml:space="preserve">
<style type="text/css">
	.st0{fill:#FFFFFF;}
</style>
<g>
	<path class="st0" d="M155.4,285.7c1.9-2.8,3.5-6,5.8-8.3c39.1-39.3,78.4-78.5,117.6-117.7c6.9-6.9,13.7-13.9,20.6-20.7
		c5-4.9,11.7-5.3,16.4-1c4.6,4.2,5.1,11.2,1,16c-0.6,0.7-1.3,1.3-1.9,1.9c-34.3,34.4-68.6,68.7-103,103.1c-0.6,0.6-1.2,1.3-2.3,2.4
		c1.5-0.4,2.3-0.6,3.1-0.9c86.1-28.7,172.3-57.5,258.4-86.2c38.3-12.8,76.7-25.6,115-38.4c6.1-2,11.6-0.2,14.5,4.8
		c2.9,5,1.7,10.6-3,15c-0.5,0.5-1.1,1-1.6,1.5c-31.7,31.6-63.4,63.2-95,94.8c-12.8,12.7-25.6,25.3-38.3,38.1
		c-0.9,0.9-1.7,2.4-1.7,3.7c-0.1,35-0.1,70-0.1,105c0,0.4,0.1,0.9,0.1,1.7c0.8-0.7,1.4-1.1,1.9-1.6c14-13.9,28-27.8,42-41.7
		c25.1-25,50.1-50,75.2-74.9c2.2-2.2,5-4.4,8-5.4c6-2,12.4,2.2,13.6,8.4c0.3,1.6,0.4,3.2,0.4,4.9c0,45.6,0,91.1,0.1,136.7
		c0,4.7-1.5,8.5-4.9,11.9c-30,29.7-59.8,59.5-89.8,89.3c-16.4,16.3-32.8,32.5-49.1,48.9c-3.4,3.4-7.3,5.1-12.1,3.8
		c-8.3-2.3-11.3-12.6-5.2-18.7c14-14.2,28.3-28.3,42.5-42.4c9.2-9.2,18.5-18.3,27.7-27.5c22-21.9,44.1-43.9,66.1-65.8
		c1.4-1.4,2-2.8,2-4.8c-0.1-34.2,0-68.4,0-102.6c0-1,0-1.9,0-3.5c-1.5,1.4-2.6,2.3-3.6,3.3c-25.3,25.2-50.5,50.3-75.8,75.5
		c-13.9,13.9-27.9,27.6-41.8,41.5c-3.8,3.8-8.2,5-13.2,3.2c-4.6-1.7-7.1-5.9-7.1-11.5c0-41.6,0-83.1,0-124.7c0-1.1,0-2.1,0-3.3
		c-39.6,0-78.8,0-118.5,0c0,1.2,0,2.5,0,3.7c0,88.6,0,177.2,0,265.7c0,8.8-7.6,14.5-15.4,11.5c-4.6-1.8-7-5.3-7.4-10.2
		c-0.1-0.9,0-1.8,0-2.7c0-88.1,0-176.3,0-264.4c0-1.1,0-2.2,0-3.7c-1.2,0-2.4,0-3.5,0c-41.1,0-82.2-0.1-123.3,0.1
		c-7.1,0-12.1-2.3-14.5-9.3C155.4,288.6,155.4,287.1,155.4,285.7z M547.6,173.1c-0.1-0.1-0.1-0.2-0.2-0.3
		c-103,34.4-205.9,68.7-308.9,103.1c0,0.2,0.1,0.3,0.1,0.5c0.4,0,0.7,0,1.1,0c67.4,0,134.8,0,202.1-0.1c1.3,0,2.9-0.8,3.9-1.8
		c19.9-19.7,39.7-39.5,59.5-59.3c11.5-11.4,22.9-22.8,34.4-34.3C542.4,178.4,545,175.7,547.6,173.1z"/>
</g>
<g>
	<path class="st0" d="M727,225.7h-19.2v52.5c0,3.5,0,5.8-4.2,5.8c-4.4,0-4.4-2.4-4.4-5.8v-52.5H680c-3.1,0-4.4-1.3-4.4-3.9
		c0-2.7,1.3-3.9,4.4-3.9H727c3,0,4.4,1.2,4.4,3.9C731.3,224.5,730,225.7,727,225.7z"/>
	<path class="st0" d="M791.1,284.1c-1.6,0-2.8-1.5-4.1-3.7l-12-18.1c-2.9-4.4-5.3-7.7-10.8-7.7h-7.3v23.6c0,3.5,0,5.8-4.2,5.8
		c-4.4,0-4.4-2.4-4.4-5.8v-55.9c0-2.8,1.3-4.4,3.8-4.4h14.2c6.1,0,13.5,0.1,18.7,3.5c5.1,3.4,7.8,9.2,7.8,15.2c0,9-6.2,15-14.6,17
		c1.9,1.3,3.5,2.7,4.6,4.6l11.1,16.8c1.3,1.8,2.3,3.4,2.3,4.7C796.4,281.3,793.5,284.1,791.1,284.1z M768.5,225.3h-11.6v22h11.3
		c7.5,0,15.3-2,15.3-10.9C783.5,227.5,776,225.3,768.5,225.3z"/>
	<path class="st0" d="M853.7,282.7h-34.1c-3.1,0-6.2-0.1-6.2-3.9c0-3.8,3.1-3.8,6.2-3.8h12.7v-49.2h-12.7c-3.2,0-6.2,0-6.2-3.9
		c0-2.8,1.4-3.9,4.1-3.9h38.2c2.5,0,4,1.2,4,3.9c0,3.9-3,3.9-6.2,3.9h-12.7v49.2h12.7c3.1,0,6.2,0,6.2,3.8
		C859.7,282.6,856.7,282.7,853.7,282.7z"/>
	<path class="st0" d="M923.4,284.1c-3,0-4.1-1.3-5.5-3.7l-29.1-52.2v51.5c0,2.6-0.4,4.4-3.8,4.4c-3.5,0-3.9-1.8-3.9-4.5v-59.8
		c0-3.2,2.5-4,5.2-4c3.4,0,4.2,0.5,5.9,3.5l27.6,49.7v-48.7c0-2.7,0.3-4.4,3.6-4.4c3.9,0,4,2,4,5v59.8
		C927.4,283.1,925.7,284.1,923.4,284.1z"/>
	<path class="st0" d="M989.3,282.7h-34.1c-3.1,0-6.2-0.1-6.2-3.9c0-3.8,3.1-3.8,6.2-3.8h12.7v-49.2h-12.7c-3.2,0-6.2,0-6.2-3.9
		c0-2.8,1.4-3.9,4.1-3.9h38.2c2.5,0,4,1.2,4,3.9c0,3.9-3,3.9-6.2,3.9h-12.7v49.2h12.7c3.1,0,6.2,0,6.2,3.8
		C995.3,282.6,992.3,282.7,989.3,282.7z"/>
	<path class="st0" d="M1062.5,225.7h-19.2v52.5c0,3.5,0,5.8-4.2,5.8c-4.4,0-4.4-2.4-4.4-5.8v-52.5h-19.2c-3.1,0-4.4-1.3-4.4-3.9
		c0-2.7,1.3-3.9,4.4-3.9h46.9c3,0,4.4,1.2,4.4,3.9C1066.9,224.5,1065.5,225.7,1062.5,225.7z"/>
	<path class="st0" d="M1127.4,224.3l-18.7,33.7v20.2c0,3.5,0,5.8-4.1,5.8c-4.4,0-4.4-2.4-4.4-5.8v-20.3l-18.2-33.2
		c-1.1-2-2.1-3.5-2.1-4.8c0-1.5,3.2-4,5.3-4c1.8,0,2.6,1.7,3.9,4.1l15.5,29.5l15.2-29c1.4-2.5,2-4.5,4-4.5c2,0,5.3,2.4,5.3,4.1
		C1129.1,221.3,1128.2,222.5,1127.4,224.3z"/>
	<path class="st0" d="M703.9,393.7c-12.8,0-24.2-6.1-25.9-18.8c0-0.3-0.1-0.6-0.1-0.9c0-2.5,1.7-3.9,4.5-3.9c2.1,0,3.8,1.6,4.7,4.7
		c2.5,8.5,8.3,11.5,17.1,11.5c7.2,0,15.9-3.5,15.9-11.9c0-6.5-4.5-9.5-10.6-10.3c-12.3-1.6-29.7-2.5-29.7-19.4
		c0-12.8,12.7-19.6,24.2-19.6c8,0,16.1,2.5,20.6,9.2c1,1.5,2.4,4.4,2.4,6.8c0,2.4-1.9,4.4-4.3,4.4c-2.2,0-4-1.5-4.8-3.8
		c-2.5-6.8-7.4-9.2-14.4-9.2c-7.2,0-14.9,3.7-14.9,11.8c0,7.1,6.8,9.1,12.6,9.9c10.9,1.5,27.8,2.1,27.8,19.2
		C728.9,387.8,716.6,393.7,703.9,393.7z"/>
	<path class="st0" d="M803.5,393.4c-1.5,0-2.7-1.5-4.5-3.2l-5.7-5.6c-5.4,5.5-12.3,8.3-20.6,8.3c-20.4,0-29.1-15-29.1-33.6
		c0-17.3,10.6-34.1,29.4-34.1c18.6,0,29.6,16.9,29.6,34.1c0,7.1-1.4,13.1-4,18.3l6.5,6.5c1.8,1.8,3.4,3.1,3.4,4.6
		C808.4,390.7,805.5,393.4,803.5,393.4z M772.9,333c-14.5,0-19.6,14-19.6,26.4c0,12.5,5.2,26.3,19.6,26.3c3.1,0,10.5-1,14.4-7.1
		l-10.1-10.1c-1.7-1.8-3.4-3.2-3.4-4.7c0-1.9,3.2-4.6,4.7-4.6c1.5,0,2.6,1.2,4.4,2.9l8.4,8.4c0.9-3.3,1.4-6.8,1.4-11
		C792.6,347,787.5,333,772.9,333z"/>
	<path class="st0" d="M848.9,393.4c-14.4,0-23.6-9.5-23.6-24.4v-38c0-3.5,0-5.8,4.2-5.8c4.4,0,4.4,2.4,4.4,5.8v34.8
		c0,10.4,2.3,19.9,15.1,19.9c12.7,0,15.1-9.5,15.1-19.9V331c0-3.5,0-5.8,4.2-5.8c4.3,0,4.3,2.4,4.3,5.8v38
		C872.5,384,863.2,393.4,848.9,393.4z"/>
	<path class="st0" d="M938.3,392.9c-2.3,0-3.5-2.5-4.3-4.6l-5.9-16h-27.7l-5.9,16c-0.8,2.2-2.1,4.6-4.4,4.6c-3.1,0-4.1-2.2-4.1-3.4
		c0-1.3,0.7-2.7,1.3-4.4l20.9-55.7c1-2.7,3-4.4,6-4.4c2.9,0,5.1,1.5,6.1,4.4l20.9,55.7c0.5,1.6,1.2,3.1,1.2,4.3
		C942.4,390.7,941.2,392.9,938.3,392.9z M914.1,334.4L903,365h22.4L914.1,334.4z"/>
	<path class="st0" d="M1001.1,393.2c-1.6,0-2.8-1.5-4.1-3.7l-12-18.1c-2.9-4.4-5.3-7.7-10.8-7.7h-7.3v23.6c0,3.5,0,5.8-4.2,5.8
		c-4.4,0-4.4-2.4-4.4-5.8v-55.9c0-2.8,1.3-4.4,3.8-4.4h14.2c6.1,0,13.5,0.1,18.7,3.5c5.1,3.4,7.8,9.2,7.8,15.2c0,9-6.2,15-14.6,17
		c1.9,1.3,3.5,2.7,4.6,4.6l11.1,16.8c1.3,1.8,2.3,3.4,2.3,4.7C1006.4,390.4,1003.5,393.2,1001.1,393.2z M978.5,334.4h-11.6v22h11.3
		c7.5,0,15.3-2,15.3-10.9C993.4,336.7,986,334.4,978.5,334.4z"/>
	<path class="st0" d="M1065.6,391.8h-37.4c-2.6,0-3.7-1.5-3.7-4.4v-56c0-2.8,1.1-4.4,3.7-4.4h37.4c3,0,4.4,1.2,4.4,3.9
		c0,2.6-1.4,3.9-4.4,3.9h-32.5v18.5h16.9c3,0,4.4,0.6,4.4,3.4c0,2.6-1.4,3.2-4.4,3.2h-16.9v24.2h32.5c3,0,4.4,1.3,4.4,3.9
		C1069.9,390.7,1068.6,391.8,1065.6,391.8z"/>
	<path class="st0" d="M734.6,442.5l-20.8,53.3c-1.5,3.8-3.5,5.7-5.8,5.7h-3.1c-2.4,0-4.4-1.9-5.8-5.7l-20.9-53.3
		c-0.7-1.8-1.4-3.2-1.4-4.4c0-1.4,1.5-3.7,5.3-3.7c2.4,0,3,2.3,4.1,5.2l20.3,52.1l20.3-52.1c1.1-2.9,1.5-5.2,4-5.2
		c3.6,0.1,5.1,2.3,5.1,3.6C735.8,439.2,735.2,440.6,734.6,442.5z"/>
	<path class="st0" d="M792,500.9h-34.1c-3.1,0-6.2-0.1-6.2-3.9s3.1-3.8,6.2-3.8h12.7V444h-12.7c-3.2,0-6.2,0-6.2-3.9
		c0-2.8,1.4-3.9,4.1-3.9H794c2.5,0,4,1.2,4,3.9c0,3.9-3,3.9-6.2,3.9h-12.7v49.2h12.7c3.1,0,6.2,0,6.2,3.8S795,500.9,792,500.9z"/>
	<path class="st0" d="M835.8,500.9h-12.6c-2.5,0-3.8-1.5-3.8-4.4v-56c0-2.8,1.3-4.4,3.8-4.4H840c19.4,0,29.8,14,29.8,32.5
		C869.8,490.7,856.9,500.9,835.8,500.9z M834.4,444H828v49.2h6.8c17.5,0,25.9-6.8,25.9-24.6C860.7,450.5,851.9,444,834.4,444z"/>
	<path class="st0" d="M929,500.9h-37.4c-2.6,0-3.7-1.5-3.7-4.4v-56c0-2.8,1.1-4.4,3.7-4.4H929c3,0,4.4,1.2,4.4,3.9
		c0,2.6-1.4,3.9-4.4,3.9h-32.5v18.5h16.9c3,0,4.4,0.6,4.4,3.4c0,2.6-1.4,3.2-4.4,3.2h-16.9v24.2H929c3,0,4.4,1.3,4.4,3.9
		C933.4,499.8,932,500.9,929,500.9z"/>
	<path class="st0" d="M976.5,502.6c-19,0-29.6-16.5-29.6-34.1c0-17.9,10.2-34.1,29.6-34.1c19.2,0,29.5,16.4,29.5,34.1
		C1006,486.3,995.7,502.6,976.5,502.6z M976.5,442.1c-15,0-19.7,13.6-19.7,26.4c0,12.6,4.8,26.5,19.7,26.5
		c14.7,0,19.6-13.8,19.6-26.5C996.2,455.8,991.3,442.1,976.5,442.1z"/>
</g>
</svg>
