<svg width="44" height="36" viewBox="0 0 44 36" fill="none" xmlns="http://www.w3.org/2000/svg">
<path d="M43.5611 4.31576C41.9738 5.02123 40.2101 5.46215 38.4464 5.7267C40.2983 4.58031 41.7092 2.90483 42.3265 0.788427C40.5628 1.84663 38.711 2.5521 36.6827 2.99301C35.0954 1.22934 32.7145 0.171143 30.1572 0.171143C25.2189 0.171143 21.2506 4.1394 21.2506 9.07767C21.2506 9.78314 21.3388 10.4886 21.5152 11.1059C14.1078 10.665 7.58221 7.13763 3.17304 1.75844C2.37939 3.0812 1.93847 4.58031 1.93847 6.2558C1.93847 9.34222 3.52578 12.0759 5.90673 13.6632C4.40761 13.575 3.08486 13.2223 1.85029 12.5168V12.605C1.85029 16.926 4.93671 20.5415 8.99315 21.3352C8.28768 21.5115 7.49403 21.6879 6.61219 21.6879C5.99491 21.6879 5.46581 21.5997 4.93671 21.5115C6.08309 25.0389 9.34588 27.5962 13.226 27.6844C10.3159 30.0653 6.43583 31.5644 2.29121 31.5644C1.58574 31.5644 0.880272 31.5644 0.174805 31.4763C4.14306 34.0336 8.81678 35.4445 13.8432 35.4445C30.2454 35.4445 39.2401 21.8643 39.2401 10.0477C39.2401 9.69495 39.2401 9.25403 39.2401 8.9013C40.9156 7.66673 42.4147 6.07943 43.5611 4.31576Z" fill="#E4DFDA"/>
</svg>
